G04 #@! TF.GenerationSoftware,KiCad,Pcbnew,(5.1.10)-1*
G04 #@! TF.CreationDate,2022-03-11T11:38:26-05:00*
G04 #@! TF.ProjectId,PacMan,5061634d-616e-42e6-9b69-6361645f7063,1.3*
G04 #@! TF.SameCoordinates,Original*
G04 #@! TF.FileFunction,Soldermask,Top*
G04 #@! TF.FilePolarity,Negative*
%FSLAX46Y46*%
G04 Gerber Fmt 4.6, Leading zero omitted, Abs format (unit mm)*
G04 Created by KiCad (PCBNEW (5.1.10)-1) date 2022-03-11 11:38:26*
%MOMM*%
%LPD*%
G01*
G04 APERTURE LIST*
%ADD10C,0.300000*%
%ADD11C,0.010000*%
%ADD12O,6.602000X2.642000*%
%ADD13O,2.802000X3.402000*%
%ADD14C,1.662000*%
%ADD15C,2.102000*%
%ADD16C,4.102000*%
%ADD17O,1.829200X1.829200*%
%ADD18C,1.552000*%
%ADD19C,1.602000*%
%ADD20C,2.352000*%
%ADD21C,5.436000*%
%ADD22C,2.402000*%
%ADD23C,1.610000*%
%ADD24C,3.102000*%
%ADD25C,2.946800*%
%ADD26C,0.100000*%
G04 APERTURE END LIST*
D10*
X163223214Y-47668571D02*
X163410714Y-46168571D01*
X163982142Y-46168571D01*
X164116071Y-46240000D01*
X164178571Y-46311428D01*
X164232142Y-46454285D01*
X164205357Y-46668571D01*
X164116071Y-46811428D01*
X164035714Y-46882857D01*
X163883928Y-46954285D01*
X163312500Y-46954285D01*
X165366071Y-47668571D02*
X165464285Y-46882857D01*
X165410714Y-46740000D01*
X165276785Y-46668571D01*
X164991071Y-46668571D01*
X164839285Y-46740000D01*
X165375000Y-47597142D02*
X165223214Y-47668571D01*
X164866071Y-47668571D01*
X164732142Y-47597142D01*
X164678571Y-47454285D01*
X164696428Y-47311428D01*
X164785714Y-47168571D01*
X164937500Y-47097142D01*
X165294642Y-47097142D01*
X165446428Y-47025714D01*
X166732142Y-47597142D02*
X166580357Y-47668571D01*
X166294642Y-47668571D01*
X166160714Y-47597142D01*
X166098214Y-47525714D01*
X166044642Y-47382857D01*
X166098214Y-46954285D01*
X166187500Y-46811428D01*
X166267857Y-46740000D01*
X166419642Y-46668571D01*
X166705357Y-46668571D01*
X166839285Y-46740000D01*
X167366071Y-47668571D02*
X167553571Y-46168571D01*
X167919642Y-47240000D01*
X168553571Y-46168571D01*
X168366071Y-47668571D01*
X169723214Y-47668571D02*
X169821428Y-46882857D01*
X169767857Y-46740000D01*
X169633928Y-46668571D01*
X169348214Y-46668571D01*
X169196428Y-46740000D01*
X169732142Y-47597142D02*
X169580357Y-47668571D01*
X169223214Y-47668571D01*
X169089285Y-47597142D01*
X169035714Y-47454285D01*
X169053571Y-47311428D01*
X169142857Y-47168571D01*
X169294642Y-47097142D01*
X169651785Y-47097142D01*
X169803571Y-47025714D01*
X170562500Y-46668571D02*
X170437500Y-47668571D01*
X170544642Y-46811428D02*
X170625000Y-46740000D01*
X170776785Y-46668571D01*
X170991071Y-46668571D01*
X171125000Y-46740000D01*
X171178571Y-46882857D01*
X171080357Y-47668571D01*
X172919642Y-46668571D02*
X173151785Y-47668571D01*
X173633928Y-46668571D01*
X174866071Y-47668571D02*
X174008928Y-47668571D01*
X174437500Y-47668571D02*
X174625000Y-46168571D01*
X174455357Y-46382857D01*
X174294642Y-46525714D01*
X174142857Y-46597142D01*
X175526785Y-47525714D02*
X175589285Y-47597142D01*
X175508928Y-47668571D01*
X175446428Y-47597142D01*
X175526785Y-47525714D01*
X175508928Y-47668571D01*
X176267857Y-46168571D02*
X177196428Y-46168571D01*
X176625000Y-46740000D01*
X176839285Y-46740000D01*
X176973214Y-46811428D01*
X177035714Y-46882857D01*
X177089285Y-47025714D01*
X177044642Y-47382857D01*
X176955357Y-47525714D01*
X176875000Y-47597142D01*
X176723214Y-47668571D01*
X176294642Y-47668571D01*
X176160714Y-47597142D01*
X176098214Y-47525714D01*
X178866071Y-47097142D02*
X180008928Y-47097142D01*
X182410714Y-46168571D02*
X182276785Y-47240000D01*
X182178571Y-47454285D01*
X182017857Y-47597142D01*
X181794642Y-47668571D01*
X181651785Y-47668571D01*
X183151785Y-47668571D02*
X183017857Y-47597142D01*
X182955357Y-47525714D01*
X182901785Y-47382857D01*
X182955357Y-46954285D01*
X183044642Y-46811428D01*
X183125000Y-46740000D01*
X183276785Y-46668571D01*
X183491071Y-46668571D01*
X183625000Y-46740000D01*
X183687500Y-46811428D01*
X183741071Y-46954285D01*
X183687500Y-47382857D01*
X183598214Y-47525714D01*
X183517857Y-47597142D01*
X183366071Y-47668571D01*
X183151785Y-47668571D01*
X184419642Y-46668571D02*
X184294642Y-47668571D01*
X184401785Y-46811428D02*
X184482142Y-46740000D01*
X184633928Y-46668571D01*
X184848214Y-46668571D01*
X184982142Y-46740000D01*
X185035714Y-46882857D01*
X184937500Y-47668571D01*
X186776785Y-47240000D02*
X187491071Y-47240000D01*
X186580357Y-47668571D02*
X187267857Y-46168571D01*
X187580357Y-47668571D01*
X188080357Y-47668571D02*
X188267857Y-46168571D01*
X188196428Y-46740000D02*
X188348214Y-46668571D01*
X188633928Y-46668571D01*
X188767857Y-46740000D01*
X188830357Y-46811428D01*
X188883928Y-46954285D01*
X188830357Y-47382857D01*
X188741071Y-47525714D01*
X188660714Y-47597142D01*
X188508928Y-47668571D01*
X188223214Y-47668571D01*
X188089285Y-47597142D01*
X190017857Y-47597142D02*
X189866071Y-47668571D01*
X189580357Y-47668571D01*
X189446428Y-47597142D01*
X189392857Y-47454285D01*
X189464285Y-46882857D01*
X189553571Y-46740000D01*
X189705357Y-46668571D01*
X189991071Y-46668571D01*
X190125000Y-46740000D01*
X190178571Y-46882857D01*
X190160714Y-47025714D01*
X189428571Y-47168571D01*
X190937500Y-47668571D02*
X190803571Y-47597142D01*
X190750000Y-47454285D01*
X190910714Y-46168571D01*
D11*
G36*
X123212953Y-50521177D02*
G01*
X123386611Y-50612530D01*
X123387157Y-50613184D01*
X123435257Y-50755036D01*
X123460637Y-51000858D01*
X123461024Y-51184684D01*
X123469490Y-51510546D01*
X123536474Y-51748810D01*
X123639692Y-51921029D01*
X123836752Y-52308460D01*
X123876282Y-52681277D01*
X123760595Y-53018630D01*
X123492005Y-53299668D01*
X123486333Y-53303694D01*
X123192732Y-53468113D01*
X122933318Y-53497707D01*
X122647092Y-53397699D01*
X122610692Y-53378656D01*
X122395483Y-53274943D01*
X122245758Y-53253999D01*
X122082605Y-53310142D01*
X122028158Y-53336709D01*
X121746719Y-53447125D01*
X121538743Y-53443174D01*
X121356425Y-53328017D01*
X121247675Y-53247757D01*
X121131538Y-53234374D01*
X120946278Y-53287869D01*
X120838928Y-53328017D01*
X120442622Y-53446118D01*
X120152675Y-53450818D01*
X119948349Y-53340612D01*
X119882323Y-53258552D01*
X119797073Y-52995197D01*
X119866908Y-52696255D01*
X120094103Y-52356523D01*
X120422554Y-52022807D01*
X120709823Y-51727056D01*
X120980128Y-51388522D01*
X121158000Y-51110300D01*
X121378688Y-50764586D01*
X121605987Y-50571508D01*
X121869730Y-50515965D01*
X122199751Y-50582861D01*
X122200017Y-50582949D01*
X122469500Y-50645964D01*
X122662309Y-50618728D01*
X122706547Y-50597852D01*
X122962900Y-50515758D01*
X123212953Y-50521177D01*
G37*
X123212953Y-50521177D02*
X123386611Y-50612530D01*
X123387157Y-50613184D01*
X123435257Y-50755036D01*
X123460637Y-51000858D01*
X123461024Y-51184684D01*
X123469490Y-51510546D01*
X123536474Y-51748810D01*
X123639692Y-51921029D01*
X123836752Y-52308460D01*
X123876282Y-52681277D01*
X123760595Y-53018630D01*
X123492005Y-53299668D01*
X123486333Y-53303694D01*
X123192732Y-53468113D01*
X122933318Y-53497707D01*
X122647092Y-53397699D01*
X122610692Y-53378656D01*
X122395483Y-53274943D01*
X122245758Y-53253999D01*
X122082605Y-53310142D01*
X122028158Y-53336709D01*
X121746719Y-53447125D01*
X121538743Y-53443174D01*
X121356425Y-53328017D01*
X121247675Y-53247757D01*
X121131538Y-53234374D01*
X120946278Y-53287869D01*
X120838928Y-53328017D01*
X120442622Y-53446118D01*
X120152675Y-53450818D01*
X119948349Y-53340612D01*
X119882323Y-53258552D01*
X119797073Y-52995197D01*
X119866908Y-52696255D01*
X120094103Y-52356523D01*
X120422554Y-52022807D01*
X120709823Y-51727056D01*
X120980128Y-51388522D01*
X121158000Y-51110300D01*
X121378688Y-50764586D01*
X121605987Y-50571508D01*
X121869730Y-50515965D01*
X122199751Y-50582861D01*
X122200017Y-50582949D01*
X122469500Y-50645964D01*
X122662309Y-50618728D01*
X122706547Y-50597852D01*
X122962900Y-50515758D01*
X123212953Y-50521177D01*
G36*
X120353008Y-49707248D02*
G01*
X120589170Y-49850708D01*
X120755353Y-50088980D01*
X120839756Y-50388042D01*
X120830576Y-50713871D01*
X120716009Y-51032444D01*
X120585895Y-51212473D01*
X120308597Y-51427238D01*
X120020183Y-51473290D01*
X119875892Y-51434924D01*
X119619871Y-51245687D01*
X119465996Y-50932300D01*
X119422333Y-50574216D01*
X119487517Y-50182007D01*
X119673498Y-49889272D01*
X119965918Y-49715900D01*
X120058669Y-49692626D01*
X120353008Y-49707248D01*
G37*
X120353008Y-49707248D02*
X120589170Y-49850708D01*
X120755353Y-50088980D01*
X120839756Y-50388042D01*
X120830576Y-50713871D01*
X120716009Y-51032444D01*
X120585895Y-51212473D01*
X120308597Y-51427238D01*
X120020183Y-51473290D01*
X119875892Y-51434924D01*
X119619871Y-51245687D01*
X119465996Y-50932300D01*
X119422333Y-50574216D01*
X119487517Y-50182007D01*
X119673498Y-49889272D01*
X119965918Y-49715900D01*
X120058669Y-49692626D01*
X120353008Y-49707248D01*
G36*
X125483540Y-49798843D02*
G01*
X125625241Y-49953394D01*
X125663259Y-50179851D01*
X125604029Y-50452747D01*
X125453983Y-50746614D01*
X125219554Y-51035983D01*
X124907176Y-51295387D01*
X124826104Y-51347448D01*
X124485370Y-51496028D01*
X124206441Y-51490027D01*
X124042714Y-51386619D01*
X123937578Y-51234309D01*
X123924424Y-51050154D01*
X124005794Y-50792474D01*
X124090236Y-50607457D01*
X124315353Y-50269533D01*
X124616115Y-49989453D01*
X124946507Y-49802121D01*
X125231724Y-49741667D01*
X125483540Y-49798843D01*
G37*
X125483540Y-49798843D02*
X125625241Y-49953394D01*
X125663259Y-50179851D01*
X125604029Y-50452747D01*
X125453983Y-50746614D01*
X125219554Y-51035983D01*
X124907176Y-51295387D01*
X124826104Y-51347448D01*
X124485370Y-51496028D01*
X124206441Y-51490027D01*
X124042714Y-51386619D01*
X123937578Y-51234309D01*
X123924424Y-51050154D01*
X124005794Y-50792474D01*
X124090236Y-50607457D01*
X124315353Y-50269533D01*
X124616115Y-49989453D01*
X124946507Y-49802121D01*
X125231724Y-49741667D01*
X125483540Y-49798843D01*
G36*
X124482241Y-47828666D02*
G01*
X124612810Y-48035143D01*
X124664881Y-48325016D01*
X124624716Y-48677213D01*
X124490775Y-49045875D01*
X124317011Y-49311755D01*
X124088058Y-49543657D01*
X123851964Y-49699551D01*
X123695672Y-49741350D01*
X123566536Y-49696806D01*
X123420505Y-49609866D01*
X123270470Y-49409366D01*
X123219415Y-49118098D01*
X123259287Y-48776510D01*
X123382030Y-48425048D01*
X123579592Y-48104159D01*
X123756943Y-47920349D01*
X124040568Y-47750197D01*
X124286914Y-47726660D01*
X124482241Y-47828666D01*
G37*
X124482241Y-47828666D02*
X124612810Y-48035143D01*
X124664881Y-48325016D01*
X124624716Y-48677213D01*
X124490775Y-49045875D01*
X124317011Y-49311755D01*
X124088058Y-49543657D01*
X123851964Y-49699551D01*
X123695672Y-49741350D01*
X123566536Y-49696806D01*
X123420505Y-49609866D01*
X123270470Y-49409366D01*
X123219415Y-49118098D01*
X123259287Y-48776510D01*
X123382030Y-48425048D01*
X123579592Y-48104159D01*
X123756943Y-47920349D01*
X124040568Y-47750197D01*
X124286914Y-47726660D01*
X124482241Y-47828666D01*
G36*
X122414704Y-47700133D02*
G01*
X122594987Y-47838059D01*
X122734924Y-48055958D01*
X122770838Y-48161810D01*
X122778134Y-48473164D01*
X122681690Y-48833534D01*
X122503947Y-49179011D01*
X122344214Y-49376719D01*
X122079725Y-49571295D01*
X121803516Y-49662664D01*
X121558027Y-49645736D01*
X121385696Y-49515422D01*
X121372645Y-49493233D01*
X121283208Y-49159377D01*
X121322085Y-48782392D01*
X121470099Y-48402331D01*
X121708071Y-48059249D01*
X122016822Y-47793198D01*
X122239420Y-47683031D01*
X122414704Y-47700133D01*
G37*
X122414704Y-47700133D02*
X122594987Y-47838059D01*
X122734924Y-48055958D01*
X122770838Y-48161810D01*
X122778134Y-48473164D01*
X122681690Y-48833534D01*
X122503947Y-49179011D01*
X122344214Y-49376719D01*
X122079725Y-49571295D01*
X121803516Y-49662664D01*
X121558027Y-49645736D01*
X121385696Y-49515422D01*
X121372645Y-49493233D01*
X121283208Y-49159377D01*
X121322085Y-48782392D01*
X121470099Y-48402331D01*
X121708071Y-48059249D01*
X122016822Y-47793198D01*
X122239420Y-47683031D01*
X122414704Y-47700133D01*
G36*
X120603848Y-48727179D02*
G01*
X120564777Y-49045675D01*
X120468690Y-49286291D01*
X120333844Y-49413756D01*
X120244313Y-49421782D01*
X120143511Y-49340081D01*
X120165353Y-49160255D01*
X120311290Y-48876152D01*
X120407954Y-48727179D01*
X120607667Y-48432359D01*
X120603848Y-48727179D01*
G37*
X120603848Y-48727179D02*
X120564777Y-49045675D01*
X120468690Y-49286291D01*
X120333844Y-49413756D01*
X120244313Y-49421782D01*
X120143511Y-49340081D01*
X120165353Y-49160255D01*
X120311290Y-48876152D01*
X120407954Y-48727179D01*
X120607667Y-48432359D01*
X120603848Y-48727179D01*
G36*
X125521964Y-48690969D02*
G01*
X125528872Y-48709363D01*
X125560123Y-48912889D01*
X125547790Y-49168641D01*
X125545057Y-49186458D01*
X125491034Y-49392423D01*
X125394077Y-49476281D01*
X125289883Y-49487667D01*
X125142918Y-49463567D01*
X125124664Y-49359241D01*
X125141045Y-49297167D01*
X125216501Y-49088733D01*
X125322386Y-48839157D01*
X125331154Y-48820072D01*
X125420570Y-48642655D01*
X125474367Y-48605111D01*
X125521964Y-48690969D01*
G37*
X125521964Y-48690969D02*
X125528872Y-48709363D01*
X125560123Y-48912889D01*
X125547790Y-49168641D01*
X125545057Y-49186458D01*
X125491034Y-49392423D01*
X125394077Y-49476281D01*
X125289883Y-49487667D01*
X125142918Y-49463567D01*
X125124664Y-49359241D01*
X125141045Y-49297167D01*
X125216501Y-49088733D01*
X125322386Y-48839157D01*
X125331154Y-48820072D01*
X125420570Y-48642655D01*
X125474367Y-48605111D01*
X125521964Y-48690969D01*
G36*
X124567411Y-46762294D02*
G01*
X124578560Y-46926500D01*
X124542363Y-47251115D01*
X124457095Y-47426716D01*
X124313781Y-47468809D01*
X124269332Y-47460664D01*
X124078665Y-47413334D01*
X124257014Y-47053500D01*
X124400900Y-46804222D01*
X124506707Y-46706229D01*
X124567411Y-46762294D01*
G37*
X124567411Y-46762294D02*
X124578560Y-46926500D01*
X124542363Y-47251115D01*
X124457095Y-47426716D01*
X124313781Y-47468809D01*
X124269332Y-47460664D01*
X124078665Y-47413334D01*
X124257014Y-47053500D01*
X124400900Y-46804222D01*
X124506707Y-46706229D01*
X124567411Y-46762294D01*
G36*
X122619028Y-46990000D02*
G01*
X122595723Y-47246675D01*
X122545828Y-47379280D01*
X122448056Y-47432993D01*
X122406833Y-47440389D01*
X122253079Y-47421194D01*
X122216767Y-47355722D01*
X122259391Y-47221125D01*
X122366649Y-47009922D01*
X122428962Y-46905334D01*
X122640723Y-46566667D01*
X122619028Y-46990000D01*
G37*
X122619028Y-46990000D02*
X122595723Y-47246675D01*
X122545828Y-47379280D01*
X122448056Y-47432993D01*
X122406833Y-47440389D01*
X122253079Y-47421194D01*
X122216767Y-47355722D01*
X122259391Y-47221125D01*
X122366649Y-47009922D01*
X122428962Y-46905334D01*
X122640723Y-46566667D01*
X122619028Y-46990000D01*
D10*
X163223214Y-47668571D02*
X163410714Y-46168571D01*
X163982142Y-46168571D01*
X164116071Y-46240000D01*
X164178571Y-46311428D01*
X164232142Y-46454285D01*
X164205357Y-46668571D01*
X164116071Y-46811428D01*
X164035714Y-46882857D01*
X163883928Y-46954285D01*
X163312500Y-46954285D01*
X165366071Y-47668571D02*
X165464285Y-46882857D01*
X165410714Y-46740000D01*
X165276785Y-46668571D01*
X164991071Y-46668571D01*
X164839285Y-46740000D01*
X165375000Y-47597142D02*
X165223214Y-47668571D01*
X164866071Y-47668571D01*
X164732142Y-47597142D01*
X164678571Y-47454285D01*
X164696428Y-47311428D01*
X164785714Y-47168571D01*
X164937500Y-47097142D01*
X165294642Y-47097142D01*
X165446428Y-47025714D01*
X166732142Y-47597142D02*
X166580357Y-47668571D01*
X166294642Y-47668571D01*
X166160714Y-47597142D01*
X166098214Y-47525714D01*
X166044642Y-47382857D01*
X166098214Y-46954285D01*
X166187500Y-46811428D01*
X166267857Y-46740000D01*
X166419642Y-46668571D01*
X166705357Y-46668571D01*
X166839285Y-46740000D01*
X167366071Y-47668571D02*
X167553571Y-46168571D01*
X167919642Y-47240000D01*
X168553571Y-46168571D01*
X168366071Y-47668571D01*
X169723214Y-47668571D02*
X169821428Y-46882857D01*
X169767857Y-46740000D01*
X169633928Y-46668571D01*
X169348214Y-46668571D01*
X169196428Y-46740000D01*
X169732142Y-47597142D02*
X169580357Y-47668571D01*
X169223214Y-47668571D01*
X169089285Y-47597142D01*
X169035714Y-47454285D01*
X169053571Y-47311428D01*
X169142857Y-47168571D01*
X169294642Y-47097142D01*
X169651785Y-47097142D01*
X169803571Y-47025714D01*
X170562500Y-46668571D02*
X170437500Y-47668571D01*
X170544642Y-46811428D02*
X170625000Y-46740000D01*
X170776785Y-46668571D01*
X170991071Y-46668571D01*
X171125000Y-46740000D01*
X171178571Y-46882857D01*
X171080357Y-47668571D01*
X172919642Y-46668571D02*
X173151785Y-47668571D01*
X173633928Y-46668571D01*
X174866071Y-47668571D02*
X174008928Y-47668571D01*
X174437500Y-47668571D02*
X174625000Y-46168571D01*
X174455357Y-46382857D01*
X174294642Y-46525714D01*
X174142857Y-46597142D01*
X175526785Y-47525714D02*
X175589285Y-47597142D01*
X175508928Y-47668571D01*
X175446428Y-47597142D01*
X175526785Y-47525714D01*
X175508928Y-47668571D01*
X176267857Y-46168571D02*
X177196428Y-46168571D01*
X176625000Y-46740000D01*
X176839285Y-46740000D01*
X176973214Y-46811428D01*
X177035714Y-46882857D01*
X177089285Y-47025714D01*
X177044642Y-47382857D01*
X176955357Y-47525714D01*
X176875000Y-47597142D01*
X176723214Y-47668571D01*
X176294642Y-47668571D01*
X176160714Y-47597142D01*
X176098214Y-47525714D01*
X178866071Y-47097142D02*
X180008928Y-47097142D01*
X182410714Y-46168571D02*
X182276785Y-47240000D01*
X182178571Y-47454285D01*
X182017857Y-47597142D01*
X181794642Y-47668571D01*
X181651785Y-47668571D01*
X183151785Y-47668571D02*
X183017857Y-47597142D01*
X182955357Y-47525714D01*
X182901785Y-47382857D01*
X182955357Y-46954285D01*
X183044642Y-46811428D01*
X183125000Y-46740000D01*
X183276785Y-46668571D01*
X183491071Y-46668571D01*
X183625000Y-46740000D01*
X183687500Y-46811428D01*
X183741071Y-46954285D01*
X183687500Y-47382857D01*
X183598214Y-47525714D01*
X183517857Y-47597142D01*
X183366071Y-47668571D01*
X183151785Y-47668571D01*
X184419642Y-46668571D02*
X184294642Y-47668571D01*
X184401785Y-46811428D02*
X184482142Y-46740000D01*
X184633928Y-46668571D01*
X184848214Y-46668571D01*
X184982142Y-46740000D01*
X185035714Y-46882857D01*
X184937500Y-47668571D01*
X186776785Y-47240000D02*
X187491071Y-47240000D01*
X186580357Y-47668571D02*
X187267857Y-46168571D01*
X187580357Y-47668571D01*
X188080357Y-47668571D02*
X188267857Y-46168571D01*
X188196428Y-46740000D02*
X188348214Y-46668571D01*
X188633928Y-46668571D01*
X188767857Y-46740000D01*
X188830357Y-46811428D01*
X188883928Y-46954285D01*
X188830357Y-47382857D01*
X188741071Y-47525714D01*
X188660714Y-47597142D01*
X188508928Y-47668571D01*
X188223214Y-47668571D01*
X188089285Y-47597142D01*
X190017857Y-47597142D02*
X189866071Y-47668571D01*
X189580357Y-47668571D01*
X189446428Y-47597142D01*
X189392857Y-47454285D01*
X189464285Y-46882857D01*
X189553571Y-46740000D01*
X189705357Y-46668571D01*
X189991071Y-46668571D01*
X190125000Y-46740000D01*
X190178571Y-46882857D01*
X190160714Y-47025714D01*
X189428571Y-47168571D01*
X190937500Y-47668571D02*
X190803571Y-47597142D01*
X190750000Y-47454285D01*
X190910714Y-46168571D01*
D11*
G36*
X123212953Y-50521177D02*
G01*
X123386611Y-50612530D01*
X123387157Y-50613184D01*
X123435257Y-50755036D01*
X123460637Y-51000858D01*
X123461024Y-51184684D01*
X123469490Y-51510546D01*
X123536474Y-51748810D01*
X123639692Y-51921029D01*
X123836752Y-52308460D01*
X123876282Y-52681277D01*
X123760595Y-53018630D01*
X123492005Y-53299668D01*
X123486333Y-53303694D01*
X123192732Y-53468113D01*
X122933318Y-53497707D01*
X122647092Y-53397699D01*
X122610692Y-53378656D01*
X122395483Y-53274943D01*
X122245758Y-53253999D01*
X122082605Y-53310142D01*
X122028158Y-53336709D01*
X121746719Y-53447125D01*
X121538743Y-53443174D01*
X121356425Y-53328017D01*
X121247675Y-53247757D01*
X121131538Y-53234374D01*
X120946278Y-53287869D01*
X120838928Y-53328017D01*
X120442622Y-53446118D01*
X120152675Y-53450818D01*
X119948349Y-53340612D01*
X119882323Y-53258552D01*
X119797073Y-52995197D01*
X119866908Y-52696255D01*
X120094103Y-52356523D01*
X120422554Y-52022807D01*
X120709823Y-51727056D01*
X120980128Y-51388522D01*
X121158000Y-51110300D01*
X121378688Y-50764586D01*
X121605987Y-50571508D01*
X121869730Y-50515965D01*
X122199751Y-50582861D01*
X122200017Y-50582949D01*
X122469500Y-50645964D01*
X122662309Y-50618728D01*
X122706547Y-50597852D01*
X122962900Y-50515758D01*
X123212953Y-50521177D01*
G37*
X123212953Y-50521177D02*
X123386611Y-50612530D01*
X123387157Y-50613184D01*
X123435257Y-50755036D01*
X123460637Y-51000858D01*
X123461024Y-51184684D01*
X123469490Y-51510546D01*
X123536474Y-51748810D01*
X123639692Y-51921029D01*
X123836752Y-52308460D01*
X123876282Y-52681277D01*
X123760595Y-53018630D01*
X123492005Y-53299668D01*
X123486333Y-53303694D01*
X123192732Y-53468113D01*
X122933318Y-53497707D01*
X122647092Y-53397699D01*
X122610692Y-53378656D01*
X122395483Y-53274943D01*
X122245758Y-53253999D01*
X122082605Y-53310142D01*
X122028158Y-53336709D01*
X121746719Y-53447125D01*
X121538743Y-53443174D01*
X121356425Y-53328017D01*
X121247675Y-53247757D01*
X121131538Y-53234374D01*
X120946278Y-53287869D01*
X120838928Y-53328017D01*
X120442622Y-53446118D01*
X120152675Y-53450818D01*
X119948349Y-53340612D01*
X119882323Y-53258552D01*
X119797073Y-52995197D01*
X119866908Y-52696255D01*
X120094103Y-52356523D01*
X120422554Y-52022807D01*
X120709823Y-51727056D01*
X120980128Y-51388522D01*
X121158000Y-51110300D01*
X121378688Y-50764586D01*
X121605987Y-50571508D01*
X121869730Y-50515965D01*
X122199751Y-50582861D01*
X122200017Y-50582949D01*
X122469500Y-50645964D01*
X122662309Y-50618728D01*
X122706547Y-50597852D01*
X122962900Y-50515758D01*
X123212953Y-50521177D01*
G36*
X120353008Y-49707248D02*
G01*
X120589170Y-49850708D01*
X120755353Y-50088980D01*
X120839756Y-50388042D01*
X120830576Y-50713871D01*
X120716009Y-51032444D01*
X120585895Y-51212473D01*
X120308597Y-51427238D01*
X120020183Y-51473290D01*
X119875892Y-51434924D01*
X119619871Y-51245687D01*
X119465996Y-50932300D01*
X119422333Y-50574216D01*
X119487517Y-50182007D01*
X119673498Y-49889272D01*
X119965918Y-49715900D01*
X120058669Y-49692626D01*
X120353008Y-49707248D01*
G37*
X120353008Y-49707248D02*
X120589170Y-49850708D01*
X120755353Y-50088980D01*
X120839756Y-50388042D01*
X120830576Y-50713871D01*
X120716009Y-51032444D01*
X120585895Y-51212473D01*
X120308597Y-51427238D01*
X120020183Y-51473290D01*
X119875892Y-51434924D01*
X119619871Y-51245687D01*
X119465996Y-50932300D01*
X119422333Y-50574216D01*
X119487517Y-50182007D01*
X119673498Y-49889272D01*
X119965918Y-49715900D01*
X120058669Y-49692626D01*
X120353008Y-49707248D01*
G36*
X125483540Y-49798843D02*
G01*
X125625241Y-49953394D01*
X125663259Y-50179851D01*
X125604029Y-50452747D01*
X125453983Y-50746614D01*
X125219554Y-51035983D01*
X124907176Y-51295387D01*
X124826104Y-51347448D01*
X124485370Y-51496028D01*
X124206441Y-51490027D01*
X124042714Y-51386619D01*
X123937578Y-51234309D01*
X123924424Y-51050154D01*
X124005794Y-50792474D01*
X124090236Y-50607457D01*
X124315353Y-50269533D01*
X124616115Y-49989453D01*
X124946507Y-49802121D01*
X125231724Y-49741667D01*
X125483540Y-49798843D01*
G37*
X125483540Y-49798843D02*
X125625241Y-49953394D01*
X125663259Y-50179851D01*
X125604029Y-50452747D01*
X125453983Y-50746614D01*
X125219554Y-51035983D01*
X124907176Y-51295387D01*
X124826104Y-51347448D01*
X124485370Y-51496028D01*
X124206441Y-51490027D01*
X124042714Y-51386619D01*
X123937578Y-51234309D01*
X123924424Y-51050154D01*
X124005794Y-50792474D01*
X124090236Y-50607457D01*
X124315353Y-50269533D01*
X124616115Y-49989453D01*
X124946507Y-49802121D01*
X125231724Y-49741667D01*
X125483540Y-49798843D01*
G36*
X124482241Y-47828666D02*
G01*
X124612810Y-48035143D01*
X124664881Y-48325016D01*
X124624716Y-48677213D01*
X124490775Y-49045875D01*
X124317011Y-49311755D01*
X124088058Y-49543657D01*
X123851964Y-49699551D01*
X123695672Y-49741350D01*
X123566536Y-49696806D01*
X123420505Y-49609866D01*
X123270470Y-49409366D01*
X123219415Y-49118098D01*
X123259287Y-48776510D01*
X123382030Y-48425048D01*
X123579592Y-48104159D01*
X123756943Y-47920349D01*
X124040568Y-47750197D01*
X124286914Y-47726660D01*
X124482241Y-47828666D01*
G37*
X124482241Y-47828666D02*
X124612810Y-48035143D01*
X124664881Y-48325016D01*
X124624716Y-48677213D01*
X124490775Y-49045875D01*
X124317011Y-49311755D01*
X124088058Y-49543657D01*
X123851964Y-49699551D01*
X123695672Y-49741350D01*
X123566536Y-49696806D01*
X123420505Y-49609866D01*
X123270470Y-49409366D01*
X123219415Y-49118098D01*
X123259287Y-48776510D01*
X123382030Y-48425048D01*
X123579592Y-48104159D01*
X123756943Y-47920349D01*
X124040568Y-47750197D01*
X124286914Y-47726660D01*
X124482241Y-47828666D01*
G36*
X122414704Y-47700133D02*
G01*
X122594987Y-47838059D01*
X122734924Y-48055958D01*
X122770838Y-48161810D01*
X122778134Y-48473164D01*
X122681690Y-48833534D01*
X122503947Y-49179011D01*
X122344214Y-49376719D01*
X122079725Y-49571295D01*
X121803516Y-49662664D01*
X121558027Y-49645736D01*
X121385696Y-49515422D01*
X121372645Y-49493233D01*
X121283208Y-49159377D01*
X121322085Y-48782392D01*
X121470099Y-48402331D01*
X121708071Y-48059249D01*
X122016822Y-47793198D01*
X122239420Y-47683031D01*
X122414704Y-47700133D01*
G37*
X122414704Y-47700133D02*
X122594987Y-47838059D01*
X122734924Y-48055958D01*
X122770838Y-48161810D01*
X122778134Y-48473164D01*
X122681690Y-48833534D01*
X122503947Y-49179011D01*
X122344214Y-49376719D01*
X122079725Y-49571295D01*
X121803516Y-49662664D01*
X121558027Y-49645736D01*
X121385696Y-49515422D01*
X121372645Y-49493233D01*
X121283208Y-49159377D01*
X121322085Y-48782392D01*
X121470099Y-48402331D01*
X121708071Y-48059249D01*
X122016822Y-47793198D01*
X122239420Y-47683031D01*
X122414704Y-47700133D01*
G36*
X120603848Y-48727179D02*
G01*
X120564777Y-49045675D01*
X120468690Y-49286291D01*
X120333844Y-49413756D01*
X120244313Y-49421782D01*
X120143511Y-49340081D01*
X120165353Y-49160255D01*
X120311290Y-48876152D01*
X120407954Y-48727179D01*
X120607667Y-48432359D01*
X120603848Y-48727179D01*
G37*
X120603848Y-48727179D02*
X120564777Y-49045675D01*
X120468690Y-49286291D01*
X120333844Y-49413756D01*
X120244313Y-49421782D01*
X120143511Y-49340081D01*
X120165353Y-49160255D01*
X120311290Y-48876152D01*
X120407954Y-48727179D01*
X120607667Y-48432359D01*
X120603848Y-48727179D01*
G36*
X125521964Y-48690969D02*
G01*
X125528872Y-48709363D01*
X125560123Y-48912889D01*
X125547790Y-49168641D01*
X125545057Y-49186458D01*
X125491034Y-49392423D01*
X125394077Y-49476281D01*
X125289883Y-49487667D01*
X125142918Y-49463567D01*
X125124664Y-49359241D01*
X125141045Y-49297167D01*
X125216501Y-49088733D01*
X125322386Y-48839157D01*
X125331154Y-48820072D01*
X125420570Y-48642655D01*
X125474367Y-48605111D01*
X125521964Y-48690969D01*
G37*
X125521964Y-48690969D02*
X125528872Y-48709363D01*
X125560123Y-48912889D01*
X125547790Y-49168641D01*
X125545057Y-49186458D01*
X125491034Y-49392423D01*
X125394077Y-49476281D01*
X125289883Y-49487667D01*
X125142918Y-49463567D01*
X125124664Y-49359241D01*
X125141045Y-49297167D01*
X125216501Y-49088733D01*
X125322386Y-48839157D01*
X125331154Y-48820072D01*
X125420570Y-48642655D01*
X125474367Y-48605111D01*
X125521964Y-48690969D01*
G36*
X124567411Y-46762294D02*
G01*
X124578560Y-46926500D01*
X124542363Y-47251115D01*
X124457095Y-47426716D01*
X124313781Y-47468809D01*
X124269332Y-47460664D01*
X124078665Y-47413334D01*
X124257014Y-47053500D01*
X124400900Y-46804222D01*
X124506707Y-46706229D01*
X124567411Y-46762294D01*
G37*
X124567411Y-46762294D02*
X124578560Y-46926500D01*
X124542363Y-47251115D01*
X124457095Y-47426716D01*
X124313781Y-47468809D01*
X124269332Y-47460664D01*
X124078665Y-47413334D01*
X124257014Y-47053500D01*
X124400900Y-46804222D01*
X124506707Y-46706229D01*
X124567411Y-46762294D01*
G36*
X122619028Y-46990000D02*
G01*
X122595723Y-47246675D01*
X122545828Y-47379280D01*
X122448056Y-47432993D01*
X122406833Y-47440389D01*
X122253079Y-47421194D01*
X122216767Y-47355722D01*
X122259391Y-47221125D01*
X122366649Y-47009922D01*
X122428962Y-46905334D01*
X122640723Y-46566667D01*
X122619028Y-46990000D01*
G37*
X122619028Y-46990000D02*
X122595723Y-47246675D01*
X122545828Y-47379280D01*
X122448056Y-47432993D01*
X122406833Y-47440389D01*
X122253079Y-47421194D01*
X122216767Y-47355722D01*
X122259391Y-47221125D01*
X122366649Y-47009922D01*
X122428962Y-46905334D01*
X122640723Y-46566667D01*
X122619028Y-46990000D01*
D12*
X175755000Y-66040000D03*
X183655000Y-66040000D03*
X104000000Y-66040000D03*
X111900000Y-66040000D03*
D13*
X121965000Y-147740000D03*
X117765000Y-147740000D03*
X113565000Y-147740000D03*
X109365000Y-147740000D03*
X105165000Y-147740000D03*
X100965000Y-147740000D03*
X121965000Y-142240000D03*
X117765000Y-142240000D03*
X113565000Y-142240000D03*
X109365000Y-142240000D03*
X105165000Y-142240000D03*
G36*
G01*
X99564000Y-143681555D02*
X99564000Y-140798445D01*
G75*
G02*
X99823445Y-140539000I259445J0D01*
G01*
X102106555Y-140539000D01*
G75*
G02*
X102366000Y-140798445I0J-259445D01*
G01*
X102366000Y-143681555D01*
G75*
G02*
X102106555Y-143941000I-259445J0D01*
G01*
X99823445Y-143941000D01*
G75*
G02*
X99564000Y-143681555I0J259445D01*
G01*
G37*
X155475000Y-147740000D03*
X151275000Y-147740000D03*
X147075000Y-147740000D03*
X142875000Y-147740000D03*
X155475000Y-142240000D03*
X151275000Y-142240000D03*
X147075000Y-142240000D03*
G36*
G01*
X141474000Y-143681555D02*
X141474000Y-140798445D01*
G75*
G02*
X141733445Y-140539000I259445J0D01*
G01*
X144016555Y-140539000D01*
G75*
G02*
X144276000Y-140798445I0J-259445D01*
G01*
X144276000Y-143681555D01*
G75*
G02*
X144016555Y-143941000I-259445J0D01*
G01*
X141733445Y-143941000D01*
G75*
G02*
X141474000Y-143681555I0J259445D01*
G01*
G37*
G36*
G01*
X191926172Y-108349000D02*
X192883828Y-108349000D01*
G75*
G02*
X193156000Y-108621172I0J-272172D01*
G01*
X193156000Y-109328828D01*
G75*
G02*
X192883828Y-109601000I-272172J0D01*
G01*
X191926172Y-109601000D01*
G75*
G02*
X191654000Y-109328828I0J272172D01*
G01*
X191654000Y-108621172D01*
G75*
G02*
X191926172Y-108349000I272172J0D01*
G01*
G37*
G36*
G01*
X191926172Y-106299000D02*
X192883828Y-106299000D01*
G75*
G02*
X193156000Y-106571172I0J-272172D01*
G01*
X193156000Y-107278828D01*
G75*
G02*
X192883828Y-107551000I-272172J0D01*
G01*
X191926172Y-107551000D01*
G75*
G02*
X191654000Y-107278828I0J272172D01*
G01*
X191654000Y-106571172D01*
G75*
G02*
X191926172Y-106299000I272172J0D01*
G01*
G37*
G36*
G01*
X195423828Y-107551000D02*
X194466172Y-107551000D01*
G75*
G02*
X194194000Y-107278828I0J272172D01*
G01*
X194194000Y-106571172D01*
G75*
G02*
X194466172Y-106299000I272172J0D01*
G01*
X195423828Y-106299000D01*
G75*
G02*
X195696000Y-106571172I0J-272172D01*
G01*
X195696000Y-107278828D01*
G75*
G02*
X195423828Y-107551000I-272172J0D01*
G01*
G37*
G36*
G01*
X195423828Y-109601000D02*
X194466172Y-109601000D01*
G75*
G02*
X194194000Y-109328828I0J272172D01*
G01*
X194194000Y-108621172D01*
G75*
G02*
X194466172Y-108349000I272172J0D01*
G01*
X195423828Y-108349000D01*
G75*
G02*
X195696000Y-108621172I0J-272172D01*
G01*
X195696000Y-109328828D01*
G75*
G02*
X195423828Y-109601000I-272172J0D01*
G01*
G37*
G36*
G01*
X198619000Y-108350000D02*
X198619000Y-107550000D01*
G75*
G02*
X198670000Y-107499000I51000J0D01*
G01*
X199570000Y-107499000D01*
G75*
G02*
X199621000Y-107550000I0J-51000D01*
G01*
X199621000Y-108350000D01*
G75*
G02*
X199570000Y-108401000I-51000J0D01*
G01*
X198670000Y-108401000D01*
G75*
G02*
X198619000Y-108350000I0J51000D01*
G01*
G37*
G36*
G01*
X196619000Y-109300000D02*
X196619000Y-108500000D01*
G75*
G02*
X196670000Y-108449000I51000J0D01*
G01*
X197570000Y-108449000D01*
G75*
G02*
X197621000Y-108500000I0J-51000D01*
G01*
X197621000Y-109300000D01*
G75*
G02*
X197570000Y-109351000I-51000J0D01*
G01*
X196670000Y-109351000D01*
G75*
G02*
X196619000Y-109300000I0J51000D01*
G01*
G37*
G36*
G01*
X196619000Y-107400000D02*
X196619000Y-106600000D01*
G75*
G02*
X196670000Y-106549000I51000J0D01*
G01*
X197570000Y-106549000D01*
G75*
G02*
X197621000Y-106600000I0J-51000D01*
G01*
X197621000Y-107400000D01*
G75*
G02*
X197570000Y-107451000I-51000J0D01*
G01*
X196670000Y-107451000D01*
G75*
G02*
X196619000Y-107400000I0J51000D01*
G01*
G37*
G36*
G01*
X134130000Y-134181000D02*
X132570000Y-134181000D01*
G75*
G02*
X132519000Y-134130000I0J51000D01*
G01*
X132519000Y-132570000D01*
G75*
G02*
X132570000Y-132519000I51000J0D01*
G01*
X134130000Y-132519000D01*
G75*
G02*
X134181000Y-132570000I0J-51000D01*
G01*
X134181000Y-134130000D01*
G75*
G02*
X134130000Y-134181000I-51000J0D01*
G01*
G37*
D14*
X135890000Y-133350000D03*
X179070000Y-133350000D03*
X138430000Y-133350000D03*
X140970000Y-133350000D03*
X143510000Y-133350000D03*
X146050000Y-133350000D03*
X148590000Y-133350000D03*
X151130000Y-133350000D03*
X153670000Y-133350000D03*
X156210000Y-133350000D03*
X158750000Y-133350000D03*
X161290000Y-133350000D03*
X163830000Y-133350000D03*
X166370000Y-133350000D03*
X168910000Y-133350000D03*
X171450000Y-133350000D03*
X173990000Y-133350000D03*
X176530000Y-133350000D03*
X133350000Y-107950000D03*
X135890000Y-107950000D03*
X138430000Y-107950000D03*
X140970000Y-107950000D03*
X143510000Y-107950000D03*
X146050000Y-107950000D03*
X148590000Y-107950000D03*
X151130000Y-107950000D03*
X153670000Y-107950000D03*
X156210000Y-107950000D03*
X158750000Y-107950000D03*
X161290000Y-107950000D03*
X163830000Y-107950000D03*
X166370000Y-107950000D03*
X168910000Y-107950000D03*
X171450000Y-107950000D03*
X173990000Y-107950000D03*
X176530000Y-107950000D03*
X179070000Y-107950000D03*
G36*
G01*
X195181000Y-99216172D02*
X195181000Y-100173828D01*
G75*
G02*
X194908828Y-100446000I-272172J0D01*
G01*
X194201172Y-100446000D01*
G75*
G02*
X193929000Y-100173828I0J272172D01*
G01*
X193929000Y-99216172D01*
G75*
G02*
X194201172Y-98944000I272172J0D01*
G01*
X194908828Y-98944000D01*
G75*
G02*
X195181000Y-99216172I0J-272172D01*
G01*
G37*
G36*
G01*
X197231000Y-99216172D02*
X197231000Y-100173828D01*
G75*
G02*
X196958828Y-100446000I-272172J0D01*
G01*
X196251172Y-100446000D01*
G75*
G02*
X195979000Y-100173828I0J272172D01*
G01*
X195979000Y-99216172D01*
G75*
G02*
X196251172Y-98944000I272172J0D01*
G01*
X196958828Y-98944000D01*
G75*
G02*
X197231000Y-99216172I0J-272172D01*
G01*
G37*
G36*
G01*
X77626172Y-97409000D02*
X78583828Y-97409000D01*
G75*
G02*
X78856000Y-97681172I0J-272172D01*
G01*
X78856000Y-98388828D01*
G75*
G02*
X78583828Y-98661000I-272172J0D01*
G01*
X77626172Y-98661000D01*
G75*
G02*
X77354000Y-98388828I0J272172D01*
G01*
X77354000Y-97681172D01*
G75*
G02*
X77626172Y-97409000I272172J0D01*
G01*
G37*
G36*
G01*
X77626172Y-99459000D02*
X78583828Y-99459000D01*
G75*
G02*
X78856000Y-99731172I0J-272172D01*
G01*
X78856000Y-100438828D01*
G75*
G02*
X78583828Y-100711000I-272172J0D01*
G01*
X77626172Y-100711000D01*
G75*
G02*
X77354000Y-100438828I0J272172D01*
G01*
X77354000Y-99731172D01*
G75*
G02*
X77626172Y-99459000I272172J0D01*
G01*
G37*
G36*
G01*
X196535000Y-96276000D02*
X195895000Y-96276000D01*
G75*
G02*
X195844000Y-96225000I0J51000D01*
G01*
X195844000Y-94225000D01*
G75*
G02*
X195895000Y-94174000I51000J0D01*
G01*
X196535000Y-94174000D01*
G75*
G02*
X196586000Y-94225000I0J-51000D01*
G01*
X196586000Y-96225000D01*
G75*
G02*
X196535000Y-96276000I-51000J0D01*
G01*
G37*
G36*
G01*
X197805000Y-96276000D02*
X197165000Y-96276000D01*
G75*
G02*
X197114000Y-96225000I0J51000D01*
G01*
X197114000Y-94225000D01*
G75*
G02*
X197165000Y-94174000I51000J0D01*
G01*
X197805000Y-94174000D01*
G75*
G02*
X197856000Y-94225000I0J-51000D01*
G01*
X197856000Y-96225000D01*
G75*
G02*
X197805000Y-96276000I-51000J0D01*
G01*
G37*
G36*
G01*
X197805000Y-89976000D02*
X197165000Y-89976000D01*
G75*
G02*
X197114000Y-89925000I0J51000D01*
G01*
X197114000Y-87925000D01*
G75*
G02*
X197165000Y-87874000I51000J0D01*
G01*
X197805000Y-87874000D01*
G75*
G02*
X197856000Y-87925000I0J-51000D01*
G01*
X197856000Y-89925000D01*
G75*
G02*
X197805000Y-89976000I-51000J0D01*
G01*
G37*
G36*
G01*
X196535000Y-89976000D02*
X195895000Y-89976000D01*
G75*
G02*
X195844000Y-89925000I0J51000D01*
G01*
X195844000Y-87925000D01*
G75*
G02*
X195895000Y-87874000I51000J0D01*
G01*
X196535000Y-87874000D01*
G75*
G02*
X196586000Y-87925000I0J-51000D01*
G01*
X196586000Y-89925000D01*
G75*
G02*
X196535000Y-89976000I-51000J0D01*
G01*
G37*
G36*
G01*
X77790000Y-96276000D02*
X77150000Y-96276000D01*
G75*
G02*
X77099000Y-96225000I0J51000D01*
G01*
X77099000Y-94225000D01*
G75*
G02*
X77150000Y-94174000I51000J0D01*
G01*
X77790000Y-94174000D01*
G75*
G02*
X77841000Y-94225000I0J-51000D01*
G01*
X77841000Y-96225000D01*
G75*
G02*
X77790000Y-96276000I-51000J0D01*
G01*
G37*
G36*
G01*
X79060000Y-96276000D02*
X78420000Y-96276000D01*
G75*
G02*
X78369000Y-96225000I0J51000D01*
G01*
X78369000Y-94225000D01*
G75*
G02*
X78420000Y-94174000I51000J0D01*
G01*
X79060000Y-94174000D01*
G75*
G02*
X79111000Y-94225000I0J-51000D01*
G01*
X79111000Y-96225000D01*
G75*
G02*
X79060000Y-96276000I-51000J0D01*
G01*
G37*
G36*
G01*
X79060000Y-89976000D02*
X78420000Y-89976000D01*
G75*
G02*
X78369000Y-89925000I0J51000D01*
G01*
X78369000Y-87925000D01*
G75*
G02*
X78420000Y-87874000I51000J0D01*
G01*
X79060000Y-87874000D01*
G75*
G02*
X79111000Y-87925000I0J-51000D01*
G01*
X79111000Y-89925000D01*
G75*
G02*
X79060000Y-89976000I-51000J0D01*
G01*
G37*
G36*
G01*
X77790000Y-89976000D02*
X77150000Y-89976000D01*
G75*
G02*
X77099000Y-89925000I0J51000D01*
G01*
X77099000Y-87925000D01*
G75*
G02*
X77150000Y-87874000I51000J0D01*
G01*
X77790000Y-87874000D01*
G75*
G02*
X77841000Y-87925000I0J-51000D01*
G01*
X77841000Y-89925000D01*
G75*
G02*
X77790000Y-89976000I-51000J0D01*
G01*
G37*
G36*
G01*
X151878000Y-68376000D02*
X146878000Y-68376000D01*
G75*
G02*
X146827000Y-68325000I0J51000D01*
G01*
X146827000Y-67565000D01*
G75*
G02*
X146878000Y-67514000I51000J0D01*
G01*
X151878000Y-67514000D01*
G75*
G02*
X151929000Y-67565000I0J-51000D01*
G01*
X151929000Y-68325000D01*
G75*
G02*
X151878000Y-68376000I-51000J0D01*
G01*
G37*
G36*
G01*
X151878000Y-62026000D02*
X146878000Y-62026000D01*
G75*
G02*
X146827000Y-61975000I0J51000D01*
G01*
X146827000Y-61215000D01*
G75*
G02*
X146878000Y-61164000I51000J0D01*
G01*
X151878000Y-61164000D01*
G75*
G02*
X151929000Y-61215000I0J-51000D01*
G01*
X151929000Y-61975000D01*
G75*
G02*
X151878000Y-62026000I-51000J0D01*
G01*
G37*
G36*
G01*
X151878000Y-63296000D02*
X146878000Y-63296000D01*
G75*
G02*
X146827000Y-63245000I0J51000D01*
G01*
X146827000Y-62485000D01*
G75*
G02*
X146878000Y-62434000I51000J0D01*
G01*
X151878000Y-62434000D01*
G75*
G02*
X151929000Y-62485000I0J-51000D01*
G01*
X151929000Y-63245000D01*
G75*
G02*
X151878000Y-63296000I-51000J0D01*
G01*
G37*
G36*
G01*
X151878000Y-64566000D02*
X146878000Y-64566000D01*
G75*
G02*
X146827000Y-64515000I0J51000D01*
G01*
X146827000Y-63755000D01*
G75*
G02*
X146878000Y-63704000I51000J0D01*
G01*
X151878000Y-63704000D01*
G75*
G02*
X151929000Y-63755000I0J-51000D01*
G01*
X151929000Y-64515000D01*
G75*
G02*
X151878000Y-64566000I-51000J0D01*
G01*
G37*
G36*
G01*
X151878000Y-65836000D02*
X146878000Y-65836000D01*
G75*
G02*
X146827000Y-65785000I0J51000D01*
G01*
X146827000Y-65025000D01*
G75*
G02*
X146878000Y-64974000I51000J0D01*
G01*
X151878000Y-64974000D01*
G75*
G02*
X151929000Y-65025000I0J-51000D01*
G01*
X151929000Y-65785000D01*
G75*
G02*
X151878000Y-65836000I-51000J0D01*
G01*
G37*
G36*
G01*
X135578000Y-69221000D02*
X131078000Y-69221000D01*
G75*
G02*
X131027000Y-69170000I0J51000D01*
G01*
X131027000Y-60370000D01*
G75*
G02*
X131078000Y-60319000I51000J0D01*
G01*
X135578000Y-60319000D01*
G75*
G02*
X135629000Y-60370000I0J-51000D01*
G01*
X135629000Y-69170000D01*
G75*
G02*
X135578000Y-69221000I-51000J0D01*
G01*
G37*
G36*
G01*
X151878000Y-67106000D02*
X146878000Y-67106000D01*
G75*
G02*
X146827000Y-67055000I0J51000D01*
G01*
X146827000Y-66295000D01*
G75*
G02*
X146878000Y-66244000I51000J0D01*
G01*
X151878000Y-66244000D01*
G75*
G02*
X151929000Y-66295000I0J-51000D01*
G01*
X151929000Y-67055000D01*
G75*
G02*
X151878000Y-67106000I-51000J0D01*
G01*
G37*
D15*
X184150000Y-97790000D03*
X173990000Y-97790000D03*
D16*
X170180000Y-85090000D03*
X187960000Y-82550000D03*
D15*
X112395000Y-97790000D03*
X102235000Y-97790000D03*
D16*
X98425000Y-85090000D03*
X116205000Y-82550000D03*
G36*
G01*
X80801172Y-77869000D02*
X81758828Y-77869000D01*
G75*
G02*
X82031000Y-78141172I0J-272172D01*
G01*
X82031000Y-78848828D01*
G75*
G02*
X81758828Y-79121000I-272172J0D01*
G01*
X80801172Y-79121000D01*
G75*
G02*
X80529000Y-78848828I0J272172D01*
G01*
X80529000Y-78141172D01*
G75*
G02*
X80801172Y-77869000I272172J0D01*
G01*
G37*
G36*
G01*
X80801172Y-75819000D02*
X81758828Y-75819000D01*
G75*
G02*
X82031000Y-76091172I0J-272172D01*
G01*
X82031000Y-76798828D01*
G75*
G02*
X81758828Y-77071000I-272172J0D01*
G01*
X80801172Y-77071000D01*
G75*
G02*
X80529000Y-76798828I0J272172D01*
G01*
X80529000Y-76091172D01*
G75*
G02*
X80801172Y-75819000I272172J0D01*
G01*
G37*
G36*
G01*
X201015400Y-61188600D02*
X201015400Y-59461400D01*
G75*
G02*
X201066400Y-59410400I51000J0D01*
G01*
X202793600Y-59410400D01*
G75*
G02*
X202844600Y-59461400I0J-51000D01*
G01*
X202844600Y-61188600D01*
G75*
G02*
X202793600Y-61239600I-51000J0D01*
G01*
X201066400Y-61239600D01*
G75*
G02*
X201015400Y-61188600I0J51000D01*
G01*
G37*
D17*
X204470000Y-60325000D03*
X201930000Y-62865000D03*
X204470000Y-62865000D03*
X201930000Y-65405000D03*
X204470000Y-65405000D03*
G36*
G01*
X203719000Y-76845001D02*
X203719000Y-76194999D01*
G75*
G02*
X203769999Y-76144000I50999J0D01*
G01*
X204830001Y-76144000D01*
G75*
G02*
X204881000Y-76194999I0J-50999D01*
G01*
X204881000Y-76845001D01*
G75*
G02*
X204830001Y-76896000I-50999J0D01*
G01*
X203769999Y-76896000D01*
G75*
G02*
X203719000Y-76845001I0J50999D01*
G01*
G37*
G36*
G01*
X203719000Y-78745001D02*
X203719000Y-78094999D01*
G75*
G02*
X203769999Y-78044000I50999J0D01*
G01*
X204830001Y-78044000D01*
G75*
G02*
X204881000Y-78094999I0J-50999D01*
G01*
X204881000Y-78745001D01*
G75*
G02*
X204830001Y-78796000I-50999J0D01*
G01*
X203769999Y-78796000D01*
G75*
G02*
X203719000Y-78745001I0J50999D01*
G01*
G37*
G36*
G01*
X201519000Y-78745001D02*
X201519000Y-78094999D01*
G75*
G02*
X201569999Y-78044000I50999J0D01*
G01*
X202630001Y-78044000D01*
G75*
G02*
X202681000Y-78094999I0J-50999D01*
G01*
X202681000Y-78745001D01*
G75*
G02*
X202630001Y-78796000I-50999J0D01*
G01*
X201569999Y-78796000D01*
G75*
G02*
X201519000Y-78745001I0J50999D01*
G01*
G37*
G36*
G01*
X201519000Y-77795001D02*
X201519000Y-77144999D01*
G75*
G02*
X201569999Y-77094000I50999J0D01*
G01*
X202630001Y-77094000D01*
G75*
G02*
X202681000Y-77144999I0J-50999D01*
G01*
X202681000Y-77795001D01*
G75*
G02*
X202630001Y-77846000I-50999J0D01*
G01*
X201569999Y-77846000D01*
G75*
G02*
X201519000Y-77795001I0J50999D01*
G01*
G37*
G36*
G01*
X201519000Y-76845001D02*
X201519000Y-76194999D01*
G75*
G02*
X201569999Y-76144000I50999J0D01*
G01*
X202630001Y-76144000D01*
G75*
G02*
X202681000Y-76194999I0J-50999D01*
G01*
X202681000Y-76845001D01*
G75*
G02*
X202630001Y-76896000I-50999J0D01*
G01*
X201569999Y-76896000D01*
G75*
G02*
X201519000Y-76845001I0J50999D01*
G01*
G37*
G36*
G01*
X205896172Y-77869000D02*
X206853828Y-77869000D01*
G75*
G02*
X207126000Y-78141172I0J-272172D01*
G01*
X207126000Y-78848828D01*
G75*
G02*
X206853828Y-79121000I-272172J0D01*
G01*
X205896172Y-79121000D01*
G75*
G02*
X205624000Y-78848828I0J272172D01*
G01*
X205624000Y-78141172D01*
G75*
G02*
X205896172Y-77869000I272172J0D01*
G01*
G37*
G36*
G01*
X205896172Y-75819000D02*
X206853828Y-75819000D01*
G75*
G02*
X207126000Y-76091172I0J-272172D01*
G01*
X207126000Y-76798828D01*
G75*
G02*
X206853828Y-77071000I-272172J0D01*
G01*
X205896172Y-77071000D01*
G75*
G02*
X205624000Y-76798828I0J272172D01*
G01*
X205624000Y-76091172D01*
G75*
G02*
X205896172Y-75819000I272172J0D01*
G01*
G37*
G36*
G01*
X153920000Y-67329000D02*
X155370000Y-67329000D01*
G75*
G02*
X155421000Y-67380000I0J-51000D01*
G01*
X155421000Y-67830000D01*
G75*
G02*
X155370000Y-67881000I-51000J0D01*
G01*
X153920000Y-67881000D01*
G75*
G02*
X153869000Y-67830000I0J51000D01*
G01*
X153869000Y-67380000D01*
G75*
G02*
X153920000Y-67329000I51000J0D01*
G01*
G37*
G36*
G01*
X153920000Y-67979000D02*
X155370000Y-67979000D01*
G75*
G02*
X155421000Y-68030000I0J-51000D01*
G01*
X155421000Y-68480000D01*
G75*
G02*
X155370000Y-68531000I-51000J0D01*
G01*
X153920000Y-68531000D01*
G75*
G02*
X153869000Y-68480000I0J51000D01*
G01*
X153869000Y-68030000D01*
G75*
G02*
X153920000Y-67979000I51000J0D01*
G01*
G37*
G36*
G01*
X153920000Y-68629000D02*
X155370000Y-68629000D01*
G75*
G02*
X155421000Y-68680000I0J-51000D01*
G01*
X155421000Y-69130000D01*
G75*
G02*
X155370000Y-69181000I-51000J0D01*
G01*
X153920000Y-69181000D01*
G75*
G02*
X153869000Y-69130000I0J51000D01*
G01*
X153869000Y-68680000D01*
G75*
G02*
X153920000Y-68629000I51000J0D01*
G01*
G37*
G36*
G01*
X153920000Y-69279000D02*
X155370000Y-69279000D01*
G75*
G02*
X155421000Y-69330000I0J-51000D01*
G01*
X155421000Y-69780000D01*
G75*
G02*
X155370000Y-69831000I-51000J0D01*
G01*
X153920000Y-69831000D01*
G75*
G02*
X153869000Y-69780000I0J51000D01*
G01*
X153869000Y-69330000D01*
G75*
G02*
X153920000Y-69279000I51000J0D01*
G01*
G37*
G36*
G01*
X158320000Y-69279000D02*
X159770000Y-69279000D01*
G75*
G02*
X159821000Y-69330000I0J-51000D01*
G01*
X159821000Y-69780000D01*
G75*
G02*
X159770000Y-69831000I-51000J0D01*
G01*
X158320000Y-69831000D01*
G75*
G02*
X158269000Y-69780000I0J51000D01*
G01*
X158269000Y-69330000D01*
G75*
G02*
X158320000Y-69279000I51000J0D01*
G01*
G37*
G36*
G01*
X158320000Y-68629000D02*
X159770000Y-68629000D01*
G75*
G02*
X159821000Y-68680000I0J-51000D01*
G01*
X159821000Y-69130000D01*
G75*
G02*
X159770000Y-69181000I-51000J0D01*
G01*
X158320000Y-69181000D01*
G75*
G02*
X158269000Y-69130000I0J51000D01*
G01*
X158269000Y-68680000D01*
G75*
G02*
X158320000Y-68629000I51000J0D01*
G01*
G37*
G36*
G01*
X158320000Y-67979000D02*
X159770000Y-67979000D01*
G75*
G02*
X159821000Y-68030000I0J-51000D01*
G01*
X159821000Y-68480000D01*
G75*
G02*
X159770000Y-68531000I-51000J0D01*
G01*
X158320000Y-68531000D01*
G75*
G02*
X158269000Y-68480000I0J51000D01*
G01*
X158269000Y-68030000D01*
G75*
G02*
X158320000Y-67979000I51000J0D01*
G01*
G37*
G36*
G01*
X158320000Y-67329000D02*
X159770000Y-67329000D01*
G75*
G02*
X159821000Y-67380000I0J-51000D01*
G01*
X159821000Y-67830000D01*
G75*
G02*
X159770000Y-67881000I-51000J0D01*
G01*
X158320000Y-67881000D01*
G75*
G02*
X158269000Y-67830000I0J51000D01*
G01*
X158269000Y-67380000D01*
G75*
G02*
X158320000Y-67329000I51000J0D01*
G01*
G37*
G36*
G01*
X199546172Y-77869000D02*
X200503828Y-77869000D01*
G75*
G02*
X200776000Y-78141172I0J-272172D01*
G01*
X200776000Y-78848828D01*
G75*
G02*
X200503828Y-79121000I-272172J0D01*
G01*
X199546172Y-79121000D01*
G75*
G02*
X199274000Y-78848828I0J272172D01*
G01*
X199274000Y-78141172D01*
G75*
G02*
X199546172Y-77869000I272172J0D01*
G01*
G37*
G36*
G01*
X199546172Y-75819000D02*
X200503828Y-75819000D01*
G75*
G02*
X200776000Y-76091172I0J-272172D01*
G01*
X200776000Y-76798828D01*
G75*
G02*
X200503828Y-77071000I-272172J0D01*
G01*
X199546172Y-77071000D01*
G75*
G02*
X199274000Y-76798828I0J272172D01*
G01*
X199274000Y-76091172D01*
G75*
G02*
X199546172Y-75819000I272172J0D01*
G01*
G37*
G36*
G01*
X157244000Y-65883828D02*
X157244000Y-64926172D01*
G75*
G02*
X157516172Y-64654000I272172J0D01*
G01*
X158223828Y-64654000D01*
G75*
G02*
X158496000Y-64926172I0J-272172D01*
G01*
X158496000Y-65883828D01*
G75*
G02*
X158223828Y-66156000I-272172J0D01*
G01*
X157516172Y-66156000D01*
G75*
G02*
X157244000Y-65883828I0J272172D01*
G01*
G37*
G36*
G01*
X155194000Y-65883828D02*
X155194000Y-64926172D01*
G75*
G02*
X155466172Y-64654000I272172J0D01*
G01*
X156173828Y-64654000D01*
G75*
G02*
X156446000Y-64926172I0J-272172D01*
G01*
X156446000Y-65883828D01*
G75*
G02*
X156173828Y-66156000I-272172J0D01*
G01*
X155466172Y-66156000D01*
G75*
G02*
X155194000Y-65883828I0J272172D01*
G01*
G37*
G36*
G01*
X132469000Y-101565000D02*
X132469000Y-100365000D01*
G75*
G02*
X132520000Y-100314000I51000J0D01*
G01*
X133420000Y-100314000D01*
G75*
G02*
X133471000Y-100365000I0J-51000D01*
G01*
X133471000Y-101565000D01*
G75*
G02*
X133420000Y-101616000I-51000J0D01*
G01*
X132520000Y-101616000D01*
G75*
G02*
X132469000Y-101565000I0J51000D01*
G01*
G37*
G36*
G01*
X135769000Y-101565000D02*
X135769000Y-100365000D01*
G75*
G02*
X135820000Y-100314000I51000J0D01*
G01*
X136720000Y-100314000D01*
G75*
G02*
X136771000Y-100365000I0J-51000D01*
G01*
X136771000Y-101565000D01*
G75*
G02*
X136720000Y-101616000I-51000J0D01*
G01*
X135820000Y-101616000D01*
G75*
G02*
X135769000Y-101565000I0J51000D01*
G01*
G37*
D18*
X83185000Y-81915000D03*
X83185000Y-84455000D03*
X83185000Y-86995000D03*
X83185000Y-89535000D03*
X83185000Y-94615000D03*
X83185000Y-97155000D03*
G36*
G01*
X83961000Y-98970000D02*
X83961000Y-100420000D01*
G75*
G02*
X83910000Y-100471000I-51000J0D01*
G01*
X82460000Y-100471000D01*
G75*
G02*
X82409000Y-100420000I0J51000D01*
G01*
X82409000Y-98970000D01*
G75*
G02*
X82460000Y-98919000I51000J0D01*
G01*
X83910000Y-98919000D01*
G75*
G02*
X83961000Y-98970000I0J-51000D01*
G01*
G37*
G36*
G01*
X202706000Y-98970000D02*
X202706000Y-100420000D01*
G75*
G02*
X202655000Y-100471000I-51000J0D01*
G01*
X201205000Y-100471000D01*
G75*
G02*
X201154000Y-100420000I0J51000D01*
G01*
X201154000Y-98970000D01*
G75*
G02*
X201205000Y-98919000I51000J0D01*
G01*
X202655000Y-98919000D01*
G75*
G02*
X202706000Y-98970000I0J-51000D01*
G01*
G37*
X201930000Y-97155000D03*
X201930000Y-94615000D03*
X201930000Y-89535000D03*
X201930000Y-86995000D03*
X201930000Y-84455000D03*
X201930000Y-81915000D03*
G36*
G01*
X108964000Y-58420000D02*
X108964000Y-54610000D01*
G75*
G02*
X109015000Y-54559000I51000J0D01*
G01*
X114515000Y-54559000D01*
G75*
G02*
X114566000Y-54610000I0J-51000D01*
G01*
X114566000Y-58420000D01*
G75*
G02*
X114515000Y-58471000I-51000J0D01*
G01*
X109015000Y-58471000D01*
G75*
G02*
X108964000Y-58420000I0J51000D01*
G01*
G37*
G36*
G01*
X101334000Y-58420000D02*
X101334000Y-54610000D01*
G75*
G02*
X101385000Y-54559000I51000J0D01*
G01*
X106885000Y-54559000D01*
G75*
G02*
X106936000Y-54610000I0J-51000D01*
G01*
X106936000Y-58420000D01*
G75*
G02*
X106885000Y-58471000I-51000J0D01*
G01*
X101385000Y-58471000D01*
G75*
G02*
X101334000Y-58420000I0J51000D01*
G01*
G37*
G36*
G01*
X186321000Y-54610000D02*
X186321000Y-58420000D01*
G75*
G02*
X186270000Y-58471000I-51000J0D01*
G01*
X180770000Y-58471000D01*
G75*
G02*
X180719000Y-58420000I0J51000D01*
G01*
X180719000Y-54610000D01*
G75*
G02*
X180770000Y-54559000I51000J0D01*
G01*
X186270000Y-54559000D01*
G75*
G02*
X186321000Y-54610000I0J-51000D01*
G01*
G37*
G36*
G01*
X178691000Y-54610000D02*
X178691000Y-58420000D01*
G75*
G02*
X178640000Y-58471000I-51000J0D01*
G01*
X173140000Y-58471000D01*
G75*
G02*
X173089000Y-58420000I0J51000D01*
G01*
X173089000Y-54610000D01*
G75*
G02*
X173140000Y-54559000I51000J0D01*
G01*
X178640000Y-54559000D01*
G75*
G02*
X178691000Y-54610000I0J-51000D01*
G01*
G37*
G36*
G01*
X82270400Y-61188600D02*
X82270400Y-59461400D01*
G75*
G02*
X82321400Y-59410400I51000J0D01*
G01*
X84048600Y-59410400D01*
G75*
G02*
X84099600Y-59461400I0J-51000D01*
G01*
X84099600Y-61188600D01*
G75*
G02*
X84048600Y-61239600I-51000J0D01*
G01*
X82321400Y-61239600D01*
G75*
G02*
X82270400Y-61188600I0J51000D01*
G01*
G37*
D17*
X85725000Y-60325000D03*
X83185000Y-62865000D03*
X85725000Y-62865000D03*
X83185000Y-65405000D03*
X85725000Y-65405000D03*
G36*
G01*
X201059000Y-74773828D02*
X201059000Y-73816172D01*
G75*
G02*
X201331172Y-73544000I272172J0D01*
G01*
X202038828Y-73544000D01*
G75*
G02*
X202311000Y-73816172I0J-272172D01*
G01*
X202311000Y-74773828D01*
G75*
G02*
X202038828Y-75046000I-272172J0D01*
G01*
X201331172Y-75046000D01*
G75*
G02*
X201059000Y-74773828I0J272172D01*
G01*
G37*
G36*
G01*
X199009000Y-74773828D02*
X199009000Y-73816172D01*
G75*
G02*
X199281172Y-73544000I272172J0D01*
G01*
X199988828Y-73544000D01*
G75*
G02*
X200261000Y-73816172I0J-272172D01*
G01*
X200261000Y-74773828D01*
G75*
G02*
X199988828Y-75046000I-272172J0D01*
G01*
X199281172Y-75046000D01*
G75*
G02*
X199009000Y-74773828I0J272172D01*
G01*
G37*
G36*
G01*
X207391000Y-73816172D02*
X207391000Y-74773828D01*
G75*
G02*
X207118828Y-75046000I-272172J0D01*
G01*
X206411172Y-75046000D01*
G75*
G02*
X206139000Y-74773828I0J272172D01*
G01*
X206139000Y-73816172D01*
G75*
G02*
X206411172Y-73544000I272172J0D01*
G01*
X207118828Y-73544000D01*
G75*
G02*
X207391000Y-73816172I0J-272172D01*
G01*
G37*
G36*
G01*
X205341000Y-73816172D02*
X205341000Y-74773828D01*
G75*
G02*
X205068828Y-75046000I-272172J0D01*
G01*
X204361172Y-75046000D01*
G75*
G02*
X204089000Y-74773828I0J272172D01*
G01*
X204089000Y-73816172D01*
G75*
G02*
X204361172Y-73544000I272172J0D01*
G01*
X205068828Y-73544000D01*
G75*
G02*
X205341000Y-73816172I0J-272172D01*
G01*
G37*
G36*
G01*
X135411172Y-75964000D02*
X136368828Y-75964000D01*
G75*
G02*
X136641000Y-76236172I0J-272172D01*
G01*
X136641000Y-76943828D01*
G75*
G02*
X136368828Y-77216000I-272172J0D01*
G01*
X135411172Y-77216000D01*
G75*
G02*
X135139000Y-76943828I0J272172D01*
G01*
X135139000Y-76236172D01*
G75*
G02*
X135411172Y-75964000I272172J0D01*
G01*
G37*
G36*
G01*
X135411172Y-73914000D02*
X136368828Y-73914000D01*
G75*
G02*
X136641000Y-74186172I0J-272172D01*
G01*
X136641000Y-74893828D01*
G75*
G02*
X136368828Y-75166000I-272172J0D01*
G01*
X135411172Y-75166000D01*
G75*
G02*
X135139000Y-74893828I0J272172D01*
G01*
X135139000Y-74186172D01*
G75*
G02*
X135411172Y-73914000I272172J0D01*
G01*
G37*
G36*
G01*
X157244000Y-76678828D02*
X157244000Y-75721172D01*
G75*
G02*
X157516172Y-75449000I272172J0D01*
G01*
X158223828Y-75449000D01*
G75*
G02*
X158496000Y-75721172I0J-272172D01*
G01*
X158496000Y-76678828D01*
G75*
G02*
X158223828Y-76951000I-272172J0D01*
G01*
X157516172Y-76951000D01*
G75*
G02*
X157244000Y-76678828I0J272172D01*
G01*
G37*
G36*
G01*
X155194000Y-76678828D02*
X155194000Y-75721172D01*
G75*
G02*
X155466172Y-75449000I272172J0D01*
G01*
X156173828Y-75449000D01*
G75*
G02*
X156446000Y-75721172I0J-272172D01*
G01*
X156446000Y-76678828D01*
G75*
G02*
X156173828Y-76951000I-272172J0D01*
G01*
X155466172Y-76951000D01*
G75*
G02*
X155194000Y-76678828I0J272172D01*
G01*
G37*
G36*
G01*
X88646000Y-73816172D02*
X88646000Y-74773828D01*
G75*
G02*
X88373828Y-75046000I-272172J0D01*
G01*
X87666172Y-75046000D01*
G75*
G02*
X87394000Y-74773828I0J272172D01*
G01*
X87394000Y-73816172D01*
G75*
G02*
X87666172Y-73544000I272172J0D01*
G01*
X88373828Y-73544000D01*
G75*
G02*
X88646000Y-73816172I0J-272172D01*
G01*
G37*
G36*
G01*
X86596000Y-73816172D02*
X86596000Y-74773828D01*
G75*
G02*
X86323828Y-75046000I-272172J0D01*
G01*
X85616172Y-75046000D01*
G75*
G02*
X85344000Y-74773828I0J272172D01*
G01*
X85344000Y-73816172D01*
G75*
G02*
X85616172Y-73544000I272172J0D01*
G01*
X86323828Y-73544000D01*
G75*
G02*
X86596000Y-73816172I0J-272172D01*
G01*
G37*
G36*
G01*
X84974000Y-76845001D02*
X84974000Y-76194999D01*
G75*
G02*
X85024999Y-76144000I50999J0D01*
G01*
X86085001Y-76144000D01*
G75*
G02*
X86136000Y-76194999I0J-50999D01*
G01*
X86136000Y-76845001D01*
G75*
G02*
X86085001Y-76896000I-50999J0D01*
G01*
X85024999Y-76896000D01*
G75*
G02*
X84974000Y-76845001I0J50999D01*
G01*
G37*
G36*
G01*
X84974000Y-78745001D02*
X84974000Y-78094999D01*
G75*
G02*
X85024999Y-78044000I50999J0D01*
G01*
X86085001Y-78044000D01*
G75*
G02*
X86136000Y-78094999I0J-50999D01*
G01*
X86136000Y-78745001D01*
G75*
G02*
X86085001Y-78796000I-50999J0D01*
G01*
X85024999Y-78796000D01*
G75*
G02*
X84974000Y-78745001I0J50999D01*
G01*
G37*
G36*
G01*
X82774000Y-78745001D02*
X82774000Y-78094999D01*
G75*
G02*
X82824999Y-78044000I50999J0D01*
G01*
X83885001Y-78044000D01*
G75*
G02*
X83936000Y-78094999I0J-50999D01*
G01*
X83936000Y-78745001D01*
G75*
G02*
X83885001Y-78796000I-50999J0D01*
G01*
X82824999Y-78796000D01*
G75*
G02*
X82774000Y-78745001I0J50999D01*
G01*
G37*
G36*
G01*
X82774000Y-77795001D02*
X82774000Y-77144999D01*
G75*
G02*
X82824999Y-77094000I50999J0D01*
G01*
X83885001Y-77094000D01*
G75*
G02*
X83936000Y-77144999I0J-50999D01*
G01*
X83936000Y-77795001D01*
G75*
G02*
X83885001Y-77846000I-50999J0D01*
G01*
X82824999Y-77846000D01*
G75*
G02*
X82774000Y-77795001I0J50999D01*
G01*
G37*
G36*
G01*
X82774000Y-76845001D02*
X82774000Y-76194999D01*
G75*
G02*
X82824999Y-76144000I50999J0D01*
G01*
X83885001Y-76144000D01*
G75*
G02*
X83936000Y-76194999I0J-50999D01*
G01*
X83936000Y-76845001D01*
G75*
G02*
X83885001Y-76896000I-50999J0D01*
G01*
X82824999Y-76896000D01*
G75*
G02*
X82774000Y-76845001I0J50999D01*
G01*
G37*
G36*
G01*
X87151172Y-77869000D02*
X88108828Y-77869000D01*
G75*
G02*
X88381000Y-78141172I0J-272172D01*
G01*
X88381000Y-78848828D01*
G75*
G02*
X88108828Y-79121000I-272172J0D01*
G01*
X87151172Y-79121000D01*
G75*
G02*
X86879000Y-78848828I0J272172D01*
G01*
X86879000Y-78141172D01*
G75*
G02*
X87151172Y-77869000I272172J0D01*
G01*
G37*
G36*
G01*
X87151172Y-75819000D02*
X88108828Y-75819000D01*
G75*
G02*
X88381000Y-76091172I0J-272172D01*
G01*
X88381000Y-76798828D01*
G75*
G02*
X88108828Y-77071000I-272172J0D01*
G01*
X87151172Y-77071000D01*
G75*
G02*
X86879000Y-76798828I0J272172D01*
G01*
X86879000Y-76091172D01*
G75*
G02*
X87151172Y-75819000I272172J0D01*
G01*
G37*
G36*
G01*
X80264000Y-74773828D02*
X80264000Y-73816172D01*
G75*
G02*
X80536172Y-73544000I272172J0D01*
G01*
X81243828Y-73544000D01*
G75*
G02*
X81516000Y-73816172I0J-272172D01*
G01*
X81516000Y-74773828D01*
G75*
G02*
X81243828Y-75046000I-272172J0D01*
G01*
X80536172Y-75046000D01*
G75*
G02*
X80264000Y-74773828I0J272172D01*
G01*
G37*
G36*
G01*
X82314000Y-74773828D02*
X82314000Y-73816172D01*
G75*
G02*
X82586172Y-73544000I272172J0D01*
G01*
X83293828Y-73544000D01*
G75*
G02*
X83566000Y-73816172I0J-272172D01*
G01*
X83566000Y-74773828D01*
G75*
G02*
X83293828Y-75046000I-272172J0D01*
G01*
X82586172Y-75046000D01*
G75*
G02*
X82314000Y-74773828I0J272172D01*
G01*
G37*
D19*
X78105000Y-60325000D03*
G36*
G01*
X139465000Y-75066000D02*
X138665000Y-75066000D01*
G75*
G02*
X138614000Y-75015000I0J51000D01*
G01*
X138614000Y-74115000D01*
G75*
G02*
X138665000Y-74064000I51000J0D01*
G01*
X139465000Y-74064000D01*
G75*
G02*
X139516000Y-74115000I0J-51000D01*
G01*
X139516000Y-75015000D01*
G75*
G02*
X139465000Y-75066000I-51000J0D01*
G01*
G37*
G36*
G01*
X140415000Y-77066000D02*
X139615000Y-77066000D01*
G75*
G02*
X139564000Y-77015000I0J51000D01*
G01*
X139564000Y-76115000D01*
G75*
G02*
X139615000Y-76064000I51000J0D01*
G01*
X140415000Y-76064000D01*
G75*
G02*
X140466000Y-76115000I0J-51000D01*
G01*
X140466000Y-77015000D01*
G75*
G02*
X140415000Y-77066000I-51000J0D01*
G01*
G37*
G36*
G01*
X138515000Y-77066000D02*
X137715000Y-77066000D01*
G75*
G02*
X137664000Y-77015000I0J51000D01*
G01*
X137664000Y-76115000D01*
G75*
G02*
X137715000Y-76064000I51000J0D01*
G01*
X138515000Y-76064000D01*
G75*
G02*
X138566000Y-76115000I0J-51000D01*
G01*
X138566000Y-77015000D01*
G75*
G02*
X138515000Y-77066000I-51000J0D01*
G01*
G37*
X196850000Y-60325000D03*
G36*
G01*
X159796000Y-73240000D02*
X159796000Y-73540000D01*
G75*
G02*
X159745000Y-73591000I-51000J0D01*
G01*
X158345000Y-73591000D01*
G75*
G02*
X158294000Y-73540000I0J51000D01*
G01*
X158294000Y-73240000D01*
G75*
G02*
X158345000Y-73189000I51000J0D01*
G01*
X159745000Y-73189000D01*
G75*
G02*
X159796000Y-73240000I0J-51000D01*
G01*
G37*
G36*
G01*
X159796000Y-72740000D02*
X159796000Y-73040000D01*
G75*
G02*
X159745000Y-73091000I-51000J0D01*
G01*
X158345000Y-73091000D01*
G75*
G02*
X158294000Y-73040000I0J51000D01*
G01*
X158294000Y-72740000D01*
G75*
G02*
X158345000Y-72689000I51000J0D01*
G01*
X159745000Y-72689000D01*
G75*
G02*
X159796000Y-72740000I0J-51000D01*
G01*
G37*
G36*
G01*
X159796000Y-72240000D02*
X159796000Y-72540000D01*
G75*
G02*
X159745000Y-72591000I-51000J0D01*
G01*
X158345000Y-72591000D01*
G75*
G02*
X158294000Y-72540000I0J51000D01*
G01*
X158294000Y-72240000D01*
G75*
G02*
X158345000Y-72189000I51000J0D01*
G01*
X159745000Y-72189000D01*
G75*
G02*
X159796000Y-72240000I0J-51000D01*
G01*
G37*
G36*
G01*
X159796000Y-71740000D02*
X159796000Y-72040000D01*
G75*
G02*
X159745000Y-72091000I-51000J0D01*
G01*
X158345000Y-72091000D01*
G75*
G02*
X158294000Y-72040000I0J51000D01*
G01*
X158294000Y-71740000D01*
G75*
G02*
X158345000Y-71689000I51000J0D01*
G01*
X159745000Y-71689000D01*
G75*
G02*
X159796000Y-71740000I0J-51000D01*
G01*
G37*
G36*
G01*
X159796000Y-71240000D02*
X159796000Y-71540000D01*
G75*
G02*
X159745000Y-71591000I-51000J0D01*
G01*
X158345000Y-71591000D01*
G75*
G02*
X158294000Y-71540000I0J51000D01*
G01*
X158294000Y-71240000D01*
G75*
G02*
X158345000Y-71189000I51000J0D01*
G01*
X159745000Y-71189000D01*
G75*
G02*
X159796000Y-71240000I0J-51000D01*
G01*
G37*
G36*
G01*
X155396000Y-71240000D02*
X155396000Y-71540000D01*
G75*
G02*
X155345000Y-71591000I-51000J0D01*
G01*
X153945000Y-71591000D01*
G75*
G02*
X153894000Y-71540000I0J51000D01*
G01*
X153894000Y-71240000D01*
G75*
G02*
X153945000Y-71189000I51000J0D01*
G01*
X155345000Y-71189000D01*
G75*
G02*
X155396000Y-71240000I0J-51000D01*
G01*
G37*
G36*
G01*
X155396000Y-71740000D02*
X155396000Y-72040000D01*
G75*
G02*
X155345000Y-72091000I-51000J0D01*
G01*
X153945000Y-72091000D01*
G75*
G02*
X153894000Y-72040000I0J51000D01*
G01*
X153894000Y-71740000D01*
G75*
G02*
X153945000Y-71689000I51000J0D01*
G01*
X155345000Y-71689000D01*
G75*
G02*
X155396000Y-71740000I0J-51000D01*
G01*
G37*
G36*
G01*
X155396000Y-72240000D02*
X155396000Y-72540000D01*
G75*
G02*
X155345000Y-72591000I-51000J0D01*
G01*
X153945000Y-72591000D01*
G75*
G02*
X153894000Y-72540000I0J51000D01*
G01*
X153894000Y-72240000D01*
G75*
G02*
X153945000Y-72189000I51000J0D01*
G01*
X155345000Y-72189000D01*
G75*
G02*
X155396000Y-72240000I0J-51000D01*
G01*
G37*
G36*
G01*
X155396000Y-72740000D02*
X155396000Y-73040000D01*
G75*
G02*
X155345000Y-73091000I-51000J0D01*
G01*
X153945000Y-73091000D01*
G75*
G02*
X153894000Y-73040000I0J51000D01*
G01*
X153894000Y-72740000D01*
G75*
G02*
X153945000Y-72689000I51000J0D01*
G01*
X155345000Y-72689000D01*
G75*
G02*
X155396000Y-72740000I0J-51000D01*
G01*
G37*
G36*
G01*
X155396000Y-73240000D02*
X155396000Y-73540000D01*
G75*
G02*
X155345000Y-73591000I-51000J0D01*
G01*
X153945000Y-73591000D01*
G75*
G02*
X153894000Y-73540000I0J51000D01*
G01*
X153894000Y-73240000D01*
G75*
G02*
X153945000Y-73189000I51000J0D01*
G01*
X155345000Y-73189000D01*
G75*
G02*
X155396000Y-73240000I0J-51000D01*
G01*
G37*
D20*
X160655000Y-81915000D03*
X160655000Y-102235000D03*
X140335000Y-102235000D03*
X147955000Y-81915000D03*
G36*
G01*
X151859000Y-83040000D02*
X151859000Y-80790000D01*
G75*
G02*
X151910000Y-80739000I51000J0D01*
G01*
X154160000Y-80739000D01*
G75*
G02*
X154211000Y-80790000I0J-51000D01*
G01*
X154211000Y-83040000D01*
G75*
G02*
X154160000Y-83091000I-51000J0D01*
G01*
X151910000Y-83091000D01*
G75*
G02*
X151859000Y-83040000I0J51000D01*
G01*
G37*
G36*
G01*
X153906000Y-56671172D02*
X153906000Y-57628828D01*
G75*
G02*
X153633828Y-57901000I-272172J0D01*
G01*
X152926172Y-57901000D01*
G75*
G02*
X152654000Y-57628828I0J272172D01*
G01*
X152654000Y-56671172D01*
G75*
G02*
X152926172Y-56399000I272172J0D01*
G01*
X153633828Y-56399000D01*
G75*
G02*
X153906000Y-56671172I0J-272172D01*
G01*
G37*
G36*
G01*
X155956000Y-56671172D02*
X155956000Y-57628828D01*
G75*
G02*
X155683828Y-57901000I-272172J0D01*
G01*
X154976172Y-57901000D01*
G75*
G02*
X154704000Y-57628828I0J272172D01*
G01*
X154704000Y-56671172D01*
G75*
G02*
X154976172Y-56399000I272172J0D01*
G01*
X155683828Y-56399000D01*
G75*
G02*
X155956000Y-56671172I0J-272172D01*
G01*
G37*
D19*
X158115000Y-61595000D03*
G36*
G01*
X113416000Y-118600000D02*
X113416000Y-122700000D01*
G75*
G02*
X113365000Y-122751000I-51000J0D01*
G01*
X109265000Y-122751000D01*
G75*
G02*
X109214000Y-122700000I0J51000D01*
G01*
X109214000Y-118600000D01*
G75*
G02*
X109265000Y-118549000I51000J0D01*
G01*
X113365000Y-118549000D01*
G75*
G02*
X113416000Y-118600000I0J-51000D01*
G01*
G37*
G36*
G01*
X105416000Y-118600000D02*
X105416000Y-122700000D01*
G75*
G02*
X105365000Y-122751000I-51000J0D01*
G01*
X101265000Y-122751000D01*
G75*
G02*
X101214000Y-122700000I0J51000D01*
G01*
X101214000Y-118600000D01*
G75*
G02*
X101265000Y-118549000I51000J0D01*
G01*
X105365000Y-118549000D01*
G75*
G02*
X105416000Y-118600000I0J-51000D01*
G01*
G37*
X101600000Y-135890000D03*
X86360000Y-104140000D03*
X123190000Y-127000000D03*
G36*
G01*
X89789000Y-144623828D02*
X89789000Y-143666172D01*
G75*
G02*
X90061172Y-143394000I272172J0D01*
G01*
X90768828Y-143394000D01*
G75*
G02*
X91041000Y-143666172I0J-272172D01*
G01*
X91041000Y-144623828D01*
G75*
G02*
X90768828Y-144896000I-272172J0D01*
G01*
X90061172Y-144896000D01*
G75*
G02*
X89789000Y-144623828I0J272172D01*
G01*
G37*
G36*
G01*
X91839000Y-144623828D02*
X91839000Y-143666172D01*
G75*
G02*
X92111172Y-143394000I272172J0D01*
G01*
X92818828Y-143394000D01*
G75*
G02*
X93091000Y-143666172I0J-272172D01*
G01*
X93091000Y-144623828D01*
G75*
G02*
X92818828Y-144896000I-272172J0D01*
G01*
X92111172Y-144896000D01*
G75*
G02*
X91839000Y-144623828I0J272172D01*
G01*
G37*
G36*
G01*
X111984000Y-111135001D02*
X111984000Y-110484999D01*
G75*
G02*
X112034999Y-110434000I50999J0D01*
G01*
X113095001Y-110434000D01*
G75*
G02*
X113146000Y-110484999I0J-50999D01*
G01*
X113146000Y-111135001D01*
G75*
G02*
X113095001Y-111186000I-50999J0D01*
G01*
X112034999Y-111186000D01*
G75*
G02*
X111984000Y-111135001I0J50999D01*
G01*
G37*
G36*
G01*
X111984000Y-112085001D02*
X111984000Y-111434999D01*
G75*
G02*
X112034999Y-111384000I50999J0D01*
G01*
X113095001Y-111384000D01*
G75*
G02*
X113146000Y-111434999I0J-50999D01*
G01*
X113146000Y-112085001D01*
G75*
G02*
X113095001Y-112136000I-50999J0D01*
G01*
X112034999Y-112136000D01*
G75*
G02*
X111984000Y-112085001I0J50999D01*
G01*
G37*
G36*
G01*
X111984000Y-113035001D02*
X111984000Y-112384999D01*
G75*
G02*
X112034999Y-112334000I50999J0D01*
G01*
X113095001Y-112334000D01*
G75*
G02*
X113146000Y-112384999I0J-50999D01*
G01*
X113146000Y-113035001D01*
G75*
G02*
X113095001Y-113086000I-50999J0D01*
G01*
X112034999Y-113086000D01*
G75*
G02*
X111984000Y-113035001I0J50999D01*
G01*
G37*
G36*
G01*
X114184000Y-113035001D02*
X114184000Y-112384999D01*
G75*
G02*
X114234999Y-112334000I50999J0D01*
G01*
X115295001Y-112334000D01*
G75*
G02*
X115346000Y-112384999I0J-50999D01*
G01*
X115346000Y-113035001D01*
G75*
G02*
X115295001Y-113086000I-50999J0D01*
G01*
X114234999Y-113086000D01*
G75*
G02*
X114184000Y-113035001I0J50999D01*
G01*
G37*
G36*
G01*
X114184000Y-111135001D02*
X114184000Y-110484999D01*
G75*
G02*
X114234999Y-110434000I50999J0D01*
G01*
X115295001Y-110434000D01*
G75*
G02*
X115346000Y-110484999I0J-50999D01*
G01*
X115346000Y-111135001D01*
G75*
G02*
X115295001Y-111186000I-50999J0D01*
G01*
X114234999Y-111186000D01*
G75*
G02*
X114184000Y-111135001I0J50999D01*
G01*
G37*
G36*
G01*
X128355000Y-80876000D02*
X127555000Y-80876000D01*
G75*
G02*
X127504000Y-80825000I0J51000D01*
G01*
X127504000Y-79925000D01*
G75*
G02*
X127555000Y-79874000I51000J0D01*
G01*
X128355000Y-79874000D01*
G75*
G02*
X128406000Y-79925000I0J-51000D01*
G01*
X128406000Y-80825000D01*
G75*
G02*
X128355000Y-80876000I-51000J0D01*
G01*
G37*
G36*
G01*
X130255000Y-80876000D02*
X129455000Y-80876000D01*
G75*
G02*
X129404000Y-80825000I0J51000D01*
G01*
X129404000Y-79925000D01*
G75*
G02*
X129455000Y-79874000I51000J0D01*
G01*
X130255000Y-79874000D01*
G75*
G02*
X130306000Y-79925000I0J-51000D01*
G01*
X130306000Y-80825000D01*
G75*
G02*
X130255000Y-80876000I-51000J0D01*
G01*
G37*
G36*
G01*
X129305000Y-78876000D02*
X128505000Y-78876000D01*
G75*
G02*
X128454000Y-78825000I0J51000D01*
G01*
X128454000Y-77925000D01*
G75*
G02*
X128505000Y-77874000I51000J0D01*
G01*
X129305000Y-77874000D01*
G75*
G02*
X129356000Y-77925000I0J-51000D01*
G01*
X129356000Y-78825000D01*
G75*
G02*
X129305000Y-78876000I-51000J0D01*
G01*
G37*
G36*
G01*
X117953828Y-122936000D02*
X116996172Y-122936000D01*
G75*
G02*
X116724000Y-122663828I0J272172D01*
G01*
X116724000Y-121956172D01*
G75*
G02*
X116996172Y-121684000I272172J0D01*
G01*
X117953828Y-121684000D01*
G75*
G02*
X118226000Y-121956172I0J-272172D01*
G01*
X118226000Y-122663828D01*
G75*
G02*
X117953828Y-122936000I-272172J0D01*
G01*
G37*
G36*
G01*
X117953828Y-120886000D02*
X116996172Y-120886000D01*
G75*
G02*
X116724000Y-120613828I0J272172D01*
G01*
X116724000Y-119906172D01*
G75*
G02*
X116996172Y-119634000I272172J0D01*
G01*
X117953828Y-119634000D01*
G75*
G02*
X118226000Y-119906172I0J-272172D01*
G01*
X118226000Y-120613828D01*
G75*
G02*
X117953828Y-120886000I-272172J0D01*
G01*
G37*
G36*
G01*
X116361172Y-112159000D02*
X117318828Y-112159000D01*
G75*
G02*
X117591000Y-112431172I0J-272172D01*
G01*
X117591000Y-113138828D01*
G75*
G02*
X117318828Y-113411000I-272172J0D01*
G01*
X116361172Y-113411000D01*
G75*
G02*
X116089000Y-113138828I0J272172D01*
G01*
X116089000Y-112431172D01*
G75*
G02*
X116361172Y-112159000I272172J0D01*
G01*
G37*
G36*
G01*
X116361172Y-110109000D02*
X117318828Y-110109000D01*
G75*
G02*
X117591000Y-110381172I0J-272172D01*
G01*
X117591000Y-111088828D01*
G75*
G02*
X117318828Y-111361000I-272172J0D01*
G01*
X116361172Y-111361000D01*
G75*
G02*
X116089000Y-111088828I0J272172D01*
G01*
X116089000Y-110381172D01*
G75*
G02*
X116361172Y-110109000I272172J0D01*
G01*
G37*
G36*
G01*
X110968828Y-111361000D02*
X110011172Y-111361000D01*
G75*
G02*
X109739000Y-111088828I0J272172D01*
G01*
X109739000Y-110381172D01*
G75*
G02*
X110011172Y-110109000I272172J0D01*
G01*
X110968828Y-110109000D01*
G75*
G02*
X111241000Y-110381172I0J-272172D01*
G01*
X111241000Y-111088828D01*
G75*
G02*
X110968828Y-111361000I-272172J0D01*
G01*
G37*
G36*
G01*
X110968828Y-113411000D02*
X110011172Y-113411000D01*
G75*
G02*
X109739000Y-113138828I0J272172D01*
G01*
X109739000Y-112431172D01*
G75*
G02*
X110011172Y-112159000I272172J0D01*
G01*
X110968828Y-112159000D01*
G75*
G02*
X111241000Y-112431172I0J-272172D01*
G01*
X111241000Y-113138828D01*
G75*
G02*
X110968828Y-113411000I-272172J0D01*
G01*
G37*
G36*
G01*
X123981172Y-135654000D02*
X124938828Y-135654000D01*
G75*
G02*
X125211000Y-135926172I0J-272172D01*
G01*
X125211000Y-136633828D01*
G75*
G02*
X124938828Y-136906000I-272172J0D01*
G01*
X123981172Y-136906000D01*
G75*
G02*
X123709000Y-136633828I0J272172D01*
G01*
X123709000Y-135926172D01*
G75*
G02*
X123981172Y-135654000I272172J0D01*
G01*
G37*
G36*
G01*
X123981172Y-133604000D02*
X124938828Y-133604000D01*
G75*
G02*
X125211000Y-133876172I0J-272172D01*
G01*
X125211000Y-134583828D01*
G75*
G02*
X124938828Y-134856000I-272172J0D01*
G01*
X123981172Y-134856000D01*
G75*
G02*
X123709000Y-134583828I0J272172D01*
G01*
X123709000Y-133876172D01*
G75*
G02*
X123981172Y-133604000I272172J0D01*
G01*
G37*
G36*
G01*
X116361172Y-135654000D02*
X117318828Y-135654000D01*
G75*
G02*
X117591000Y-135926172I0J-272172D01*
G01*
X117591000Y-136633828D01*
G75*
G02*
X117318828Y-136906000I-272172J0D01*
G01*
X116361172Y-136906000D01*
G75*
G02*
X116089000Y-136633828I0J272172D01*
G01*
X116089000Y-135926172D01*
G75*
G02*
X116361172Y-135654000I272172J0D01*
G01*
G37*
G36*
G01*
X116361172Y-133604000D02*
X117318828Y-133604000D01*
G75*
G02*
X117591000Y-133876172I0J-272172D01*
G01*
X117591000Y-134583828D01*
G75*
G02*
X117318828Y-134856000I-272172J0D01*
G01*
X116361172Y-134856000D01*
G75*
G02*
X116089000Y-134583828I0J272172D01*
G01*
X116089000Y-133876172D01*
G75*
G02*
X116361172Y-133604000I272172J0D01*
G01*
G37*
G36*
G01*
X185801000Y-114456172D02*
X185801000Y-115413828D01*
G75*
G02*
X185528828Y-115686000I-272172J0D01*
G01*
X184821172Y-115686000D01*
G75*
G02*
X184549000Y-115413828I0J272172D01*
G01*
X184549000Y-114456172D01*
G75*
G02*
X184821172Y-114184000I272172J0D01*
G01*
X185528828Y-114184000D01*
G75*
G02*
X185801000Y-114456172I0J-272172D01*
G01*
G37*
G36*
G01*
X183751000Y-114456172D02*
X183751000Y-115413828D01*
G75*
G02*
X183478828Y-115686000I-272172J0D01*
G01*
X182771172Y-115686000D01*
G75*
G02*
X182499000Y-115413828I0J272172D01*
G01*
X182499000Y-114456172D01*
G75*
G02*
X182771172Y-114184000I272172J0D01*
G01*
X183478828Y-114184000D01*
G75*
G02*
X183751000Y-114456172I0J-272172D01*
G01*
G37*
G36*
G01*
X130175000Y-74324172D02*
X130175000Y-75281828D01*
G75*
G02*
X129902828Y-75554000I-272172J0D01*
G01*
X129195172Y-75554000D01*
G75*
G02*
X128923000Y-75281828I0J272172D01*
G01*
X128923000Y-74324172D01*
G75*
G02*
X129195172Y-74052000I272172J0D01*
G01*
X129902828Y-74052000D01*
G75*
G02*
X130175000Y-74324172I0J-272172D01*
G01*
G37*
G36*
G01*
X128125000Y-74324172D02*
X128125000Y-75281828D01*
G75*
G02*
X127852828Y-75554000I-272172J0D01*
G01*
X127145172Y-75554000D01*
G75*
G02*
X126873000Y-75281828I0J272172D01*
G01*
X126873000Y-74324172D01*
G75*
G02*
X127145172Y-74052000I272172J0D01*
G01*
X127852828Y-74052000D01*
G75*
G02*
X128125000Y-74324172I0J-272172D01*
G01*
G37*
G36*
G01*
X99314000Y-111603828D02*
X99314000Y-110646172D01*
G75*
G02*
X99586172Y-110374000I272172J0D01*
G01*
X100293828Y-110374000D01*
G75*
G02*
X100566000Y-110646172I0J-272172D01*
G01*
X100566000Y-111603828D01*
G75*
G02*
X100293828Y-111876000I-272172J0D01*
G01*
X99586172Y-111876000D01*
G75*
G02*
X99314000Y-111603828I0J272172D01*
G01*
G37*
G36*
G01*
X101364000Y-111603828D02*
X101364000Y-110646172D01*
G75*
G02*
X101636172Y-110374000I272172J0D01*
G01*
X102343828Y-110374000D01*
G75*
G02*
X102616000Y-110646172I0J-272172D01*
G01*
X102616000Y-111603828D01*
G75*
G02*
X102343828Y-111876000I-272172J0D01*
G01*
X101636172Y-111876000D01*
G75*
G02*
X101364000Y-111603828I0J272172D01*
G01*
G37*
G36*
G01*
X101364000Y-114143828D02*
X101364000Y-113186172D01*
G75*
G02*
X101636172Y-112914000I272172J0D01*
G01*
X102343828Y-112914000D01*
G75*
G02*
X102616000Y-113186172I0J-272172D01*
G01*
X102616000Y-114143828D01*
G75*
G02*
X102343828Y-114416000I-272172J0D01*
G01*
X101636172Y-114416000D01*
G75*
G02*
X101364000Y-114143828I0J272172D01*
G01*
G37*
G36*
G01*
X99314000Y-114143828D02*
X99314000Y-113186172D01*
G75*
G02*
X99586172Y-112914000I272172J0D01*
G01*
X100293828Y-112914000D01*
G75*
G02*
X100566000Y-113186172I0J-272172D01*
G01*
X100566000Y-114143828D01*
G75*
G02*
X100293828Y-114416000I-272172J0D01*
G01*
X99586172Y-114416000D01*
G75*
G02*
X99314000Y-114143828I0J272172D01*
G01*
G37*
G36*
G01*
X77859000Y-117440000D02*
X77859000Y-116240000D01*
G75*
G02*
X77910000Y-116189000I51000J0D01*
G01*
X78810000Y-116189000D01*
G75*
G02*
X78861000Y-116240000I0J-51000D01*
G01*
X78861000Y-117440000D01*
G75*
G02*
X78810000Y-117491000I-51000J0D01*
G01*
X77910000Y-117491000D01*
G75*
G02*
X77859000Y-117440000I0J51000D01*
G01*
G37*
G36*
G01*
X81159000Y-117440000D02*
X81159000Y-116240000D01*
G75*
G02*
X81210000Y-116189000I51000J0D01*
G01*
X82110000Y-116189000D01*
G75*
G02*
X82161000Y-116240000I0J-51000D01*
G01*
X82161000Y-117440000D01*
G75*
G02*
X82110000Y-117491000I-51000J0D01*
G01*
X81210000Y-117491000D01*
G75*
G02*
X81159000Y-117440000I0J51000D01*
G01*
G37*
D21*
X83185000Y-146685000D03*
X203835000Y-146685000D03*
G36*
G01*
X129220000Y-87874000D02*
X129860000Y-87874000D01*
G75*
G02*
X129911000Y-87925000I0J-51000D01*
G01*
X129911000Y-89925000D01*
G75*
G02*
X129860000Y-89976000I-51000J0D01*
G01*
X129220000Y-89976000D01*
G75*
G02*
X129169000Y-89925000I0J51000D01*
G01*
X129169000Y-87925000D01*
G75*
G02*
X129220000Y-87874000I51000J0D01*
G01*
G37*
G36*
G01*
X127950000Y-87874000D02*
X128590000Y-87874000D01*
G75*
G02*
X128641000Y-87925000I0J-51000D01*
G01*
X128641000Y-89925000D01*
G75*
G02*
X128590000Y-89976000I-51000J0D01*
G01*
X127950000Y-89976000D01*
G75*
G02*
X127899000Y-89925000I0J51000D01*
G01*
X127899000Y-87925000D01*
G75*
G02*
X127950000Y-87874000I51000J0D01*
G01*
G37*
G36*
G01*
X127950000Y-94174000D02*
X128590000Y-94174000D01*
G75*
G02*
X128641000Y-94225000I0J-51000D01*
G01*
X128641000Y-96225000D01*
G75*
G02*
X128590000Y-96276000I-51000J0D01*
G01*
X127950000Y-96276000D01*
G75*
G02*
X127899000Y-96225000I0J51000D01*
G01*
X127899000Y-94225000D01*
G75*
G02*
X127950000Y-94174000I51000J0D01*
G01*
G37*
G36*
G01*
X129220000Y-94174000D02*
X129860000Y-94174000D01*
G75*
G02*
X129911000Y-94225000I0J-51000D01*
G01*
X129911000Y-96225000D01*
G75*
G02*
X129860000Y-96276000I-51000J0D01*
G01*
X129220000Y-96276000D01*
G75*
G02*
X129169000Y-96225000I0J51000D01*
G01*
X129169000Y-94225000D01*
G75*
G02*
X129220000Y-94174000I51000J0D01*
G01*
G37*
G36*
G01*
X125415000Y-96276000D02*
X124775000Y-96276000D01*
G75*
G02*
X124724000Y-96225000I0J51000D01*
G01*
X124724000Y-94225000D01*
G75*
G02*
X124775000Y-94174000I51000J0D01*
G01*
X125415000Y-94174000D01*
G75*
G02*
X125466000Y-94225000I0J-51000D01*
G01*
X125466000Y-96225000D01*
G75*
G02*
X125415000Y-96276000I-51000J0D01*
G01*
G37*
G36*
G01*
X126685000Y-96276000D02*
X126045000Y-96276000D01*
G75*
G02*
X125994000Y-96225000I0J51000D01*
G01*
X125994000Y-94225000D01*
G75*
G02*
X126045000Y-94174000I51000J0D01*
G01*
X126685000Y-94174000D01*
G75*
G02*
X126736000Y-94225000I0J-51000D01*
G01*
X126736000Y-96225000D01*
G75*
G02*
X126685000Y-96276000I-51000J0D01*
G01*
G37*
G36*
G01*
X126685000Y-89976000D02*
X126045000Y-89976000D01*
G75*
G02*
X125994000Y-89925000I0J51000D01*
G01*
X125994000Y-87925000D01*
G75*
G02*
X126045000Y-87874000I51000J0D01*
G01*
X126685000Y-87874000D01*
G75*
G02*
X126736000Y-87925000I0J-51000D01*
G01*
X126736000Y-89925000D01*
G75*
G02*
X126685000Y-89976000I-51000J0D01*
G01*
G37*
G36*
G01*
X125415000Y-89976000D02*
X124775000Y-89976000D01*
G75*
G02*
X124724000Y-89925000I0J51000D01*
G01*
X124724000Y-87925000D01*
G75*
G02*
X124775000Y-87874000I51000J0D01*
G01*
X125415000Y-87874000D01*
G75*
G02*
X125466000Y-87925000I0J-51000D01*
G01*
X125466000Y-89925000D01*
G75*
G02*
X125415000Y-89976000I-51000J0D01*
G01*
G37*
D13*
X127000000Y-60540000D03*
G36*
G01*
X128401000Y-64598445D02*
X128401000Y-67481555D01*
G75*
G02*
X128141555Y-67741000I-259445J0D01*
G01*
X125858445Y-67741000D01*
G75*
G02*
X125599000Y-67481555I0J259445D01*
G01*
X125599000Y-64598445D01*
G75*
G02*
X125858445Y-64339000I259445J0D01*
G01*
X128141555Y-64339000D01*
G75*
G02*
X128401000Y-64598445I0J-259445D01*
G01*
G37*
D17*
X207010000Y-133350000D03*
X204470000Y-133350000D03*
X207010000Y-130810000D03*
X204470000Y-130810000D03*
X207010000Y-128270000D03*
X204470000Y-128270000D03*
X207010000Y-125730000D03*
X204470000Y-125730000D03*
X207010000Y-123190000D03*
X204470000Y-123190000D03*
X207010000Y-120650000D03*
X204470000Y-120650000D03*
X207010000Y-118110000D03*
X204470000Y-118110000D03*
X207010000Y-115570000D03*
X204470000Y-115570000D03*
X207010000Y-113030000D03*
X204470000Y-113030000D03*
X207010000Y-110490000D03*
G36*
G01*
X203555400Y-111353600D02*
X203555400Y-109626400D01*
G75*
G02*
X203606400Y-109575400I51000J0D01*
G01*
X205333600Y-109575400D01*
G75*
G02*
X205384600Y-109626400I0J-51000D01*
G01*
X205384600Y-111353600D01*
G75*
G02*
X205333600Y-111404600I-51000J0D01*
G01*
X203606400Y-111404600D01*
G75*
G02*
X203555400Y-111353600I0J51000D01*
G01*
G37*
D13*
X128905000Y-147740000D03*
G36*
G01*
X127504000Y-143681555D02*
X127504000Y-140798445D01*
G75*
G02*
X127763445Y-140539000I259445J0D01*
G01*
X130046555Y-140539000D01*
G75*
G02*
X130306000Y-140798445I0J-259445D01*
G01*
X130306000Y-143681555D01*
G75*
G02*
X130046555Y-143941000I-259445J0D01*
G01*
X127763445Y-143941000D01*
G75*
G02*
X127504000Y-143681555I0J259445D01*
G01*
G37*
G36*
G01*
X134489000Y-143681555D02*
X134489000Y-140798445D01*
G75*
G02*
X134748445Y-140539000I259445J0D01*
G01*
X137031555Y-140539000D01*
G75*
G02*
X137291000Y-140798445I0J-259445D01*
G01*
X137291000Y-143681555D01*
G75*
G02*
X137031555Y-143941000I-259445J0D01*
G01*
X134748445Y-143941000D01*
G75*
G02*
X134489000Y-143681555I0J259445D01*
G01*
G37*
X135890000Y-147740000D03*
D15*
X178498500Y-149161500D03*
D22*
X160718500Y-141541500D03*
X168338500Y-141541500D03*
D15*
X178498500Y-141541500D03*
G36*
G01*
X122076172Y-135654000D02*
X123033828Y-135654000D01*
G75*
G02*
X123306000Y-135926172I0J-272172D01*
G01*
X123306000Y-136633828D01*
G75*
G02*
X123033828Y-136906000I-272172J0D01*
G01*
X122076172Y-136906000D01*
G75*
G02*
X121804000Y-136633828I0J272172D01*
G01*
X121804000Y-135926172D01*
G75*
G02*
X122076172Y-135654000I272172J0D01*
G01*
G37*
G36*
G01*
X122076172Y-133604000D02*
X123033828Y-133604000D01*
G75*
G02*
X123306000Y-133876172I0J-272172D01*
G01*
X123306000Y-134583828D01*
G75*
G02*
X123033828Y-134856000I-272172J0D01*
G01*
X122076172Y-134856000D01*
G75*
G02*
X121804000Y-134583828I0J272172D01*
G01*
X121804000Y-133876172D01*
G75*
G02*
X122076172Y-133604000I272172J0D01*
G01*
G37*
G36*
G01*
X185801000Y-139221172D02*
X185801000Y-140178828D01*
G75*
G02*
X185528828Y-140451000I-272172J0D01*
G01*
X184821172Y-140451000D01*
G75*
G02*
X184549000Y-140178828I0J272172D01*
G01*
X184549000Y-139221172D01*
G75*
G02*
X184821172Y-138949000I272172J0D01*
G01*
X185528828Y-138949000D01*
G75*
G02*
X185801000Y-139221172I0J-272172D01*
G01*
G37*
G36*
G01*
X183751000Y-139221172D02*
X183751000Y-140178828D01*
G75*
G02*
X183478828Y-140451000I-272172J0D01*
G01*
X182771172Y-140451000D01*
G75*
G02*
X182499000Y-140178828I0J272172D01*
G01*
X182499000Y-139221172D01*
G75*
G02*
X182771172Y-138949000I272172J0D01*
G01*
X183478828Y-138949000D01*
G75*
G02*
X183751000Y-139221172I0J-272172D01*
G01*
G37*
G36*
G01*
X197249000Y-140178828D02*
X197249000Y-139221172D01*
G75*
G02*
X197521172Y-138949000I272172J0D01*
G01*
X198228828Y-138949000D01*
G75*
G02*
X198501000Y-139221172I0J-272172D01*
G01*
X198501000Y-140178828D01*
G75*
G02*
X198228828Y-140451000I-272172J0D01*
G01*
X197521172Y-140451000D01*
G75*
G02*
X197249000Y-140178828I0J272172D01*
G01*
G37*
G36*
G01*
X195199000Y-140178828D02*
X195199000Y-139221172D01*
G75*
G02*
X195471172Y-138949000I272172J0D01*
G01*
X196178828Y-138949000D01*
G75*
G02*
X196451000Y-139221172I0J-272172D01*
G01*
X196451000Y-140178828D01*
G75*
G02*
X196178828Y-140451000I-272172J0D01*
G01*
X195471172Y-140451000D01*
G75*
G02*
X195199000Y-140178828I0J272172D01*
G01*
G37*
G36*
G01*
X120171172Y-135654000D02*
X121128828Y-135654000D01*
G75*
G02*
X121401000Y-135926172I0J-272172D01*
G01*
X121401000Y-136633828D01*
G75*
G02*
X121128828Y-136906000I-272172J0D01*
G01*
X120171172Y-136906000D01*
G75*
G02*
X119899000Y-136633828I0J272172D01*
G01*
X119899000Y-135926172D01*
G75*
G02*
X120171172Y-135654000I272172J0D01*
G01*
G37*
G36*
G01*
X120171172Y-133604000D02*
X121128828Y-133604000D01*
G75*
G02*
X121401000Y-133876172I0J-272172D01*
G01*
X121401000Y-134583828D01*
G75*
G02*
X121128828Y-134856000I-272172J0D01*
G01*
X120171172Y-134856000D01*
G75*
G02*
X119899000Y-134583828I0J272172D01*
G01*
X119899000Y-133876172D01*
G75*
G02*
X120171172Y-133604000I272172J0D01*
G01*
G37*
G36*
G01*
X185801000Y-145571172D02*
X185801000Y-146528828D01*
G75*
G02*
X185528828Y-146801000I-272172J0D01*
G01*
X184821172Y-146801000D01*
G75*
G02*
X184549000Y-146528828I0J272172D01*
G01*
X184549000Y-145571172D01*
G75*
G02*
X184821172Y-145299000I272172J0D01*
G01*
X185528828Y-145299000D01*
G75*
G02*
X185801000Y-145571172I0J-272172D01*
G01*
G37*
G36*
G01*
X183751000Y-145571172D02*
X183751000Y-146528828D01*
G75*
G02*
X183478828Y-146801000I-272172J0D01*
G01*
X182771172Y-146801000D01*
G75*
G02*
X182499000Y-146528828I0J272172D01*
G01*
X182499000Y-145571172D01*
G75*
G02*
X182771172Y-145299000I272172J0D01*
G01*
X183478828Y-145299000D01*
G75*
G02*
X183751000Y-145571172I0J-272172D01*
G01*
G37*
G36*
G01*
X107158828Y-136906000D02*
X106201172Y-136906000D01*
G75*
G02*
X105929000Y-136633828I0J272172D01*
G01*
X105929000Y-135926172D01*
G75*
G02*
X106201172Y-135654000I272172J0D01*
G01*
X107158828Y-135654000D01*
G75*
G02*
X107431000Y-135926172I0J-272172D01*
G01*
X107431000Y-136633828D01*
G75*
G02*
X107158828Y-136906000I-272172J0D01*
G01*
G37*
G36*
G01*
X107158828Y-134856000D02*
X106201172Y-134856000D01*
G75*
G02*
X105929000Y-134583828I0J272172D01*
G01*
X105929000Y-133876172D01*
G75*
G02*
X106201172Y-133604000I272172J0D01*
G01*
X107158828Y-133604000D01*
G75*
G02*
X107431000Y-133876172I0J-272172D01*
G01*
X107431000Y-134583828D01*
G75*
G02*
X107158828Y-134856000I-272172J0D01*
G01*
G37*
G36*
G01*
X106426000Y-110646172D02*
X106426000Y-111603828D01*
G75*
G02*
X106153828Y-111876000I-272172J0D01*
G01*
X105446172Y-111876000D01*
G75*
G02*
X105174000Y-111603828I0J272172D01*
G01*
X105174000Y-110646172D01*
G75*
G02*
X105446172Y-110374000I272172J0D01*
G01*
X106153828Y-110374000D01*
G75*
G02*
X106426000Y-110646172I0J-272172D01*
G01*
G37*
G36*
G01*
X104376000Y-110646172D02*
X104376000Y-111603828D01*
G75*
G02*
X104103828Y-111876000I-272172J0D01*
G01*
X103396172Y-111876000D01*
G75*
G02*
X103124000Y-111603828I0J272172D01*
G01*
X103124000Y-110646172D01*
G75*
G02*
X103396172Y-110374000I272172J0D01*
G01*
X104103828Y-110374000D01*
G75*
G02*
X104376000Y-110646172I0J-272172D01*
G01*
G37*
G36*
G01*
X106426000Y-113186172D02*
X106426000Y-114143828D01*
G75*
G02*
X106153828Y-114416000I-272172J0D01*
G01*
X105446172Y-114416000D01*
G75*
G02*
X105174000Y-114143828I0J272172D01*
G01*
X105174000Y-113186172D01*
G75*
G02*
X105446172Y-112914000I272172J0D01*
G01*
X106153828Y-112914000D01*
G75*
G02*
X106426000Y-113186172I0J-272172D01*
G01*
G37*
G36*
G01*
X104376000Y-113186172D02*
X104376000Y-114143828D01*
G75*
G02*
X104103828Y-114416000I-272172J0D01*
G01*
X103396172Y-114416000D01*
G75*
G02*
X103124000Y-114143828I0J272172D01*
G01*
X103124000Y-113186172D01*
G75*
G02*
X103396172Y-112914000I272172J0D01*
G01*
X104103828Y-112914000D01*
G75*
G02*
X104376000Y-113186172I0J-272172D01*
G01*
G37*
G36*
G01*
X193911000Y-112551172D02*
X193911000Y-113508828D01*
G75*
G02*
X193638828Y-113781000I-272172J0D01*
G01*
X192931172Y-113781000D01*
G75*
G02*
X192659000Y-113508828I0J272172D01*
G01*
X192659000Y-112551172D01*
G75*
G02*
X192931172Y-112279000I272172J0D01*
G01*
X193638828Y-112279000D01*
G75*
G02*
X193911000Y-112551172I0J-272172D01*
G01*
G37*
G36*
G01*
X195961000Y-112551172D02*
X195961000Y-113508828D01*
G75*
G02*
X195688828Y-113781000I-272172J0D01*
G01*
X194981172Y-113781000D01*
G75*
G02*
X194709000Y-113508828I0J272172D01*
G01*
X194709000Y-112551172D01*
G75*
G02*
X194981172Y-112279000I272172J0D01*
G01*
X195688828Y-112279000D01*
G75*
G02*
X195961000Y-112551172I0J-272172D01*
G01*
G37*
G36*
G01*
X195961000Y-114456172D02*
X195961000Y-115413828D01*
G75*
G02*
X195688828Y-115686000I-272172J0D01*
G01*
X194981172Y-115686000D01*
G75*
G02*
X194709000Y-115413828I0J272172D01*
G01*
X194709000Y-114456172D01*
G75*
G02*
X194981172Y-114184000I272172J0D01*
G01*
X195688828Y-114184000D01*
G75*
G02*
X195961000Y-114456172I0J-272172D01*
G01*
G37*
G36*
G01*
X193911000Y-114456172D02*
X193911000Y-115413828D01*
G75*
G02*
X193638828Y-115686000I-272172J0D01*
G01*
X192931172Y-115686000D01*
G75*
G02*
X192659000Y-115413828I0J272172D01*
G01*
X192659000Y-114456172D01*
G75*
G02*
X192931172Y-114184000I272172J0D01*
G01*
X193638828Y-114184000D01*
G75*
G02*
X193911000Y-114456172I0J-272172D01*
G01*
G37*
G36*
G01*
X195961000Y-116361172D02*
X195961000Y-117318828D01*
G75*
G02*
X195688828Y-117591000I-272172J0D01*
G01*
X194981172Y-117591000D01*
G75*
G02*
X194709000Y-117318828I0J272172D01*
G01*
X194709000Y-116361172D01*
G75*
G02*
X194981172Y-116089000I272172J0D01*
G01*
X195688828Y-116089000D01*
G75*
G02*
X195961000Y-116361172I0J-272172D01*
G01*
G37*
G36*
G01*
X193911000Y-116360684D02*
X193911000Y-117319316D01*
G75*
G02*
X193639316Y-117591000I-271684J0D01*
G01*
X192930684Y-117591000D01*
G75*
G02*
X192659000Y-117319316I0J271684D01*
G01*
X192659000Y-116360684D01*
G75*
G02*
X192930684Y-116089000I271684J0D01*
G01*
X193639316Y-116089000D01*
G75*
G02*
X193911000Y-116360684I0J-271684D01*
G01*
G37*
G36*
G01*
X193911000Y-118265684D02*
X193911000Y-119224316D01*
G75*
G02*
X193639316Y-119496000I-271684J0D01*
G01*
X192930684Y-119496000D01*
G75*
G02*
X192659000Y-119224316I0J271684D01*
G01*
X192659000Y-118265684D01*
G75*
G02*
X192930684Y-117994000I271684J0D01*
G01*
X193639316Y-117994000D01*
G75*
G02*
X193911000Y-118265684I0J-271684D01*
G01*
G37*
G36*
G01*
X195961000Y-118265684D02*
X195961000Y-119224316D01*
G75*
G02*
X195689316Y-119496000I-271684J0D01*
G01*
X194980684Y-119496000D01*
G75*
G02*
X194709000Y-119224316I0J271684D01*
G01*
X194709000Y-118265684D01*
G75*
G02*
X194980684Y-117994000I271684J0D01*
G01*
X195689316Y-117994000D01*
G75*
G02*
X195961000Y-118265684I0J-271684D01*
G01*
G37*
G36*
G01*
X193911000Y-120170684D02*
X193911000Y-121129316D01*
G75*
G02*
X193639316Y-121401000I-271684J0D01*
G01*
X192930684Y-121401000D01*
G75*
G02*
X192659000Y-121129316I0J271684D01*
G01*
X192659000Y-120170684D01*
G75*
G02*
X192930684Y-119899000I271684J0D01*
G01*
X193639316Y-119899000D01*
G75*
G02*
X193911000Y-120170684I0J-271684D01*
G01*
G37*
G36*
G01*
X195961000Y-120171172D02*
X195961000Y-121128828D01*
G75*
G02*
X195688828Y-121401000I-272172J0D01*
G01*
X194981172Y-121401000D01*
G75*
G02*
X194709000Y-121128828I0J272172D01*
G01*
X194709000Y-120171172D01*
G75*
G02*
X194981172Y-119899000I272172J0D01*
G01*
X195688828Y-119899000D01*
G75*
G02*
X195961000Y-120171172I0J-272172D01*
G01*
G37*
G36*
G01*
X195961000Y-122075684D02*
X195961000Y-123034316D01*
G75*
G02*
X195689316Y-123306000I-271684J0D01*
G01*
X194980684Y-123306000D01*
G75*
G02*
X194709000Y-123034316I0J271684D01*
G01*
X194709000Y-122075684D01*
G75*
G02*
X194980684Y-121804000I271684J0D01*
G01*
X195689316Y-121804000D01*
G75*
G02*
X195961000Y-122075684I0J-271684D01*
G01*
G37*
G36*
G01*
X193911000Y-122075684D02*
X193911000Y-123034316D01*
G75*
G02*
X193639316Y-123306000I-271684J0D01*
G01*
X192930684Y-123306000D01*
G75*
G02*
X192659000Y-123034316I0J271684D01*
G01*
X192659000Y-122075684D01*
G75*
G02*
X192930684Y-121804000I271684J0D01*
G01*
X193639316Y-121804000D01*
G75*
G02*
X193911000Y-122075684I0J-271684D01*
G01*
G37*
G36*
G01*
X195961000Y-123981172D02*
X195961000Y-124938828D01*
G75*
G02*
X195688828Y-125211000I-272172J0D01*
G01*
X194981172Y-125211000D01*
G75*
G02*
X194709000Y-124938828I0J272172D01*
G01*
X194709000Y-123981172D01*
G75*
G02*
X194981172Y-123709000I272172J0D01*
G01*
X195688828Y-123709000D01*
G75*
G02*
X195961000Y-123981172I0J-272172D01*
G01*
G37*
G36*
G01*
X193911000Y-123980684D02*
X193911000Y-124939316D01*
G75*
G02*
X193639316Y-125211000I-271684J0D01*
G01*
X192930684Y-125211000D01*
G75*
G02*
X192659000Y-124939316I0J271684D01*
G01*
X192659000Y-123980684D01*
G75*
G02*
X192930684Y-123709000I271684J0D01*
G01*
X193639316Y-123709000D01*
G75*
G02*
X193911000Y-123980684I0J-271684D01*
G01*
G37*
G36*
G01*
X193911000Y-125885684D02*
X193911000Y-126844316D01*
G75*
G02*
X193639316Y-127116000I-271684J0D01*
G01*
X192930684Y-127116000D01*
G75*
G02*
X192659000Y-126844316I0J271684D01*
G01*
X192659000Y-125885684D01*
G75*
G02*
X192930684Y-125614000I271684J0D01*
G01*
X193639316Y-125614000D01*
G75*
G02*
X193911000Y-125885684I0J-271684D01*
G01*
G37*
G36*
G01*
X195961000Y-125885684D02*
X195961000Y-126844316D01*
G75*
G02*
X195689316Y-127116000I-271684J0D01*
G01*
X194980684Y-127116000D01*
G75*
G02*
X194709000Y-126844316I0J271684D01*
G01*
X194709000Y-125885684D01*
G75*
G02*
X194980684Y-125614000I271684J0D01*
G01*
X195689316Y-125614000D01*
G75*
G02*
X195961000Y-125885684I0J-271684D01*
G01*
G37*
G36*
G01*
X193911000Y-127790684D02*
X193911000Y-128749316D01*
G75*
G02*
X193639316Y-129021000I-271684J0D01*
G01*
X192930684Y-129021000D01*
G75*
G02*
X192659000Y-128749316I0J271684D01*
G01*
X192659000Y-127790684D01*
G75*
G02*
X192930684Y-127519000I271684J0D01*
G01*
X193639316Y-127519000D01*
G75*
G02*
X193911000Y-127790684I0J-271684D01*
G01*
G37*
G36*
G01*
X195961000Y-127791172D02*
X195961000Y-128748828D01*
G75*
G02*
X195688828Y-129021000I-272172J0D01*
G01*
X194981172Y-129021000D01*
G75*
G02*
X194709000Y-128748828I0J272172D01*
G01*
X194709000Y-127791172D01*
G75*
G02*
X194981172Y-127519000I272172J0D01*
G01*
X195688828Y-127519000D01*
G75*
G02*
X195961000Y-127791172I0J-272172D01*
G01*
G37*
G36*
G01*
X193911000Y-129695684D02*
X193911000Y-130654316D01*
G75*
G02*
X193639316Y-130926000I-271684J0D01*
G01*
X192930684Y-130926000D01*
G75*
G02*
X192659000Y-130654316I0J271684D01*
G01*
X192659000Y-129695684D01*
G75*
G02*
X192930684Y-129424000I271684J0D01*
G01*
X193639316Y-129424000D01*
G75*
G02*
X193911000Y-129695684I0J-271684D01*
G01*
G37*
G36*
G01*
X195961000Y-129695684D02*
X195961000Y-130654316D01*
G75*
G02*
X195689316Y-130926000I-271684J0D01*
G01*
X194980684Y-130926000D01*
G75*
G02*
X194709000Y-130654316I0J271684D01*
G01*
X194709000Y-129695684D01*
G75*
G02*
X194980684Y-129424000I271684J0D01*
G01*
X195689316Y-129424000D01*
G75*
G02*
X195961000Y-129695684I0J-271684D01*
G01*
G37*
G36*
G01*
X130653828Y-71356000D02*
X129696172Y-71356000D01*
G75*
G02*
X129424000Y-71083828I0J272172D01*
G01*
X129424000Y-70376172D01*
G75*
G02*
X129696172Y-70104000I272172J0D01*
G01*
X130653828Y-70104000D01*
G75*
G02*
X130926000Y-70376172I0J-272172D01*
G01*
X130926000Y-71083828D01*
G75*
G02*
X130653828Y-71356000I-272172J0D01*
G01*
G37*
G36*
G01*
X130653828Y-73406000D02*
X129696172Y-73406000D01*
G75*
G02*
X129424000Y-73133828I0J272172D01*
G01*
X129424000Y-72426172D01*
G75*
G02*
X129696172Y-72154000I272172J0D01*
G01*
X130653828Y-72154000D01*
G75*
G02*
X130926000Y-72426172I0J-272172D01*
G01*
X130926000Y-73133828D01*
G75*
G02*
X130653828Y-73406000I-272172J0D01*
G01*
G37*
G36*
G01*
X127351828Y-73406000D02*
X126394172Y-73406000D01*
G75*
G02*
X126122000Y-73133828I0J272172D01*
G01*
X126122000Y-72426172D01*
G75*
G02*
X126394172Y-72154000I272172J0D01*
G01*
X127351828Y-72154000D01*
G75*
G02*
X127624000Y-72426172I0J-272172D01*
G01*
X127624000Y-73133828D01*
G75*
G02*
X127351828Y-73406000I-272172J0D01*
G01*
G37*
G36*
G01*
X127351828Y-71356000D02*
X126394172Y-71356000D01*
G75*
G02*
X126122000Y-71083828I0J272172D01*
G01*
X126122000Y-70376172D01*
G75*
G02*
X126394172Y-70104000I272172J0D01*
G01*
X127351828Y-70104000D01*
G75*
G02*
X127624000Y-70376172I0J-272172D01*
G01*
X127624000Y-71083828D01*
G75*
G02*
X127351828Y-71356000I-272172J0D01*
G01*
G37*
G36*
G01*
X121775000Y-94771172D02*
X121775000Y-95728828D01*
G75*
G02*
X121502828Y-96001000I-272172J0D01*
G01*
X120795172Y-96001000D01*
G75*
G02*
X120523000Y-95728828I0J272172D01*
G01*
X120523000Y-94771172D01*
G75*
G02*
X120795172Y-94499000I272172J0D01*
G01*
X121502828Y-94499000D01*
G75*
G02*
X121775000Y-94771172I0J-272172D01*
G01*
G37*
G36*
G01*
X123825000Y-94771172D02*
X123825000Y-95728828D01*
G75*
G02*
X123552828Y-96001000I-272172J0D01*
G01*
X122845172Y-96001000D01*
G75*
G02*
X122573000Y-95728828I0J272172D01*
G01*
X122573000Y-94771172D01*
G75*
G02*
X122845172Y-94499000I272172J0D01*
G01*
X123552828Y-94499000D01*
G75*
G02*
X123825000Y-94771172I0J-272172D01*
G01*
G37*
G36*
G01*
X185801000Y-143031172D02*
X185801000Y-143988828D01*
G75*
G02*
X185528828Y-144261000I-272172J0D01*
G01*
X184821172Y-144261000D01*
G75*
G02*
X184549000Y-143988828I0J272172D01*
G01*
X184549000Y-143031172D01*
G75*
G02*
X184821172Y-142759000I272172J0D01*
G01*
X185528828Y-142759000D01*
G75*
G02*
X185801000Y-143031172I0J-272172D01*
G01*
G37*
G36*
G01*
X183751000Y-143031172D02*
X183751000Y-143988828D01*
G75*
G02*
X183478828Y-144261000I-272172J0D01*
G01*
X182771172Y-144261000D01*
G75*
G02*
X182499000Y-143988828I0J272172D01*
G01*
X182499000Y-143031172D01*
G75*
G02*
X182771172Y-142759000I272172J0D01*
G01*
X183478828Y-142759000D01*
G75*
G02*
X183751000Y-143031172I0J-272172D01*
G01*
G37*
G36*
G01*
X197249000Y-146528828D02*
X197249000Y-145571172D01*
G75*
G02*
X197521172Y-145299000I272172J0D01*
G01*
X198228828Y-145299000D01*
G75*
G02*
X198501000Y-145571172I0J-272172D01*
G01*
X198501000Y-146528828D01*
G75*
G02*
X198228828Y-146801000I-272172J0D01*
G01*
X197521172Y-146801000D01*
G75*
G02*
X197249000Y-146528828I0J272172D01*
G01*
G37*
G36*
G01*
X195199000Y-146528828D02*
X195199000Y-145571172D01*
G75*
G02*
X195471172Y-145299000I272172J0D01*
G01*
X196178828Y-145299000D01*
G75*
G02*
X196451000Y-145571172I0J-272172D01*
G01*
X196451000Y-146528828D01*
G75*
G02*
X196178828Y-146801000I-272172J0D01*
G01*
X195471172Y-146801000D01*
G75*
G02*
X195199000Y-146528828I0J272172D01*
G01*
G37*
G36*
G01*
X197249000Y-143988828D02*
X197249000Y-143031172D01*
G75*
G02*
X197521172Y-142759000I272172J0D01*
G01*
X198228828Y-142759000D01*
G75*
G02*
X198501000Y-143031172I0J-272172D01*
G01*
X198501000Y-143988828D01*
G75*
G02*
X198228828Y-144261000I-272172J0D01*
G01*
X197521172Y-144261000D01*
G75*
G02*
X197249000Y-143988828I0J272172D01*
G01*
G37*
G36*
G01*
X195199000Y-143988828D02*
X195199000Y-143031172D01*
G75*
G02*
X195471172Y-142759000I272172J0D01*
G01*
X196178828Y-142759000D01*
G75*
G02*
X196451000Y-143031172I0J-272172D01*
G01*
X196451000Y-143988828D01*
G75*
G02*
X196178828Y-144261000I-272172J0D01*
G01*
X195471172Y-144261000D01*
G75*
G02*
X195199000Y-143988828I0J272172D01*
G01*
G37*
G36*
G01*
X120496000Y-122035000D02*
X120496000Y-122485000D01*
G75*
G02*
X120445000Y-122536000I-51000J0D01*
G01*
X118995000Y-122536000D01*
G75*
G02*
X118944000Y-122485000I0J51000D01*
G01*
X118944000Y-122035000D01*
G75*
G02*
X118995000Y-121984000I51000J0D01*
G01*
X120445000Y-121984000D01*
G75*
G02*
X120496000Y-122035000I0J-51000D01*
G01*
G37*
G36*
G01*
X120496000Y-121385000D02*
X120496000Y-121835000D01*
G75*
G02*
X120445000Y-121886000I-51000J0D01*
G01*
X118995000Y-121886000D01*
G75*
G02*
X118944000Y-121835000I0J51000D01*
G01*
X118944000Y-121385000D01*
G75*
G02*
X118995000Y-121334000I51000J0D01*
G01*
X120445000Y-121334000D01*
G75*
G02*
X120496000Y-121385000I0J-51000D01*
G01*
G37*
G36*
G01*
X120496000Y-120735000D02*
X120496000Y-121185000D01*
G75*
G02*
X120445000Y-121236000I-51000J0D01*
G01*
X118995000Y-121236000D01*
G75*
G02*
X118944000Y-121185000I0J51000D01*
G01*
X118944000Y-120735000D01*
G75*
G02*
X118995000Y-120684000I51000J0D01*
G01*
X120445000Y-120684000D01*
G75*
G02*
X120496000Y-120735000I0J-51000D01*
G01*
G37*
G36*
G01*
X120496000Y-120085000D02*
X120496000Y-120535000D01*
G75*
G02*
X120445000Y-120586000I-51000J0D01*
G01*
X118995000Y-120586000D01*
G75*
G02*
X118944000Y-120535000I0J51000D01*
G01*
X118944000Y-120085000D01*
G75*
G02*
X118995000Y-120034000I51000J0D01*
G01*
X120445000Y-120034000D01*
G75*
G02*
X120496000Y-120085000I0J-51000D01*
G01*
G37*
G36*
G01*
X124896000Y-120085000D02*
X124896000Y-120535000D01*
G75*
G02*
X124845000Y-120586000I-51000J0D01*
G01*
X123395000Y-120586000D01*
G75*
G02*
X123344000Y-120535000I0J51000D01*
G01*
X123344000Y-120085000D01*
G75*
G02*
X123395000Y-120034000I51000J0D01*
G01*
X124845000Y-120034000D01*
G75*
G02*
X124896000Y-120085000I0J-51000D01*
G01*
G37*
G36*
G01*
X124896000Y-120735000D02*
X124896000Y-121185000D01*
G75*
G02*
X124845000Y-121236000I-51000J0D01*
G01*
X123395000Y-121236000D01*
G75*
G02*
X123344000Y-121185000I0J51000D01*
G01*
X123344000Y-120735000D01*
G75*
G02*
X123395000Y-120684000I51000J0D01*
G01*
X124845000Y-120684000D01*
G75*
G02*
X124896000Y-120735000I0J-51000D01*
G01*
G37*
G36*
G01*
X124896000Y-121385000D02*
X124896000Y-121835000D01*
G75*
G02*
X124845000Y-121886000I-51000J0D01*
G01*
X123395000Y-121886000D01*
G75*
G02*
X123344000Y-121835000I0J51000D01*
G01*
X123344000Y-121385000D01*
G75*
G02*
X123395000Y-121334000I51000J0D01*
G01*
X124845000Y-121334000D01*
G75*
G02*
X124896000Y-121385000I0J-51000D01*
G01*
G37*
G36*
G01*
X124896000Y-122035000D02*
X124896000Y-122485000D01*
G75*
G02*
X124845000Y-122536000I-51000J0D01*
G01*
X123395000Y-122536000D01*
G75*
G02*
X123344000Y-122485000I0J51000D01*
G01*
X123344000Y-122035000D01*
G75*
G02*
X123395000Y-121984000I51000J0D01*
G01*
X124845000Y-121984000D01*
G75*
G02*
X124896000Y-122035000I0J-51000D01*
G01*
G37*
G36*
G01*
X110311000Y-136984500D02*
X110311000Y-137335500D01*
G75*
G02*
X110135500Y-137511000I-175500J0D01*
G01*
X108434500Y-137511000D01*
G75*
G02*
X108259000Y-137335500I0J175500D01*
G01*
X108259000Y-136984500D01*
G75*
G02*
X108434500Y-136809000I175500J0D01*
G01*
X110135500Y-136809000D01*
G75*
G02*
X110311000Y-136984500I0J-175500D01*
G01*
G37*
G36*
G01*
X110311000Y-135714500D02*
X110311000Y-136065500D01*
G75*
G02*
X110135500Y-136241000I-175500J0D01*
G01*
X108434500Y-136241000D01*
G75*
G02*
X108259000Y-136065500I0J175500D01*
G01*
X108259000Y-135714500D01*
G75*
G02*
X108434500Y-135539000I175500J0D01*
G01*
X110135500Y-135539000D01*
G75*
G02*
X110311000Y-135714500I0J-175500D01*
G01*
G37*
G36*
G01*
X110311000Y-134444500D02*
X110311000Y-134795500D01*
G75*
G02*
X110135500Y-134971000I-175500J0D01*
G01*
X108434500Y-134971000D01*
G75*
G02*
X108259000Y-134795500I0J175500D01*
G01*
X108259000Y-134444500D01*
G75*
G02*
X108434500Y-134269000I175500J0D01*
G01*
X110135500Y-134269000D01*
G75*
G02*
X110311000Y-134444500I0J-175500D01*
G01*
G37*
G36*
G01*
X110311000Y-133174500D02*
X110311000Y-133525500D01*
G75*
G02*
X110135500Y-133701000I-175500J0D01*
G01*
X108434500Y-133701000D01*
G75*
G02*
X108259000Y-133525500I0J175500D01*
G01*
X108259000Y-133174500D01*
G75*
G02*
X108434500Y-132999000I175500J0D01*
G01*
X110135500Y-132999000D01*
G75*
G02*
X110311000Y-133174500I0J-175500D01*
G01*
G37*
G36*
G01*
X115261000Y-133174500D02*
X115261000Y-133525500D01*
G75*
G02*
X115085500Y-133701000I-175500J0D01*
G01*
X113384500Y-133701000D01*
G75*
G02*
X113209000Y-133525500I0J175500D01*
G01*
X113209000Y-133174500D01*
G75*
G02*
X113384500Y-132999000I175500J0D01*
G01*
X115085500Y-132999000D01*
G75*
G02*
X115261000Y-133174500I0J-175500D01*
G01*
G37*
G36*
G01*
X115261000Y-134444500D02*
X115261000Y-134795500D01*
G75*
G02*
X115085500Y-134971000I-175500J0D01*
G01*
X113384500Y-134971000D01*
G75*
G02*
X113209000Y-134795500I0J175500D01*
G01*
X113209000Y-134444500D01*
G75*
G02*
X113384500Y-134269000I175500J0D01*
G01*
X115085500Y-134269000D01*
G75*
G02*
X115261000Y-134444500I0J-175500D01*
G01*
G37*
G36*
G01*
X115261000Y-135714500D02*
X115261000Y-136065500D01*
G75*
G02*
X115085500Y-136241000I-175500J0D01*
G01*
X113384500Y-136241000D01*
G75*
G02*
X113209000Y-136065500I0J175500D01*
G01*
X113209000Y-135714500D01*
G75*
G02*
X113384500Y-135539000I175500J0D01*
G01*
X115085500Y-135539000D01*
G75*
G02*
X115261000Y-135714500I0J-175500D01*
G01*
G37*
G36*
G01*
X115261000Y-136984500D02*
X115261000Y-137335500D01*
G75*
G02*
X115085500Y-137511000I-175500J0D01*
G01*
X113384500Y-137511000D01*
G75*
G02*
X113209000Y-137335500I0J175500D01*
G01*
X113209000Y-136984500D01*
G75*
G02*
X113384500Y-136809000I175500J0D01*
G01*
X115085500Y-136809000D01*
G75*
G02*
X115261000Y-136984500I0J-175500D01*
G01*
G37*
G36*
G01*
X186824000Y-117315000D02*
X186824000Y-116865000D01*
G75*
G02*
X186875000Y-116814000I51000J0D01*
G01*
X188625000Y-116814000D01*
G75*
G02*
X188676000Y-116865000I0J-51000D01*
G01*
X188676000Y-117315000D01*
G75*
G02*
X188625000Y-117366000I-51000J0D01*
G01*
X186875000Y-117366000D01*
G75*
G02*
X186824000Y-117315000I0J51000D01*
G01*
G37*
G36*
G01*
X186824000Y-117965000D02*
X186824000Y-117515000D01*
G75*
G02*
X186875000Y-117464000I51000J0D01*
G01*
X188625000Y-117464000D01*
G75*
G02*
X188676000Y-117515000I0J-51000D01*
G01*
X188676000Y-117965000D01*
G75*
G02*
X188625000Y-118016000I-51000J0D01*
G01*
X186875000Y-118016000D01*
G75*
G02*
X186824000Y-117965000I0J51000D01*
G01*
G37*
G36*
G01*
X186824000Y-118615000D02*
X186824000Y-118165000D01*
G75*
G02*
X186875000Y-118114000I51000J0D01*
G01*
X188625000Y-118114000D01*
G75*
G02*
X188676000Y-118165000I0J-51000D01*
G01*
X188676000Y-118615000D01*
G75*
G02*
X188625000Y-118666000I-51000J0D01*
G01*
X186875000Y-118666000D01*
G75*
G02*
X186824000Y-118615000I0J51000D01*
G01*
G37*
G36*
G01*
X186824000Y-119265000D02*
X186824000Y-118815000D01*
G75*
G02*
X186875000Y-118764000I51000J0D01*
G01*
X188625000Y-118764000D01*
G75*
G02*
X188676000Y-118815000I0J-51000D01*
G01*
X188676000Y-119265000D01*
G75*
G02*
X188625000Y-119316000I-51000J0D01*
G01*
X186875000Y-119316000D01*
G75*
G02*
X186824000Y-119265000I0J51000D01*
G01*
G37*
G36*
G01*
X186824000Y-119915000D02*
X186824000Y-119465000D01*
G75*
G02*
X186875000Y-119414000I51000J0D01*
G01*
X188625000Y-119414000D01*
G75*
G02*
X188676000Y-119465000I0J-51000D01*
G01*
X188676000Y-119915000D01*
G75*
G02*
X188625000Y-119966000I-51000J0D01*
G01*
X186875000Y-119966000D01*
G75*
G02*
X186824000Y-119915000I0J51000D01*
G01*
G37*
G36*
G01*
X186824000Y-120565000D02*
X186824000Y-120115000D01*
G75*
G02*
X186875000Y-120064000I51000J0D01*
G01*
X188625000Y-120064000D01*
G75*
G02*
X188676000Y-120115000I0J-51000D01*
G01*
X188676000Y-120565000D01*
G75*
G02*
X188625000Y-120616000I-51000J0D01*
G01*
X186875000Y-120616000D01*
G75*
G02*
X186824000Y-120565000I0J51000D01*
G01*
G37*
G36*
G01*
X186824000Y-121215000D02*
X186824000Y-120765000D01*
G75*
G02*
X186875000Y-120714000I51000J0D01*
G01*
X188625000Y-120714000D01*
G75*
G02*
X188676000Y-120765000I0J-51000D01*
G01*
X188676000Y-121215000D01*
G75*
G02*
X188625000Y-121266000I-51000J0D01*
G01*
X186875000Y-121266000D01*
G75*
G02*
X186824000Y-121215000I0J51000D01*
G01*
G37*
G36*
G01*
X186824000Y-121865000D02*
X186824000Y-121415000D01*
G75*
G02*
X186875000Y-121364000I51000J0D01*
G01*
X188625000Y-121364000D01*
G75*
G02*
X188676000Y-121415000I0J-51000D01*
G01*
X188676000Y-121865000D01*
G75*
G02*
X188625000Y-121916000I-51000J0D01*
G01*
X186875000Y-121916000D01*
G75*
G02*
X186824000Y-121865000I0J51000D01*
G01*
G37*
G36*
G01*
X186824000Y-122515000D02*
X186824000Y-122065000D01*
G75*
G02*
X186875000Y-122014000I51000J0D01*
G01*
X188625000Y-122014000D01*
G75*
G02*
X188676000Y-122065000I0J-51000D01*
G01*
X188676000Y-122515000D01*
G75*
G02*
X188625000Y-122566000I-51000J0D01*
G01*
X186875000Y-122566000D01*
G75*
G02*
X186824000Y-122515000I0J51000D01*
G01*
G37*
G36*
G01*
X186824000Y-123165000D02*
X186824000Y-122715000D01*
G75*
G02*
X186875000Y-122664000I51000J0D01*
G01*
X188625000Y-122664000D01*
G75*
G02*
X188676000Y-122715000I0J-51000D01*
G01*
X188676000Y-123165000D01*
G75*
G02*
X188625000Y-123216000I-51000J0D01*
G01*
X186875000Y-123216000D01*
G75*
G02*
X186824000Y-123165000I0J51000D01*
G01*
G37*
G36*
G01*
X179624000Y-123165000D02*
X179624000Y-122715000D01*
G75*
G02*
X179675000Y-122664000I51000J0D01*
G01*
X181425000Y-122664000D01*
G75*
G02*
X181476000Y-122715000I0J-51000D01*
G01*
X181476000Y-123165000D01*
G75*
G02*
X181425000Y-123216000I-51000J0D01*
G01*
X179675000Y-123216000D01*
G75*
G02*
X179624000Y-123165000I0J51000D01*
G01*
G37*
G36*
G01*
X179624000Y-122515000D02*
X179624000Y-122065000D01*
G75*
G02*
X179675000Y-122014000I51000J0D01*
G01*
X181425000Y-122014000D01*
G75*
G02*
X181476000Y-122065000I0J-51000D01*
G01*
X181476000Y-122515000D01*
G75*
G02*
X181425000Y-122566000I-51000J0D01*
G01*
X179675000Y-122566000D01*
G75*
G02*
X179624000Y-122515000I0J51000D01*
G01*
G37*
G36*
G01*
X179624000Y-121865000D02*
X179624000Y-121415000D01*
G75*
G02*
X179675000Y-121364000I51000J0D01*
G01*
X181425000Y-121364000D01*
G75*
G02*
X181476000Y-121415000I0J-51000D01*
G01*
X181476000Y-121865000D01*
G75*
G02*
X181425000Y-121916000I-51000J0D01*
G01*
X179675000Y-121916000D01*
G75*
G02*
X179624000Y-121865000I0J51000D01*
G01*
G37*
G36*
G01*
X179624000Y-121215000D02*
X179624000Y-120765000D01*
G75*
G02*
X179675000Y-120714000I51000J0D01*
G01*
X181425000Y-120714000D01*
G75*
G02*
X181476000Y-120765000I0J-51000D01*
G01*
X181476000Y-121215000D01*
G75*
G02*
X181425000Y-121266000I-51000J0D01*
G01*
X179675000Y-121266000D01*
G75*
G02*
X179624000Y-121215000I0J51000D01*
G01*
G37*
G36*
G01*
X179624000Y-120565000D02*
X179624000Y-120115000D01*
G75*
G02*
X179675000Y-120064000I51000J0D01*
G01*
X181425000Y-120064000D01*
G75*
G02*
X181476000Y-120115000I0J-51000D01*
G01*
X181476000Y-120565000D01*
G75*
G02*
X181425000Y-120616000I-51000J0D01*
G01*
X179675000Y-120616000D01*
G75*
G02*
X179624000Y-120565000I0J51000D01*
G01*
G37*
G36*
G01*
X179624000Y-119915000D02*
X179624000Y-119465000D01*
G75*
G02*
X179675000Y-119414000I51000J0D01*
G01*
X181425000Y-119414000D01*
G75*
G02*
X181476000Y-119465000I0J-51000D01*
G01*
X181476000Y-119915000D01*
G75*
G02*
X181425000Y-119966000I-51000J0D01*
G01*
X179675000Y-119966000D01*
G75*
G02*
X179624000Y-119915000I0J51000D01*
G01*
G37*
G36*
G01*
X179624000Y-119265000D02*
X179624000Y-118815000D01*
G75*
G02*
X179675000Y-118764000I51000J0D01*
G01*
X181425000Y-118764000D01*
G75*
G02*
X181476000Y-118815000I0J-51000D01*
G01*
X181476000Y-119265000D01*
G75*
G02*
X181425000Y-119316000I-51000J0D01*
G01*
X179675000Y-119316000D01*
G75*
G02*
X179624000Y-119265000I0J51000D01*
G01*
G37*
G36*
G01*
X179624000Y-118615000D02*
X179624000Y-118165000D01*
G75*
G02*
X179675000Y-118114000I51000J0D01*
G01*
X181425000Y-118114000D01*
G75*
G02*
X181476000Y-118165000I0J-51000D01*
G01*
X181476000Y-118615000D01*
G75*
G02*
X181425000Y-118666000I-51000J0D01*
G01*
X179675000Y-118666000D01*
G75*
G02*
X179624000Y-118615000I0J51000D01*
G01*
G37*
G36*
G01*
X179624000Y-117965000D02*
X179624000Y-117515000D01*
G75*
G02*
X179675000Y-117464000I51000J0D01*
G01*
X181425000Y-117464000D01*
G75*
G02*
X181476000Y-117515000I0J-51000D01*
G01*
X181476000Y-117965000D01*
G75*
G02*
X181425000Y-118016000I-51000J0D01*
G01*
X179675000Y-118016000D01*
G75*
G02*
X179624000Y-117965000I0J51000D01*
G01*
G37*
G36*
G01*
X179624000Y-117315000D02*
X179624000Y-116865000D01*
G75*
G02*
X179675000Y-116814000I51000J0D01*
G01*
X181425000Y-116814000D01*
G75*
G02*
X181476000Y-116865000I0J-51000D01*
G01*
X181476000Y-117315000D01*
G75*
G02*
X181425000Y-117366000I-51000J0D01*
G01*
X179675000Y-117366000D01*
G75*
G02*
X179624000Y-117315000I0J51000D01*
G01*
G37*
G36*
G01*
X80475000Y-114139000D02*
X80475000Y-112631000D01*
G75*
G02*
X80526000Y-112580000I51000J0D01*
G01*
X82034000Y-112580000D01*
G75*
G02*
X82085000Y-112631000I0J-51000D01*
G01*
X82085000Y-114139000D01*
G75*
G02*
X82034000Y-114190000I-51000J0D01*
G01*
X80526000Y-114190000D01*
G75*
G02*
X80475000Y-114139000I0J51000D01*
G01*
G37*
D23*
X83820000Y-113385000D03*
X86360000Y-113385000D03*
G36*
G01*
X132236172Y-73914000D02*
X133193828Y-73914000D01*
G75*
G02*
X133466000Y-74186172I0J-272172D01*
G01*
X133466000Y-74893828D01*
G75*
G02*
X133193828Y-75166000I-272172J0D01*
G01*
X132236172Y-75166000D01*
G75*
G02*
X131964000Y-74893828I0J272172D01*
G01*
X131964000Y-74186172D01*
G75*
G02*
X132236172Y-73914000I272172J0D01*
G01*
G37*
G36*
G01*
X132236172Y-75964000D02*
X133193828Y-75964000D01*
G75*
G02*
X133466000Y-76236172I0J-272172D01*
G01*
X133466000Y-76943828D01*
G75*
G02*
X133193828Y-77216000I-272172J0D01*
G01*
X132236172Y-77216000D01*
G75*
G02*
X131964000Y-76943828I0J272172D01*
G01*
X131964000Y-76236172D01*
G75*
G02*
X132236172Y-75964000I272172J0D01*
G01*
G37*
G36*
G01*
X127791172Y-85489000D02*
X128748828Y-85489000D01*
G75*
G02*
X129021000Y-85761172I0J-272172D01*
G01*
X129021000Y-86468828D01*
G75*
G02*
X128748828Y-86741000I-272172J0D01*
G01*
X127791172Y-86741000D01*
G75*
G02*
X127519000Y-86468828I0J272172D01*
G01*
X127519000Y-85761172D01*
G75*
G02*
X127791172Y-85489000I272172J0D01*
G01*
G37*
G36*
G01*
X127791172Y-83439000D02*
X128748828Y-83439000D01*
G75*
G02*
X129021000Y-83711172I0J-272172D01*
G01*
X129021000Y-84418828D01*
G75*
G02*
X128748828Y-84691000I-272172J0D01*
G01*
X127791172Y-84691000D01*
G75*
G02*
X127519000Y-84418828I0J272172D01*
G01*
X127519000Y-83711172D01*
G75*
G02*
X127791172Y-83439000I272172J0D01*
G01*
G37*
G36*
G01*
X121775000Y-100486172D02*
X121775000Y-101443828D01*
G75*
G02*
X121502828Y-101716000I-272172J0D01*
G01*
X120795172Y-101716000D01*
G75*
G02*
X120523000Y-101443828I0J272172D01*
G01*
X120523000Y-100486172D01*
G75*
G02*
X120795172Y-100214000I272172J0D01*
G01*
X121502828Y-100214000D01*
G75*
G02*
X121775000Y-100486172I0J-272172D01*
G01*
G37*
G36*
G01*
X123825000Y-100486172D02*
X123825000Y-101443828D01*
G75*
G02*
X123552828Y-101716000I-272172J0D01*
G01*
X122845172Y-101716000D01*
G75*
G02*
X122573000Y-101443828I0J272172D01*
G01*
X122573000Y-100486172D01*
G75*
G02*
X122845172Y-100214000I272172J0D01*
G01*
X123552828Y-100214000D01*
G75*
G02*
X123825000Y-100486172I0J-272172D01*
G01*
G37*
G36*
G01*
X105691000Y-126770000D02*
X105691000Y-129770000D01*
G75*
G02*
X105640000Y-129821000I-51000J0D01*
G01*
X102640000Y-129821000D01*
G75*
G02*
X102589000Y-129770000I0J51000D01*
G01*
X102589000Y-126770000D01*
G75*
G02*
X102640000Y-126719000I51000J0D01*
G01*
X105640000Y-126719000D01*
G75*
G02*
X105691000Y-126770000I0J-51000D01*
G01*
G37*
D24*
X83650000Y-128270000D03*
G36*
G01*
X110726000Y-129061172D02*
X110726000Y-130018828D01*
G75*
G02*
X110453828Y-130291000I-272172J0D01*
G01*
X109746172Y-130291000D01*
G75*
G02*
X109474000Y-130018828I0J272172D01*
G01*
X109474000Y-129061172D01*
G75*
G02*
X109746172Y-128789000I272172J0D01*
G01*
X110453828Y-128789000D01*
G75*
G02*
X110726000Y-129061172I0J-272172D01*
G01*
G37*
G36*
G01*
X112776000Y-129061172D02*
X112776000Y-130018828D01*
G75*
G02*
X112503828Y-130291000I-272172J0D01*
G01*
X111796172Y-130291000D01*
G75*
G02*
X111524000Y-130018828I0J272172D01*
G01*
X111524000Y-129061172D01*
G75*
G02*
X111796172Y-128789000I272172J0D01*
G01*
X112503828Y-128789000D01*
G75*
G02*
X112776000Y-129061172I0J-272172D01*
G01*
G37*
G36*
G01*
X187803828Y-107551000D02*
X186846172Y-107551000D01*
G75*
G02*
X186574000Y-107278828I0J272172D01*
G01*
X186574000Y-106571172D01*
G75*
G02*
X186846172Y-106299000I272172J0D01*
G01*
X187803828Y-106299000D01*
G75*
G02*
X188076000Y-106571172I0J-272172D01*
G01*
X188076000Y-107278828D01*
G75*
G02*
X187803828Y-107551000I-272172J0D01*
G01*
G37*
G36*
G01*
X187803828Y-109601000D02*
X186846172Y-109601000D01*
G75*
G02*
X186574000Y-109328828I0J272172D01*
G01*
X186574000Y-108621172D01*
G75*
G02*
X186846172Y-108349000I272172J0D01*
G01*
X187803828Y-108349000D01*
G75*
G02*
X188076000Y-108621172I0J-272172D01*
G01*
X188076000Y-109328828D01*
G75*
G02*
X187803828Y-109601000I-272172J0D01*
G01*
G37*
G36*
G01*
X184649000Y-108350000D02*
X184649000Y-107550000D01*
G75*
G02*
X184700000Y-107499000I51000J0D01*
G01*
X185600000Y-107499000D01*
G75*
G02*
X185651000Y-107550000I0J-51000D01*
G01*
X185651000Y-108350000D01*
G75*
G02*
X185600000Y-108401000I-51000J0D01*
G01*
X184700000Y-108401000D01*
G75*
G02*
X184649000Y-108350000I0J51000D01*
G01*
G37*
G36*
G01*
X182649000Y-109300000D02*
X182649000Y-108500000D01*
G75*
G02*
X182700000Y-108449000I51000J0D01*
G01*
X183600000Y-108449000D01*
G75*
G02*
X183651000Y-108500000I0J-51000D01*
G01*
X183651000Y-109300000D01*
G75*
G02*
X183600000Y-109351000I-51000J0D01*
G01*
X182700000Y-109351000D01*
G75*
G02*
X182649000Y-109300000I0J51000D01*
G01*
G37*
G36*
G01*
X182649000Y-107400000D02*
X182649000Y-106600000D01*
G75*
G02*
X182700000Y-106549000I51000J0D01*
G01*
X183600000Y-106549000D01*
G75*
G02*
X183651000Y-106600000I0J-51000D01*
G01*
X183651000Y-107400000D01*
G75*
G02*
X183600000Y-107451000I-51000J0D01*
G01*
X182700000Y-107451000D01*
G75*
G02*
X182649000Y-107400000I0J51000D01*
G01*
G37*
G36*
G01*
X190343828Y-107551000D02*
X189386172Y-107551000D01*
G75*
G02*
X189114000Y-107278828I0J272172D01*
G01*
X189114000Y-106571172D01*
G75*
G02*
X189386172Y-106299000I272172J0D01*
G01*
X190343828Y-106299000D01*
G75*
G02*
X190616000Y-106571172I0J-272172D01*
G01*
X190616000Y-107278828D01*
G75*
G02*
X190343828Y-107551000I-272172J0D01*
G01*
G37*
G36*
G01*
X190343828Y-109601000D02*
X189386172Y-109601000D01*
G75*
G02*
X189114000Y-109328828I0J272172D01*
G01*
X189114000Y-108621172D01*
G75*
G02*
X189386172Y-108349000I272172J0D01*
G01*
X190343828Y-108349000D01*
G75*
G02*
X190616000Y-108621172I0J-272172D01*
G01*
X190616000Y-109328828D01*
G75*
G02*
X190343828Y-109601000I-272172J0D01*
G01*
G37*
G36*
G01*
X112574000Y-124000500D02*
X112574000Y-123649500D01*
G75*
G02*
X112749500Y-123474000I175500J0D01*
G01*
X114450500Y-123474000D01*
G75*
G02*
X114626000Y-123649500I0J-175500D01*
G01*
X114626000Y-124000500D01*
G75*
G02*
X114450500Y-124176000I-175500J0D01*
G01*
X112749500Y-124176000D01*
G75*
G02*
X112574000Y-124000500I0J175500D01*
G01*
G37*
G36*
G01*
X112574000Y-125270500D02*
X112574000Y-124919500D01*
G75*
G02*
X112749500Y-124744000I175500J0D01*
G01*
X114450500Y-124744000D01*
G75*
G02*
X114626000Y-124919500I0J-175500D01*
G01*
X114626000Y-125270500D01*
G75*
G02*
X114450500Y-125446000I-175500J0D01*
G01*
X112749500Y-125446000D01*
G75*
G02*
X112574000Y-125270500I0J175500D01*
G01*
G37*
G36*
G01*
X112574000Y-126540500D02*
X112574000Y-126189500D01*
G75*
G02*
X112749500Y-126014000I175500J0D01*
G01*
X114450500Y-126014000D01*
G75*
G02*
X114626000Y-126189500I0J-175500D01*
G01*
X114626000Y-126540500D01*
G75*
G02*
X114450500Y-126716000I-175500J0D01*
G01*
X112749500Y-126716000D01*
G75*
G02*
X112574000Y-126540500I0J175500D01*
G01*
G37*
G36*
G01*
X112574000Y-127810500D02*
X112574000Y-127459500D01*
G75*
G02*
X112749500Y-127284000I175500J0D01*
G01*
X114450500Y-127284000D01*
G75*
G02*
X114626000Y-127459500I0J-175500D01*
G01*
X114626000Y-127810500D01*
G75*
G02*
X114450500Y-127986000I-175500J0D01*
G01*
X112749500Y-127986000D01*
G75*
G02*
X112574000Y-127810500I0J175500D01*
G01*
G37*
G36*
G01*
X107624000Y-127810500D02*
X107624000Y-127459500D01*
G75*
G02*
X107799500Y-127284000I175500J0D01*
G01*
X109500500Y-127284000D01*
G75*
G02*
X109676000Y-127459500I0J-175500D01*
G01*
X109676000Y-127810500D01*
G75*
G02*
X109500500Y-127986000I-175500J0D01*
G01*
X107799500Y-127986000D01*
G75*
G02*
X107624000Y-127810500I0J175500D01*
G01*
G37*
G36*
G01*
X107624000Y-126540500D02*
X107624000Y-126189500D01*
G75*
G02*
X107799500Y-126014000I175500J0D01*
G01*
X109500500Y-126014000D01*
G75*
G02*
X109676000Y-126189500I0J-175500D01*
G01*
X109676000Y-126540500D01*
G75*
G02*
X109500500Y-126716000I-175500J0D01*
G01*
X107799500Y-126716000D01*
G75*
G02*
X107624000Y-126540500I0J175500D01*
G01*
G37*
G36*
G01*
X107624000Y-125270500D02*
X107624000Y-124919500D01*
G75*
G02*
X107799500Y-124744000I175500J0D01*
G01*
X109500500Y-124744000D01*
G75*
G02*
X109676000Y-124919500I0J-175500D01*
G01*
X109676000Y-125270500D01*
G75*
G02*
X109500500Y-125446000I-175500J0D01*
G01*
X107799500Y-125446000D01*
G75*
G02*
X107624000Y-125270500I0J175500D01*
G01*
G37*
G36*
G01*
X107624000Y-124000500D02*
X107624000Y-123649500D01*
G75*
G02*
X107799500Y-123474000I175500J0D01*
G01*
X109500500Y-123474000D01*
G75*
G02*
X109676000Y-123649500I0J-175500D01*
G01*
X109676000Y-124000500D01*
G75*
G02*
X109500500Y-124176000I-175500J0D01*
G01*
X107799500Y-124176000D01*
G75*
G02*
X107624000Y-124000500I0J175500D01*
G01*
G37*
G36*
G01*
X109456000Y-116996172D02*
X109456000Y-117953828D01*
G75*
G02*
X109183828Y-118226000I-272172J0D01*
G01*
X108476172Y-118226000D01*
G75*
G02*
X108204000Y-117953828I0J272172D01*
G01*
X108204000Y-116996172D01*
G75*
G02*
X108476172Y-116724000I272172J0D01*
G01*
X109183828Y-116724000D01*
G75*
G02*
X109456000Y-116996172I0J-272172D01*
G01*
G37*
G36*
G01*
X111506000Y-116996172D02*
X111506000Y-117953828D01*
G75*
G02*
X111233828Y-118226000I-272172J0D01*
G01*
X110526172Y-118226000D01*
G75*
G02*
X110254000Y-117953828I0J272172D01*
G01*
X110254000Y-116996172D01*
G75*
G02*
X110526172Y-116724000I272172J0D01*
G01*
X111233828Y-116724000D01*
G75*
G02*
X111506000Y-116996172I0J-272172D01*
G01*
G37*
G36*
G01*
X103124000Y-117953828D02*
X103124000Y-116996172D01*
G75*
G02*
X103396172Y-116724000I272172J0D01*
G01*
X104103828Y-116724000D01*
G75*
G02*
X104376000Y-116996172I0J-272172D01*
G01*
X104376000Y-117953828D01*
G75*
G02*
X104103828Y-118226000I-272172J0D01*
G01*
X103396172Y-118226000D01*
G75*
G02*
X103124000Y-117953828I0J272172D01*
G01*
G37*
G36*
G01*
X105174000Y-117953828D02*
X105174000Y-116996172D01*
G75*
G02*
X105446172Y-116724000I272172J0D01*
G01*
X106153828Y-116724000D01*
G75*
G02*
X106426000Y-116996172I0J-272172D01*
G01*
X106426000Y-117953828D01*
G75*
G02*
X106153828Y-118226000I-272172J0D01*
G01*
X105446172Y-118226000D01*
G75*
G02*
X105174000Y-117953828I0J272172D01*
G01*
G37*
G36*
G01*
X142718828Y-77216000D02*
X141761172Y-77216000D01*
G75*
G02*
X141489000Y-76943828I0J272172D01*
G01*
X141489000Y-76236172D01*
G75*
G02*
X141761172Y-75964000I272172J0D01*
G01*
X142718828Y-75964000D01*
G75*
G02*
X142991000Y-76236172I0J-272172D01*
G01*
X142991000Y-76943828D01*
G75*
G02*
X142718828Y-77216000I-272172J0D01*
G01*
G37*
G36*
G01*
X142718828Y-75166000D02*
X141761172Y-75166000D01*
G75*
G02*
X141489000Y-74893828I0J272172D01*
G01*
X141489000Y-74186172D01*
G75*
G02*
X141761172Y-73914000I272172J0D01*
G01*
X142718828Y-73914000D01*
G75*
G02*
X142991000Y-74186172I0J-272172D01*
G01*
X142991000Y-74893828D01*
G75*
G02*
X142718828Y-75166000I-272172J0D01*
G01*
G37*
G36*
G01*
X149661000Y-75754500D02*
X149661000Y-76055500D01*
G75*
G02*
X149510500Y-76206000I-150500J0D01*
G01*
X148084500Y-76206000D01*
G75*
G02*
X147934000Y-76055500I0J150500D01*
G01*
X147934000Y-75754500D01*
G75*
G02*
X148084500Y-75604000I150500J0D01*
G01*
X149510500Y-75604000D01*
G75*
G02*
X149661000Y-75754500I0J-150500D01*
G01*
G37*
G36*
G01*
X149661000Y-75104500D02*
X149661000Y-75405500D01*
G75*
G02*
X149510500Y-75556000I-150500J0D01*
G01*
X148084500Y-75556000D01*
G75*
G02*
X147934000Y-75405500I0J150500D01*
G01*
X147934000Y-75104500D01*
G75*
G02*
X148084500Y-74954000I150500J0D01*
G01*
X149510500Y-74954000D01*
G75*
G02*
X149661000Y-75104500I0J-150500D01*
G01*
G37*
G36*
G01*
X149661000Y-74454500D02*
X149661000Y-74755500D01*
G75*
G02*
X149510500Y-74906000I-150500J0D01*
G01*
X148084500Y-74906000D01*
G75*
G02*
X147934000Y-74755500I0J150500D01*
G01*
X147934000Y-74454500D01*
G75*
G02*
X148084500Y-74304000I150500J0D01*
G01*
X149510500Y-74304000D01*
G75*
G02*
X149661000Y-74454500I0J-150500D01*
G01*
G37*
G36*
G01*
X149661000Y-73804500D02*
X149661000Y-74105500D01*
G75*
G02*
X149510500Y-74256000I-150500J0D01*
G01*
X148084500Y-74256000D01*
G75*
G02*
X147934000Y-74105500I0J150500D01*
G01*
X147934000Y-73804500D01*
G75*
G02*
X148084500Y-73654000I150500J0D01*
G01*
X149510500Y-73654000D01*
G75*
G02*
X149661000Y-73804500I0J-150500D01*
G01*
G37*
G36*
G01*
X145436000Y-73804500D02*
X145436000Y-74105500D01*
G75*
G02*
X145285500Y-74256000I-150500J0D01*
G01*
X143859500Y-74256000D01*
G75*
G02*
X143709000Y-74105500I0J150500D01*
G01*
X143709000Y-73804500D01*
G75*
G02*
X143859500Y-73654000I150500J0D01*
G01*
X145285500Y-73654000D01*
G75*
G02*
X145436000Y-73804500I0J-150500D01*
G01*
G37*
G36*
G01*
X145436000Y-74454500D02*
X145436000Y-74755500D01*
G75*
G02*
X145285500Y-74906000I-150500J0D01*
G01*
X143859500Y-74906000D01*
G75*
G02*
X143709000Y-74755500I0J150500D01*
G01*
X143709000Y-74454500D01*
G75*
G02*
X143859500Y-74304000I150500J0D01*
G01*
X145285500Y-74304000D01*
G75*
G02*
X145436000Y-74454500I0J-150500D01*
G01*
G37*
G36*
G01*
X145436000Y-75104500D02*
X145436000Y-75405500D01*
G75*
G02*
X145285500Y-75556000I-150500J0D01*
G01*
X143859500Y-75556000D01*
G75*
G02*
X143709000Y-75405500I0J150500D01*
G01*
X143709000Y-75104500D01*
G75*
G02*
X143859500Y-74954000I150500J0D01*
G01*
X145285500Y-74954000D01*
G75*
G02*
X145436000Y-75104500I0J-150500D01*
G01*
G37*
G36*
G01*
X145436000Y-75754500D02*
X145436000Y-76055500D01*
G75*
G02*
X145285500Y-76206000I-150500J0D01*
G01*
X143859500Y-76206000D01*
G75*
G02*
X143709000Y-76055500I0J150500D01*
G01*
X143709000Y-75754500D01*
G75*
G02*
X143859500Y-75604000I150500J0D01*
G01*
X145285500Y-75604000D01*
G75*
G02*
X145436000Y-75754500I0J-150500D01*
G01*
G37*
G36*
G01*
X133469000Y-97960000D02*
X131961000Y-97960000D01*
G75*
G02*
X131910000Y-97909000I0J51000D01*
G01*
X131910000Y-96401000D01*
G75*
G02*
X131961000Y-96350000I51000J0D01*
G01*
X133469000Y-96350000D01*
G75*
G02*
X133520000Y-96401000I0J-51000D01*
G01*
X133520000Y-97909000D01*
G75*
G02*
X133469000Y-97960000I-51000J0D01*
G01*
G37*
D23*
X132715000Y-94615000D03*
X132715000Y-81915000D03*
X132715000Y-86995000D03*
D25*
X83185000Y-51435000D03*
X203835000Y-51435000D03*
G36*
G01*
X185801000Y-149381172D02*
X185801000Y-150338828D01*
G75*
G02*
X185528828Y-150611000I-272172J0D01*
G01*
X184821172Y-150611000D01*
G75*
G02*
X184549000Y-150338828I0J272172D01*
G01*
X184549000Y-149381172D01*
G75*
G02*
X184821172Y-149109000I272172J0D01*
G01*
X185528828Y-149109000D01*
G75*
G02*
X185801000Y-149381172I0J-272172D01*
G01*
G37*
G36*
G01*
X183751000Y-149381172D02*
X183751000Y-150338828D01*
G75*
G02*
X183478828Y-150611000I-272172J0D01*
G01*
X182771172Y-150611000D01*
G75*
G02*
X182499000Y-150338828I0J272172D01*
G01*
X182499000Y-149381172D01*
G75*
G02*
X182771172Y-149109000I272172J0D01*
G01*
X183478828Y-149109000D01*
G75*
G02*
X183751000Y-149381172I0J-272172D01*
G01*
G37*
G36*
G01*
X197249000Y-150338828D02*
X197249000Y-149381172D01*
G75*
G02*
X197521172Y-149109000I272172J0D01*
G01*
X198228828Y-149109000D01*
G75*
G02*
X198501000Y-149381172I0J-272172D01*
G01*
X198501000Y-150338828D01*
G75*
G02*
X198228828Y-150611000I-272172J0D01*
G01*
X197521172Y-150611000D01*
G75*
G02*
X197249000Y-150338828I0J272172D01*
G01*
G37*
G36*
G01*
X195199000Y-150338828D02*
X195199000Y-149381172D01*
G75*
G02*
X195471172Y-149109000I272172J0D01*
G01*
X196178828Y-149109000D01*
G75*
G02*
X196451000Y-149381172I0J-272172D01*
G01*
X196451000Y-150338828D01*
G75*
G02*
X196178828Y-150611000I-272172J0D01*
G01*
X195471172Y-150611000D01*
G75*
G02*
X195199000Y-150338828I0J272172D01*
G01*
G37*
G36*
G01*
X192899000Y-140498000D02*
X192899000Y-140172000D01*
G75*
G02*
X193062000Y-140009000I163000J0D01*
G01*
X194438000Y-140009000D01*
G75*
G02*
X194601000Y-140172000I0J-163000D01*
G01*
X194601000Y-140498000D01*
G75*
G02*
X194438000Y-140661000I-163000J0D01*
G01*
X193062000Y-140661000D01*
G75*
G02*
X192899000Y-140498000I0J163000D01*
G01*
G37*
G36*
G01*
X192899000Y-141768000D02*
X192899000Y-141442000D01*
G75*
G02*
X193062000Y-141279000I163000J0D01*
G01*
X194438000Y-141279000D01*
G75*
G02*
X194601000Y-141442000I0J-163000D01*
G01*
X194601000Y-141768000D01*
G75*
G02*
X194438000Y-141931000I-163000J0D01*
G01*
X193062000Y-141931000D01*
G75*
G02*
X192899000Y-141768000I0J163000D01*
G01*
G37*
G36*
G01*
X192899000Y-143038000D02*
X192899000Y-142712000D01*
G75*
G02*
X193062000Y-142549000I163000J0D01*
G01*
X194438000Y-142549000D01*
G75*
G02*
X194601000Y-142712000I0J-163000D01*
G01*
X194601000Y-143038000D01*
G75*
G02*
X194438000Y-143201000I-163000J0D01*
G01*
X193062000Y-143201000D01*
G75*
G02*
X192899000Y-143038000I0J163000D01*
G01*
G37*
G36*
G01*
X192899000Y-144308000D02*
X192899000Y-143982000D01*
G75*
G02*
X193062000Y-143819000I163000J0D01*
G01*
X194438000Y-143819000D01*
G75*
G02*
X194601000Y-143982000I0J-163000D01*
G01*
X194601000Y-144308000D01*
G75*
G02*
X194438000Y-144471000I-163000J0D01*
G01*
X193062000Y-144471000D01*
G75*
G02*
X192899000Y-144308000I0J163000D01*
G01*
G37*
G36*
G01*
X192899000Y-145578000D02*
X192899000Y-145252000D01*
G75*
G02*
X193062000Y-145089000I163000J0D01*
G01*
X194438000Y-145089000D01*
G75*
G02*
X194601000Y-145252000I0J-163000D01*
G01*
X194601000Y-145578000D01*
G75*
G02*
X194438000Y-145741000I-163000J0D01*
G01*
X193062000Y-145741000D01*
G75*
G02*
X192899000Y-145578000I0J163000D01*
G01*
G37*
G36*
G01*
X192899000Y-146848000D02*
X192899000Y-146522000D01*
G75*
G02*
X193062000Y-146359000I163000J0D01*
G01*
X194438000Y-146359000D01*
G75*
G02*
X194601000Y-146522000I0J-163000D01*
G01*
X194601000Y-146848000D01*
G75*
G02*
X194438000Y-147011000I-163000J0D01*
G01*
X193062000Y-147011000D01*
G75*
G02*
X192899000Y-146848000I0J163000D01*
G01*
G37*
G36*
G01*
X192899000Y-148118000D02*
X192899000Y-147792000D01*
G75*
G02*
X193062000Y-147629000I163000J0D01*
G01*
X194438000Y-147629000D01*
G75*
G02*
X194601000Y-147792000I0J-163000D01*
G01*
X194601000Y-148118000D01*
G75*
G02*
X194438000Y-148281000I-163000J0D01*
G01*
X193062000Y-148281000D01*
G75*
G02*
X192899000Y-148118000I0J163000D01*
G01*
G37*
G36*
G01*
X192899000Y-149388000D02*
X192899000Y-149062000D01*
G75*
G02*
X193062000Y-148899000I163000J0D01*
G01*
X194438000Y-148899000D01*
G75*
G02*
X194601000Y-149062000I0J-163000D01*
G01*
X194601000Y-149388000D01*
G75*
G02*
X194438000Y-149551000I-163000J0D01*
G01*
X193062000Y-149551000D01*
G75*
G02*
X192899000Y-149388000I0J163000D01*
G01*
G37*
G36*
G01*
X186399000Y-149388000D02*
X186399000Y-149062000D01*
G75*
G02*
X186562000Y-148899000I163000J0D01*
G01*
X187938000Y-148899000D01*
G75*
G02*
X188101000Y-149062000I0J-163000D01*
G01*
X188101000Y-149388000D01*
G75*
G02*
X187938000Y-149551000I-163000J0D01*
G01*
X186562000Y-149551000D01*
G75*
G02*
X186399000Y-149388000I0J163000D01*
G01*
G37*
G36*
G01*
X186399000Y-148118000D02*
X186399000Y-147792000D01*
G75*
G02*
X186562000Y-147629000I163000J0D01*
G01*
X187938000Y-147629000D01*
G75*
G02*
X188101000Y-147792000I0J-163000D01*
G01*
X188101000Y-148118000D01*
G75*
G02*
X187938000Y-148281000I-163000J0D01*
G01*
X186562000Y-148281000D01*
G75*
G02*
X186399000Y-148118000I0J163000D01*
G01*
G37*
G36*
G01*
X186399000Y-146848000D02*
X186399000Y-146522000D01*
G75*
G02*
X186562000Y-146359000I163000J0D01*
G01*
X187938000Y-146359000D01*
G75*
G02*
X188101000Y-146522000I0J-163000D01*
G01*
X188101000Y-146848000D01*
G75*
G02*
X187938000Y-147011000I-163000J0D01*
G01*
X186562000Y-147011000D01*
G75*
G02*
X186399000Y-146848000I0J163000D01*
G01*
G37*
G36*
G01*
X186399000Y-145578000D02*
X186399000Y-145252000D01*
G75*
G02*
X186562000Y-145089000I163000J0D01*
G01*
X187938000Y-145089000D01*
G75*
G02*
X188101000Y-145252000I0J-163000D01*
G01*
X188101000Y-145578000D01*
G75*
G02*
X187938000Y-145741000I-163000J0D01*
G01*
X186562000Y-145741000D01*
G75*
G02*
X186399000Y-145578000I0J163000D01*
G01*
G37*
G36*
G01*
X186399000Y-144308000D02*
X186399000Y-143982000D01*
G75*
G02*
X186562000Y-143819000I163000J0D01*
G01*
X187938000Y-143819000D01*
G75*
G02*
X188101000Y-143982000I0J-163000D01*
G01*
X188101000Y-144308000D01*
G75*
G02*
X187938000Y-144471000I-163000J0D01*
G01*
X186562000Y-144471000D01*
G75*
G02*
X186399000Y-144308000I0J163000D01*
G01*
G37*
G36*
G01*
X186399000Y-143038000D02*
X186399000Y-142712000D01*
G75*
G02*
X186562000Y-142549000I163000J0D01*
G01*
X187938000Y-142549000D01*
G75*
G02*
X188101000Y-142712000I0J-163000D01*
G01*
X188101000Y-143038000D01*
G75*
G02*
X187938000Y-143201000I-163000J0D01*
G01*
X186562000Y-143201000D01*
G75*
G02*
X186399000Y-143038000I0J163000D01*
G01*
G37*
G36*
G01*
X186399000Y-141768000D02*
X186399000Y-141442000D01*
G75*
G02*
X186562000Y-141279000I163000J0D01*
G01*
X187938000Y-141279000D01*
G75*
G02*
X188101000Y-141442000I0J-163000D01*
G01*
X188101000Y-141768000D01*
G75*
G02*
X187938000Y-141931000I-163000J0D01*
G01*
X186562000Y-141931000D01*
G75*
G02*
X186399000Y-141768000I0J163000D01*
G01*
G37*
G36*
G01*
X186399000Y-140498000D02*
X186399000Y-140172000D01*
G75*
G02*
X186562000Y-140009000I163000J0D01*
G01*
X187938000Y-140009000D01*
G75*
G02*
X188101000Y-140172000I0J-163000D01*
G01*
X188101000Y-140498000D01*
G75*
G02*
X187938000Y-140661000I-163000J0D01*
G01*
X186562000Y-140661000D01*
G75*
G02*
X186399000Y-140498000I0J163000D01*
G01*
G37*
G36*
G01*
X120523000Y-97633828D02*
X120523000Y-96676172D01*
G75*
G02*
X120795172Y-96404000I272172J0D01*
G01*
X121502828Y-96404000D01*
G75*
G02*
X121775000Y-96676172I0J-272172D01*
G01*
X121775000Y-97633828D01*
G75*
G02*
X121502828Y-97906000I-272172J0D01*
G01*
X120795172Y-97906000D01*
G75*
G02*
X120523000Y-97633828I0J272172D01*
G01*
G37*
G36*
G01*
X122573000Y-97633828D02*
X122573000Y-96676172D01*
G75*
G02*
X122845172Y-96404000I272172J0D01*
G01*
X123552828Y-96404000D01*
G75*
G02*
X123825000Y-96676172I0J-272172D01*
G01*
X123825000Y-97633828D01*
G75*
G02*
X123552828Y-97906000I-272172J0D01*
G01*
X122845172Y-97906000D01*
G75*
G02*
X122573000Y-97633828I0J272172D01*
G01*
G37*
G36*
G01*
X120523000Y-99538828D02*
X120523000Y-98581172D01*
G75*
G02*
X120795172Y-98309000I272172J0D01*
G01*
X121502828Y-98309000D01*
G75*
G02*
X121775000Y-98581172I0J-272172D01*
G01*
X121775000Y-99538828D01*
G75*
G02*
X121502828Y-99811000I-272172J0D01*
G01*
X120795172Y-99811000D01*
G75*
G02*
X120523000Y-99538828I0J272172D01*
G01*
G37*
G36*
G01*
X122573000Y-99538828D02*
X122573000Y-98581172D01*
G75*
G02*
X122845172Y-98309000I272172J0D01*
G01*
X123552828Y-98309000D01*
G75*
G02*
X123825000Y-98581172I0J-272172D01*
G01*
X123825000Y-99538828D01*
G75*
G02*
X123552828Y-99811000I-272172J0D01*
G01*
X122845172Y-99811000D01*
G75*
G02*
X122573000Y-99538828I0J272172D01*
G01*
G37*
D26*
G36*
X134490990Y-143681359D02*
G01*
X134495955Y-143731775D01*
X134510606Y-143780071D01*
X134534395Y-143824579D01*
X134566411Y-143863589D01*
X134605421Y-143895605D01*
X134649929Y-143919394D01*
X134698225Y-143934045D01*
X134748641Y-143939010D01*
X134750267Y-143940175D01*
X134750071Y-143942165D01*
X134748445Y-143943000D01*
X134652734Y-143943000D01*
X134652538Y-143942990D01*
X134615773Y-143939369D01*
X134615388Y-143939293D01*
X134585933Y-143930358D01*
X134585571Y-143930208D01*
X134558434Y-143915702D01*
X134558108Y-143915484D01*
X134534317Y-143895960D01*
X134534040Y-143895683D01*
X134514516Y-143871892D01*
X134514298Y-143871566D01*
X134499792Y-143844429D01*
X134499642Y-143844067D01*
X134490707Y-143814612D01*
X134490631Y-143814227D01*
X134487010Y-143777462D01*
X134487000Y-143777266D01*
X134487000Y-143681555D01*
X134488000Y-143679823D01*
X134490000Y-143679823D01*
X134490990Y-143681359D01*
G37*
G36*
X102367165Y-143679929D02*
G01*
X102368000Y-143681555D01*
X102368000Y-143777266D01*
X102367990Y-143777462D01*
X102364369Y-143814227D01*
X102364293Y-143814612D01*
X102355358Y-143844067D01*
X102355208Y-143844429D01*
X102340702Y-143871566D01*
X102340484Y-143871892D01*
X102320960Y-143895683D01*
X102320683Y-143895960D01*
X102296892Y-143915484D01*
X102296566Y-143915702D01*
X102269429Y-143930208D01*
X102269067Y-143930358D01*
X102239612Y-143939293D01*
X102239227Y-143939369D01*
X102202462Y-143942990D01*
X102202266Y-143943000D01*
X102106555Y-143943000D01*
X102104823Y-143942000D01*
X102104823Y-143940000D01*
X102106359Y-143939010D01*
X102156775Y-143934045D01*
X102205071Y-143919394D01*
X102249579Y-143895605D01*
X102288589Y-143863589D01*
X102320605Y-143824579D01*
X102344394Y-143780071D01*
X102359045Y-143731775D01*
X102364010Y-143681359D01*
X102365175Y-143679733D01*
X102367165Y-143679929D01*
G37*
G36*
X141475990Y-143681359D02*
G01*
X141480955Y-143731775D01*
X141495606Y-143780071D01*
X141519395Y-143824579D01*
X141551411Y-143863589D01*
X141590421Y-143895605D01*
X141634929Y-143919394D01*
X141683225Y-143934045D01*
X141733641Y-143939010D01*
X141735267Y-143940175D01*
X141735071Y-143942165D01*
X141733445Y-143943000D01*
X141637734Y-143943000D01*
X141637538Y-143942990D01*
X141600773Y-143939369D01*
X141600388Y-143939293D01*
X141570933Y-143930358D01*
X141570571Y-143930208D01*
X141543434Y-143915702D01*
X141543108Y-143915484D01*
X141519317Y-143895960D01*
X141519040Y-143895683D01*
X141499516Y-143871892D01*
X141499298Y-143871566D01*
X141484792Y-143844429D01*
X141484642Y-143844067D01*
X141475707Y-143814612D01*
X141475631Y-143814227D01*
X141472010Y-143777462D01*
X141472000Y-143777266D01*
X141472000Y-143681555D01*
X141473000Y-143679823D01*
X141475000Y-143679823D01*
X141475990Y-143681359D01*
G37*
G36*
X127505990Y-143681359D02*
G01*
X127510955Y-143731775D01*
X127525606Y-143780071D01*
X127549395Y-143824579D01*
X127581411Y-143863589D01*
X127620421Y-143895605D01*
X127664929Y-143919394D01*
X127713225Y-143934045D01*
X127763641Y-143939010D01*
X127765267Y-143940175D01*
X127765071Y-143942165D01*
X127763445Y-143943000D01*
X127667734Y-143943000D01*
X127667538Y-143942990D01*
X127630773Y-143939369D01*
X127630388Y-143939293D01*
X127600933Y-143930358D01*
X127600571Y-143930208D01*
X127573434Y-143915702D01*
X127573108Y-143915484D01*
X127549317Y-143895960D01*
X127549040Y-143895683D01*
X127529516Y-143871892D01*
X127529298Y-143871566D01*
X127514792Y-143844429D01*
X127514642Y-143844067D01*
X127505707Y-143814612D01*
X127505631Y-143814227D01*
X127502010Y-143777462D01*
X127502000Y-143777266D01*
X127502000Y-143681555D01*
X127503000Y-143679823D01*
X127505000Y-143679823D01*
X127505990Y-143681359D01*
G37*
G36*
X137292165Y-143679929D02*
G01*
X137293000Y-143681555D01*
X137293000Y-143777266D01*
X137292990Y-143777462D01*
X137289369Y-143814227D01*
X137289293Y-143814612D01*
X137280358Y-143844067D01*
X137280208Y-143844429D01*
X137265702Y-143871566D01*
X137265484Y-143871892D01*
X137245960Y-143895683D01*
X137245683Y-143895960D01*
X137221892Y-143915484D01*
X137221566Y-143915702D01*
X137194429Y-143930208D01*
X137194067Y-143930358D01*
X137164612Y-143939293D01*
X137164227Y-143939369D01*
X137127462Y-143942990D01*
X137127266Y-143943000D01*
X137031555Y-143943000D01*
X137029823Y-143942000D01*
X137029823Y-143940000D01*
X137031359Y-143939010D01*
X137081775Y-143934045D01*
X137130071Y-143919394D01*
X137174579Y-143895605D01*
X137213589Y-143863589D01*
X137245605Y-143824579D01*
X137269394Y-143780071D01*
X137284045Y-143731775D01*
X137289010Y-143681359D01*
X137290175Y-143679733D01*
X137292165Y-143679929D01*
G37*
G36*
X144277165Y-143679929D02*
G01*
X144278000Y-143681555D01*
X144278000Y-143777266D01*
X144277990Y-143777462D01*
X144274369Y-143814227D01*
X144274293Y-143814612D01*
X144265358Y-143844067D01*
X144265208Y-143844429D01*
X144250702Y-143871566D01*
X144250484Y-143871892D01*
X144230960Y-143895683D01*
X144230683Y-143895960D01*
X144206892Y-143915484D01*
X144206566Y-143915702D01*
X144179429Y-143930208D01*
X144179067Y-143930358D01*
X144149612Y-143939293D01*
X144149227Y-143939369D01*
X144112462Y-143942990D01*
X144112266Y-143943000D01*
X144016555Y-143943000D01*
X144014823Y-143942000D01*
X144014823Y-143940000D01*
X144016359Y-143939010D01*
X144066775Y-143934045D01*
X144115071Y-143919394D01*
X144159579Y-143895605D01*
X144198589Y-143863589D01*
X144230605Y-143824579D01*
X144254394Y-143780071D01*
X144269045Y-143731775D01*
X144274010Y-143681359D01*
X144275175Y-143679733D01*
X144277165Y-143679929D01*
G37*
G36*
X130307165Y-143679929D02*
G01*
X130308000Y-143681555D01*
X130308000Y-143777266D01*
X130307990Y-143777462D01*
X130304369Y-143814227D01*
X130304293Y-143814612D01*
X130295358Y-143844067D01*
X130295208Y-143844429D01*
X130280702Y-143871566D01*
X130280484Y-143871892D01*
X130260960Y-143895683D01*
X130260683Y-143895960D01*
X130236892Y-143915484D01*
X130236566Y-143915702D01*
X130209429Y-143930208D01*
X130209067Y-143930358D01*
X130179612Y-143939293D01*
X130179227Y-143939369D01*
X130142462Y-143942990D01*
X130142266Y-143943000D01*
X130046555Y-143943000D01*
X130044823Y-143942000D01*
X130044823Y-143940000D01*
X130046359Y-143939010D01*
X130096775Y-143934045D01*
X130145071Y-143919394D01*
X130189579Y-143895605D01*
X130228589Y-143863589D01*
X130260605Y-143824579D01*
X130284394Y-143780071D01*
X130299045Y-143731775D01*
X130304010Y-143681359D01*
X130305175Y-143679733D01*
X130307165Y-143679929D01*
G37*
G36*
X99565990Y-143681359D02*
G01*
X99570955Y-143731775D01*
X99585606Y-143780071D01*
X99609395Y-143824579D01*
X99641411Y-143863589D01*
X99680421Y-143895605D01*
X99724929Y-143919394D01*
X99773225Y-143934045D01*
X99823641Y-143939010D01*
X99825267Y-143940175D01*
X99825071Y-143942165D01*
X99823445Y-143943000D01*
X99727734Y-143943000D01*
X99727538Y-143942990D01*
X99690773Y-143939369D01*
X99690388Y-143939293D01*
X99660933Y-143930358D01*
X99660571Y-143930208D01*
X99633434Y-143915702D01*
X99633108Y-143915484D01*
X99609317Y-143895960D01*
X99609040Y-143895683D01*
X99589516Y-143871892D01*
X99589298Y-143871566D01*
X99574792Y-143844429D01*
X99574642Y-143844067D01*
X99565707Y-143814612D01*
X99565631Y-143814227D01*
X99562010Y-143777462D01*
X99562000Y-143777266D01*
X99562000Y-143681555D01*
X99563000Y-143679823D01*
X99565000Y-143679823D01*
X99565990Y-143681359D01*
G37*
G36*
X127765177Y-140538000D02*
G01*
X127765177Y-140540000D01*
X127763641Y-140540990D01*
X127713225Y-140545955D01*
X127664929Y-140560606D01*
X127620421Y-140584395D01*
X127581411Y-140616411D01*
X127549395Y-140655421D01*
X127525606Y-140699929D01*
X127510955Y-140748225D01*
X127505990Y-140798641D01*
X127504825Y-140800267D01*
X127502835Y-140800071D01*
X127502000Y-140798445D01*
X127502000Y-140702734D01*
X127502010Y-140702538D01*
X127505631Y-140665773D01*
X127505707Y-140665388D01*
X127514642Y-140635933D01*
X127514792Y-140635571D01*
X127529298Y-140608434D01*
X127529516Y-140608108D01*
X127549040Y-140584317D01*
X127549317Y-140584040D01*
X127573108Y-140564516D01*
X127573434Y-140564298D01*
X127600571Y-140549792D01*
X127600933Y-140549642D01*
X127630388Y-140540707D01*
X127630773Y-140540631D01*
X127667538Y-140537010D01*
X127667734Y-140537000D01*
X127763445Y-140537000D01*
X127765177Y-140538000D01*
G37*
G36*
X134750177Y-140538000D02*
G01*
X134750177Y-140540000D01*
X134748641Y-140540990D01*
X134698225Y-140545955D01*
X134649929Y-140560606D01*
X134605421Y-140584395D01*
X134566411Y-140616411D01*
X134534395Y-140655421D01*
X134510606Y-140699929D01*
X134495955Y-140748225D01*
X134490990Y-140798641D01*
X134489825Y-140800267D01*
X134487835Y-140800071D01*
X134487000Y-140798445D01*
X134487000Y-140702734D01*
X134487010Y-140702538D01*
X134490631Y-140665773D01*
X134490707Y-140665388D01*
X134499642Y-140635933D01*
X134499792Y-140635571D01*
X134514298Y-140608434D01*
X134514516Y-140608108D01*
X134534040Y-140584317D01*
X134534317Y-140584040D01*
X134558108Y-140564516D01*
X134558434Y-140564298D01*
X134585571Y-140549792D01*
X134585933Y-140549642D01*
X134615388Y-140540707D01*
X134615773Y-140540631D01*
X134652538Y-140537010D01*
X134652734Y-140537000D01*
X134748445Y-140537000D01*
X134750177Y-140538000D01*
G37*
G36*
X99825177Y-140538000D02*
G01*
X99825177Y-140540000D01*
X99823641Y-140540990D01*
X99773225Y-140545955D01*
X99724929Y-140560606D01*
X99680421Y-140584395D01*
X99641411Y-140616411D01*
X99609395Y-140655421D01*
X99585606Y-140699929D01*
X99570955Y-140748225D01*
X99565990Y-140798641D01*
X99564825Y-140800267D01*
X99562835Y-140800071D01*
X99562000Y-140798445D01*
X99562000Y-140702734D01*
X99562010Y-140702538D01*
X99565631Y-140665773D01*
X99565707Y-140665388D01*
X99574642Y-140635933D01*
X99574792Y-140635571D01*
X99589298Y-140608434D01*
X99589516Y-140608108D01*
X99609040Y-140584317D01*
X99609317Y-140584040D01*
X99633108Y-140564516D01*
X99633434Y-140564298D01*
X99660571Y-140549792D01*
X99660933Y-140549642D01*
X99690388Y-140540707D01*
X99690773Y-140540631D01*
X99727538Y-140537010D01*
X99727734Y-140537000D01*
X99823445Y-140537000D01*
X99825177Y-140538000D01*
G37*
G36*
X141735177Y-140538000D02*
G01*
X141735177Y-140540000D01*
X141733641Y-140540990D01*
X141683225Y-140545955D01*
X141634929Y-140560606D01*
X141590421Y-140584395D01*
X141551411Y-140616411D01*
X141519395Y-140655421D01*
X141495606Y-140699929D01*
X141480955Y-140748225D01*
X141475990Y-140798641D01*
X141474825Y-140800267D01*
X141472835Y-140800071D01*
X141472000Y-140798445D01*
X141472000Y-140702734D01*
X141472010Y-140702538D01*
X141475631Y-140665773D01*
X141475707Y-140665388D01*
X141484642Y-140635933D01*
X141484792Y-140635571D01*
X141499298Y-140608434D01*
X141499516Y-140608108D01*
X141519040Y-140584317D01*
X141519317Y-140584040D01*
X141543108Y-140564516D01*
X141543434Y-140564298D01*
X141570571Y-140549792D01*
X141570933Y-140549642D01*
X141600388Y-140540707D01*
X141600773Y-140540631D01*
X141637538Y-140537010D01*
X141637734Y-140537000D01*
X141733445Y-140537000D01*
X141735177Y-140538000D01*
G37*
G36*
X102202462Y-140537010D02*
G01*
X102239227Y-140540631D01*
X102239612Y-140540707D01*
X102269067Y-140549642D01*
X102269429Y-140549792D01*
X102296566Y-140564298D01*
X102296892Y-140564516D01*
X102320683Y-140584040D01*
X102320960Y-140584317D01*
X102340484Y-140608108D01*
X102340702Y-140608434D01*
X102355208Y-140635571D01*
X102355358Y-140635933D01*
X102364293Y-140665388D01*
X102364369Y-140665773D01*
X102367990Y-140702538D01*
X102368000Y-140702734D01*
X102368000Y-140798445D01*
X102367000Y-140800177D01*
X102365000Y-140800177D01*
X102364010Y-140798641D01*
X102359045Y-140748225D01*
X102344394Y-140699929D01*
X102320605Y-140655421D01*
X102288589Y-140616411D01*
X102249579Y-140584395D01*
X102205071Y-140560606D01*
X102156775Y-140545955D01*
X102106359Y-140540990D01*
X102104733Y-140539825D01*
X102104929Y-140537835D01*
X102106555Y-140537000D01*
X102202266Y-140537000D01*
X102202462Y-140537010D01*
G37*
G36*
X137127462Y-140537010D02*
G01*
X137164227Y-140540631D01*
X137164612Y-140540707D01*
X137194067Y-140549642D01*
X137194429Y-140549792D01*
X137221566Y-140564298D01*
X137221892Y-140564516D01*
X137245683Y-140584040D01*
X137245960Y-140584317D01*
X137265484Y-140608108D01*
X137265702Y-140608434D01*
X137280208Y-140635571D01*
X137280358Y-140635933D01*
X137289293Y-140665388D01*
X137289369Y-140665773D01*
X137292990Y-140702538D01*
X137293000Y-140702734D01*
X137293000Y-140798445D01*
X137292000Y-140800177D01*
X137290000Y-140800177D01*
X137289010Y-140798641D01*
X137284045Y-140748225D01*
X137269394Y-140699929D01*
X137245605Y-140655421D01*
X137213589Y-140616411D01*
X137174579Y-140584395D01*
X137130071Y-140560606D01*
X137081775Y-140545955D01*
X137031359Y-140540990D01*
X137029733Y-140539825D01*
X137029929Y-140537835D01*
X137031555Y-140537000D01*
X137127266Y-140537000D01*
X137127462Y-140537010D01*
G37*
G36*
X130142462Y-140537010D02*
G01*
X130179227Y-140540631D01*
X130179612Y-140540707D01*
X130209067Y-140549642D01*
X130209429Y-140549792D01*
X130236566Y-140564298D01*
X130236892Y-140564516D01*
X130260683Y-140584040D01*
X130260960Y-140584317D01*
X130280484Y-140608108D01*
X130280702Y-140608434D01*
X130295208Y-140635571D01*
X130295358Y-140635933D01*
X130304293Y-140665388D01*
X130304369Y-140665773D01*
X130307990Y-140702538D01*
X130308000Y-140702734D01*
X130308000Y-140798445D01*
X130307000Y-140800177D01*
X130305000Y-140800177D01*
X130304010Y-140798641D01*
X130299045Y-140748225D01*
X130284394Y-140699929D01*
X130260605Y-140655421D01*
X130228589Y-140616411D01*
X130189579Y-140584395D01*
X130145071Y-140560606D01*
X130096775Y-140545955D01*
X130046359Y-140540990D01*
X130044733Y-140539825D01*
X130044929Y-140537835D01*
X130046555Y-140537000D01*
X130142266Y-140537000D01*
X130142462Y-140537010D01*
G37*
G36*
X144112462Y-140537010D02*
G01*
X144149227Y-140540631D01*
X144149612Y-140540707D01*
X144179067Y-140549642D01*
X144179429Y-140549792D01*
X144206566Y-140564298D01*
X144206892Y-140564516D01*
X144230683Y-140584040D01*
X144230960Y-140584317D01*
X144250484Y-140608108D01*
X144250702Y-140608434D01*
X144265208Y-140635571D01*
X144265358Y-140635933D01*
X144274293Y-140665388D01*
X144274369Y-140665773D01*
X144277990Y-140702538D01*
X144278000Y-140702734D01*
X144278000Y-140798445D01*
X144277000Y-140800177D01*
X144275000Y-140800177D01*
X144274010Y-140798641D01*
X144269045Y-140748225D01*
X144254394Y-140699929D01*
X144230605Y-140655421D01*
X144198589Y-140616411D01*
X144159579Y-140584395D01*
X144115071Y-140560606D01*
X144066775Y-140545955D01*
X144016359Y-140540990D01*
X144014733Y-140539825D01*
X144014929Y-140537835D01*
X144016555Y-140537000D01*
X144112266Y-140537000D01*
X144112462Y-140537010D01*
G37*
G36*
X188677732Y-122565000D02*
G01*
X188678000Y-122566000D01*
X188678000Y-122664000D01*
X188677000Y-122665732D01*
X188676000Y-122666000D01*
X186824000Y-122666000D01*
X186822268Y-122665000D01*
X186822000Y-122664000D01*
X186822000Y-122566000D01*
X186823000Y-122564268D01*
X186824000Y-122564000D01*
X188676000Y-122564000D01*
X188677732Y-122565000D01*
G37*
G36*
X181477732Y-122565000D02*
G01*
X181478000Y-122566000D01*
X181478000Y-122664000D01*
X181477000Y-122665732D01*
X181476000Y-122666000D01*
X179624000Y-122666000D01*
X179622268Y-122665000D01*
X179622000Y-122664000D01*
X179622000Y-122566000D01*
X179623000Y-122564268D01*
X179624000Y-122564000D01*
X181476000Y-122564000D01*
X181477732Y-122565000D01*
G37*
G36*
X181477732Y-121915000D02*
G01*
X181478000Y-121916000D01*
X181478000Y-122014000D01*
X181477000Y-122015732D01*
X181476000Y-122016000D01*
X179624000Y-122016000D01*
X179622268Y-122015000D01*
X179622000Y-122014000D01*
X179622000Y-121916000D01*
X179623000Y-121914268D01*
X179624000Y-121914000D01*
X181476000Y-121914000D01*
X181477732Y-121915000D01*
G37*
G36*
X188677732Y-121915000D02*
G01*
X188678000Y-121916000D01*
X188678000Y-122014000D01*
X188677000Y-122015732D01*
X188676000Y-122016000D01*
X186824000Y-122016000D01*
X186822268Y-122015000D01*
X186822000Y-122014000D01*
X186822000Y-121916000D01*
X186823000Y-121914268D01*
X186824000Y-121914000D01*
X188676000Y-121914000D01*
X188677732Y-121915000D01*
G37*
G36*
X120497732Y-121885000D02*
G01*
X120498000Y-121886000D01*
X120498000Y-121984000D01*
X120497000Y-121985732D01*
X120496000Y-121986000D01*
X118944000Y-121986000D01*
X118942268Y-121985000D01*
X118942000Y-121984000D01*
X118942000Y-121886000D01*
X118943000Y-121884268D01*
X118944000Y-121884000D01*
X120496000Y-121884000D01*
X120497732Y-121885000D01*
G37*
G36*
X124897732Y-121885000D02*
G01*
X124898000Y-121886000D01*
X124898000Y-121984000D01*
X124897000Y-121985732D01*
X124896000Y-121986000D01*
X123344000Y-121986000D01*
X123342268Y-121985000D01*
X123342000Y-121984000D01*
X123342000Y-121886000D01*
X123343000Y-121884268D01*
X123344000Y-121884000D01*
X124896000Y-121884000D01*
X124897732Y-121885000D01*
G37*
G36*
X188677732Y-121265000D02*
G01*
X188678000Y-121266000D01*
X188678000Y-121364000D01*
X188677000Y-121365732D01*
X188676000Y-121366000D01*
X186824000Y-121366000D01*
X186822268Y-121365000D01*
X186822000Y-121364000D01*
X186822000Y-121266000D01*
X186823000Y-121264268D01*
X186824000Y-121264000D01*
X188676000Y-121264000D01*
X188677732Y-121265000D01*
G37*
G36*
X181477732Y-121265000D02*
G01*
X181478000Y-121266000D01*
X181478000Y-121364000D01*
X181477000Y-121365732D01*
X181476000Y-121366000D01*
X179624000Y-121366000D01*
X179622268Y-121365000D01*
X179622000Y-121364000D01*
X179622000Y-121266000D01*
X179623000Y-121264268D01*
X179624000Y-121264000D01*
X181476000Y-121264000D01*
X181477732Y-121265000D01*
G37*
G36*
X120497732Y-121235000D02*
G01*
X120498000Y-121236000D01*
X120498000Y-121334000D01*
X120497000Y-121335732D01*
X120496000Y-121336000D01*
X118944000Y-121336000D01*
X118942268Y-121335000D01*
X118942000Y-121334000D01*
X118942000Y-121236000D01*
X118943000Y-121234268D01*
X118944000Y-121234000D01*
X120496000Y-121234000D01*
X120497732Y-121235000D01*
G37*
G36*
X124897732Y-121235000D02*
G01*
X124898000Y-121236000D01*
X124898000Y-121334000D01*
X124897000Y-121335732D01*
X124896000Y-121336000D01*
X123344000Y-121336000D01*
X123342268Y-121335000D01*
X123342000Y-121334000D01*
X123342000Y-121236000D01*
X123343000Y-121234268D01*
X123344000Y-121234000D01*
X124896000Y-121234000D01*
X124897732Y-121235000D01*
G37*
G36*
X181477732Y-120615000D02*
G01*
X181478000Y-120616000D01*
X181478000Y-120714000D01*
X181477000Y-120715732D01*
X181476000Y-120716000D01*
X179624000Y-120716000D01*
X179622268Y-120715000D01*
X179622000Y-120714000D01*
X179622000Y-120616000D01*
X179623000Y-120614268D01*
X179624000Y-120614000D01*
X181476000Y-120614000D01*
X181477732Y-120615000D01*
G37*
G36*
X188677732Y-120615000D02*
G01*
X188678000Y-120616000D01*
X188678000Y-120714000D01*
X188677000Y-120715732D01*
X188676000Y-120716000D01*
X186824000Y-120716000D01*
X186822268Y-120715000D01*
X186822000Y-120714000D01*
X186822000Y-120616000D01*
X186823000Y-120614268D01*
X186824000Y-120614000D01*
X188676000Y-120614000D01*
X188677732Y-120615000D01*
G37*
G36*
X120497732Y-120585000D02*
G01*
X120498000Y-120586000D01*
X120498000Y-120684000D01*
X120497000Y-120685732D01*
X120496000Y-120686000D01*
X118944000Y-120686000D01*
X118942268Y-120685000D01*
X118942000Y-120684000D01*
X118942000Y-120586000D01*
X118943000Y-120584268D01*
X118944000Y-120584000D01*
X120496000Y-120584000D01*
X120497732Y-120585000D01*
G37*
G36*
X124897732Y-120585000D02*
G01*
X124898000Y-120586000D01*
X124898000Y-120684000D01*
X124897000Y-120685732D01*
X124896000Y-120686000D01*
X123344000Y-120686000D01*
X123342268Y-120685000D01*
X123342000Y-120684000D01*
X123342000Y-120586000D01*
X123343000Y-120584268D01*
X123344000Y-120584000D01*
X124896000Y-120584000D01*
X124897732Y-120585000D01*
G37*
G36*
X188677732Y-119965000D02*
G01*
X188678000Y-119966000D01*
X188678000Y-120064000D01*
X188677000Y-120065732D01*
X188676000Y-120066000D01*
X186824000Y-120066000D01*
X186822268Y-120065000D01*
X186822000Y-120064000D01*
X186822000Y-119966000D01*
X186823000Y-119964268D01*
X186824000Y-119964000D01*
X188676000Y-119964000D01*
X188677732Y-119965000D01*
G37*
G36*
X181477732Y-119965000D02*
G01*
X181478000Y-119966000D01*
X181478000Y-120064000D01*
X181477000Y-120065732D01*
X181476000Y-120066000D01*
X179624000Y-120066000D01*
X179622268Y-120065000D01*
X179622000Y-120064000D01*
X179622000Y-119966000D01*
X179623000Y-119964268D01*
X179624000Y-119964000D01*
X181476000Y-119964000D01*
X181477732Y-119965000D01*
G37*
G36*
X188677732Y-119315000D02*
G01*
X188678000Y-119316000D01*
X188678000Y-119414000D01*
X188677000Y-119415732D01*
X188676000Y-119416000D01*
X186824000Y-119416000D01*
X186822268Y-119415000D01*
X186822000Y-119414000D01*
X186822000Y-119316000D01*
X186823000Y-119314268D01*
X186824000Y-119314000D01*
X188676000Y-119314000D01*
X188677732Y-119315000D01*
G37*
G36*
X181477732Y-119315000D02*
G01*
X181478000Y-119316000D01*
X181478000Y-119414000D01*
X181477000Y-119415732D01*
X181476000Y-119416000D01*
X179624000Y-119416000D01*
X179622268Y-119415000D01*
X179622000Y-119414000D01*
X179622000Y-119316000D01*
X179623000Y-119314268D01*
X179624000Y-119314000D01*
X181476000Y-119314000D01*
X181477732Y-119315000D01*
G37*
G36*
X188677732Y-118665000D02*
G01*
X188678000Y-118666000D01*
X188678000Y-118764000D01*
X188677000Y-118765732D01*
X188676000Y-118766000D01*
X186824000Y-118766000D01*
X186822268Y-118765000D01*
X186822000Y-118764000D01*
X186822000Y-118666000D01*
X186823000Y-118664268D01*
X186824000Y-118664000D01*
X188676000Y-118664000D01*
X188677732Y-118665000D01*
G37*
G36*
X181477732Y-118665000D02*
G01*
X181478000Y-118666000D01*
X181478000Y-118764000D01*
X181477000Y-118765732D01*
X181476000Y-118766000D01*
X179624000Y-118766000D01*
X179622268Y-118765000D01*
X179622000Y-118764000D01*
X179622000Y-118666000D01*
X179623000Y-118664268D01*
X179624000Y-118664000D01*
X181476000Y-118664000D01*
X181477732Y-118665000D01*
G37*
G36*
X188677732Y-118015000D02*
G01*
X188678000Y-118016000D01*
X188678000Y-118114000D01*
X188677000Y-118115732D01*
X188676000Y-118116000D01*
X186824000Y-118116000D01*
X186822268Y-118115000D01*
X186822000Y-118114000D01*
X186822000Y-118016000D01*
X186823000Y-118014268D01*
X186824000Y-118014000D01*
X188676000Y-118014000D01*
X188677732Y-118015000D01*
G37*
G36*
X181477732Y-118015000D02*
G01*
X181478000Y-118016000D01*
X181478000Y-118114000D01*
X181477000Y-118115732D01*
X181476000Y-118116000D01*
X179624000Y-118116000D01*
X179622268Y-118115000D01*
X179622000Y-118114000D01*
X179622000Y-118016000D01*
X179623000Y-118014268D01*
X179624000Y-118014000D01*
X181476000Y-118014000D01*
X181477732Y-118015000D01*
G37*
G36*
X181477732Y-117365000D02*
G01*
X181478000Y-117366000D01*
X181478000Y-117464000D01*
X181477000Y-117465732D01*
X181476000Y-117466000D01*
X179624000Y-117466000D01*
X179622268Y-117465000D01*
X179622000Y-117464000D01*
X179622000Y-117366000D01*
X179623000Y-117364268D01*
X179624000Y-117364000D01*
X181476000Y-117364000D01*
X181477732Y-117365000D01*
G37*
G36*
X188677732Y-117365000D02*
G01*
X188678000Y-117366000D01*
X188678000Y-117464000D01*
X188677000Y-117465732D01*
X188676000Y-117466000D01*
X186824000Y-117466000D01*
X186822268Y-117465000D01*
X186822000Y-117464000D01*
X186822000Y-117366000D01*
X186823000Y-117364268D01*
X186824000Y-117364000D01*
X188676000Y-117364000D01*
X188677732Y-117365000D01*
G37*
G36*
X113147732Y-112135000D02*
G01*
X113148000Y-112136000D01*
X113148000Y-112334000D01*
X113147000Y-112335732D01*
X113146000Y-112336000D01*
X111984000Y-112336000D01*
X111982268Y-112335000D01*
X111982000Y-112334000D01*
X111982000Y-112136000D01*
X111983000Y-112134268D01*
X111984000Y-112134000D01*
X113146000Y-112134000D01*
X113147732Y-112135000D01*
G37*
G36*
X113147732Y-111185000D02*
G01*
X113148000Y-111186000D01*
X113148000Y-111384000D01*
X113147000Y-111385732D01*
X113146000Y-111386000D01*
X111984000Y-111386000D01*
X111982268Y-111385000D01*
X111982000Y-111384000D01*
X111982000Y-111186000D01*
X111983000Y-111184268D01*
X111984000Y-111184000D01*
X113146000Y-111184000D01*
X113147732Y-111185000D01*
G37*
G36*
X202682732Y-77845000D02*
G01*
X202683000Y-77846000D01*
X202683000Y-78044000D01*
X202682000Y-78045732D01*
X202681000Y-78046000D01*
X201519000Y-78046000D01*
X201517268Y-78045000D01*
X201517000Y-78044000D01*
X201517000Y-77846000D01*
X201518000Y-77844268D01*
X201519000Y-77844000D01*
X202681000Y-77844000D01*
X202682732Y-77845000D01*
G37*
G36*
X83937732Y-77845000D02*
G01*
X83938000Y-77846000D01*
X83938000Y-78044000D01*
X83937000Y-78045732D01*
X83936000Y-78046000D01*
X82774000Y-78046000D01*
X82772268Y-78045000D01*
X82772000Y-78044000D01*
X82772000Y-77846000D01*
X82773000Y-77844268D01*
X82774000Y-77844000D01*
X83936000Y-77844000D01*
X83937732Y-77845000D01*
G37*
G36*
X83937732Y-76895000D02*
G01*
X83938000Y-76896000D01*
X83938000Y-77094000D01*
X83937000Y-77095732D01*
X83936000Y-77096000D01*
X82774000Y-77096000D01*
X82772268Y-77095000D01*
X82772000Y-77094000D01*
X82772000Y-76896000D01*
X82773000Y-76894268D01*
X82774000Y-76894000D01*
X83936000Y-76894000D01*
X83937732Y-76895000D01*
G37*
G36*
X202682732Y-76895000D02*
G01*
X202683000Y-76896000D01*
X202683000Y-77094000D01*
X202682000Y-77095732D01*
X202681000Y-77096000D01*
X201519000Y-77096000D01*
X201517268Y-77095000D01*
X201517000Y-77094000D01*
X201517000Y-76896000D01*
X201518000Y-76894268D01*
X201519000Y-76894000D01*
X202681000Y-76894000D01*
X202682732Y-76895000D01*
G37*
G36*
X145437165Y-75403874D02*
G01*
X145438000Y-75405500D01*
X145438000Y-75461859D01*
X145437990Y-75462055D01*
X145435706Y-75485247D01*
X145435630Y-75485632D01*
X145430656Y-75502027D01*
X145430506Y-75502389D01*
X145420059Y-75521936D01*
X145410796Y-75544299D01*
X145406092Y-75567949D01*
X145406092Y-75592055D01*
X145410797Y-75615705D01*
X145420059Y-75638064D01*
X145430506Y-75657611D01*
X145430656Y-75657973D01*
X145435630Y-75674368D01*
X145435706Y-75674753D01*
X145437990Y-75697945D01*
X145438000Y-75698141D01*
X145438000Y-75754500D01*
X145437000Y-75756232D01*
X145435000Y-75756232D01*
X145434010Y-75754696D01*
X145431138Y-75725534D01*
X145422687Y-75697675D01*
X145408965Y-75672003D01*
X145390499Y-75649501D01*
X145367997Y-75631035D01*
X145342325Y-75617313D01*
X145314466Y-75608862D01*
X145285406Y-75606000D01*
X143859594Y-75606000D01*
X143830534Y-75608862D01*
X143802675Y-75617313D01*
X143777003Y-75631035D01*
X143754501Y-75649501D01*
X143736035Y-75672003D01*
X143722313Y-75697675D01*
X143713862Y-75725534D01*
X143710990Y-75754696D01*
X143709825Y-75756322D01*
X143707835Y-75756126D01*
X143707000Y-75754500D01*
X143707000Y-75698141D01*
X143707010Y-75697945D01*
X143709294Y-75674753D01*
X143709370Y-75674368D01*
X143714344Y-75657973D01*
X143714494Y-75657611D01*
X143724941Y-75638064D01*
X143734204Y-75615701D01*
X143738908Y-75592051D01*
X143738908Y-75567945D01*
X143734203Y-75544295D01*
X143724941Y-75521936D01*
X143714494Y-75502389D01*
X143714344Y-75502027D01*
X143709370Y-75485632D01*
X143709294Y-75485247D01*
X143707010Y-75462055D01*
X143707000Y-75461859D01*
X143707000Y-75405500D01*
X143708000Y-75403768D01*
X143710000Y-75403768D01*
X143710990Y-75405304D01*
X143713862Y-75434466D01*
X143722313Y-75462325D01*
X143736035Y-75487997D01*
X143754501Y-75510499D01*
X143777003Y-75528965D01*
X143802675Y-75542687D01*
X143830534Y-75551138D01*
X143859594Y-75554000D01*
X145285406Y-75554000D01*
X145314466Y-75551138D01*
X145342325Y-75542687D01*
X145367997Y-75528965D01*
X145390499Y-75510499D01*
X145408965Y-75487997D01*
X145422687Y-75462325D01*
X145431138Y-75434466D01*
X145434010Y-75405304D01*
X145435175Y-75403678D01*
X145437165Y-75403874D01*
G37*
G36*
X149662165Y-75403874D02*
G01*
X149663000Y-75405500D01*
X149663000Y-75461859D01*
X149662990Y-75462055D01*
X149660706Y-75485247D01*
X149660630Y-75485632D01*
X149655656Y-75502027D01*
X149655506Y-75502389D01*
X149645059Y-75521936D01*
X149635796Y-75544299D01*
X149631092Y-75567949D01*
X149631092Y-75592055D01*
X149635797Y-75615705D01*
X149645059Y-75638064D01*
X149655506Y-75657611D01*
X149655656Y-75657973D01*
X149660630Y-75674368D01*
X149660706Y-75674753D01*
X149662990Y-75697945D01*
X149663000Y-75698141D01*
X149663000Y-75754500D01*
X149662000Y-75756232D01*
X149660000Y-75756232D01*
X149659010Y-75754696D01*
X149656138Y-75725534D01*
X149647687Y-75697675D01*
X149633965Y-75672003D01*
X149615499Y-75649501D01*
X149592997Y-75631035D01*
X149567325Y-75617313D01*
X149539466Y-75608862D01*
X149510406Y-75606000D01*
X148084594Y-75606000D01*
X148055534Y-75608862D01*
X148027675Y-75617313D01*
X148002003Y-75631035D01*
X147979501Y-75649501D01*
X147961035Y-75672003D01*
X147947313Y-75697675D01*
X147938862Y-75725534D01*
X147935990Y-75754696D01*
X147934825Y-75756322D01*
X147932835Y-75756126D01*
X147932000Y-75754500D01*
X147932000Y-75698141D01*
X147932010Y-75697945D01*
X147934294Y-75674753D01*
X147934370Y-75674368D01*
X147939344Y-75657973D01*
X147939494Y-75657611D01*
X147949941Y-75638064D01*
X147959204Y-75615701D01*
X147963908Y-75592051D01*
X147963908Y-75567945D01*
X147959203Y-75544295D01*
X147949941Y-75521936D01*
X147939494Y-75502389D01*
X147939344Y-75502027D01*
X147934370Y-75485632D01*
X147934294Y-75485247D01*
X147932010Y-75462055D01*
X147932000Y-75461859D01*
X147932000Y-75405500D01*
X147933000Y-75403768D01*
X147935000Y-75403768D01*
X147935990Y-75405304D01*
X147938862Y-75434466D01*
X147947313Y-75462325D01*
X147961035Y-75487997D01*
X147979501Y-75510499D01*
X148002003Y-75528965D01*
X148027675Y-75542687D01*
X148055534Y-75551138D01*
X148084594Y-75554000D01*
X149510406Y-75554000D01*
X149539466Y-75551138D01*
X149567325Y-75542687D01*
X149592997Y-75528965D01*
X149615499Y-75510499D01*
X149633965Y-75487997D01*
X149647687Y-75462325D01*
X149656138Y-75434466D01*
X149659010Y-75405304D01*
X149660175Y-75403678D01*
X149662165Y-75403874D01*
G37*
G36*
X149662165Y-74753874D02*
G01*
X149663000Y-74755500D01*
X149663000Y-74811859D01*
X149662990Y-74812055D01*
X149660706Y-74835247D01*
X149660630Y-74835632D01*
X149655656Y-74852027D01*
X149655506Y-74852389D01*
X149645059Y-74871936D01*
X149635796Y-74894299D01*
X149631092Y-74917949D01*
X149631092Y-74942055D01*
X149635797Y-74965705D01*
X149645059Y-74988064D01*
X149655506Y-75007611D01*
X149655656Y-75007973D01*
X149660630Y-75024368D01*
X149660706Y-75024753D01*
X149662990Y-75047945D01*
X149663000Y-75048141D01*
X149663000Y-75104500D01*
X149662000Y-75106232D01*
X149660000Y-75106232D01*
X149659010Y-75104696D01*
X149656138Y-75075534D01*
X149647687Y-75047675D01*
X149633965Y-75022003D01*
X149615499Y-74999501D01*
X149592997Y-74981035D01*
X149567325Y-74967313D01*
X149539466Y-74958862D01*
X149510406Y-74956000D01*
X148084594Y-74956000D01*
X148055534Y-74958862D01*
X148027675Y-74967313D01*
X148002003Y-74981035D01*
X147979501Y-74999501D01*
X147961035Y-75022003D01*
X147947313Y-75047675D01*
X147938862Y-75075534D01*
X147935990Y-75104696D01*
X147934825Y-75106322D01*
X147932835Y-75106126D01*
X147932000Y-75104500D01*
X147932000Y-75048141D01*
X147932010Y-75047945D01*
X147934294Y-75024753D01*
X147934370Y-75024368D01*
X147939344Y-75007973D01*
X147939494Y-75007611D01*
X147949941Y-74988064D01*
X147959204Y-74965701D01*
X147963908Y-74942051D01*
X147963908Y-74917945D01*
X147959203Y-74894295D01*
X147949941Y-74871936D01*
X147939494Y-74852389D01*
X147939344Y-74852027D01*
X147934370Y-74835632D01*
X147934294Y-74835247D01*
X147932010Y-74812055D01*
X147932000Y-74811859D01*
X147932000Y-74755500D01*
X147933000Y-74753768D01*
X147935000Y-74753768D01*
X147935990Y-74755304D01*
X147938862Y-74784466D01*
X147947313Y-74812325D01*
X147961035Y-74837997D01*
X147979501Y-74860499D01*
X148002003Y-74878965D01*
X148027675Y-74892687D01*
X148055534Y-74901138D01*
X148084594Y-74904000D01*
X149510406Y-74904000D01*
X149539466Y-74901138D01*
X149567325Y-74892687D01*
X149592997Y-74878965D01*
X149615499Y-74860499D01*
X149633965Y-74837997D01*
X149647687Y-74812325D01*
X149656138Y-74784466D01*
X149659010Y-74755304D01*
X149660175Y-74753678D01*
X149662165Y-74753874D01*
G37*
G36*
X145437165Y-74753874D02*
G01*
X145438000Y-74755500D01*
X145438000Y-74811859D01*
X145437990Y-74812055D01*
X145435706Y-74835247D01*
X145435630Y-74835632D01*
X145430656Y-74852027D01*
X145430506Y-74852389D01*
X145420059Y-74871936D01*
X145410796Y-74894299D01*
X145406092Y-74917949D01*
X145406092Y-74942055D01*
X145410797Y-74965705D01*
X145420059Y-74988064D01*
X145430506Y-75007611D01*
X145430656Y-75007973D01*
X145435630Y-75024368D01*
X145435706Y-75024753D01*
X145437990Y-75047945D01*
X145438000Y-75048141D01*
X145438000Y-75104500D01*
X145437000Y-75106232D01*
X145435000Y-75106232D01*
X145434010Y-75104696D01*
X145431138Y-75075534D01*
X145422687Y-75047675D01*
X145408965Y-75022003D01*
X145390499Y-74999501D01*
X145367997Y-74981035D01*
X145342325Y-74967313D01*
X145314466Y-74958862D01*
X145285406Y-74956000D01*
X143859594Y-74956000D01*
X143830534Y-74958862D01*
X143802675Y-74967313D01*
X143777003Y-74981035D01*
X143754501Y-74999501D01*
X143736035Y-75022003D01*
X143722313Y-75047675D01*
X143713862Y-75075534D01*
X143710990Y-75104696D01*
X143709825Y-75106322D01*
X143707835Y-75106126D01*
X143707000Y-75104500D01*
X143707000Y-75048141D01*
X143707010Y-75047945D01*
X143709294Y-75024753D01*
X143709370Y-75024368D01*
X143714344Y-75007973D01*
X143714494Y-75007611D01*
X143724941Y-74988064D01*
X143734204Y-74965701D01*
X143738908Y-74942051D01*
X143738908Y-74917945D01*
X143734203Y-74894295D01*
X143724941Y-74871936D01*
X143714494Y-74852389D01*
X143714344Y-74852027D01*
X143709370Y-74835632D01*
X143709294Y-74835247D01*
X143707010Y-74812055D01*
X143707000Y-74811859D01*
X143707000Y-74755500D01*
X143708000Y-74753768D01*
X143710000Y-74753768D01*
X143710990Y-74755304D01*
X143713862Y-74784466D01*
X143722313Y-74812325D01*
X143736035Y-74837997D01*
X143754501Y-74860499D01*
X143777003Y-74878965D01*
X143802675Y-74892687D01*
X143830534Y-74901138D01*
X143859594Y-74904000D01*
X145285406Y-74904000D01*
X145314466Y-74901138D01*
X145342325Y-74892687D01*
X145367997Y-74878965D01*
X145390499Y-74860499D01*
X145408965Y-74837997D01*
X145422687Y-74812325D01*
X145431138Y-74784466D01*
X145434010Y-74755304D01*
X145435175Y-74753678D01*
X145437165Y-74753874D01*
G37*
G36*
X145437165Y-74103874D02*
G01*
X145438000Y-74105500D01*
X145438000Y-74161859D01*
X145437990Y-74162055D01*
X145435706Y-74185247D01*
X145435630Y-74185632D01*
X145430656Y-74202027D01*
X145430506Y-74202389D01*
X145420059Y-74221936D01*
X145410796Y-74244299D01*
X145406092Y-74267949D01*
X145406092Y-74292055D01*
X145410797Y-74315705D01*
X145420059Y-74338064D01*
X145430506Y-74357611D01*
X145430656Y-74357973D01*
X145435630Y-74374368D01*
X145435706Y-74374753D01*
X145437990Y-74397945D01*
X145438000Y-74398141D01*
X145438000Y-74454500D01*
X145437000Y-74456232D01*
X145435000Y-74456232D01*
X145434010Y-74454696D01*
X145431138Y-74425534D01*
X145422687Y-74397675D01*
X145408965Y-74372003D01*
X145390499Y-74349501D01*
X145367997Y-74331035D01*
X145342325Y-74317313D01*
X145314466Y-74308862D01*
X145285406Y-74306000D01*
X143859594Y-74306000D01*
X143830534Y-74308862D01*
X143802675Y-74317313D01*
X143777003Y-74331035D01*
X143754501Y-74349501D01*
X143736035Y-74372003D01*
X143722313Y-74397675D01*
X143713862Y-74425534D01*
X143710990Y-74454696D01*
X143709825Y-74456322D01*
X143707835Y-74456126D01*
X143707000Y-74454500D01*
X143707000Y-74398141D01*
X143707010Y-74397945D01*
X143709294Y-74374753D01*
X143709370Y-74374368D01*
X143714344Y-74357973D01*
X143714494Y-74357611D01*
X143724941Y-74338064D01*
X143734204Y-74315701D01*
X143738908Y-74292051D01*
X143738908Y-74267945D01*
X143734203Y-74244295D01*
X143724941Y-74221936D01*
X143714494Y-74202389D01*
X143714344Y-74202027D01*
X143709370Y-74185632D01*
X143709294Y-74185247D01*
X143707010Y-74162055D01*
X143707000Y-74161859D01*
X143707000Y-74105500D01*
X143708000Y-74103768D01*
X143710000Y-74103768D01*
X143710990Y-74105304D01*
X143713862Y-74134466D01*
X143722313Y-74162325D01*
X143736035Y-74187997D01*
X143754501Y-74210499D01*
X143777003Y-74228965D01*
X143802675Y-74242687D01*
X143830534Y-74251138D01*
X143859594Y-74254000D01*
X145285406Y-74254000D01*
X145314466Y-74251138D01*
X145342325Y-74242687D01*
X145367997Y-74228965D01*
X145390499Y-74210499D01*
X145408965Y-74187997D01*
X145422687Y-74162325D01*
X145431138Y-74134466D01*
X145434010Y-74105304D01*
X145435175Y-74103678D01*
X145437165Y-74103874D01*
G37*
G36*
X149662165Y-74103874D02*
G01*
X149663000Y-74105500D01*
X149663000Y-74161859D01*
X149662990Y-74162055D01*
X149660706Y-74185247D01*
X149660630Y-74185632D01*
X149655656Y-74202027D01*
X149655506Y-74202389D01*
X149645059Y-74221936D01*
X149635796Y-74244299D01*
X149631092Y-74267949D01*
X149631092Y-74292055D01*
X149635797Y-74315705D01*
X149645059Y-74338064D01*
X149655506Y-74357611D01*
X149655656Y-74357973D01*
X149660630Y-74374368D01*
X149660706Y-74374753D01*
X149662990Y-74397945D01*
X149663000Y-74398141D01*
X149663000Y-74454500D01*
X149662000Y-74456232D01*
X149660000Y-74456232D01*
X149659010Y-74454696D01*
X149656138Y-74425534D01*
X149647687Y-74397675D01*
X149633965Y-74372003D01*
X149615499Y-74349501D01*
X149592997Y-74331035D01*
X149567325Y-74317313D01*
X149539466Y-74308862D01*
X149510406Y-74306000D01*
X148084594Y-74306000D01*
X148055534Y-74308862D01*
X148027675Y-74317313D01*
X148002003Y-74331035D01*
X147979501Y-74349501D01*
X147961035Y-74372003D01*
X147947313Y-74397675D01*
X147938862Y-74425534D01*
X147935990Y-74454696D01*
X147934825Y-74456322D01*
X147932835Y-74456126D01*
X147932000Y-74454500D01*
X147932000Y-74398141D01*
X147932010Y-74397945D01*
X147934294Y-74374753D01*
X147934370Y-74374368D01*
X147939344Y-74357973D01*
X147939494Y-74357611D01*
X147949941Y-74338064D01*
X147959204Y-74315701D01*
X147963908Y-74292051D01*
X147963908Y-74267945D01*
X147959203Y-74244295D01*
X147949941Y-74221936D01*
X147939494Y-74202389D01*
X147939344Y-74202027D01*
X147934370Y-74185632D01*
X147934294Y-74185247D01*
X147932010Y-74162055D01*
X147932000Y-74161859D01*
X147932000Y-74105500D01*
X147933000Y-74103768D01*
X147935000Y-74103768D01*
X147935990Y-74105304D01*
X147938862Y-74134466D01*
X147947313Y-74162325D01*
X147961035Y-74187997D01*
X147979501Y-74210499D01*
X148002003Y-74228965D01*
X148027675Y-74242687D01*
X148055534Y-74251138D01*
X148084594Y-74254000D01*
X149510406Y-74254000D01*
X149539466Y-74251138D01*
X149567325Y-74242687D01*
X149592997Y-74228965D01*
X149615499Y-74210499D01*
X149633965Y-74187997D01*
X149647687Y-74162325D01*
X149656138Y-74134466D01*
X149659010Y-74105304D01*
X149660175Y-74103678D01*
X149662165Y-74103874D01*
G37*
G36*
X159797732Y-73090000D02*
G01*
X159798000Y-73091000D01*
X159798000Y-73189000D01*
X159797000Y-73190732D01*
X159796000Y-73191000D01*
X158294000Y-73191000D01*
X158292268Y-73190000D01*
X158292000Y-73189000D01*
X158292000Y-73091000D01*
X158293000Y-73089268D01*
X158294000Y-73089000D01*
X159796000Y-73089000D01*
X159797732Y-73090000D01*
G37*
G36*
X155397732Y-73090000D02*
G01*
X155398000Y-73091000D01*
X155398000Y-73189000D01*
X155397000Y-73190732D01*
X155396000Y-73191000D01*
X153894000Y-73191000D01*
X153892268Y-73190000D01*
X153892000Y-73189000D01*
X153892000Y-73091000D01*
X153893000Y-73089268D01*
X153894000Y-73089000D01*
X155396000Y-73089000D01*
X155397732Y-73090000D01*
G37*
G36*
X159797732Y-72590000D02*
G01*
X159798000Y-72591000D01*
X159798000Y-72689000D01*
X159797000Y-72690732D01*
X159796000Y-72691000D01*
X158294000Y-72691000D01*
X158292268Y-72690000D01*
X158292000Y-72689000D01*
X158292000Y-72591000D01*
X158293000Y-72589268D01*
X158294000Y-72589000D01*
X159796000Y-72589000D01*
X159797732Y-72590000D01*
G37*
G36*
X155397732Y-72590000D02*
G01*
X155398000Y-72591000D01*
X155398000Y-72689000D01*
X155397000Y-72690732D01*
X155396000Y-72691000D01*
X153894000Y-72691000D01*
X153892268Y-72690000D01*
X153892000Y-72689000D01*
X153892000Y-72591000D01*
X153893000Y-72589268D01*
X153894000Y-72589000D01*
X155396000Y-72589000D01*
X155397732Y-72590000D01*
G37*
G36*
X155397732Y-72090000D02*
G01*
X155398000Y-72091000D01*
X155398000Y-72189000D01*
X155397000Y-72190732D01*
X155396000Y-72191000D01*
X153894000Y-72191000D01*
X153892268Y-72190000D01*
X153892000Y-72189000D01*
X153892000Y-72091000D01*
X153893000Y-72089268D01*
X153894000Y-72089000D01*
X155396000Y-72089000D01*
X155397732Y-72090000D01*
G37*
G36*
X159797732Y-72090000D02*
G01*
X159798000Y-72091000D01*
X159798000Y-72189000D01*
X159797000Y-72190732D01*
X159796000Y-72191000D01*
X158294000Y-72191000D01*
X158292268Y-72190000D01*
X158292000Y-72189000D01*
X158292000Y-72091000D01*
X158293000Y-72089268D01*
X158294000Y-72089000D01*
X159796000Y-72089000D01*
X159797732Y-72090000D01*
G37*
G36*
X155397732Y-71590000D02*
G01*
X155398000Y-71591000D01*
X155398000Y-71689000D01*
X155397000Y-71690732D01*
X155396000Y-71691000D01*
X153894000Y-71691000D01*
X153892268Y-71690000D01*
X153892000Y-71689000D01*
X153892000Y-71591000D01*
X153893000Y-71589268D01*
X153894000Y-71589000D01*
X155396000Y-71589000D01*
X155397732Y-71590000D01*
G37*
G36*
X159797732Y-71590000D02*
G01*
X159798000Y-71591000D01*
X159798000Y-71689000D01*
X159797000Y-71690732D01*
X159796000Y-71691000D01*
X158294000Y-71691000D01*
X158292268Y-71690000D01*
X158292000Y-71689000D01*
X158292000Y-71591000D01*
X158293000Y-71589268D01*
X158294000Y-71589000D01*
X159796000Y-71589000D01*
X159797732Y-71590000D01*
G37*
G36*
X159822732Y-69180000D02*
G01*
X159823000Y-69181000D01*
X159823000Y-69279000D01*
X159822000Y-69280732D01*
X159821000Y-69281000D01*
X158269000Y-69281000D01*
X158267268Y-69280000D01*
X158267000Y-69279000D01*
X158267000Y-69181000D01*
X158268000Y-69179268D01*
X158269000Y-69179000D01*
X159821000Y-69179000D01*
X159822732Y-69180000D01*
G37*
G36*
X155422732Y-69180000D02*
G01*
X155423000Y-69181000D01*
X155423000Y-69279000D01*
X155422000Y-69280732D01*
X155421000Y-69281000D01*
X153869000Y-69281000D01*
X153867268Y-69280000D01*
X153867000Y-69279000D01*
X153867000Y-69181000D01*
X153868000Y-69179268D01*
X153869000Y-69179000D01*
X155421000Y-69179000D01*
X155422732Y-69180000D01*
G37*
G36*
X159822732Y-68530000D02*
G01*
X159823000Y-68531000D01*
X159823000Y-68629000D01*
X159822000Y-68630732D01*
X159821000Y-68631000D01*
X158269000Y-68631000D01*
X158267268Y-68630000D01*
X158267000Y-68629000D01*
X158267000Y-68531000D01*
X158268000Y-68529268D01*
X158269000Y-68529000D01*
X159821000Y-68529000D01*
X159822732Y-68530000D01*
G37*
G36*
X155422732Y-68530000D02*
G01*
X155423000Y-68531000D01*
X155423000Y-68629000D01*
X155422000Y-68630732D01*
X155421000Y-68631000D01*
X153869000Y-68631000D01*
X153867268Y-68630000D01*
X153867000Y-68629000D01*
X153867000Y-68531000D01*
X153868000Y-68529268D01*
X153869000Y-68529000D01*
X155421000Y-68529000D01*
X155422732Y-68530000D01*
G37*
G36*
X159822732Y-67880000D02*
G01*
X159823000Y-67881000D01*
X159823000Y-67979000D01*
X159822000Y-67980732D01*
X159821000Y-67981000D01*
X158269000Y-67981000D01*
X158267268Y-67980000D01*
X158267000Y-67979000D01*
X158267000Y-67881000D01*
X158268000Y-67879268D01*
X158269000Y-67879000D01*
X159821000Y-67879000D01*
X159822732Y-67880000D01*
G37*
G36*
X155422732Y-67880000D02*
G01*
X155423000Y-67881000D01*
X155423000Y-67979000D01*
X155422000Y-67980732D01*
X155421000Y-67981000D01*
X153869000Y-67981000D01*
X153867268Y-67980000D01*
X153867000Y-67979000D01*
X153867000Y-67881000D01*
X153868000Y-67879268D01*
X153869000Y-67879000D01*
X155421000Y-67879000D01*
X155422732Y-67880000D01*
G37*
G36*
X128402165Y-67479929D02*
G01*
X128403000Y-67481555D01*
X128403000Y-67577266D01*
X128402990Y-67577462D01*
X128399369Y-67614227D01*
X128399293Y-67614612D01*
X128390358Y-67644067D01*
X128390208Y-67644429D01*
X128375702Y-67671566D01*
X128375484Y-67671892D01*
X128355960Y-67695683D01*
X128355683Y-67695960D01*
X128331892Y-67715484D01*
X128331566Y-67715702D01*
X128304429Y-67730208D01*
X128304067Y-67730358D01*
X128274612Y-67739293D01*
X128274227Y-67739369D01*
X128237462Y-67742990D01*
X128237266Y-67743000D01*
X128141555Y-67743000D01*
X128139823Y-67742000D01*
X128139823Y-67740000D01*
X128141359Y-67739010D01*
X128191775Y-67734045D01*
X128240071Y-67719394D01*
X128284579Y-67695605D01*
X128323589Y-67663589D01*
X128355605Y-67624579D01*
X128379394Y-67580071D01*
X128394045Y-67531775D01*
X128399010Y-67481359D01*
X128400175Y-67479733D01*
X128402165Y-67479929D01*
G37*
G36*
X125600990Y-67481359D02*
G01*
X125605955Y-67531775D01*
X125620606Y-67580071D01*
X125644395Y-67624579D01*
X125676411Y-67663589D01*
X125715421Y-67695605D01*
X125759929Y-67719394D01*
X125808225Y-67734045D01*
X125858641Y-67739010D01*
X125860267Y-67740175D01*
X125860071Y-67742165D01*
X125858445Y-67743000D01*
X125762734Y-67743000D01*
X125762538Y-67742990D01*
X125725773Y-67739369D01*
X125725388Y-67739293D01*
X125695933Y-67730358D01*
X125695571Y-67730208D01*
X125668434Y-67715702D01*
X125668108Y-67715484D01*
X125644317Y-67695960D01*
X125644040Y-67695683D01*
X125624516Y-67671892D01*
X125624298Y-67671566D01*
X125609792Y-67644429D01*
X125609642Y-67644067D01*
X125600707Y-67614612D01*
X125600631Y-67614227D01*
X125597010Y-67577462D01*
X125597000Y-67577266D01*
X125597000Y-67481555D01*
X125598000Y-67479823D01*
X125600000Y-67479823D01*
X125600990Y-67481359D01*
G37*
G36*
X125860177Y-64338000D02*
G01*
X125860177Y-64340000D01*
X125858641Y-64340990D01*
X125808225Y-64345955D01*
X125759929Y-64360606D01*
X125715421Y-64384395D01*
X125676411Y-64416411D01*
X125644395Y-64455421D01*
X125620606Y-64499929D01*
X125605955Y-64548225D01*
X125600990Y-64598641D01*
X125599825Y-64600267D01*
X125597835Y-64600071D01*
X125597000Y-64598445D01*
X125597000Y-64502734D01*
X125597010Y-64502538D01*
X125600631Y-64465773D01*
X125600707Y-64465388D01*
X125609642Y-64435933D01*
X125609792Y-64435571D01*
X125624298Y-64408434D01*
X125624516Y-64408108D01*
X125644040Y-64384317D01*
X125644317Y-64384040D01*
X125668108Y-64364516D01*
X125668434Y-64364298D01*
X125695571Y-64349792D01*
X125695933Y-64349642D01*
X125725388Y-64340707D01*
X125725773Y-64340631D01*
X125762538Y-64337010D01*
X125762734Y-64337000D01*
X125858445Y-64337000D01*
X125860177Y-64338000D01*
G37*
G36*
X128237462Y-64337010D02*
G01*
X128274227Y-64340631D01*
X128274612Y-64340707D01*
X128304067Y-64349642D01*
X128304429Y-64349792D01*
X128331566Y-64364298D01*
X128331892Y-64364516D01*
X128355683Y-64384040D01*
X128355960Y-64384317D01*
X128375484Y-64408108D01*
X128375702Y-64408434D01*
X128390208Y-64435571D01*
X128390358Y-64435933D01*
X128399293Y-64465388D01*
X128399369Y-64465773D01*
X128402990Y-64502538D01*
X128403000Y-64502734D01*
X128403000Y-64598445D01*
X128402000Y-64600177D01*
X128400000Y-64600177D01*
X128399010Y-64598641D01*
X128394045Y-64548225D01*
X128379394Y-64499929D01*
X128355605Y-64455421D01*
X128323589Y-64416411D01*
X128284579Y-64384395D01*
X128240071Y-64360606D01*
X128191775Y-64345955D01*
X128141359Y-64340990D01*
X128139733Y-64339825D01*
X128139929Y-64337835D01*
X128141555Y-64337000D01*
X128237266Y-64337000D01*
X128237462Y-64337010D01*
G37*
M02*
