G04 #@! TF.GenerationSoftware,KiCad,Pcbnew,(5.1.10)-1*
G04 #@! TF.CreationDate,2022-03-11T11:38:26-05:00*
G04 #@! TF.ProjectId,PacMan,5061634d-616e-42e6-9b69-6361645f7063,1.3*
G04 #@! TF.SameCoordinates,Original*
G04 #@! TF.FileFunction,Legend,Bot*
G04 #@! TF.FilePolarity,Positive*
%FSLAX46Y46*%
G04 Gerber Fmt 4.6, Leading zero omitted, Abs format (unit mm)*
G04 Created by KiCad (PCBNEW (5.1.10)-1) date 2022-03-11 11:38:26*
%MOMM*%
%LPD*%
G01*
G04 APERTURE LIST*
%ADD10C,0.150000*%
%ADD11C,0.010000*%
%ADD12C,0.120000*%
G04 APERTURE END LIST*
D10*
X154312190Y-50427000D02*
X154407428Y-50379380D01*
X154550285Y-50379380D01*
X154693142Y-50427000D01*
X154788380Y-50522238D01*
X154836000Y-50617476D01*
X154883619Y-50807952D01*
X154883619Y-50950809D01*
X154836000Y-51141285D01*
X154788380Y-51236523D01*
X154693142Y-51331761D01*
X154550285Y-51379380D01*
X154455047Y-51379380D01*
X154312190Y-51331761D01*
X154264571Y-51284142D01*
X154264571Y-50950809D01*
X154455047Y-50950809D01*
X153836000Y-51379380D02*
X153836000Y-50712714D01*
X153836000Y-50379380D02*
X153883619Y-50427000D01*
X153836000Y-50474619D01*
X153788380Y-50427000D01*
X153836000Y-50379380D01*
X153836000Y-50474619D01*
X153502666Y-50712714D02*
X153121714Y-50712714D01*
X153359809Y-50379380D02*
X153359809Y-51236523D01*
X153312190Y-51331761D01*
X153216952Y-51379380D01*
X153121714Y-51379380D01*
X152788380Y-51379380D02*
X152788380Y-50379380D01*
X152788380Y-50855571D02*
X152216952Y-50855571D01*
X152216952Y-51379380D02*
X152216952Y-50379380D01*
X151312190Y-50712714D02*
X151312190Y-51379380D01*
X151740761Y-50712714D02*
X151740761Y-51236523D01*
X151693142Y-51331761D01*
X151597904Y-51379380D01*
X151455047Y-51379380D01*
X151359809Y-51331761D01*
X151312190Y-51284142D01*
X150836000Y-51379380D02*
X150836000Y-50379380D01*
X150836000Y-50760333D02*
X150740761Y-50712714D01*
X150550285Y-50712714D01*
X150455047Y-50760333D01*
X150407428Y-50807952D01*
X150359809Y-50903190D01*
X150359809Y-51188904D01*
X150407428Y-51284142D01*
X150455047Y-51331761D01*
X150550285Y-51379380D01*
X150740761Y-51379380D01*
X150836000Y-51331761D01*
X148597904Y-51379380D02*
X148931238Y-50903190D01*
X149169333Y-51379380D02*
X149169333Y-50379380D01*
X148788380Y-50379380D01*
X148693142Y-50427000D01*
X148645523Y-50474619D01*
X148597904Y-50569857D01*
X148597904Y-50712714D01*
X148645523Y-50807952D01*
X148693142Y-50855571D01*
X148788380Y-50903190D01*
X149169333Y-50903190D01*
X147788380Y-51331761D02*
X147883619Y-51379380D01*
X148074095Y-51379380D01*
X148169333Y-51331761D01*
X148216952Y-51236523D01*
X148216952Y-50855571D01*
X148169333Y-50760333D01*
X148074095Y-50712714D01*
X147883619Y-50712714D01*
X147788380Y-50760333D01*
X147740761Y-50855571D01*
X147740761Y-50950809D01*
X148216952Y-51046047D01*
X147312190Y-50712714D02*
X147312190Y-51712714D01*
X147312190Y-50760333D02*
X147216952Y-50712714D01*
X147026476Y-50712714D01*
X146931238Y-50760333D01*
X146883619Y-50807952D01*
X146836000Y-50903190D01*
X146836000Y-51188904D01*
X146883619Y-51284142D01*
X146931238Y-51331761D01*
X147026476Y-51379380D01*
X147216952Y-51379380D01*
X147312190Y-51331761D01*
X146264571Y-51379380D02*
X146359809Y-51331761D01*
X146407428Y-51284142D01*
X146455047Y-51188904D01*
X146455047Y-50903190D01*
X146407428Y-50807952D01*
X146359809Y-50760333D01*
X146264571Y-50712714D01*
X146121714Y-50712714D01*
X146026476Y-50760333D01*
X145978857Y-50807952D01*
X145931238Y-50903190D01*
X145931238Y-51188904D01*
X145978857Y-51284142D01*
X146026476Y-51331761D01*
X146121714Y-51379380D01*
X146264571Y-51379380D01*
X145550285Y-51331761D02*
X145455047Y-51379380D01*
X145264571Y-51379380D01*
X145169333Y-51331761D01*
X145121714Y-51236523D01*
X145121714Y-51188904D01*
X145169333Y-51093666D01*
X145264571Y-51046047D01*
X145407428Y-51046047D01*
X145502666Y-50998428D01*
X145550285Y-50903190D01*
X145550285Y-50855571D01*
X145502666Y-50760333D01*
X145407428Y-50712714D01*
X145264571Y-50712714D01*
X145169333Y-50760333D01*
X144693142Y-51379380D02*
X144693142Y-50712714D01*
X144693142Y-50379380D02*
X144740761Y-50427000D01*
X144693142Y-50474619D01*
X144645523Y-50427000D01*
X144693142Y-50379380D01*
X144693142Y-50474619D01*
X144359809Y-50712714D02*
X143978857Y-50712714D01*
X144216952Y-50379380D02*
X144216952Y-51236523D01*
X144169333Y-51331761D01*
X144074095Y-51379380D01*
X143978857Y-51379380D01*
X143502666Y-51379380D02*
X143597904Y-51331761D01*
X143645523Y-51284142D01*
X143693142Y-51188904D01*
X143693142Y-50903190D01*
X143645523Y-50807952D01*
X143597904Y-50760333D01*
X143502666Y-50712714D01*
X143359809Y-50712714D01*
X143264571Y-50760333D01*
X143216952Y-50807952D01*
X143169333Y-50903190D01*
X143169333Y-51188904D01*
X143216952Y-51284142D01*
X143264571Y-51331761D01*
X143359809Y-51379380D01*
X143502666Y-51379380D01*
X142740761Y-51379380D02*
X142740761Y-50712714D01*
X142740761Y-50903190D02*
X142693142Y-50807952D01*
X142645523Y-50760333D01*
X142550285Y-50712714D01*
X142455047Y-50712714D01*
X142216952Y-50712714D02*
X141978857Y-51379380D01*
X141740761Y-50712714D02*
X141978857Y-51379380D01*
X142074095Y-51617476D01*
X142121714Y-51665095D01*
X142216952Y-51712714D01*
D11*
G36*
X153670000Y-74549000D02*
G01*
X159004000Y-74549000D01*
X159004000Y-69977000D01*
X158242000Y-69977000D01*
X158242000Y-73787000D01*
X154432000Y-73787000D01*
X154432000Y-69977000D01*
X158242000Y-69977000D01*
X159004000Y-69977000D01*
X159004000Y-69215000D01*
X153670000Y-69215000D01*
X153670000Y-74549000D01*
G37*
X153670000Y-74549000D02*
X159004000Y-74549000D01*
X159004000Y-69977000D01*
X158242000Y-69977000D01*
X158242000Y-73787000D01*
X154432000Y-73787000D01*
X154432000Y-69977000D01*
X158242000Y-69977000D01*
X159004000Y-69977000D01*
X159004000Y-69215000D01*
X153670000Y-69215000D01*
X153670000Y-74549000D01*
G36*
X148336000Y-72644000D02*
G01*
X148367469Y-72913862D01*
X148515910Y-73013327D01*
X148717000Y-73025000D01*
X148986863Y-72993531D01*
X149086328Y-72845090D01*
X149098000Y-72644000D01*
X149066532Y-72374137D01*
X148918091Y-72274672D01*
X148717000Y-72263000D01*
X148336000Y-72263000D01*
X148336000Y-72644000D01*
G37*
X148336000Y-72644000D02*
X148367469Y-72913862D01*
X148515910Y-73013327D01*
X148717000Y-73025000D01*
X148986863Y-72993531D01*
X149086328Y-72845090D01*
X149098000Y-72644000D01*
X149066532Y-72374137D01*
X148918091Y-72274672D01*
X148717000Y-72263000D01*
X148336000Y-72263000D01*
X148336000Y-72644000D01*
G36*
X146812000Y-54356000D02*
G01*
X146843469Y-54086137D01*
X146991910Y-53986672D01*
X147193000Y-53975000D01*
X147462863Y-53943531D01*
X147562328Y-53795090D01*
X147574000Y-53594000D01*
X147605469Y-53324137D01*
X147753910Y-53224672D01*
X147955000Y-53213000D01*
X148224863Y-53181531D01*
X148324328Y-53033090D01*
X148336000Y-52832000D01*
X148336000Y-52451000D01*
X146812000Y-52451000D01*
X146812000Y-53213000D01*
X145288000Y-53213000D01*
X145288000Y-52451000D01*
X143764000Y-52451000D01*
X143764000Y-56261000D01*
X143002000Y-56261000D01*
X143002000Y-57785000D01*
X143383000Y-57785000D01*
X143652863Y-57816468D01*
X143752328Y-57964909D01*
X143764000Y-58166000D01*
X143764000Y-58547000D01*
X145288000Y-58547000D01*
X145288000Y-60071000D01*
X147574000Y-60071000D01*
X147574000Y-59309000D01*
X146050000Y-59309000D01*
X146050000Y-57785000D01*
X145669000Y-57785000D01*
X145399138Y-57753531D01*
X145299673Y-57605090D01*
X145288000Y-57404000D01*
X145256532Y-57134137D01*
X145108091Y-57034672D01*
X144907000Y-57023000D01*
X144637138Y-57054468D01*
X144537673Y-57202909D01*
X144526000Y-57404000D01*
X144494532Y-57673862D01*
X144346091Y-57773327D01*
X144145000Y-57785000D01*
X143875138Y-57753531D01*
X143775673Y-57605090D01*
X143764000Y-57404000D01*
X143795469Y-57134137D01*
X143943910Y-57034672D01*
X144145000Y-57023000D01*
X144526000Y-57023000D01*
X144526000Y-55499000D01*
X144907000Y-55499000D01*
X145176863Y-55467531D01*
X145276328Y-55319090D01*
X145288000Y-55118000D01*
X145256532Y-54848137D01*
X145108091Y-54748672D01*
X144907000Y-54737000D01*
X144526000Y-54737000D01*
X144526000Y-53213000D01*
X144907000Y-53213000D01*
X145176863Y-53244468D01*
X145276328Y-53392909D01*
X145288000Y-53594000D01*
X145319469Y-53863862D01*
X145467910Y-53963327D01*
X145669000Y-53975000D01*
X145938863Y-54006468D01*
X146038328Y-54154909D01*
X146050000Y-54356000D01*
X146081469Y-54625862D01*
X146229910Y-54725327D01*
X146431000Y-54737000D01*
X146812000Y-54737000D01*
X146812000Y-54356000D01*
G37*
X146812000Y-54356000D02*
X146843469Y-54086137D01*
X146991910Y-53986672D01*
X147193000Y-53975000D01*
X147462863Y-53943531D01*
X147562328Y-53795090D01*
X147574000Y-53594000D01*
X147605469Y-53324137D01*
X147753910Y-53224672D01*
X147955000Y-53213000D01*
X148224863Y-53181531D01*
X148324328Y-53033090D01*
X148336000Y-52832000D01*
X148336000Y-52451000D01*
X146812000Y-52451000D01*
X146812000Y-53213000D01*
X145288000Y-53213000D01*
X145288000Y-52451000D01*
X143764000Y-52451000D01*
X143764000Y-56261000D01*
X143002000Y-56261000D01*
X143002000Y-57785000D01*
X143383000Y-57785000D01*
X143652863Y-57816468D01*
X143752328Y-57964909D01*
X143764000Y-58166000D01*
X143764000Y-58547000D01*
X145288000Y-58547000D01*
X145288000Y-60071000D01*
X147574000Y-60071000D01*
X147574000Y-59309000D01*
X146050000Y-59309000D01*
X146050000Y-57785000D01*
X145669000Y-57785000D01*
X145399138Y-57753531D01*
X145299673Y-57605090D01*
X145288000Y-57404000D01*
X145256532Y-57134137D01*
X145108091Y-57034672D01*
X144907000Y-57023000D01*
X144637138Y-57054468D01*
X144537673Y-57202909D01*
X144526000Y-57404000D01*
X144494532Y-57673862D01*
X144346091Y-57773327D01*
X144145000Y-57785000D01*
X143875138Y-57753531D01*
X143775673Y-57605090D01*
X143764000Y-57404000D01*
X143795469Y-57134137D01*
X143943910Y-57034672D01*
X144145000Y-57023000D01*
X144526000Y-57023000D01*
X144526000Y-55499000D01*
X144907000Y-55499000D01*
X145176863Y-55467531D01*
X145276328Y-55319090D01*
X145288000Y-55118000D01*
X145256532Y-54848137D01*
X145108091Y-54748672D01*
X144907000Y-54737000D01*
X144526000Y-54737000D01*
X144526000Y-53213000D01*
X144907000Y-53213000D01*
X145176863Y-53244468D01*
X145276328Y-53392909D01*
X145288000Y-53594000D01*
X145319469Y-53863862D01*
X145467910Y-53963327D01*
X145669000Y-53975000D01*
X145938863Y-54006468D01*
X146038328Y-54154909D01*
X146050000Y-54356000D01*
X146081469Y-54625862D01*
X146229910Y-54725327D01*
X146431000Y-54737000D01*
X146812000Y-54737000D01*
X146812000Y-54356000D01*
G36*
X144526000Y-65405000D02*
G01*
X144526000Y-65024000D01*
X143002000Y-65024000D01*
X143002000Y-65405000D01*
X142621000Y-65405000D01*
X142351138Y-65373531D01*
X142251673Y-65225090D01*
X142240000Y-65024000D01*
X142271469Y-64754137D01*
X142419910Y-64654672D01*
X142621000Y-64643000D01*
X142890863Y-64674468D01*
X142990328Y-64822909D01*
X143002000Y-65024000D01*
X144526000Y-65024000D01*
X144494532Y-64754137D01*
X144346091Y-64654672D01*
X144145000Y-64643000D01*
X143875138Y-64611531D01*
X143775673Y-64463090D01*
X143764000Y-64262000D01*
X143764000Y-63881000D01*
X142240000Y-63881000D01*
X142240000Y-63119000D01*
X146050000Y-63119000D01*
X146050000Y-62357000D01*
X147574000Y-62357000D01*
X147574000Y-61976000D01*
X145288000Y-61976000D01*
X145256532Y-62245862D01*
X145108091Y-62345327D01*
X144907000Y-62357000D01*
X144637138Y-62325531D01*
X144537673Y-62177090D01*
X144526000Y-61976000D01*
X144557469Y-61706137D01*
X144705910Y-61606672D01*
X144907000Y-61595000D01*
X145176863Y-61626468D01*
X145276328Y-61774909D01*
X145288000Y-61976000D01*
X147574000Y-61976000D01*
X147542532Y-61706137D01*
X147394091Y-61606672D01*
X147193000Y-61595000D01*
X146923138Y-61563531D01*
X146823673Y-61415090D01*
X146812000Y-61214000D01*
X146812000Y-60833000D01*
X143764000Y-60833000D01*
X143002000Y-60833000D01*
X143002000Y-61595000D01*
X141478000Y-61595000D01*
X141478000Y-60833000D01*
X143002000Y-60833000D01*
X143764000Y-60833000D01*
X143764000Y-59690000D01*
X143002000Y-59690000D01*
X142970532Y-59959862D01*
X142822091Y-60059327D01*
X142621000Y-60071000D01*
X142351138Y-60039531D01*
X142251673Y-59891090D01*
X142240000Y-59690000D01*
X142271469Y-59420137D01*
X142419910Y-59320672D01*
X142621000Y-59309000D01*
X142890863Y-59340468D01*
X142990328Y-59488909D01*
X143002000Y-59690000D01*
X143764000Y-59690000D01*
X143764000Y-58547000D01*
X141478000Y-58547000D01*
X141478000Y-60833000D01*
X141097000Y-60833000D01*
X140827138Y-60801531D01*
X140727673Y-60653090D01*
X140716000Y-60452000D01*
X140684532Y-60182137D01*
X140536091Y-60082672D01*
X140335000Y-60071000D01*
X139954000Y-60071000D01*
X139954000Y-61595000D01*
X139192000Y-61595000D01*
X139192000Y-65405000D01*
X138811000Y-65405000D01*
X138541138Y-65436468D01*
X138441673Y-65584909D01*
X138430000Y-65786000D01*
X138398532Y-66055862D01*
X138250091Y-66155327D01*
X138049000Y-66167000D01*
X137779138Y-66135531D01*
X137679673Y-65987090D01*
X137668000Y-65786000D01*
X137699469Y-65516137D01*
X137847910Y-65416672D01*
X138049000Y-65405000D01*
X138430000Y-65405000D01*
X138430000Y-63119000D01*
X138049000Y-63119000D01*
X137779138Y-63087531D01*
X137679673Y-62939090D01*
X137668000Y-62738000D01*
X137699469Y-62468137D01*
X137847910Y-62368672D01*
X138049000Y-62357000D01*
X138430000Y-62357000D01*
X138430000Y-60833000D01*
X138811000Y-60833000D01*
X139080863Y-60801531D01*
X139180328Y-60653090D01*
X139192000Y-60452000D01*
X139223469Y-60182137D01*
X139371910Y-60082672D01*
X139573000Y-60071000D01*
X139954000Y-60071000D01*
X140335000Y-60071000D01*
X140065138Y-60039531D01*
X139965673Y-59891090D01*
X139954000Y-59690000D01*
X139922532Y-59420137D01*
X139774091Y-59320672D01*
X139573000Y-59309000D01*
X139303138Y-59277531D01*
X139203673Y-59129090D01*
X139192000Y-58928000D01*
X139160532Y-58658137D01*
X139012091Y-58558672D01*
X138811000Y-58547000D01*
X138541138Y-58578468D01*
X138441673Y-58726909D01*
X138430000Y-58928000D01*
X138461469Y-59197862D01*
X138609910Y-59297327D01*
X138811000Y-59309000D01*
X139080863Y-59340468D01*
X139180328Y-59488909D01*
X139192000Y-59690000D01*
X139192000Y-60071000D01*
X137668000Y-60071000D01*
X137668000Y-59690000D01*
X137636532Y-59420137D01*
X137488091Y-59320672D01*
X137287000Y-59309000D01*
X136906000Y-59309000D01*
X136906000Y-60833000D01*
X137287000Y-60833000D01*
X137556863Y-60864468D01*
X137656328Y-61012909D01*
X137668000Y-61214000D01*
X137636532Y-61483862D01*
X137488091Y-61583327D01*
X137287000Y-61595000D01*
X136906000Y-61595000D01*
X136906000Y-63881000D01*
X137287000Y-63881000D01*
X137556863Y-63912468D01*
X137656328Y-64060909D01*
X137668000Y-64262000D01*
X137636532Y-64531862D01*
X137488091Y-64631327D01*
X137287000Y-64643000D01*
X136906000Y-64643000D01*
X136906000Y-66929000D01*
X137287000Y-66929000D01*
X137556863Y-66960468D01*
X137656328Y-67108909D01*
X137668000Y-67310000D01*
X137699469Y-67579862D01*
X137847910Y-67679327D01*
X138049000Y-67691000D01*
X138430000Y-67691000D01*
X138430000Y-66167000D01*
X139954000Y-66167000D01*
X139954000Y-66548000D01*
X139922532Y-66817862D01*
X139774091Y-66917327D01*
X139573000Y-66929000D01*
X139303138Y-66960468D01*
X139203673Y-67108909D01*
X139192000Y-67310000D01*
X139223469Y-67579862D01*
X139371910Y-67679327D01*
X139573000Y-67691000D01*
X139954000Y-67691000D01*
X139954000Y-69215000D01*
X139573000Y-69215000D01*
X139303138Y-69183531D01*
X139203673Y-69035090D01*
X139192000Y-68834000D01*
X139192000Y-68453000D01*
X136906000Y-68453000D01*
X136906000Y-69977000D01*
X137287000Y-69977000D01*
X137556863Y-70008468D01*
X137656328Y-70156909D01*
X137668000Y-70358000D01*
X137699469Y-70627862D01*
X137847910Y-70727327D01*
X138049000Y-70739000D01*
X138430000Y-70739000D01*
X138430000Y-69215000D01*
X139192000Y-69215000D01*
X139192000Y-70739000D01*
X139954000Y-70739000D01*
X139954000Y-72263000D01*
X139573000Y-72263000D01*
X139303138Y-72231531D01*
X139203673Y-72083090D01*
X139192000Y-71882000D01*
X139192000Y-71501000D01*
X136906000Y-71501000D01*
X136906000Y-73025000D01*
X137287000Y-73025000D01*
X137556863Y-73056468D01*
X137656328Y-73204909D01*
X137668000Y-73406000D01*
X137636532Y-73675862D01*
X137488091Y-73775327D01*
X137287000Y-73787000D01*
X137017138Y-73818468D01*
X136917673Y-73966909D01*
X136906000Y-74168000D01*
X136906000Y-74549000D01*
X138430000Y-74549000D01*
X138430000Y-73025000D01*
X138049000Y-73025000D01*
X137779138Y-72993531D01*
X137679673Y-72845090D01*
X137668000Y-72644000D01*
X137668000Y-72263000D01*
X139192000Y-72263000D01*
X139192000Y-72644000D01*
X139223469Y-72913862D01*
X139371910Y-73013327D01*
X139573000Y-73025000D01*
X139954000Y-73025000D01*
X139954000Y-74549000D01*
X141478000Y-74549000D01*
X141478000Y-74168000D01*
X141446532Y-73898137D01*
X141298091Y-73798672D01*
X141097000Y-73787000D01*
X140827138Y-73755531D01*
X140727673Y-73607090D01*
X140716000Y-73406000D01*
X140747469Y-73136137D01*
X140895910Y-73036672D01*
X141097000Y-73025000D01*
X141478000Y-73025000D01*
X141478000Y-71501000D01*
X143002000Y-71501000D01*
X143002000Y-71882000D01*
X143033469Y-72151862D01*
X143181910Y-72251327D01*
X143383000Y-72263000D01*
X143652863Y-72294468D01*
X143752328Y-72442909D01*
X143764000Y-72644000D01*
X143764000Y-73025000D01*
X142240000Y-73025000D01*
X142240000Y-74549000D01*
X144526000Y-74549000D01*
X144526000Y-73787000D01*
X146050000Y-73787000D01*
X146050000Y-74168000D01*
X146081469Y-74437862D01*
X146229910Y-74537327D01*
X146431000Y-74549000D01*
X146812000Y-74549000D01*
X146812000Y-72263000D01*
X148336000Y-72263000D01*
X148336000Y-70739000D01*
X149860000Y-70739000D01*
X149860000Y-72263000D01*
X150241000Y-72263000D01*
X150510863Y-72294468D01*
X150610328Y-72442909D01*
X150622000Y-72644000D01*
X150590532Y-72913862D01*
X150442091Y-73013327D01*
X150241000Y-73025000D01*
X149971138Y-73056468D01*
X149871673Y-73204909D01*
X149860000Y-73406000D01*
X149828532Y-73675862D01*
X149680091Y-73775327D01*
X149479000Y-73787000D01*
X149209138Y-73818468D01*
X149109673Y-73966909D01*
X149098000Y-74168000D01*
X149129469Y-74437862D01*
X149277910Y-74537327D01*
X149479000Y-74549000D01*
X149748863Y-74517531D01*
X149848328Y-74369090D01*
X149860000Y-74168000D01*
X149891469Y-73898137D01*
X150039910Y-73798672D01*
X150241000Y-73787000D01*
X150510863Y-73818468D01*
X150610328Y-73966909D01*
X150622000Y-74168000D01*
X150622000Y-74549000D01*
X152908000Y-74549000D01*
X152908000Y-72644000D01*
X152146000Y-72644000D01*
X152114532Y-72913862D01*
X151966091Y-73013327D01*
X151765000Y-73025000D01*
X151495138Y-72993531D01*
X151395673Y-72845090D01*
X151384000Y-72644000D01*
X151415469Y-72374137D01*
X151563910Y-72274672D01*
X151765000Y-72263000D01*
X152034863Y-72294468D01*
X152134328Y-72442909D01*
X152146000Y-72644000D01*
X152908000Y-72644000D01*
X152908000Y-72263000D01*
X152527000Y-72263000D01*
X152257138Y-72231531D01*
X152157673Y-72083090D01*
X152146000Y-71882000D01*
X152177469Y-71612137D01*
X152325910Y-71512672D01*
X152527000Y-71501000D01*
X152908000Y-71501000D01*
X152908000Y-71120000D01*
X152146000Y-71120000D01*
X152146000Y-71501000D01*
X150622000Y-71501000D01*
X150622000Y-71120000D01*
X150590532Y-70850137D01*
X150442091Y-70750672D01*
X150241000Y-70739000D01*
X149971138Y-70707531D01*
X149871673Y-70559090D01*
X149860000Y-70358000D01*
X149860000Y-69977000D01*
X151384000Y-69977000D01*
X151384000Y-70358000D01*
X151415469Y-70627862D01*
X151563910Y-70727327D01*
X151765000Y-70739000D01*
X152034863Y-70770468D01*
X152134328Y-70918909D01*
X152146000Y-71120000D01*
X152908000Y-71120000D01*
X152908000Y-68453000D01*
X151384000Y-68453000D01*
X151384000Y-68834000D01*
X151352532Y-69103862D01*
X151204091Y-69203327D01*
X151003000Y-69215000D01*
X150733138Y-69183531D01*
X150633673Y-69035090D01*
X150622000Y-68834000D01*
X150590532Y-68564137D01*
X150442091Y-68464672D01*
X150241000Y-68453000D01*
X149971138Y-68421531D01*
X149871673Y-68273090D01*
X149860000Y-68072000D01*
X149828532Y-67802137D01*
X149680091Y-67702672D01*
X149479000Y-67691000D01*
X149209138Y-67722468D01*
X149109673Y-67870909D01*
X149098000Y-68072000D01*
X149066532Y-68341862D01*
X148918091Y-68441327D01*
X148717000Y-68453000D01*
X148447138Y-68484468D01*
X148347673Y-68632909D01*
X148336000Y-68834000D01*
X148367469Y-69103862D01*
X148515910Y-69203327D01*
X148717000Y-69215000D01*
X148986863Y-69246468D01*
X149086328Y-69394909D01*
X149098000Y-69596000D01*
X149066532Y-69865862D01*
X148918091Y-69965327D01*
X148717000Y-69977000D01*
X148447138Y-69945531D01*
X148347673Y-69797090D01*
X148336000Y-69596000D01*
X148304532Y-69326137D01*
X148156091Y-69226672D01*
X147955000Y-69215000D01*
X147574000Y-69215000D01*
X147574000Y-71501000D01*
X146050000Y-71501000D01*
X146050000Y-73025000D01*
X144526000Y-73025000D01*
X144526000Y-72644000D01*
X144494532Y-72374137D01*
X144346091Y-72274672D01*
X144145000Y-72263000D01*
X143764000Y-72263000D01*
X143764000Y-69977000D01*
X144526000Y-69977000D01*
X144526000Y-68453000D01*
X143002000Y-68453000D01*
X143002000Y-70739000D01*
X140716000Y-70739000D01*
X140716000Y-68453000D01*
X143002000Y-68453000D01*
X144526000Y-68453000D01*
X144526000Y-66929000D01*
X143002000Y-66929000D01*
X143002000Y-66548000D01*
X142240000Y-66548000D01*
X142208532Y-66817862D01*
X142060091Y-66917327D01*
X141859000Y-66929000D01*
X141589138Y-66897531D01*
X141489673Y-66749090D01*
X141478000Y-66548000D01*
X141478000Y-66167000D01*
X139954000Y-66167000D01*
X139954000Y-63881000D01*
X140335000Y-63881000D01*
X140604863Y-63849531D01*
X140704328Y-63701090D01*
X140716000Y-63500000D01*
X140684532Y-63230137D01*
X140536091Y-63130672D01*
X140335000Y-63119000D01*
X139954000Y-63119000D01*
X139954000Y-61595000D01*
X141478000Y-61595000D01*
X141478000Y-64643000D01*
X141097000Y-64643000D01*
X140827138Y-64674468D01*
X140727673Y-64822909D01*
X140716000Y-65024000D01*
X140747469Y-65293862D01*
X140895910Y-65393327D01*
X141097000Y-65405000D01*
X141366863Y-65436468D01*
X141466328Y-65584909D01*
X141478000Y-65786000D01*
X141509469Y-66055862D01*
X141657910Y-66155327D01*
X141859000Y-66167000D01*
X142128863Y-66198468D01*
X142228328Y-66346909D01*
X142240000Y-66548000D01*
X143002000Y-66548000D01*
X143002000Y-65405000D01*
X144526000Y-65405000D01*
G37*
X144526000Y-65405000D02*
X144526000Y-65024000D01*
X143002000Y-65024000D01*
X143002000Y-65405000D01*
X142621000Y-65405000D01*
X142351138Y-65373531D01*
X142251673Y-65225090D01*
X142240000Y-65024000D01*
X142271469Y-64754137D01*
X142419910Y-64654672D01*
X142621000Y-64643000D01*
X142890863Y-64674468D01*
X142990328Y-64822909D01*
X143002000Y-65024000D01*
X144526000Y-65024000D01*
X144494532Y-64754137D01*
X144346091Y-64654672D01*
X144145000Y-64643000D01*
X143875138Y-64611531D01*
X143775673Y-64463090D01*
X143764000Y-64262000D01*
X143764000Y-63881000D01*
X142240000Y-63881000D01*
X142240000Y-63119000D01*
X146050000Y-63119000D01*
X146050000Y-62357000D01*
X147574000Y-62357000D01*
X147574000Y-61976000D01*
X145288000Y-61976000D01*
X145256532Y-62245862D01*
X145108091Y-62345327D01*
X144907000Y-62357000D01*
X144637138Y-62325531D01*
X144537673Y-62177090D01*
X144526000Y-61976000D01*
X144557469Y-61706137D01*
X144705910Y-61606672D01*
X144907000Y-61595000D01*
X145176863Y-61626468D01*
X145276328Y-61774909D01*
X145288000Y-61976000D01*
X147574000Y-61976000D01*
X147542532Y-61706137D01*
X147394091Y-61606672D01*
X147193000Y-61595000D01*
X146923138Y-61563531D01*
X146823673Y-61415090D01*
X146812000Y-61214000D01*
X146812000Y-60833000D01*
X143764000Y-60833000D01*
X143002000Y-60833000D01*
X143002000Y-61595000D01*
X141478000Y-61595000D01*
X141478000Y-60833000D01*
X143002000Y-60833000D01*
X143764000Y-60833000D01*
X143764000Y-59690000D01*
X143002000Y-59690000D01*
X142970532Y-59959862D01*
X142822091Y-60059327D01*
X142621000Y-60071000D01*
X142351138Y-60039531D01*
X142251673Y-59891090D01*
X142240000Y-59690000D01*
X142271469Y-59420137D01*
X142419910Y-59320672D01*
X142621000Y-59309000D01*
X142890863Y-59340468D01*
X142990328Y-59488909D01*
X143002000Y-59690000D01*
X143764000Y-59690000D01*
X143764000Y-58547000D01*
X141478000Y-58547000D01*
X141478000Y-60833000D01*
X141097000Y-60833000D01*
X140827138Y-60801531D01*
X140727673Y-60653090D01*
X140716000Y-60452000D01*
X140684532Y-60182137D01*
X140536091Y-60082672D01*
X140335000Y-60071000D01*
X139954000Y-60071000D01*
X139954000Y-61595000D01*
X139192000Y-61595000D01*
X139192000Y-65405000D01*
X138811000Y-65405000D01*
X138541138Y-65436468D01*
X138441673Y-65584909D01*
X138430000Y-65786000D01*
X138398532Y-66055862D01*
X138250091Y-66155327D01*
X138049000Y-66167000D01*
X137779138Y-66135531D01*
X137679673Y-65987090D01*
X137668000Y-65786000D01*
X137699469Y-65516137D01*
X137847910Y-65416672D01*
X138049000Y-65405000D01*
X138430000Y-65405000D01*
X138430000Y-63119000D01*
X138049000Y-63119000D01*
X137779138Y-63087531D01*
X137679673Y-62939090D01*
X137668000Y-62738000D01*
X137699469Y-62468137D01*
X137847910Y-62368672D01*
X138049000Y-62357000D01*
X138430000Y-62357000D01*
X138430000Y-60833000D01*
X138811000Y-60833000D01*
X139080863Y-60801531D01*
X139180328Y-60653090D01*
X139192000Y-60452000D01*
X139223469Y-60182137D01*
X139371910Y-60082672D01*
X139573000Y-60071000D01*
X139954000Y-60071000D01*
X140335000Y-60071000D01*
X140065138Y-60039531D01*
X139965673Y-59891090D01*
X139954000Y-59690000D01*
X139922532Y-59420137D01*
X139774091Y-59320672D01*
X139573000Y-59309000D01*
X139303138Y-59277531D01*
X139203673Y-59129090D01*
X139192000Y-58928000D01*
X139160532Y-58658137D01*
X139012091Y-58558672D01*
X138811000Y-58547000D01*
X138541138Y-58578468D01*
X138441673Y-58726909D01*
X138430000Y-58928000D01*
X138461469Y-59197862D01*
X138609910Y-59297327D01*
X138811000Y-59309000D01*
X139080863Y-59340468D01*
X139180328Y-59488909D01*
X139192000Y-59690000D01*
X139192000Y-60071000D01*
X137668000Y-60071000D01*
X137668000Y-59690000D01*
X137636532Y-59420137D01*
X137488091Y-59320672D01*
X137287000Y-59309000D01*
X136906000Y-59309000D01*
X136906000Y-60833000D01*
X137287000Y-60833000D01*
X137556863Y-60864468D01*
X137656328Y-61012909D01*
X137668000Y-61214000D01*
X137636532Y-61483862D01*
X137488091Y-61583327D01*
X137287000Y-61595000D01*
X136906000Y-61595000D01*
X136906000Y-63881000D01*
X137287000Y-63881000D01*
X137556863Y-63912468D01*
X137656328Y-64060909D01*
X137668000Y-64262000D01*
X137636532Y-64531862D01*
X137488091Y-64631327D01*
X137287000Y-64643000D01*
X136906000Y-64643000D01*
X136906000Y-66929000D01*
X137287000Y-66929000D01*
X137556863Y-66960468D01*
X137656328Y-67108909D01*
X137668000Y-67310000D01*
X137699469Y-67579862D01*
X137847910Y-67679327D01*
X138049000Y-67691000D01*
X138430000Y-67691000D01*
X138430000Y-66167000D01*
X139954000Y-66167000D01*
X139954000Y-66548000D01*
X139922532Y-66817862D01*
X139774091Y-66917327D01*
X139573000Y-66929000D01*
X139303138Y-66960468D01*
X139203673Y-67108909D01*
X139192000Y-67310000D01*
X139223469Y-67579862D01*
X139371910Y-67679327D01*
X139573000Y-67691000D01*
X139954000Y-67691000D01*
X139954000Y-69215000D01*
X139573000Y-69215000D01*
X139303138Y-69183531D01*
X139203673Y-69035090D01*
X139192000Y-68834000D01*
X139192000Y-68453000D01*
X136906000Y-68453000D01*
X136906000Y-69977000D01*
X137287000Y-69977000D01*
X137556863Y-70008468D01*
X137656328Y-70156909D01*
X137668000Y-70358000D01*
X137699469Y-70627862D01*
X137847910Y-70727327D01*
X138049000Y-70739000D01*
X138430000Y-70739000D01*
X138430000Y-69215000D01*
X139192000Y-69215000D01*
X139192000Y-70739000D01*
X139954000Y-70739000D01*
X139954000Y-72263000D01*
X139573000Y-72263000D01*
X139303138Y-72231531D01*
X139203673Y-72083090D01*
X139192000Y-71882000D01*
X139192000Y-71501000D01*
X136906000Y-71501000D01*
X136906000Y-73025000D01*
X137287000Y-73025000D01*
X137556863Y-73056468D01*
X137656328Y-73204909D01*
X137668000Y-73406000D01*
X137636532Y-73675862D01*
X137488091Y-73775327D01*
X137287000Y-73787000D01*
X137017138Y-73818468D01*
X136917673Y-73966909D01*
X136906000Y-74168000D01*
X136906000Y-74549000D01*
X138430000Y-74549000D01*
X138430000Y-73025000D01*
X138049000Y-73025000D01*
X137779138Y-72993531D01*
X137679673Y-72845090D01*
X137668000Y-72644000D01*
X137668000Y-72263000D01*
X139192000Y-72263000D01*
X139192000Y-72644000D01*
X139223469Y-72913862D01*
X139371910Y-73013327D01*
X139573000Y-73025000D01*
X139954000Y-73025000D01*
X139954000Y-74549000D01*
X141478000Y-74549000D01*
X141478000Y-74168000D01*
X141446532Y-73898137D01*
X141298091Y-73798672D01*
X141097000Y-73787000D01*
X140827138Y-73755531D01*
X140727673Y-73607090D01*
X140716000Y-73406000D01*
X140747469Y-73136137D01*
X140895910Y-73036672D01*
X141097000Y-73025000D01*
X141478000Y-73025000D01*
X141478000Y-71501000D01*
X143002000Y-71501000D01*
X143002000Y-71882000D01*
X143033469Y-72151862D01*
X143181910Y-72251327D01*
X143383000Y-72263000D01*
X143652863Y-72294468D01*
X143752328Y-72442909D01*
X143764000Y-72644000D01*
X143764000Y-73025000D01*
X142240000Y-73025000D01*
X142240000Y-74549000D01*
X144526000Y-74549000D01*
X144526000Y-73787000D01*
X146050000Y-73787000D01*
X146050000Y-74168000D01*
X146081469Y-74437862D01*
X146229910Y-74537327D01*
X146431000Y-74549000D01*
X146812000Y-74549000D01*
X146812000Y-72263000D01*
X148336000Y-72263000D01*
X148336000Y-70739000D01*
X149860000Y-70739000D01*
X149860000Y-72263000D01*
X150241000Y-72263000D01*
X150510863Y-72294468D01*
X150610328Y-72442909D01*
X150622000Y-72644000D01*
X150590532Y-72913862D01*
X150442091Y-73013327D01*
X150241000Y-73025000D01*
X149971138Y-73056468D01*
X149871673Y-73204909D01*
X149860000Y-73406000D01*
X149828532Y-73675862D01*
X149680091Y-73775327D01*
X149479000Y-73787000D01*
X149209138Y-73818468D01*
X149109673Y-73966909D01*
X149098000Y-74168000D01*
X149129469Y-74437862D01*
X149277910Y-74537327D01*
X149479000Y-74549000D01*
X149748863Y-74517531D01*
X149848328Y-74369090D01*
X149860000Y-74168000D01*
X149891469Y-73898137D01*
X150039910Y-73798672D01*
X150241000Y-73787000D01*
X150510863Y-73818468D01*
X150610328Y-73966909D01*
X150622000Y-74168000D01*
X150622000Y-74549000D01*
X152908000Y-74549000D01*
X152908000Y-72644000D01*
X152146000Y-72644000D01*
X152114532Y-72913862D01*
X151966091Y-73013327D01*
X151765000Y-73025000D01*
X151495138Y-72993531D01*
X151395673Y-72845090D01*
X151384000Y-72644000D01*
X151415469Y-72374137D01*
X151563910Y-72274672D01*
X151765000Y-72263000D01*
X152034863Y-72294468D01*
X152134328Y-72442909D01*
X152146000Y-72644000D01*
X152908000Y-72644000D01*
X152908000Y-72263000D01*
X152527000Y-72263000D01*
X152257138Y-72231531D01*
X152157673Y-72083090D01*
X152146000Y-71882000D01*
X152177469Y-71612137D01*
X152325910Y-71512672D01*
X152527000Y-71501000D01*
X152908000Y-71501000D01*
X152908000Y-71120000D01*
X152146000Y-71120000D01*
X152146000Y-71501000D01*
X150622000Y-71501000D01*
X150622000Y-71120000D01*
X150590532Y-70850137D01*
X150442091Y-70750672D01*
X150241000Y-70739000D01*
X149971138Y-70707531D01*
X149871673Y-70559090D01*
X149860000Y-70358000D01*
X149860000Y-69977000D01*
X151384000Y-69977000D01*
X151384000Y-70358000D01*
X151415469Y-70627862D01*
X151563910Y-70727327D01*
X151765000Y-70739000D01*
X152034863Y-70770468D01*
X152134328Y-70918909D01*
X152146000Y-71120000D01*
X152908000Y-71120000D01*
X152908000Y-68453000D01*
X151384000Y-68453000D01*
X151384000Y-68834000D01*
X151352532Y-69103862D01*
X151204091Y-69203327D01*
X151003000Y-69215000D01*
X150733138Y-69183531D01*
X150633673Y-69035090D01*
X150622000Y-68834000D01*
X150590532Y-68564137D01*
X150442091Y-68464672D01*
X150241000Y-68453000D01*
X149971138Y-68421531D01*
X149871673Y-68273090D01*
X149860000Y-68072000D01*
X149828532Y-67802137D01*
X149680091Y-67702672D01*
X149479000Y-67691000D01*
X149209138Y-67722468D01*
X149109673Y-67870909D01*
X149098000Y-68072000D01*
X149066532Y-68341862D01*
X148918091Y-68441327D01*
X148717000Y-68453000D01*
X148447138Y-68484468D01*
X148347673Y-68632909D01*
X148336000Y-68834000D01*
X148367469Y-69103862D01*
X148515910Y-69203327D01*
X148717000Y-69215000D01*
X148986863Y-69246468D01*
X149086328Y-69394909D01*
X149098000Y-69596000D01*
X149066532Y-69865862D01*
X148918091Y-69965327D01*
X148717000Y-69977000D01*
X148447138Y-69945531D01*
X148347673Y-69797090D01*
X148336000Y-69596000D01*
X148304532Y-69326137D01*
X148156091Y-69226672D01*
X147955000Y-69215000D01*
X147574000Y-69215000D01*
X147574000Y-71501000D01*
X146050000Y-71501000D01*
X146050000Y-73025000D01*
X144526000Y-73025000D01*
X144526000Y-72644000D01*
X144494532Y-72374137D01*
X144346091Y-72274672D01*
X144145000Y-72263000D01*
X143764000Y-72263000D01*
X143764000Y-69977000D01*
X144526000Y-69977000D01*
X144526000Y-68453000D01*
X143002000Y-68453000D01*
X143002000Y-70739000D01*
X140716000Y-70739000D01*
X140716000Y-68453000D01*
X143002000Y-68453000D01*
X144526000Y-68453000D01*
X144526000Y-66929000D01*
X143002000Y-66929000D01*
X143002000Y-66548000D01*
X142240000Y-66548000D01*
X142208532Y-66817862D01*
X142060091Y-66917327D01*
X141859000Y-66929000D01*
X141589138Y-66897531D01*
X141489673Y-66749090D01*
X141478000Y-66548000D01*
X141478000Y-66167000D01*
X139954000Y-66167000D01*
X139954000Y-63881000D01*
X140335000Y-63881000D01*
X140604863Y-63849531D01*
X140704328Y-63701090D01*
X140716000Y-63500000D01*
X140684532Y-63230137D01*
X140536091Y-63130672D01*
X140335000Y-63119000D01*
X139954000Y-63119000D01*
X139954000Y-61595000D01*
X141478000Y-61595000D01*
X141478000Y-64643000D01*
X141097000Y-64643000D01*
X140827138Y-64674468D01*
X140727673Y-64822909D01*
X140716000Y-65024000D01*
X140747469Y-65293862D01*
X140895910Y-65393327D01*
X141097000Y-65405000D01*
X141366863Y-65436468D01*
X141466328Y-65584909D01*
X141478000Y-65786000D01*
X141509469Y-66055862D01*
X141657910Y-66155327D01*
X141859000Y-66167000D01*
X142128863Y-66198468D01*
X142228328Y-66346909D01*
X142240000Y-66548000D01*
X143002000Y-66548000D01*
X143002000Y-65405000D01*
X144526000Y-65405000D01*
G36*
X146812000Y-57023000D02*
G01*
X147193000Y-57023000D01*
X147462863Y-57054468D01*
X147562328Y-57202909D01*
X147574000Y-57404000D01*
X147542532Y-57673862D01*
X147394091Y-57773327D01*
X147193000Y-57785000D01*
X146923138Y-57816468D01*
X146823673Y-57964909D01*
X146812000Y-58166000D01*
X146812000Y-58547000D01*
X148336000Y-58547000D01*
X148336000Y-60071000D01*
X149098000Y-60071000D01*
X149098000Y-58547000D01*
X149860000Y-58547000D01*
X149860000Y-60071000D01*
X151384000Y-60071000D01*
X151384000Y-58547000D01*
X152146000Y-58547000D01*
X152146000Y-60071000D01*
X152527000Y-60071000D01*
X152796863Y-60039531D01*
X152896328Y-59891090D01*
X152908000Y-59690000D01*
X152908000Y-59309000D01*
X155956000Y-59309000D01*
X155956000Y-59690000D01*
X155987469Y-59959862D01*
X156135910Y-60059327D01*
X156337000Y-60071000D01*
X156606863Y-60039531D01*
X156706328Y-59891090D01*
X156718000Y-59690000D01*
X156718000Y-59309000D01*
X158242000Y-59309000D01*
X158242000Y-60833000D01*
X157861000Y-60833000D01*
X157591138Y-60801531D01*
X157491673Y-60653090D01*
X157480000Y-60452000D01*
X157448532Y-60182137D01*
X157300091Y-60082672D01*
X157099000Y-60071000D01*
X156829138Y-60102468D01*
X156729673Y-60250909D01*
X156718000Y-60452000D01*
X156718000Y-60833000D01*
X154432000Y-60833000D01*
X154432000Y-61214000D01*
X154400532Y-61483862D01*
X154252091Y-61583327D01*
X154051000Y-61595000D01*
X153781138Y-61626468D01*
X153681673Y-61774909D01*
X153670000Y-61976000D01*
X153670000Y-62357000D01*
X155194000Y-62357000D01*
X155194000Y-61595000D01*
X156718000Y-61595000D01*
X156718000Y-61976000D01*
X156686532Y-62245862D01*
X156538091Y-62345327D01*
X156337000Y-62357000D01*
X155956000Y-62357000D01*
X155956000Y-63881000D01*
X156337000Y-63881000D01*
X156606863Y-63849531D01*
X156706328Y-63701090D01*
X156718000Y-63500000D01*
X156749469Y-63230137D01*
X156897910Y-63130672D01*
X157099000Y-63119000D01*
X157368863Y-63150468D01*
X157468328Y-63298909D01*
X157480000Y-63500000D01*
X157448532Y-63769862D01*
X157300091Y-63869327D01*
X157099000Y-63881000D01*
X156829138Y-63912468D01*
X156729673Y-64060909D01*
X156718000Y-64262000D01*
X156749469Y-64531862D01*
X156897910Y-64631327D01*
X157099000Y-64643000D01*
X157368863Y-64674468D01*
X157468328Y-64822909D01*
X157480000Y-65024000D01*
X157448532Y-65293862D01*
X157300091Y-65393327D01*
X157099000Y-65405000D01*
X156829138Y-65373531D01*
X156729673Y-65225090D01*
X156718000Y-65024000D01*
X156686532Y-64754137D01*
X156538091Y-64654672D01*
X156337000Y-64643000D01*
X156067138Y-64611531D01*
X155967673Y-64463090D01*
X155956000Y-64262000D01*
X155924532Y-63992137D01*
X155776091Y-63892672D01*
X155575000Y-63881000D01*
X155194000Y-63881000D01*
X155194000Y-65405000D01*
X154813000Y-65405000D01*
X154543138Y-65436468D01*
X154443673Y-65584909D01*
X154432000Y-65786000D01*
X154400532Y-66055862D01*
X154252091Y-66155327D01*
X154051000Y-66167000D01*
X153781138Y-66198468D01*
X153681673Y-66346909D01*
X153670000Y-66548000D01*
X153638532Y-66817862D01*
X153490091Y-66917327D01*
X153289000Y-66929000D01*
X153019138Y-66897531D01*
X152919673Y-66749090D01*
X152908000Y-66548000D01*
X152876532Y-66278137D01*
X152728091Y-66178672D01*
X152527000Y-66167000D01*
X152257138Y-66198468D01*
X152157673Y-66346909D01*
X152146000Y-66548000D01*
X152146000Y-66929000D01*
X149860000Y-66929000D01*
X149860000Y-67310000D01*
X149891469Y-67579862D01*
X150039910Y-67679327D01*
X150241000Y-67691000D01*
X150510863Y-67722468D01*
X150610328Y-67870909D01*
X150622000Y-68072000D01*
X150653469Y-68341862D01*
X150801910Y-68441327D01*
X151003000Y-68453000D01*
X151272863Y-68421531D01*
X151372328Y-68273090D01*
X151384000Y-68072000D01*
X151384000Y-67691000D01*
X152908000Y-67691000D01*
X152908000Y-68453000D01*
X154432000Y-68453000D01*
X154432000Y-68072000D01*
X154400532Y-67802137D01*
X154252091Y-67702672D01*
X154051000Y-67691000D01*
X153781138Y-67659531D01*
X153681673Y-67511090D01*
X153670000Y-67310000D01*
X153701469Y-67040137D01*
X153849910Y-66940672D01*
X154051000Y-66929000D01*
X154320863Y-66897531D01*
X154420328Y-66749090D01*
X154432000Y-66548000D01*
X154463469Y-66278137D01*
X154611910Y-66178672D01*
X154813000Y-66167000D01*
X155082863Y-66198468D01*
X155182328Y-66346909D01*
X155194000Y-66548000D01*
X155225469Y-66817862D01*
X155373910Y-66917327D01*
X155575000Y-66929000D01*
X155844863Y-66960468D01*
X155944328Y-67108909D01*
X155956000Y-67310000D01*
X155987469Y-67579862D01*
X156135910Y-67679327D01*
X156337000Y-67691000D01*
X156606863Y-67722468D01*
X156706328Y-67870909D01*
X156718000Y-68072000D01*
X156749469Y-68341862D01*
X156897910Y-68441327D01*
X157099000Y-68453000D01*
X157368863Y-68421531D01*
X157468328Y-68273090D01*
X157480000Y-68072000D01*
X157511469Y-67802137D01*
X157659910Y-67702672D01*
X157861000Y-67691000D01*
X158130863Y-67722468D01*
X158230328Y-67870909D01*
X158242000Y-68072000D01*
X158273469Y-68341862D01*
X158421910Y-68441327D01*
X158623000Y-68453000D01*
X158892863Y-68421531D01*
X158992328Y-68273090D01*
X159004000Y-68072000D01*
X158972532Y-67802137D01*
X158824091Y-67702672D01*
X158623000Y-67691000D01*
X158353138Y-67659531D01*
X158253673Y-67511090D01*
X158242000Y-67310000D01*
X158273469Y-67040137D01*
X158421910Y-66940672D01*
X158623000Y-66929000D01*
X158892863Y-66897531D01*
X158992328Y-66749090D01*
X159004000Y-66548000D01*
X158972532Y-66278137D01*
X158824091Y-66178672D01*
X158623000Y-66167000D01*
X158353138Y-66198468D01*
X158253673Y-66346909D01*
X158242000Y-66548000D01*
X158210532Y-66817862D01*
X158062091Y-66917327D01*
X157861000Y-66929000D01*
X157591138Y-66960468D01*
X157491673Y-67108909D01*
X157480000Y-67310000D01*
X157448532Y-67579862D01*
X157300091Y-67679327D01*
X157099000Y-67691000D01*
X156829138Y-67659531D01*
X156729673Y-67511090D01*
X156718000Y-67310000D01*
X156686532Y-67040137D01*
X156538091Y-66940672D01*
X156337000Y-66929000D01*
X156067138Y-66897531D01*
X155967673Y-66749090D01*
X155956000Y-66548000D01*
X155956000Y-66167000D01*
X157480000Y-66167000D01*
X157480000Y-65405000D01*
X159004000Y-65405000D01*
X159004000Y-65024000D01*
X158972532Y-64754137D01*
X158824091Y-64654672D01*
X158623000Y-64643000D01*
X158353138Y-64611531D01*
X158253673Y-64463090D01*
X158242000Y-64262000D01*
X158273469Y-63992137D01*
X158421910Y-63892672D01*
X158623000Y-63881000D01*
X158892863Y-63849531D01*
X158992328Y-63701090D01*
X159004000Y-63500000D01*
X159004000Y-63119000D01*
X157480000Y-63119000D01*
X157480000Y-61595000D01*
X157861000Y-61595000D01*
X158130863Y-61563531D01*
X158230328Y-61415090D01*
X158242000Y-61214000D01*
X158273469Y-60944137D01*
X158421910Y-60844672D01*
X158623000Y-60833000D01*
X159004000Y-60833000D01*
X159004000Y-58547000D01*
X156718000Y-58547000D01*
X156718000Y-58928000D01*
X156686532Y-59197862D01*
X156538091Y-59297327D01*
X156337000Y-59309000D01*
X156067138Y-59277531D01*
X155967673Y-59129090D01*
X155956000Y-58928000D01*
X155956000Y-58547000D01*
X152908000Y-58547000D01*
X152908000Y-57404000D01*
X152146000Y-57404000D01*
X152114532Y-57673862D01*
X151966091Y-57773327D01*
X151765000Y-57785000D01*
X151495138Y-57753531D01*
X151395673Y-57605090D01*
X151384000Y-57404000D01*
X151352532Y-57134137D01*
X151204091Y-57034672D01*
X151003000Y-57023000D01*
X150622000Y-57023000D01*
X150622000Y-58547000D01*
X149860000Y-58547000D01*
X149860000Y-57023000D01*
X149479000Y-57023000D01*
X149209138Y-57054468D01*
X149109673Y-57202909D01*
X149098000Y-57404000D01*
X149066532Y-57673862D01*
X148918091Y-57773327D01*
X148717000Y-57785000D01*
X148447138Y-57753531D01*
X148347673Y-57605090D01*
X148336000Y-57404000D01*
X148367469Y-57134137D01*
X148515910Y-57034672D01*
X148717000Y-57023000D01*
X149098000Y-57023000D01*
X149098000Y-54737000D01*
X149479000Y-54737000D01*
X149748863Y-54705531D01*
X149848328Y-54557090D01*
X149860000Y-54356000D01*
X149891469Y-54086137D01*
X150039910Y-53986672D01*
X150241000Y-53975000D01*
X150510863Y-54006468D01*
X150610328Y-54154909D01*
X150622000Y-54356000D01*
X150590532Y-54625862D01*
X150442091Y-54725327D01*
X150241000Y-54737000D01*
X149971138Y-54768468D01*
X149871673Y-54916909D01*
X149860000Y-55118000D01*
X149891469Y-55387862D01*
X150039910Y-55487327D01*
X150241000Y-55499000D01*
X150510863Y-55530468D01*
X150610328Y-55678909D01*
X150622000Y-55880000D01*
X150653469Y-56149862D01*
X150801910Y-56249327D01*
X151003000Y-56261000D01*
X151272863Y-56292468D01*
X151372328Y-56440909D01*
X151384000Y-56642000D01*
X151415469Y-56911862D01*
X151563910Y-57011327D01*
X151765000Y-57023000D01*
X152034863Y-57054468D01*
X152134328Y-57202909D01*
X152146000Y-57404000D01*
X152908000Y-57404000D01*
X152908000Y-57023000D01*
X152527000Y-57023000D01*
X152257138Y-56991531D01*
X152157673Y-56843090D01*
X152146000Y-56642000D01*
X152114532Y-56372137D01*
X151966091Y-56272672D01*
X151765000Y-56261000D01*
X151495138Y-56229531D01*
X151395673Y-56081090D01*
X151384000Y-55880000D01*
X151415469Y-55610137D01*
X151563910Y-55510672D01*
X151765000Y-55499000D01*
X152034863Y-55467531D01*
X152134328Y-55319090D01*
X152146000Y-55118000D01*
X152177469Y-54848137D01*
X152325910Y-54748672D01*
X152527000Y-54737000D01*
X152796863Y-54705531D01*
X152896328Y-54557090D01*
X152908000Y-54356000D01*
X152908000Y-53975000D01*
X151384000Y-53975000D01*
X151384000Y-53594000D01*
X151415469Y-53324137D01*
X151563910Y-53224672D01*
X151765000Y-53213000D01*
X152034863Y-53181531D01*
X152134328Y-53033090D01*
X152146000Y-52832000D01*
X152114532Y-52562137D01*
X151966091Y-52462672D01*
X151765000Y-52451000D01*
X151495138Y-52482468D01*
X151395673Y-52630909D01*
X151384000Y-52832000D01*
X151384000Y-53213000D01*
X149860000Y-53213000D01*
X149860000Y-52832000D01*
X149828532Y-52562137D01*
X149680091Y-52462672D01*
X149479000Y-52451000D01*
X149098000Y-52451000D01*
X149098000Y-54737000D01*
X146812000Y-54737000D01*
X146812000Y-57023000D01*
G37*
X146812000Y-57023000D02*
X147193000Y-57023000D01*
X147462863Y-57054468D01*
X147562328Y-57202909D01*
X147574000Y-57404000D01*
X147542532Y-57673862D01*
X147394091Y-57773327D01*
X147193000Y-57785000D01*
X146923138Y-57816468D01*
X146823673Y-57964909D01*
X146812000Y-58166000D01*
X146812000Y-58547000D01*
X148336000Y-58547000D01*
X148336000Y-60071000D01*
X149098000Y-60071000D01*
X149098000Y-58547000D01*
X149860000Y-58547000D01*
X149860000Y-60071000D01*
X151384000Y-60071000D01*
X151384000Y-58547000D01*
X152146000Y-58547000D01*
X152146000Y-60071000D01*
X152527000Y-60071000D01*
X152796863Y-60039531D01*
X152896328Y-59891090D01*
X152908000Y-59690000D01*
X152908000Y-59309000D01*
X155956000Y-59309000D01*
X155956000Y-59690000D01*
X155987469Y-59959862D01*
X156135910Y-60059327D01*
X156337000Y-60071000D01*
X156606863Y-60039531D01*
X156706328Y-59891090D01*
X156718000Y-59690000D01*
X156718000Y-59309000D01*
X158242000Y-59309000D01*
X158242000Y-60833000D01*
X157861000Y-60833000D01*
X157591138Y-60801531D01*
X157491673Y-60653090D01*
X157480000Y-60452000D01*
X157448532Y-60182137D01*
X157300091Y-60082672D01*
X157099000Y-60071000D01*
X156829138Y-60102468D01*
X156729673Y-60250909D01*
X156718000Y-60452000D01*
X156718000Y-60833000D01*
X154432000Y-60833000D01*
X154432000Y-61214000D01*
X154400532Y-61483862D01*
X154252091Y-61583327D01*
X154051000Y-61595000D01*
X153781138Y-61626468D01*
X153681673Y-61774909D01*
X153670000Y-61976000D01*
X153670000Y-62357000D01*
X155194000Y-62357000D01*
X155194000Y-61595000D01*
X156718000Y-61595000D01*
X156718000Y-61976000D01*
X156686532Y-62245862D01*
X156538091Y-62345327D01*
X156337000Y-62357000D01*
X155956000Y-62357000D01*
X155956000Y-63881000D01*
X156337000Y-63881000D01*
X156606863Y-63849531D01*
X156706328Y-63701090D01*
X156718000Y-63500000D01*
X156749469Y-63230137D01*
X156897910Y-63130672D01*
X157099000Y-63119000D01*
X157368863Y-63150468D01*
X157468328Y-63298909D01*
X157480000Y-63500000D01*
X157448532Y-63769862D01*
X157300091Y-63869327D01*
X157099000Y-63881000D01*
X156829138Y-63912468D01*
X156729673Y-64060909D01*
X156718000Y-64262000D01*
X156749469Y-64531862D01*
X156897910Y-64631327D01*
X157099000Y-64643000D01*
X157368863Y-64674468D01*
X157468328Y-64822909D01*
X157480000Y-65024000D01*
X157448532Y-65293862D01*
X157300091Y-65393327D01*
X157099000Y-65405000D01*
X156829138Y-65373531D01*
X156729673Y-65225090D01*
X156718000Y-65024000D01*
X156686532Y-64754137D01*
X156538091Y-64654672D01*
X156337000Y-64643000D01*
X156067138Y-64611531D01*
X155967673Y-64463090D01*
X155956000Y-64262000D01*
X155924532Y-63992137D01*
X155776091Y-63892672D01*
X155575000Y-63881000D01*
X155194000Y-63881000D01*
X155194000Y-65405000D01*
X154813000Y-65405000D01*
X154543138Y-65436468D01*
X154443673Y-65584909D01*
X154432000Y-65786000D01*
X154400532Y-66055862D01*
X154252091Y-66155327D01*
X154051000Y-66167000D01*
X153781138Y-66198468D01*
X153681673Y-66346909D01*
X153670000Y-66548000D01*
X153638532Y-66817862D01*
X153490091Y-66917327D01*
X153289000Y-66929000D01*
X153019138Y-66897531D01*
X152919673Y-66749090D01*
X152908000Y-66548000D01*
X152876532Y-66278137D01*
X152728091Y-66178672D01*
X152527000Y-66167000D01*
X152257138Y-66198468D01*
X152157673Y-66346909D01*
X152146000Y-66548000D01*
X152146000Y-66929000D01*
X149860000Y-66929000D01*
X149860000Y-67310000D01*
X149891469Y-67579862D01*
X150039910Y-67679327D01*
X150241000Y-67691000D01*
X150510863Y-67722468D01*
X150610328Y-67870909D01*
X150622000Y-68072000D01*
X150653469Y-68341862D01*
X150801910Y-68441327D01*
X151003000Y-68453000D01*
X151272863Y-68421531D01*
X151372328Y-68273090D01*
X151384000Y-68072000D01*
X151384000Y-67691000D01*
X152908000Y-67691000D01*
X152908000Y-68453000D01*
X154432000Y-68453000D01*
X154432000Y-68072000D01*
X154400532Y-67802137D01*
X154252091Y-67702672D01*
X154051000Y-67691000D01*
X153781138Y-67659531D01*
X153681673Y-67511090D01*
X153670000Y-67310000D01*
X153701469Y-67040137D01*
X153849910Y-66940672D01*
X154051000Y-66929000D01*
X154320863Y-66897531D01*
X154420328Y-66749090D01*
X154432000Y-66548000D01*
X154463469Y-66278137D01*
X154611910Y-66178672D01*
X154813000Y-66167000D01*
X155082863Y-66198468D01*
X155182328Y-66346909D01*
X155194000Y-66548000D01*
X155225469Y-66817862D01*
X155373910Y-66917327D01*
X155575000Y-66929000D01*
X155844863Y-66960468D01*
X155944328Y-67108909D01*
X155956000Y-67310000D01*
X155987469Y-67579862D01*
X156135910Y-67679327D01*
X156337000Y-67691000D01*
X156606863Y-67722468D01*
X156706328Y-67870909D01*
X156718000Y-68072000D01*
X156749469Y-68341862D01*
X156897910Y-68441327D01*
X157099000Y-68453000D01*
X157368863Y-68421531D01*
X157468328Y-68273090D01*
X157480000Y-68072000D01*
X157511469Y-67802137D01*
X157659910Y-67702672D01*
X157861000Y-67691000D01*
X158130863Y-67722468D01*
X158230328Y-67870909D01*
X158242000Y-68072000D01*
X158273469Y-68341862D01*
X158421910Y-68441327D01*
X158623000Y-68453000D01*
X158892863Y-68421531D01*
X158992328Y-68273090D01*
X159004000Y-68072000D01*
X158972532Y-67802137D01*
X158824091Y-67702672D01*
X158623000Y-67691000D01*
X158353138Y-67659531D01*
X158253673Y-67511090D01*
X158242000Y-67310000D01*
X158273469Y-67040137D01*
X158421910Y-66940672D01*
X158623000Y-66929000D01*
X158892863Y-66897531D01*
X158992328Y-66749090D01*
X159004000Y-66548000D01*
X158972532Y-66278137D01*
X158824091Y-66178672D01*
X158623000Y-66167000D01*
X158353138Y-66198468D01*
X158253673Y-66346909D01*
X158242000Y-66548000D01*
X158210532Y-66817862D01*
X158062091Y-66917327D01*
X157861000Y-66929000D01*
X157591138Y-66960468D01*
X157491673Y-67108909D01*
X157480000Y-67310000D01*
X157448532Y-67579862D01*
X157300091Y-67679327D01*
X157099000Y-67691000D01*
X156829138Y-67659531D01*
X156729673Y-67511090D01*
X156718000Y-67310000D01*
X156686532Y-67040137D01*
X156538091Y-66940672D01*
X156337000Y-66929000D01*
X156067138Y-66897531D01*
X155967673Y-66749090D01*
X155956000Y-66548000D01*
X155956000Y-66167000D01*
X157480000Y-66167000D01*
X157480000Y-65405000D01*
X159004000Y-65405000D01*
X159004000Y-65024000D01*
X158972532Y-64754137D01*
X158824091Y-64654672D01*
X158623000Y-64643000D01*
X158353138Y-64611531D01*
X158253673Y-64463090D01*
X158242000Y-64262000D01*
X158273469Y-63992137D01*
X158421910Y-63892672D01*
X158623000Y-63881000D01*
X158892863Y-63849531D01*
X158992328Y-63701090D01*
X159004000Y-63500000D01*
X159004000Y-63119000D01*
X157480000Y-63119000D01*
X157480000Y-61595000D01*
X157861000Y-61595000D01*
X158130863Y-61563531D01*
X158230328Y-61415090D01*
X158242000Y-61214000D01*
X158273469Y-60944137D01*
X158421910Y-60844672D01*
X158623000Y-60833000D01*
X159004000Y-60833000D01*
X159004000Y-58547000D01*
X156718000Y-58547000D01*
X156718000Y-58928000D01*
X156686532Y-59197862D01*
X156538091Y-59297327D01*
X156337000Y-59309000D01*
X156067138Y-59277531D01*
X155967673Y-59129090D01*
X155956000Y-58928000D01*
X155956000Y-58547000D01*
X152908000Y-58547000D01*
X152908000Y-57404000D01*
X152146000Y-57404000D01*
X152114532Y-57673862D01*
X151966091Y-57773327D01*
X151765000Y-57785000D01*
X151495138Y-57753531D01*
X151395673Y-57605090D01*
X151384000Y-57404000D01*
X151352532Y-57134137D01*
X151204091Y-57034672D01*
X151003000Y-57023000D01*
X150622000Y-57023000D01*
X150622000Y-58547000D01*
X149860000Y-58547000D01*
X149860000Y-57023000D01*
X149479000Y-57023000D01*
X149209138Y-57054468D01*
X149109673Y-57202909D01*
X149098000Y-57404000D01*
X149066532Y-57673862D01*
X148918091Y-57773327D01*
X148717000Y-57785000D01*
X148447138Y-57753531D01*
X148347673Y-57605090D01*
X148336000Y-57404000D01*
X148367469Y-57134137D01*
X148515910Y-57034672D01*
X148717000Y-57023000D01*
X149098000Y-57023000D01*
X149098000Y-54737000D01*
X149479000Y-54737000D01*
X149748863Y-54705531D01*
X149848328Y-54557090D01*
X149860000Y-54356000D01*
X149891469Y-54086137D01*
X150039910Y-53986672D01*
X150241000Y-53975000D01*
X150510863Y-54006468D01*
X150610328Y-54154909D01*
X150622000Y-54356000D01*
X150590532Y-54625862D01*
X150442091Y-54725327D01*
X150241000Y-54737000D01*
X149971138Y-54768468D01*
X149871673Y-54916909D01*
X149860000Y-55118000D01*
X149891469Y-55387862D01*
X150039910Y-55487327D01*
X150241000Y-55499000D01*
X150510863Y-55530468D01*
X150610328Y-55678909D01*
X150622000Y-55880000D01*
X150653469Y-56149862D01*
X150801910Y-56249327D01*
X151003000Y-56261000D01*
X151272863Y-56292468D01*
X151372328Y-56440909D01*
X151384000Y-56642000D01*
X151415469Y-56911862D01*
X151563910Y-57011327D01*
X151765000Y-57023000D01*
X152034863Y-57054468D01*
X152134328Y-57202909D01*
X152146000Y-57404000D01*
X152908000Y-57404000D01*
X152908000Y-57023000D01*
X152527000Y-57023000D01*
X152257138Y-56991531D01*
X152157673Y-56843090D01*
X152146000Y-56642000D01*
X152114532Y-56372137D01*
X151966091Y-56272672D01*
X151765000Y-56261000D01*
X151495138Y-56229531D01*
X151395673Y-56081090D01*
X151384000Y-55880000D01*
X151415469Y-55610137D01*
X151563910Y-55510672D01*
X151765000Y-55499000D01*
X152034863Y-55467531D01*
X152134328Y-55319090D01*
X152146000Y-55118000D01*
X152177469Y-54848137D01*
X152325910Y-54748672D01*
X152527000Y-54737000D01*
X152796863Y-54705531D01*
X152896328Y-54557090D01*
X152908000Y-54356000D01*
X152908000Y-53975000D01*
X151384000Y-53975000D01*
X151384000Y-53594000D01*
X151415469Y-53324137D01*
X151563910Y-53224672D01*
X151765000Y-53213000D01*
X152034863Y-53181531D01*
X152134328Y-53033090D01*
X152146000Y-52832000D01*
X152114532Y-52562137D01*
X151966091Y-52462672D01*
X151765000Y-52451000D01*
X151495138Y-52482468D01*
X151395673Y-52630909D01*
X151384000Y-52832000D01*
X151384000Y-53213000D01*
X149860000Y-53213000D01*
X149860000Y-52832000D01*
X149828532Y-52562137D01*
X149680091Y-52462672D01*
X149479000Y-52451000D01*
X149098000Y-52451000D01*
X149098000Y-54737000D01*
X146812000Y-54737000D01*
X146812000Y-57023000D01*
G36*
X153670000Y-57785000D02*
G01*
X159004000Y-57785000D01*
X159004000Y-53213000D01*
X158242000Y-53213000D01*
X158242000Y-57023000D01*
X154432000Y-57023000D01*
X154432000Y-53213000D01*
X158242000Y-53213000D01*
X159004000Y-53213000D01*
X159004000Y-52451000D01*
X153670000Y-52451000D01*
X153670000Y-57785000D01*
G37*
X153670000Y-57785000D02*
X159004000Y-57785000D01*
X159004000Y-53213000D01*
X158242000Y-53213000D01*
X158242000Y-57023000D01*
X154432000Y-57023000D01*
X154432000Y-53213000D01*
X158242000Y-53213000D01*
X159004000Y-53213000D01*
X159004000Y-52451000D01*
X153670000Y-52451000D01*
X153670000Y-57785000D01*
G36*
X136906000Y-57785000D02*
G01*
X142240000Y-57785000D01*
X142240000Y-53213000D01*
X141478000Y-53213000D01*
X141478000Y-57023000D01*
X137668000Y-57023000D01*
X137668000Y-53213000D01*
X141478000Y-53213000D01*
X142240000Y-53213000D01*
X142240000Y-52451000D01*
X136906000Y-52451000D01*
X136906000Y-57785000D01*
G37*
X136906000Y-57785000D02*
X142240000Y-57785000D01*
X142240000Y-53213000D01*
X141478000Y-53213000D01*
X141478000Y-57023000D01*
X137668000Y-57023000D01*
X137668000Y-53213000D01*
X141478000Y-53213000D01*
X142240000Y-53213000D01*
X142240000Y-52451000D01*
X136906000Y-52451000D01*
X136906000Y-57785000D01*
G36*
X155194000Y-73025000D02*
G01*
X157480000Y-73025000D01*
X157480000Y-70739000D01*
X155194000Y-70739000D01*
X155194000Y-73025000D01*
G37*
X155194000Y-73025000D02*
X157480000Y-73025000D01*
X157480000Y-70739000D01*
X155194000Y-70739000D01*
X155194000Y-73025000D01*
G36*
X144526000Y-71501000D02*
G01*
X146050000Y-71501000D01*
X146050000Y-69977000D01*
X144526000Y-69977000D01*
X144526000Y-71501000D01*
G37*
X144526000Y-71501000D02*
X146050000Y-71501000D01*
X146050000Y-69977000D01*
X144526000Y-69977000D01*
X144526000Y-71501000D01*
G36*
X145288000Y-69215000D02*
G01*
X147574000Y-69215000D01*
X147574000Y-68834000D01*
X147542532Y-68564137D01*
X147394091Y-68464672D01*
X147193000Y-68453000D01*
X146923138Y-68421531D01*
X146823673Y-68273090D01*
X146812000Y-68072000D01*
X146843469Y-67802137D01*
X146991910Y-67702672D01*
X147193000Y-67691000D01*
X147462863Y-67659531D01*
X147562328Y-67511090D01*
X147574000Y-67310000D01*
X147542532Y-67040137D01*
X147394091Y-66940672D01*
X147193000Y-66929000D01*
X146923138Y-66960468D01*
X146823673Y-67108909D01*
X146812000Y-67310000D01*
X146780532Y-67579862D01*
X146632091Y-67679327D01*
X146431000Y-67691000D01*
X146161138Y-67659531D01*
X146061673Y-67511090D01*
X146050000Y-67310000D01*
X146018532Y-67040137D01*
X145870091Y-66940672D01*
X145669000Y-66929000D01*
X145288000Y-66929000D01*
X145288000Y-69215000D01*
G37*
X145288000Y-69215000D02*
X147574000Y-69215000D01*
X147574000Y-68834000D01*
X147542532Y-68564137D01*
X147394091Y-68464672D01*
X147193000Y-68453000D01*
X146923138Y-68421531D01*
X146823673Y-68273090D01*
X146812000Y-68072000D01*
X146843469Y-67802137D01*
X146991910Y-67702672D01*
X147193000Y-67691000D01*
X147462863Y-67659531D01*
X147562328Y-67511090D01*
X147574000Y-67310000D01*
X147542532Y-67040137D01*
X147394091Y-66940672D01*
X147193000Y-66929000D01*
X146923138Y-66960468D01*
X146823673Y-67108909D01*
X146812000Y-67310000D01*
X146780532Y-67579862D01*
X146632091Y-67679327D01*
X146431000Y-67691000D01*
X146161138Y-67659531D01*
X146061673Y-67511090D01*
X146050000Y-67310000D01*
X146018532Y-67040137D01*
X145870091Y-66940672D01*
X145669000Y-66929000D01*
X145288000Y-66929000D01*
X145288000Y-69215000D01*
G36*
X148447138Y-66198468D02*
G01*
X148347673Y-66346909D01*
X148336000Y-66548000D01*
X148367469Y-66817862D01*
X148515910Y-66917327D01*
X148717000Y-66929000D01*
X148986863Y-66897531D01*
X149086328Y-66749090D01*
X149098000Y-66548000D01*
X149066532Y-66278137D01*
X148918091Y-66178672D01*
X148717000Y-66167000D01*
X148447138Y-66198468D01*
G37*
X148447138Y-66198468D02*
X148347673Y-66346909D01*
X148336000Y-66548000D01*
X148367469Y-66817862D01*
X148515910Y-66917327D01*
X148717000Y-66929000D01*
X148986863Y-66897531D01*
X149086328Y-66749090D01*
X149098000Y-66548000D01*
X149066532Y-66278137D01*
X148918091Y-66178672D01*
X148717000Y-66167000D01*
X148447138Y-66198468D01*
G36*
X147955000Y-64643000D02*
G01*
X147685138Y-64611531D01*
X147585673Y-64463090D01*
X147574000Y-64262000D01*
X147574000Y-63881000D01*
X145288000Y-63881000D01*
X145288000Y-65405000D01*
X144907000Y-65405000D01*
X144637138Y-65436468D01*
X144537673Y-65584909D01*
X144526000Y-65786000D01*
X144526000Y-66167000D01*
X147574000Y-66167000D01*
X147574000Y-65786000D01*
X147605469Y-65516137D01*
X147753910Y-65416672D01*
X147955000Y-65405000D01*
X148224863Y-65373531D01*
X148324328Y-65225090D01*
X148336000Y-65024000D01*
X147574000Y-65024000D01*
X147542532Y-65293862D01*
X147394091Y-65393327D01*
X147193000Y-65405000D01*
X146923138Y-65373531D01*
X146823673Y-65225090D01*
X146812000Y-65024000D01*
X146843469Y-64754137D01*
X146991910Y-64654672D01*
X147193000Y-64643000D01*
X147462863Y-64674468D01*
X147562328Y-64822909D01*
X147574000Y-65024000D01*
X148336000Y-65024000D01*
X148336000Y-64643000D01*
X147955000Y-64643000D01*
G37*
X147955000Y-64643000D02*
X147685138Y-64611531D01*
X147585673Y-64463090D01*
X147574000Y-64262000D01*
X147574000Y-63881000D01*
X145288000Y-63881000D01*
X145288000Y-65405000D01*
X144907000Y-65405000D01*
X144637138Y-65436468D01*
X144537673Y-65584909D01*
X144526000Y-65786000D01*
X144526000Y-66167000D01*
X147574000Y-66167000D01*
X147574000Y-65786000D01*
X147605469Y-65516137D01*
X147753910Y-65416672D01*
X147955000Y-65405000D01*
X148224863Y-65373531D01*
X148324328Y-65225090D01*
X148336000Y-65024000D01*
X147574000Y-65024000D01*
X147542532Y-65293862D01*
X147394091Y-65393327D01*
X147193000Y-65405000D01*
X146923138Y-65373531D01*
X146823673Y-65225090D01*
X146812000Y-65024000D01*
X146843469Y-64754137D01*
X146991910Y-64654672D01*
X147193000Y-64643000D01*
X147462863Y-64674468D01*
X147562328Y-64822909D01*
X147574000Y-65024000D01*
X148336000Y-65024000D01*
X148336000Y-64643000D01*
X147955000Y-64643000D01*
G36*
X149860000Y-64643000D02*
G01*
X149860000Y-66167000D01*
X150622000Y-66167000D01*
X150622000Y-64643000D01*
X151384000Y-64643000D01*
X151384000Y-66167000D01*
X152146000Y-66167000D01*
X152146000Y-64643000D01*
X152527000Y-64643000D01*
X152796863Y-64611531D01*
X152896328Y-64463090D01*
X152908000Y-64262000D01*
X152908000Y-63881000D01*
X155194000Y-63881000D01*
X155194000Y-63500000D01*
X152908000Y-63500000D01*
X152876532Y-63769862D01*
X152728091Y-63869327D01*
X152527000Y-63881000D01*
X152257138Y-63912468D01*
X152157673Y-64060909D01*
X152146000Y-64262000D01*
X152114532Y-64531862D01*
X151966091Y-64631327D01*
X151765000Y-64643000D01*
X151495138Y-64611531D01*
X151395673Y-64463090D01*
X151384000Y-64262000D01*
X150622000Y-64262000D01*
X150590532Y-64531862D01*
X150442091Y-64631327D01*
X150241000Y-64643000D01*
X149971138Y-64611531D01*
X149871673Y-64463090D01*
X149860000Y-64262000D01*
X149891469Y-63992137D01*
X150039910Y-63892672D01*
X150241000Y-63881000D01*
X150510863Y-63912468D01*
X150610328Y-64060909D01*
X150622000Y-64262000D01*
X151384000Y-64262000D01*
X151415469Y-63992137D01*
X151563910Y-63892672D01*
X151765000Y-63881000D01*
X152034863Y-63849531D01*
X152134328Y-63701090D01*
X152146000Y-63500000D01*
X152177469Y-63230137D01*
X152325910Y-63130672D01*
X152527000Y-63119000D01*
X152796863Y-63150468D01*
X152896328Y-63298909D01*
X152908000Y-63500000D01*
X155194000Y-63500000D01*
X155194000Y-63119000D01*
X152908000Y-63119000D01*
X152908000Y-62357000D01*
X151384000Y-62357000D01*
X151384000Y-63881000D01*
X150622000Y-63881000D01*
X150622000Y-62357000D01*
X150241000Y-62357000D01*
X149971138Y-62325531D01*
X149871673Y-62177090D01*
X149860000Y-61976000D01*
X149891469Y-61706137D01*
X150039910Y-61606672D01*
X150241000Y-61595000D01*
X150510863Y-61563531D01*
X150610328Y-61415090D01*
X150622000Y-61214000D01*
X150590532Y-60944137D01*
X150442091Y-60844672D01*
X150241000Y-60833000D01*
X149971138Y-60864468D01*
X149871673Y-61012909D01*
X149860000Y-61214000D01*
X149828532Y-61483862D01*
X149680091Y-61583327D01*
X149479000Y-61595000D01*
X149209138Y-61563531D01*
X149109673Y-61415090D01*
X149098000Y-61214000D01*
X149066532Y-60944137D01*
X148918091Y-60844672D01*
X148717000Y-60833000D01*
X148447138Y-60801531D01*
X148347673Y-60653090D01*
X148336000Y-60452000D01*
X148304532Y-60182137D01*
X148156091Y-60082672D01*
X147955000Y-60071000D01*
X147574000Y-60071000D01*
X147574000Y-61595000D01*
X147955000Y-61595000D01*
X148224863Y-61626468D01*
X148324328Y-61774909D01*
X148336000Y-61976000D01*
X148367469Y-62245862D01*
X148515910Y-62345327D01*
X148717000Y-62357000D01*
X148986863Y-62388468D01*
X149086328Y-62536909D01*
X149098000Y-62738000D01*
X149066532Y-63007862D01*
X148918091Y-63107327D01*
X148717000Y-63119000D01*
X148336000Y-63119000D01*
X148336000Y-64643000D01*
X149860000Y-64643000D01*
G37*
X149860000Y-64643000D02*
X149860000Y-66167000D01*
X150622000Y-66167000D01*
X150622000Y-64643000D01*
X151384000Y-64643000D01*
X151384000Y-66167000D01*
X152146000Y-66167000D01*
X152146000Y-64643000D01*
X152527000Y-64643000D01*
X152796863Y-64611531D01*
X152896328Y-64463090D01*
X152908000Y-64262000D01*
X152908000Y-63881000D01*
X155194000Y-63881000D01*
X155194000Y-63500000D01*
X152908000Y-63500000D01*
X152876532Y-63769862D01*
X152728091Y-63869327D01*
X152527000Y-63881000D01*
X152257138Y-63912468D01*
X152157673Y-64060909D01*
X152146000Y-64262000D01*
X152114532Y-64531862D01*
X151966091Y-64631327D01*
X151765000Y-64643000D01*
X151495138Y-64611531D01*
X151395673Y-64463090D01*
X151384000Y-64262000D01*
X150622000Y-64262000D01*
X150590532Y-64531862D01*
X150442091Y-64631327D01*
X150241000Y-64643000D01*
X149971138Y-64611531D01*
X149871673Y-64463090D01*
X149860000Y-64262000D01*
X149891469Y-63992137D01*
X150039910Y-63892672D01*
X150241000Y-63881000D01*
X150510863Y-63912468D01*
X150610328Y-64060909D01*
X150622000Y-64262000D01*
X151384000Y-64262000D01*
X151415469Y-63992137D01*
X151563910Y-63892672D01*
X151765000Y-63881000D01*
X152034863Y-63849531D01*
X152134328Y-63701090D01*
X152146000Y-63500000D01*
X152177469Y-63230137D01*
X152325910Y-63130672D01*
X152527000Y-63119000D01*
X152796863Y-63150468D01*
X152896328Y-63298909D01*
X152908000Y-63500000D01*
X155194000Y-63500000D01*
X155194000Y-63119000D01*
X152908000Y-63119000D01*
X152908000Y-62357000D01*
X151384000Y-62357000D01*
X151384000Y-63881000D01*
X150622000Y-63881000D01*
X150622000Y-62357000D01*
X150241000Y-62357000D01*
X149971138Y-62325531D01*
X149871673Y-62177090D01*
X149860000Y-61976000D01*
X149891469Y-61706137D01*
X150039910Y-61606672D01*
X150241000Y-61595000D01*
X150510863Y-61563531D01*
X150610328Y-61415090D01*
X150622000Y-61214000D01*
X150590532Y-60944137D01*
X150442091Y-60844672D01*
X150241000Y-60833000D01*
X149971138Y-60864468D01*
X149871673Y-61012909D01*
X149860000Y-61214000D01*
X149828532Y-61483862D01*
X149680091Y-61583327D01*
X149479000Y-61595000D01*
X149209138Y-61563531D01*
X149109673Y-61415090D01*
X149098000Y-61214000D01*
X149066532Y-60944137D01*
X148918091Y-60844672D01*
X148717000Y-60833000D01*
X148447138Y-60801531D01*
X148347673Y-60653090D01*
X148336000Y-60452000D01*
X148304532Y-60182137D01*
X148156091Y-60082672D01*
X147955000Y-60071000D01*
X147574000Y-60071000D01*
X147574000Y-61595000D01*
X147955000Y-61595000D01*
X148224863Y-61626468D01*
X148324328Y-61774909D01*
X148336000Y-61976000D01*
X148367469Y-62245862D01*
X148515910Y-62345327D01*
X148717000Y-62357000D01*
X148986863Y-62388468D01*
X149086328Y-62536909D01*
X149098000Y-62738000D01*
X149066532Y-63007862D01*
X148918091Y-63107327D01*
X148717000Y-63119000D01*
X148336000Y-63119000D01*
X148336000Y-64643000D01*
X149860000Y-64643000D01*
G36*
X153781138Y-64674468D02*
G01*
X153681673Y-64822909D01*
X153670000Y-65024000D01*
X153701469Y-65293862D01*
X153849910Y-65393327D01*
X154051000Y-65405000D01*
X154320863Y-65373531D01*
X154420328Y-65225090D01*
X154432000Y-65024000D01*
X154400532Y-64754137D01*
X154252091Y-64654672D01*
X154051000Y-64643000D01*
X153781138Y-64674468D01*
G37*
X153781138Y-64674468D02*
X153681673Y-64822909D01*
X153670000Y-65024000D01*
X153701469Y-65293862D01*
X153849910Y-65393327D01*
X154051000Y-65405000D01*
X154320863Y-65373531D01*
X154420328Y-65225090D01*
X154432000Y-65024000D01*
X154400532Y-64754137D01*
X154252091Y-64654672D01*
X154051000Y-64643000D01*
X153781138Y-64674468D01*
G36*
X152908000Y-61595000D02*
G01*
X153289000Y-61595000D01*
X153558863Y-61563531D01*
X153658328Y-61415090D01*
X153670000Y-61214000D01*
X153701469Y-60944137D01*
X153849910Y-60844672D01*
X154051000Y-60833000D01*
X154320863Y-60801531D01*
X154420328Y-60653090D01*
X154432000Y-60452000D01*
X154432000Y-60071000D01*
X152908000Y-60071000D01*
X152908000Y-61595000D01*
G37*
X152908000Y-61595000D02*
X153289000Y-61595000D01*
X153558863Y-61563531D01*
X153658328Y-61415090D01*
X153670000Y-61214000D01*
X153701469Y-60944137D01*
X153849910Y-60844672D01*
X154051000Y-60833000D01*
X154320863Y-60801531D01*
X154420328Y-60653090D01*
X154432000Y-60452000D01*
X154432000Y-60071000D01*
X152908000Y-60071000D01*
X152908000Y-61595000D01*
G36*
X151495138Y-60102468D02*
G01*
X151395673Y-60250909D01*
X151384000Y-60452000D01*
X151415469Y-60721862D01*
X151563910Y-60821327D01*
X151765000Y-60833000D01*
X152034863Y-60801531D01*
X152134328Y-60653090D01*
X152146000Y-60452000D01*
X152114532Y-60182137D01*
X151966091Y-60082672D01*
X151765000Y-60071000D01*
X151495138Y-60102468D01*
G37*
X151495138Y-60102468D02*
X151395673Y-60250909D01*
X151384000Y-60452000D01*
X151415469Y-60721862D01*
X151563910Y-60821327D01*
X151765000Y-60833000D01*
X152034863Y-60801531D01*
X152134328Y-60653090D01*
X152146000Y-60452000D01*
X152114532Y-60182137D01*
X151966091Y-60082672D01*
X151765000Y-60071000D01*
X151495138Y-60102468D01*
G36*
X145288000Y-57023000D02*
G01*
X145669000Y-57023000D01*
X145938863Y-57054468D01*
X146038328Y-57202909D01*
X146050000Y-57404000D01*
X146081469Y-57673862D01*
X146229910Y-57773327D01*
X146431000Y-57785000D01*
X146700863Y-57753531D01*
X146800328Y-57605090D01*
X146812000Y-57404000D01*
X146780532Y-57134137D01*
X146632091Y-57034672D01*
X146431000Y-57023000D01*
X146050000Y-57023000D01*
X146050000Y-55499000D01*
X145288000Y-55499000D01*
X145288000Y-57023000D01*
G37*
X145288000Y-57023000D02*
X145669000Y-57023000D01*
X145938863Y-57054468D01*
X146038328Y-57202909D01*
X146050000Y-57404000D01*
X146081469Y-57673862D01*
X146229910Y-57773327D01*
X146431000Y-57785000D01*
X146700863Y-57753531D01*
X146800328Y-57605090D01*
X146812000Y-57404000D01*
X146780532Y-57134137D01*
X146632091Y-57034672D01*
X146431000Y-57023000D01*
X146050000Y-57023000D01*
X146050000Y-55499000D01*
X145288000Y-55499000D01*
X145288000Y-57023000D01*
G36*
X141589138Y-69246468D02*
G01*
X141489673Y-69394909D01*
X141478000Y-69596000D01*
X141509469Y-69865862D01*
X141657910Y-69965327D01*
X141859000Y-69977000D01*
X142128863Y-69945531D01*
X142228328Y-69797090D01*
X142240000Y-69596000D01*
X142208532Y-69326137D01*
X142060091Y-69226672D01*
X141859000Y-69215000D01*
X141589138Y-69246468D01*
G37*
X141589138Y-69246468D02*
X141489673Y-69394909D01*
X141478000Y-69596000D01*
X141509469Y-69865862D01*
X141657910Y-69965327D01*
X141859000Y-69977000D01*
X142128863Y-69945531D01*
X142228328Y-69797090D01*
X142240000Y-69596000D01*
X142208532Y-69326137D01*
X142060091Y-69226672D01*
X141859000Y-69215000D01*
X141589138Y-69246468D01*
G36*
X155194000Y-56261000D02*
G01*
X157480000Y-56261000D01*
X157480000Y-53975000D01*
X155194000Y-53975000D01*
X155194000Y-56261000D01*
G37*
X155194000Y-56261000D02*
X157480000Y-56261000D01*
X157480000Y-53975000D01*
X155194000Y-53975000D01*
X155194000Y-56261000D01*
G36*
X138430000Y-56261000D02*
G01*
X140716000Y-56261000D01*
X140716000Y-53975000D01*
X138430000Y-53975000D01*
X138430000Y-56261000D01*
G37*
X138430000Y-56261000D02*
X140716000Y-56261000D01*
X140716000Y-53975000D01*
X138430000Y-53975000D01*
X138430000Y-56261000D01*
D12*
X174065000Y-103131252D02*
X174065000Y-102608748D01*
X172645000Y-103131252D02*
X172645000Y-102608748D01*
X134113748Y-136600000D02*
X134636252Y-136600000D01*
X134113748Y-135180000D02*
X134636252Y-135180000D01*
X149892936Y-77380000D02*
X151097064Y-77380000D01*
X149892936Y-80100000D02*
X151097064Y-80100000D01*
X205180000Y-68841252D02*
X205180000Y-68318748D01*
X203760000Y-68841252D02*
X203760000Y-68318748D01*
X86435000Y-68841252D02*
X86435000Y-68318748D01*
X85015000Y-68841252D02*
X85015000Y-68318748D01*
X145788748Y-95960000D02*
X146311252Y-95960000D01*
X145788748Y-94540000D02*
X146311252Y-94540000D01*
X142165000Y-86621252D02*
X142165000Y-86098748D01*
X143585000Y-86621252D02*
X143585000Y-86098748D01*
X89850000Y-74295000D02*
G75*
G03*
X89850000Y-74295000I-950000J0D01*
G01*
X177875000Y-98163748D02*
X177875000Y-98686252D01*
X176455000Y-98163748D02*
X176455000Y-98686252D01*
X88825000Y-97528748D02*
X88825000Y-98051252D01*
X90245000Y-97528748D02*
X90245000Y-98051252D01*
X208990000Y-97528748D02*
X208990000Y-98051252D01*
X207570000Y-97528748D02*
X207570000Y-98051252D01*
X208990000Y-86621252D02*
X208990000Y-86098748D01*
X207570000Y-86621252D02*
X207570000Y-86098748D01*
X88825000Y-86621252D02*
X88825000Y-86098748D01*
X90245000Y-86621252D02*
X90245000Y-86098748D01*
X149892936Y-103595000D02*
X151097064Y-103595000D01*
X149892936Y-100875000D02*
X151097064Y-100875000D01*
X180265000Y-98163748D02*
X180265000Y-98686252D01*
X181685000Y-98163748D02*
X181685000Y-98686252D01*
X198480000Y-97822936D02*
X198480000Y-99027064D01*
X200300000Y-97822936D02*
X200300000Y-99027064D01*
X134345000Y-83852936D02*
X134345000Y-85057064D01*
X136165000Y-83852936D02*
X136165000Y-85057064D01*
X81555000Y-97822936D02*
X81555000Y-99027064D01*
X79735000Y-97822936D02*
X79735000Y-99027064D01*
X134345000Y-96487064D02*
X134345000Y-95282936D01*
X136165000Y-96487064D02*
X136165000Y-95282936D01*
X180265000Y-103131252D02*
X180265000Y-102608748D01*
X181685000Y-103131252D02*
X181685000Y-102608748D01*
X177875000Y-103131252D02*
X177875000Y-102608748D01*
X176455000Y-103131252D02*
X176455000Y-102608748D01*
X138355000Y-82176252D02*
X138355000Y-81653748D01*
X139775000Y-82176252D02*
X139775000Y-81653748D01*
X142165000Y-82176252D02*
X142165000Y-81653748D01*
X143585000Y-82176252D02*
X143585000Y-81653748D01*
X78030000Y-64118748D02*
X78030000Y-64641252D01*
X79450000Y-64118748D02*
X79450000Y-64641252D01*
X143530000Y-92075000D02*
X143530000Y-95525000D01*
X143530000Y-92075000D02*
X143530000Y-90125000D01*
X138410000Y-92075000D02*
X138410000Y-94025000D01*
X138410000Y-92075000D02*
X138410000Y-90125000D01*
X196775000Y-64118748D02*
X196775000Y-64641252D01*
X198195000Y-64118748D02*
X198195000Y-64641252D01*
X134545000Y-79636252D02*
X134545000Y-79113748D01*
X135965000Y-79636252D02*
X135965000Y-79113748D01*
X208595000Y-74295000D02*
G75*
G03*
X208595000Y-74295000I-950000J0D01*
G01*
X203815000Y-92075000D02*
X203815000Y-90125000D01*
X203815000Y-92075000D02*
X203815000Y-94025000D01*
X208935000Y-92075000D02*
X208935000Y-90125000D01*
X208935000Y-92075000D02*
X208935000Y-95525000D01*
X81370000Y-86327064D02*
X81370000Y-85122936D01*
X78650000Y-86327064D02*
X78650000Y-85122936D01*
X90190000Y-92075000D02*
X90190000Y-95525000D01*
X90190000Y-92075000D02*
X90190000Y-90125000D01*
X85070000Y-92075000D02*
X85070000Y-94025000D01*
X85070000Y-92075000D02*
X85070000Y-90125000D01*
X197395000Y-86327064D02*
X197395000Y-85122936D01*
X200115000Y-86327064D02*
X200115000Y-85122936D01*
X176510000Y-92075000D02*
X176510000Y-88625000D01*
X176510000Y-92075000D02*
X176510000Y-94025000D01*
X181630000Y-92075000D02*
X181630000Y-90125000D01*
X181630000Y-92075000D02*
X181630000Y-94025000D01*
X155255000Y-121285000D02*
G75*
G03*
X155255000Y-121285000I-950000J0D01*
G01*
X151445000Y-121285000D02*
G75*
G03*
X151445000Y-121285000I-950000J0D01*
G01*
X194048748Y-113740000D02*
X194571252Y-113740000D01*
X194048748Y-112320000D02*
X194571252Y-112320000D01*
X194048748Y-116130000D02*
X194571252Y-116130000D01*
X194048748Y-117550000D02*
X194571252Y-117550000D01*
X194048748Y-121360000D02*
X194571252Y-121360000D01*
X194048748Y-119940000D02*
X194571252Y-119940000D01*
X194048748Y-123750000D02*
X194571252Y-123750000D01*
X194048748Y-125170000D02*
X194571252Y-125170000D01*
X194048748Y-128980000D02*
X194571252Y-128980000D01*
X194048748Y-127560000D02*
X194571252Y-127560000D01*
X80677936Y-108495000D02*
X81882064Y-108495000D01*
X80677936Y-111215000D02*
X81882064Y-111215000D01*
X86962064Y-108495000D02*
X85757936Y-108495000D01*
X86962064Y-111215000D02*
X85757936Y-111215000D01*
X172975000Y-141015000D02*
X176275000Y-141015000D01*
X176275000Y-141015000D02*
X176275000Y-147915000D01*
X172975000Y-141015000D02*
X172975000Y-147915000D01*
X102955000Y-103250000D02*
X109855000Y-103250000D01*
X102955000Y-99950000D02*
X109855000Y-99950000D01*
X102955000Y-103250000D02*
X102955000Y-99950000D01*
X150420000Y-112021252D02*
X150420000Y-111498748D01*
X151840000Y-112021252D02*
X151840000Y-111498748D01*
X152960000Y-112021252D02*
X152960000Y-111498748D01*
X154380000Y-112021252D02*
X154380000Y-111498748D01*
X179580000Y-146995000D02*
X179580000Y-146065000D01*
X179580000Y-143835000D02*
X179580000Y-144765000D01*
X179580000Y-143835000D02*
X181740000Y-143835000D01*
X179580000Y-146995000D02*
X181040000Y-146995000D01*
D10*
X175362142Y-102227142D02*
X175409761Y-102179523D01*
X175457380Y-102036666D01*
X175457380Y-101941428D01*
X175409761Y-101798571D01*
X175314523Y-101703333D01*
X175219285Y-101655714D01*
X175028809Y-101608095D01*
X174885952Y-101608095D01*
X174695476Y-101655714D01*
X174600238Y-101703333D01*
X174505000Y-101798571D01*
X174457380Y-101941428D01*
X174457380Y-102036666D01*
X174505000Y-102179523D01*
X174552619Y-102227142D01*
X174790714Y-103084285D02*
X175457380Y-103084285D01*
X174409761Y-102846190D02*
X175124047Y-102608095D01*
X175124047Y-103227142D01*
X174457380Y-103798571D02*
X174457380Y-103893809D01*
X174505000Y-103989047D01*
X174552619Y-104036666D01*
X174647857Y-104084285D01*
X174838333Y-104131904D01*
X175076428Y-104131904D01*
X175266904Y-104084285D01*
X175362142Y-104036666D01*
X175409761Y-103989047D01*
X175457380Y-103893809D01*
X175457380Y-103798571D01*
X175409761Y-103703333D01*
X175362142Y-103655714D01*
X175266904Y-103608095D01*
X175076428Y-103560476D01*
X174838333Y-103560476D01*
X174647857Y-103608095D01*
X174552619Y-103655714D01*
X174505000Y-103703333D01*
X174457380Y-103798571D01*
X135017857Y-137897142D02*
X135065476Y-137944761D01*
X135208333Y-137992380D01*
X135303571Y-137992380D01*
X135446428Y-137944761D01*
X135541666Y-137849523D01*
X135589285Y-137754285D01*
X135636904Y-137563809D01*
X135636904Y-137420952D01*
X135589285Y-137230476D01*
X135541666Y-137135238D01*
X135446428Y-137040000D01*
X135303571Y-136992380D01*
X135208333Y-136992380D01*
X135065476Y-137040000D01*
X135017857Y-137087619D01*
X134160714Y-137325714D02*
X134160714Y-137992380D01*
X134398809Y-136944761D02*
X134636904Y-137659047D01*
X134017857Y-137659047D01*
X133113095Y-137992380D02*
X133684523Y-137992380D01*
X133398809Y-137992380D02*
X133398809Y-136992380D01*
X133494047Y-137135238D01*
X133589285Y-137230476D01*
X133684523Y-137278095D01*
X151137857Y-76557142D02*
X151185476Y-76604761D01*
X151328333Y-76652380D01*
X151423571Y-76652380D01*
X151566428Y-76604761D01*
X151661666Y-76509523D01*
X151709285Y-76414285D01*
X151756904Y-76223809D01*
X151756904Y-76080952D01*
X151709285Y-75890476D01*
X151661666Y-75795238D01*
X151566428Y-75700000D01*
X151423571Y-75652380D01*
X151328333Y-75652380D01*
X151185476Y-75700000D01*
X151137857Y-75747619D01*
X150185476Y-76652380D02*
X150756904Y-76652380D01*
X150471190Y-76652380D02*
X150471190Y-75652380D01*
X150566428Y-75795238D01*
X150661666Y-75890476D01*
X150756904Y-75938095D01*
X149328333Y-75985714D02*
X149328333Y-76652380D01*
X149566428Y-75604761D02*
X149804523Y-76319047D01*
X149185476Y-76319047D01*
X203271380Y-67937142D02*
X202795190Y-67603809D01*
X203271380Y-67365714D02*
X202271380Y-67365714D01*
X202271380Y-67746666D01*
X202319000Y-67841904D01*
X202366619Y-67889523D01*
X202461857Y-67937142D01*
X202604714Y-67937142D01*
X202699952Y-67889523D01*
X202747571Y-67841904D01*
X202795190Y-67746666D01*
X202795190Y-67365714D01*
X202271380Y-68270476D02*
X202271380Y-68889523D01*
X202652333Y-68556190D01*
X202652333Y-68699047D01*
X202699952Y-68794285D01*
X202747571Y-68841904D01*
X202842809Y-68889523D01*
X203080904Y-68889523D01*
X203176142Y-68841904D01*
X203223761Y-68794285D01*
X203271380Y-68699047D01*
X203271380Y-68413333D01*
X203223761Y-68318095D01*
X203176142Y-68270476D01*
X202271380Y-69222857D02*
X202271380Y-69889523D01*
X203271380Y-69460952D01*
X84653380Y-67937142D02*
X84177190Y-67603809D01*
X84653380Y-67365714D02*
X83653380Y-67365714D01*
X83653380Y-67746666D01*
X83701000Y-67841904D01*
X83748619Y-67889523D01*
X83843857Y-67937142D01*
X83986714Y-67937142D01*
X84081952Y-67889523D01*
X84129571Y-67841904D01*
X84177190Y-67746666D01*
X84177190Y-67365714D01*
X83653380Y-68270476D02*
X83653380Y-68889523D01*
X84034333Y-68556190D01*
X84034333Y-68699047D01*
X84081952Y-68794285D01*
X84129571Y-68841904D01*
X84224809Y-68889523D01*
X84462904Y-68889523D01*
X84558142Y-68841904D01*
X84605761Y-68794285D01*
X84653380Y-68699047D01*
X84653380Y-68413333D01*
X84605761Y-68318095D01*
X84558142Y-68270476D01*
X83653380Y-69746666D02*
X83653380Y-69556190D01*
X83701000Y-69460952D01*
X83748619Y-69413333D01*
X83891476Y-69318095D01*
X84081952Y-69270476D01*
X84462904Y-69270476D01*
X84558142Y-69318095D01*
X84605761Y-69365714D01*
X84653380Y-69460952D01*
X84653380Y-69651428D01*
X84605761Y-69746666D01*
X84558142Y-69794285D01*
X84462904Y-69841904D01*
X84224809Y-69841904D01*
X84129571Y-69794285D01*
X84081952Y-69746666D01*
X84034333Y-69651428D01*
X84034333Y-69460952D01*
X84081952Y-69365714D01*
X84129571Y-69318095D01*
X84224809Y-69270476D01*
X146692857Y-97257142D02*
X146740476Y-97304761D01*
X146883333Y-97352380D01*
X146978571Y-97352380D01*
X147121428Y-97304761D01*
X147216666Y-97209523D01*
X147264285Y-97114285D01*
X147311904Y-96923809D01*
X147311904Y-96780952D01*
X147264285Y-96590476D01*
X147216666Y-96495238D01*
X147121428Y-96400000D01*
X146978571Y-96352380D01*
X146883333Y-96352380D01*
X146740476Y-96400000D01*
X146692857Y-96447619D01*
X146359523Y-96352380D02*
X145740476Y-96352380D01*
X146073809Y-96733333D01*
X145930952Y-96733333D01*
X145835714Y-96780952D01*
X145788095Y-96828571D01*
X145740476Y-96923809D01*
X145740476Y-97161904D01*
X145788095Y-97257142D01*
X145835714Y-97304761D01*
X145930952Y-97352380D01*
X146216666Y-97352380D01*
X146311904Y-97304761D01*
X146359523Y-97257142D01*
X144788095Y-97352380D02*
X145359523Y-97352380D01*
X145073809Y-97352380D02*
X145073809Y-96352380D01*
X145169047Y-96495238D01*
X145264285Y-96590476D01*
X145359523Y-96638095D01*
X141327142Y-85717142D02*
X141374761Y-85669523D01*
X141422380Y-85526666D01*
X141422380Y-85431428D01*
X141374761Y-85288571D01*
X141279523Y-85193333D01*
X141184285Y-85145714D01*
X140993809Y-85098095D01*
X140850952Y-85098095D01*
X140660476Y-85145714D01*
X140565238Y-85193333D01*
X140470000Y-85288571D01*
X140422380Y-85431428D01*
X140422380Y-85526666D01*
X140470000Y-85669523D01*
X140517619Y-85717142D01*
X140422380Y-86050476D02*
X140422380Y-86669523D01*
X140803333Y-86336190D01*
X140803333Y-86479047D01*
X140850952Y-86574285D01*
X140898571Y-86621904D01*
X140993809Y-86669523D01*
X141231904Y-86669523D01*
X141327142Y-86621904D01*
X141374761Y-86574285D01*
X141422380Y-86479047D01*
X141422380Y-86193333D01*
X141374761Y-86098095D01*
X141327142Y-86050476D01*
X140422380Y-87574285D02*
X140422380Y-87098095D01*
X140898571Y-87050476D01*
X140850952Y-87098095D01*
X140803333Y-87193333D01*
X140803333Y-87431428D01*
X140850952Y-87526666D01*
X140898571Y-87574285D01*
X140993809Y-87621904D01*
X141231904Y-87621904D01*
X141327142Y-87574285D01*
X141374761Y-87526666D01*
X141422380Y-87431428D01*
X141422380Y-87193333D01*
X141374761Y-87098095D01*
X141327142Y-87050476D01*
X88352380Y-67103952D02*
X88352380Y-66627761D01*
X88828571Y-66580142D01*
X88780952Y-66627761D01*
X88733333Y-66723000D01*
X88733333Y-66961095D01*
X88780952Y-67056333D01*
X88828571Y-67103952D01*
X88923809Y-67151571D01*
X89161904Y-67151571D01*
X89257142Y-67103952D01*
X89304761Y-67056333D01*
X89352380Y-66961095D01*
X89352380Y-66723000D01*
X89304761Y-66627761D01*
X89257142Y-66580142D01*
X88352380Y-67437285D02*
X89352380Y-67770619D01*
X88352380Y-68103952D01*
X89447619Y-68199190D02*
X89447619Y-68961095D01*
X89304761Y-69151571D02*
X89352380Y-69294428D01*
X89352380Y-69532523D01*
X89304761Y-69627761D01*
X89257142Y-69675380D01*
X89161904Y-69723000D01*
X89066666Y-69723000D01*
X88971428Y-69675380D01*
X88923809Y-69627761D01*
X88876190Y-69532523D01*
X88828571Y-69342047D01*
X88780952Y-69246809D01*
X88733333Y-69199190D01*
X88638095Y-69151571D01*
X88542857Y-69151571D01*
X88447619Y-69199190D01*
X88400000Y-69246809D01*
X88352380Y-69342047D01*
X88352380Y-69580142D01*
X88400000Y-69723000D01*
X88828571Y-70151571D02*
X88828571Y-70484904D01*
X89352380Y-70627761D02*
X89352380Y-70151571D01*
X88352380Y-70151571D01*
X88352380Y-70627761D01*
X88400000Y-71580142D02*
X88352380Y-71484904D01*
X88352380Y-71342047D01*
X88400000Y-71199190D01*
X88495238Y-71103952D01*
X88590476Y-71056333D01*
X88780952Y-71008714D01*
X88923809Y-71008714D01*
X89114285Y-71056333D01*
X89209523Y-71103952D01*
X89304761Y-71199190D01*
X89352380Y-71342047D01*
X89352380Y-71437285D01*
X89304761Y-71580142D01*
X89257142Y-71627761D01*
X88923809Y-71627761D01*
X88923809Y-71437285D01*
X88971428Y-72056333D02*
X88971428Y-72818238D01*
X179173142Y-97782142D02*
X179220761Y-97734523D01*
X179268380Y-97591666D01*
X179268380Y-97496428D01*
X179220761Y-97353571D01*
X179125523Y-97258333D01*
X179030285Y-97210714D01*
X178839809Y-97163095D01*
X178696952Y-97163095D01*
X178506476Y-97210714D01*
X178411238Y-97258333D01*
X178316000Y-97353571D01*
X178268380Y-97496428D01*
X178268380Y-97591666D01*
X178316000Y-97734523D01*
X178363619Y-97782142D01*
X179268380Y-98734523D02*
X179268380Y-98163095D01*
X179268380Y-98448809D02*
X178268380Y-98448809D01*
X178411238Y-98353571D01*
X178506476Y-98258333D01*
X178554095Y-98163095D01*
X178268380Y-99067857D02*
X178268380Y-99686904D01*
X178649333Y-99353571D01*
X178649333Y-99496428D01*
X178696952Y-99591666D01*
X178744571Y-99639285D01*
X178839809Y-99686904D01*
X179077904Y-99686904D01*
X179173142Y-99639285D01*
X179220761Y-99591666D01*
X179268380Y-99496428D01*
X179268380Y-99210714D01*
X179220761Y-99115476D01*
X179173142Y-99067857D01*
X88242142Y-97147142D02*
X88289761Y-97099523D01*
X88337380Y-96956666D01*
X88337380Y-96861428D01*
X88289761Y-96718571D01*
X88194523Y-96623333D01*
X88099285Y-96575714D01*
X87908809Y-96528095D01*
X87765952Y-96528095D01*
X87575476Y-96575714D01*
X87480238Y-96623333D01*
X87385000Y-96718571D01*
X87337380Y-96861428D01*
X87337380Y-96956666D01*
X87385000Y-97099523D01*
X87432619Y-97147142D01*
X87432619Y-97528095D02*
X87385000Y-97575714D01*
X87337380Y-97670952D01*
X87337380Y-97909047D01*
X87385000Y-98004285D01*
X87432619Y-98051904D01*
X87527857Y-98099523D01*
X87623095Y-98099523D01*
X87765952Y-98051904D01*
X88337380Y-97480476D01*
X88337380Y-98099523D01*
X87432619Y-98480476D02*
X87385000Y-98528095D01*
X87337380Y-98623333D01*
X87337380Y-98861428D01*
X87385000Y-98956666D01*
X87432619Y-99004285D01*
X87527857Y-99051904D01*
X87623095Y-99051904D01*
X87765952Y-99004285D01*
X88337380Y-98432857D01*
X88337380Y-99051904D01*
X208922857Y-100941142D02*
X208970476Y-100988761D01*
X209113333Y-101036380D01*
X209208571Y-101036380D01*
X209351428Y-100988761D01*
X209446666Y-100893523D01*
X209494285Y-100798285D01*
X209541904Y-100607809D01*
X209541904Y-100464952D01*
X209494285Y-100274476D01*
X209446666Y-100179238D01*
X209351428Y-100084000D01*
X209208571Y-100036380D01*
X209113333Y-100036380D01*
X208970476Y-100084000D01*
X208922857Y-100131619D01*
X208541904Y-100131619D02*
X208494285Y-100084000D01*
X208399047Y-100036380D01*
X208160952Y-100036380D01*
X208065714Y-100084000D01*
X208018095Y-100131619D01*
X207970476Y-100226857D01*
X207970476Y-100322095D01*
X208018095Y-100464952D01*
X208589523Y-101036380D01*
X207970476Y-101036380D01*
X207018095Y-101036380D02*
X207589523Y-101036380D01*
X207303809Y-101036380D02*
X207303809Y-100036380D01*
X207399047Y-100179238D01*
X207494285Y-100274476D01*
X207589523Y-100322095D01*
X208922857Y-84177142D02*
X208970476Y-84224761D01*
X209113333Y-84272380D01*
X209208571Y-84272380D01*
X209351428Y-84224761D01*
X209446666Y-84129523D01*
X209494285Y-84034285D01*
X209541904Y-83843809D01*
X209541904Y-83700952D01*
X209494285Y-83510476D01*
X209446666Y-83415238D01*
X209351428Y-83320000D01*
X209208571Y-83272380D01*
X209113333Y-83272380D01*
X208970476Y-83320000D01*
X208922857Y-83367619D01*
X208541904Y-83367619D02*
X208494285Y-83320000D01*
X208399047Y-83272380D01*
X208160952Y-83272380D01*
X208065714Y-83320000D01*
X208018095Y-83367619D01*
X207970476Y-83462857D01*
X207970476Y-83558095D01*
X208018095Y-83700952D01*
X208589523Y-84272380D01*
X207970476Y-84272380D01*
X207351428Y-83272380D02*
X207256190Y-83272380D01*
X207160952Y-83320000D01*
X207113333Y-83367619D01*
X207065714Y-83462857D01*
X207018095Y-83653333D01*
X207018095Y-83891428D01*
X207065714Y-84081904D01*
X207113333Y-84177142D01*
X207160952Y-84224761D01*
X207256190Y-84272380D01*
X207351428Y-84272380D01*
X207446666Y-84224761D01*
X207494285Y-84177142D01*
X207541904Y-84081904D01*
X207589523Y-83891428D01*
X207589523Y-83653333D01*
X207541904Y-83462857D01*
X207494285Y-83367619D01*
X207446666Y-83320000D01*
X207351428Y-83272380D01*
X90177857Y-84177142D02*
X90225476Y-84224761D01*
X90368333Y-84272380D01*
X90463571Y-84272380D01*
X90606428Y-84224761D01*
X90701666Y-84129523D01*
X90749285Y-84034285D01*
X90796904Y-83843809D01*
X90796904Y-83700952D01*
X90749285Y-83510476D01*
X90701666Y-83415238D01*
X90606428Y-83320000D01*
X90463571Y-83272380D01*
X90368333Y-83272380D01*
X90225476Y-83320000D01*
X90177857Y-83367619D01*
X89225476Y-84272380D02*
X89796904Y-84272380D01*
X89511190Y-84272380D02*
X89511190Y-83272380D01*
X89606428Y-83415238D01*
X89701666Y-83510476D01*
X89796904Y-83558095D01*
X88892142Y-83272380D02*
X88225476Y-83272380D01*
X88654047Y-84272380D01*
X151137857Y-100052142D02*
X151185476Y-100099761D01*
X151328333Y-100147380D01*
X151423571Y-100147380D01*
X151566428Y-100099761D01*
X151661666Y-100004523D01*
X151709285Y-99909285D01*
X151756904Y-99718809D01*
X151756904Y-99575952D01*
X151709285Y-99385476D01*
X151661666Y-99290238D01*
X151566428Y-99195000D01*
X151423571Y-99147380D01*
X151328333Y-99147380D01*
X151185476Y-99195000D01*
X151137857Y-99242619D01*
X150185476Y-100147380D02*
X150756904Y-100147380D01*
X150471190Y-100147380D02*
X150471190Y-99147380D01*
X150566428Y-99290238D01*
X150661666Y-99385476D01*
X150756904Y-99433095D01*
X149280714Y-99147380D02*
X149756904Y-99147380D01*
X149804523Y-99623571D01*
X149756904Y-99575952D01*
X149661666Y-99528333D01*
X149423571Y-99528333D01*
X149328333Y-99575952D01*
X149280714Y-99623571D01*
X149233095Y-99718809D01*
X149233095Y-99956904D01*
X149280714Y-100052142D01*
X149328333Y-100099761D01*
X149423571Y-100147380D01*
X149661666Y-100147380D01*
X149756904Y-100099761D01*
X149804523Y-100052142D01*
X182983142Y-97782142D02*
X183030761Y-97734523D01*
X183078380Y-97591666D01*
X183078380Y-97496428D01*
X183030761Y-97353571D01*
X182935523Y-97258333D01*
X182840285Y-97210714D01*
X182649809Y-97163095D01*
X182506952Y-97163095D01*
X182316476Y-97210714D01*
X182221238Y-97258333D01*
X182126000Y-97353571D01*
X182078380Y-97496428D01*
X182078380Y-97591666D01*
X182126000Y-97734523D01*
X182173619Y-97782142D01*
X183078380Y-98734523D02*
X183078380Y-98163095D01*
X183078380Y-98448809D02*
X182078380Y-98448809D01*
X182221238Y-98353571D01*
X182316476Y-98258333D01*
X182364095Y-98163095D01*
X182173619Y-99115476D02*
X182126000Y-99163095D01*
X182078380Y-99258333D01*
X182078380Y-99496428D01*
X182126000Y-99591666D01*
X182173619Y-99639285D01*
X182268857Y-99686904D01*
X182364095Y-99686904D01*
X182506952Y-99639285D01*
X183078380Y-99067857D01*
X183078380Y-99686904D01*
X197927142Y-97782142D02*
X197974761Y-97734523D01*
X198022380Y-97591666D01*
X198022380Y-97496428D01*
X197974761Y-97353571D01*
X197879523Y-97258333D01*
X197784285Y-97210714D01*
X197593809Y-97163095D01*
X197450952Y-97163095D01*
X197260476Y-97210714D01*
X197165238Y-97258333D01*
X197070000Y-97353571D01*
X197022380Y-97496428D01*
X197022380Y-97591666D01*
X197070000Y-97734523D01*
X197117619Y-97782142D01*
X197117619Y-98163095D02*
X197070000Y-98210714D01*
X197022380Y-98305952D01*
X197022380Y-98544047D01*
X197070000Y-98639285D01*
X197117619Y-98686904D01*
X197212857Y-98734523D01*
X197308095Y-98734523D01*
X197450952Y-98686904D01*
X198022380Y-98115476D01*
X198022380Y-98734523D01*
X197022380Y-99591666D02*
X197022380Y-99401190D01*
X197070000Y-99305952D01*
X197117619Y-99258333D01*
X197260476Y-99163095D01*
X197450952Y-99115476D01*
X197831904Y-99115476D01*
X197927142Y-99163095D01*
X197974761Y-99210714D01*
X198022380Y-99305952D01*
X198022380Y-99496428D01*
X197974761Y-99591666D01*
X197927142Y-99639285D01*
X197831904Y-99686904D01*
X197593809Y-99686904D01*
X197498571Y-99639285D01*
X197450952Y-99591666D01*
X197403333Y-99496428D01*
X197403333Y-99305952D01*
X197450952Y-99210714D01*
X197498571Y-99163095D01*
X197593809Y-99115476D01*
X133707142Y-83812142D02*
X133754761Y-83764523D01*
X133802380Y-83621666D01*
X133802380Y-83526428D01*
X133754761Y-83383571D01*
X133659523Y-83288333D01*
X133564285Y-83240714D01*
X133373809Y-83193095D01*
X133230952Y-83193095D01*
X133040476Y-83240714D01*
X132945238Y-83288333D01*
X132850000Y-83383571D01*
X132802380Y-83526428D01*
X132802380Y-83621666D01*
X132850000Y-83764523D01*
X132897619Y-83812142D01*
X132897619Y-84193095D02*
X132850000Y-84240714D01*
X132802380Y-84335952D01*
X132802380Y-84574047D01*
X132850000Y-84669285D01*
X132897619Y-84716904D01*
X132992857Y-84764523D01*
X133088095Y-84764523D01*
X133230952Y-84716904D01*
X133802380Y-84145476D01*
X133802380Y-84764523D01*
X132802380Y-85097857D02*
X132802380Y-85764523D01*
X133802380Y-85335952D01*
X79182142Y-97782142D02*
X79229761Y-97734523D01*
X79277380Y-97591666D01*
X79277380Y-97496428D01*
X79229761Y-97353571D01*
X79134523Y-97258333D01*
X79039285Y-97210714D01*
X78848809Y-97163095D01*
X78705952Y-97163095D01*
X78515476Y-97210714D01*
X78420238Y-97258333D01*
X78325000Y-97353571D01*
X78277380Y-97496428D01*
X78277380Y-97591666D01*
X78325000Y-97734523D01*
X78372619Y-97782142D01*
X78372619Y-98163095D02*
X78325000Y-98210714D01*
X78277380Y-98305952D01*
X78277380Y-98544047D01*
X78325000Y-98639285D01*
X78372619Y-98686904D01*
X78467857Y-98734523D01*
X78563095Y-98734523D01*
X78705952Y-98686904D01*
X79277380Y-98115476D01*
X79277380Y-98734523D01*
X78277380Y-99639285D02*
X78277380Y-99163095D01*
X78753571Y-99115476D01*
X78705952Y-99163095D01*
X78658333Y-99258333D01*
X78658333Y-99496428D01*
X78705952Y-99591666D01*
X78753571Y-99639285D01*
X78848809Y-99686904D01*
X79086904Y-99686904D01*
X79182142Y-99639285D01*
X79229761Y-99591666D01*
X79277380Y-99496428D01*
X79277380Y-99258333D01*
X79229761Y-99163095D01*
X79182142Y-99115476D01*
X137432142Y-95242142D02*
X137479761Y-95194523D01*
X137527380Y-95051666D01*
X137527380Y-94956428D01*
X137479761Y-94813571D01*
X137384523Y-94718333D01*
X137289285Y-94670714D01*
X137098809Y-94623095D01*
X136955952Y-94623095D01*
X136765476Y-94670714D01*
X136670238Y-94718333D01*
X136575000Y-94813571D01*
X136527380Y-94956428D01*
X136527380Y-95051666D01*
X136575000Y-95194523D01*
X136622619Y-95242142D01*
X136622619Y-95623095D02*
X136575000Y-95670714D01*
X136527380Y-95765952D01*
X136527380Y-96004047D01*
X136575000Y-96099285D01*
X136622619Y-96146904D01*
X136717857Y-96194523D01*
X136813095Y-96194523D01*
X136955952Y-96146904D01*
X137527380Y-95575476D01*
X137527380Y-96194523D01*
X136860714Y-97051666D02*
X137527380Y-97051666D01*
X136479761Y-96813571D02*
X137194047Y-96575476D01*
X137194047Y-97194523D01*
X183077380Y-102227142D02*
X182601190Y-101893809D01*
X183077380Y-101655714D02*
X182077380Y-101655714D01*
X182077380Y-102036666D01*
X182125000Y-102131904D01*
X182172619Y-102179523D01*
X182267857Y-102227142D01*
X182410714Y-102227142D01*
X182505952Y-102179523D01*
X182553571Y-102131904D01*
X182601190Y-102036666D01*
X182601190Y-101655714D01*
X182172619Y-102608095D02*
X182125000Y-102655714D01*
X182077380Y-102750952D01*
X182077380Y-102989047D01*
X182125000Y-103084285D01*
X182172619Y-103131904D01*
X182267857Y-103179523D01*
X182363095Y-103179523D01*
X182505952Y-103131904D01*
X183077380Y-102560476D01*
X183077380Y-103179523D01*
X182410714Y-104036666D02*
X183077380Y-104036666D01*
X182029761Y-103798571D02*
X182744047Y-103560476D01*
X182744047Y-104179523D01*
X179267380Y-102227142D02*
X178791190Y-101893809D01*
X179267380Y-101655714D02*
X178267380Y-101655714D01*
X178267380Y-102036666D01*
X178315000Y-102131904D01*
X178362619Y-102179523D01*
X178457857Y-102227142D01*
X178600714Y-102227142D01*
X178695952Y-102179523D01*
X178743571Y-102131904D01*
X178791190Y-102036666D01*
X178791190Y-101655714D01*
X178362619Y-102608095D02*
X178315000Y-102655714D01*
X178267380Y-102750952D01*
X178267380Y-102989047D01*
X178315000Y-103084285D01*
X178362619Y-103131904D01*
X178457857Y-103179523D01*
X178553095Y-103179523D01*
X178695952Y-103131904D01*
X179267380Y-102560476D01*
X179267380Y-103179523D01*
X178267380Y-104084285D02*
X178267380Y-103608095D01*
X178743571Y-103560476D01*
X178695952Y-103608095D01*
X178648333Y-103703333D01*
X178648333Y-103941428D01*
X178695952Y-104036666D01*
X178743571Y-104084285D01*
X178838809Y-104131904D01*
X179076904Y-104131904D01*
X179172142Y-104084285D01*
X179219761Y-104036666D01*
X179267380Y-103941428D01*
X179267380Y-103703333D01*
X179219761Y-103608095D01*
X179172142Y-103560476D01*
X137681380Y-81272142D02*
X137205190Y-80938809D01*
X137681380Y-80700714D02*
X136681380Y-80700714D01*
X136681380Y-81081666D01*
X136729000Y-81176904D01*
X136776619Y-81224523D01*
X136871857Y-81272142D01*
X137014714Y-81272142D01*
X137109952Y-81224523D01*
X137157571Y-81176904D01*
X137205190Y-81081666D01*
X137205190Y-80700714D01*
X137014714Y-82129285D02*
X137681380Y-82129285D01*
X136633761Y-81891190D02*
X137348047Y-81653095D01*
X137348047Y-82272142D01*
X136681380Y-83129285D02*
X136681380Y-82653095D01*
X137157571Y-82605476D01*
X137109952Y-82653095D01*
X137062333Y-82748333D01*
X137062333Y-82986428D01*
X137109952Y-83081666D01*
X137157571Y-83129285D01*
X137252809Y-83176904D01*
X137490904Y-83176904D01*
X137586142Y-83129285D01*
X137633761Y-83081666D01*
X137681380Y-82986428D01*
X137681380Y-82748333D01*
X137633761Y-82653095D01*
X137586142Y-82605476D01*
X141422380Y-81272142D02*
X140946190Y-80938809D01*
X141422380Y-80700714D02*
X140422380Y-80700714D01*
X140422380Y-81081666D01*
X140470000Y-81176904D01*
X140517619Y-81224523D01*
X140612857Y-81272142D01*
X140755714Y-81272142D01*
X140850952Y-81224523D01*
X140898571Y-81176904D01*
X140946190Y-81081666D01*
X140946190Y-80700714D01*
X140755714Y-82129285D02*
X141422380Y-82129285D01*
X140374761Y-81891190D02*
X141089047Y-81653095D01*
X141089047Y-82272142D01*
X140755714Y-83081666D02*
X141422380Y-83081666D01*
X140374761Y-82843571D02*
X141089047Y-82605476D01*
X141089047Y-83224523D01*
X79192380Y-55523190D02*
X78716190Y-55189857D01*
X79192380Y-54951761D02*
X78192380Y-54951761D01*
X78192380Y-55332714D01*
X78240000Y-55427952D01*
X78287619Y-55475571D01*
X78382857Y-55523190D01*
X78525714Y-55523190D01*
X78620952Y-55475571D01*
X78668571Y-55427952D01*
X78716190Y-55332714D01*
X78716190Y-54951761D01*
X78192380Y-55808904D02*
X78192380Y-56380333D01*
X79192380Y-56094619D02*
X78192380Y-56094619D01*
X79192380Y-56713666D02*
X78192380Y-56713666D01*
X79192380Y-57285095D01*
X78192380Y-57285095D01*
X79287619Y-57523190D02*
X79287619Y-58285095D01*
X79144761Y-58475571D02*
X79192380Y-58618428D01*
X79192380Y-58856523D01*
X79144761Y-58951761D01*
X79097142Y-58999380D01*
X79001904Y-59047000D01*
X78906666Y-59047000D01*
X78811428Y-58999380D01*
X78763809Y-58951761D01*
X78716190Y-58856523D01*
X78668571Y-58666047D01*
X78620952Y-58570809D01*
X78573333Y-58523190D01*
X78478095Y-58475571D01*
X78382857Y-58475571D01*
X78287619Y-58523190D01*
X78240000Y-58570809D01*
X78192380Y-58666047D01*
X78192380Y-58904142D01*
X78240000Y-59047000D01*
X78668571Y-59475571D02*
X78668571Y-59808904D01*
X79192380Y-59951761D02*
X79192380Y-59475571D01*
X78192380Y-59475571D01*
X78192380Y-59951761D01*
X78240000Y-60904142D02*
X78192380Y-60808904D01*
X78192380Y-60666047D01*
X78240000Y-60523190D01*
X78335238Y-60427952D01*
X78430476Y-60380333D01*
X78620952Y-60332714D01*
X78763809Y-60332714D01*
X78954285Y-60380333D01*
X79049523Y-60427952D01*
X79144761Y-60523190D01*
X79192380Y-60666047D01*
X79192380Y-60761285D01*
X79144761Y-60904142D01*
X79097142Y-60951761D01*
X78763809Y-60951761D01*
X78763809Y-60761285D01*
X78811428Y-61380333D02*
X78811428Y-62142238D01*
X146272095Y-88987380D02*
X146272095Y-89796904D01*
X146224476Y-89892142D01*
X146176857Y-89939761D01*
X146081619Y-89987380D01*
X145891142Y-89987380D01*
X145795904Y-89939761D01*
X145748285Y-89892142D01*
X145700666Y-89796904D01*
X145700666Y-88987380D01*
X145272095Y-89082619D02*
X145224476Y-89035000D01*
X145129238Y-88987380D01*
X144891142Y-88987380D01*
X144795904Y-89035000D01*
X144748285Y-89082619D01*
X144700666Y-89177857D01*
X144700666Y-89273095D01*
X144748285Y-89415952D01*
X145319714Y-89987380D01*
X144700666Y-89987380D01*
X143748285Y-89987380D02*
X144319714Y-89987380D01*
X144034000Y-89987380D02*
X144034000Y-88987380D01*
X144129238Y-89130238D01*
X144224476Y-89225476D01*
X144319714Y-89273095D01*
X197937380Y-55396190D02*
X197461190Y-55062857D01*
X197937380Y-54824761D02*
X196937380Y-54824761D01*
X196937380Y-55205714D01*
X196985000Y-55300952D01*
X197032619Y-55348571D01*
X197127857Y-55396190D01*
X197270714Y-55396190D01*
X197365952Y-55348571D01*
X197413571Y-55300952D01*
X197461190Y-55205714D01*
X197461190Y-54824761D01*
X196937380Y-55681904D02*
X196937380Y-56253333D01*
X197937380Y-55967619D02*
X196937380Y-55967619D01*
X197937380Y-56586666D02*
X196937380Y-56586666D01*
X197937380Y-57158095D01*
X196937380Y-57158095D01*
X198032619Y-57396190D02*
X198032619Y-58158095D01*
X197889761Y-58348571D02*
X197937380Y-58491428D01*
X197937380Y-58729523D01*
X197889761Y-58824761D01*
X197842142Y-58872380D01*
X197746904Y-58920000D01*
X197651666Y-58920000D01*
X197556428Y-58872380D01*
X197508809Y-58824761D01*
X197461190Y-58729523D01*
X197413571Y-58539047D01*
X197365952Y-58443809D01*
X197318333Y-58396190D01*
X197223095Y-58348571D01*
X197127857Y-58348571D01*
X197032619Y-58396190D01*
X196985000Y-58443809D01*
X196937380Y-58539047D01*
X196937380Y-58777142D01*
X196985000Y-58920000D01*
X197413571Y-59348571D02*
X197413571Y-59681904D01*
X197937380Y-59824761D02*
X197937380Y-59348571D01*
X196937380Y-59348571D01*
X196937380Y-59824761D01*
X196985000Y-60777142D02*
X196937380Y-60681904D01*
X196937380Y-60539047D01*
X196985000Y-60396190D01*
X197080238Y-60300952D01*
X197175476Y-60253333D01*
X197365952Y-60205714D01*
X197508809Y-60205714D01*
X197699285Y-60253333D01*
X197794523Y-60300952D01*
X197889761Y-60396190D01*
X197937380Y-60539047D01*
X197937380Y-60634285D01*
X197889761Y-60777142D01*
X197842142Y-60824761D01*
X197508809Y-60824761D01*
X197508809Y-60634285D01*
X197556428Y-61253333D02*
X197556428Y-62015238D01*
X197937380Y-61634285D02*
X197175476Y-61634285D01*
X133802380Y-78732142D02*
X133326190Y-78398809D01*
X133802380Y-78160714D02*
X132802380Y-78160714D01*
X132802380Y-78541666D01*
X132850000Y-78636904D01*
X132897619Y-78684523D01*
X132992857Y-78732142D01*
X133135714Y-78732142D01*
X133230952Y-78684523D01*
X133278571Y-78636904D01*
X133326190Y-78541666D01*
X133326190Y-78160714D01*
X132802380Y-79065476D02*
X132802380Y-79684523D01*
X133183333Y-79351190D01*
X133183333Y-79494047D01*
X133230952Y-79589285D01*
X133278571Y-79636904D01*
X133373809Y-79684523D01*
X133611904Y-79684523D01*
X133707142Y-79636904D01*
X133754761Y-79589285D01*
X133802380Y-79494047D01*
X133802380Y-79208333D01*
X133754761Y-79113095D01*
X133707142Y-79065476D01*
X133135714Y-80541666D02*
X133802380Y-80541666D01*
X132754761Y-80303571D02*
X133469047Y-80065476D01*
X133469047Y-80684523D01*
X207097380Y-67103952D02*
X207097380Y-66627761D01*
X207573571Y-66580142D01*
X207525952Y-66627761D01*
X207478333Y-66723000D01*
X207478333Y-66961095D01*
X207525952Y-67056333D01*
X207573571Y-67103952D01*
X207668809Y-67151571D01*
X207906904Y-67151571D01*
X208002142Y-67103952D01*
X208049761Y-67056333D01*
X208097380Y-66961095D01*
X208097380Y-66723000D01*
X208049761Y-66627761D01*
X208002142Y-66580142D01*
X207097380Y-67437285D02*
X208097380Y-67770619D01*
X207097380Y-68103952D01*
X208192619Y-68199190D02*
X208192619Y-68961095D01*
X208049761Y-69151571D02*
X208097380Y-69294428D01*
X208097380Y-69532523D01*
X208049761Y-69627761D01*
X208002142Y-69675380D01*
X207906904Y-69723000D01*
X207811666Y-69723000D01*
X207716428Y-69675380D01*
X207668809Y-69627761D01*
X207621190Y-69532523D01*
X207573571Y-69342047D01*
X207525952Y-69246809D01*
X207478333Y-69199190D01*
X207383095Y-69151571D01*
X207287857Y-69151571D01*
X207192619Y-69199190D01*
X207145000Y-69246809D01*
X207097380Y-69342047D01*
X207097380Y-69580142D01*
X207145000Y-69723000D01*
X207573571Y-70151571D02*
X207573571Y-70484904D01*
X208097380Y-70627761D02*
X208097380Y-70151571D01*
X207097380Y-70151571D01*
X207097380Y-70627761D01*
X207145000Y-71580142D02*
X207097380Y-71484904D01*
X207097380Y-71342047D01*
X207145000Y-71199190D01*
X207240238Y-71103952D01*
X207335476Y-71056333D01*
X207525952Y-71008714D01*
X207668809Y-71008714D01*
X207859285Y-71056333D01*
X207954523Y-71103952D01*
X208049761Y-71199190D01*
X208097380Y-71342047D01*
X208097380Y-71437285D01*
X208049761Y-71580142D01*
X208002142Y-71627761D01*
X207668809Y-71627761D01*
X207668809Y-71437285D01*
X207716428Y-72056333D02*
X207716428Y-72818238D01*
X208097380Y-72437285D02*
X207335476Y-72437285D01*
X209256380Y-87915904D02*
X210065904Y-87915904D01*
X210161142Y-87963523D01*
X210208761Y-88011142D01*
X210256380Y-88106380D01*
X210256380Y-88296857D01*
X210208761Y-88392095D01*
X210161142Y-88439714D01*
X210065904Y-88487333D01*
X209256380Y-88487333D01*
X210256380Y-89487333D02*
X210256380Y-88915904D01*
X210256380Y-89201619D02*
X209256380Y-89201619D01*
X209399238Y-89106380D01*
X209494476Y-89011142D01*
X209542095Y-88915904D01*
X209256380Y-90392095D02*
X209256380Y-89915904D01*
X209732571Y-89868285D01*
X209684952Y-89915904D01*
X209637333Y-90011142D01*
X209637333Y-90249238D01*
X209684952Y-90344476D01*
X209732571Y-90392095D01*
X209827809Y-90439714D01*
X210065904Y-90439714D01*
X210161142Y-90392095D01*
X210208761Y-90344476D01*
X210256380Y-90249238D01*
X210256380Y-90011142D01*
X210208761Y-89915904D01*
X210161142Y-89868285D01*
X80652857Y-82907142D02*
X80700476Y-82954761D01*
X80843333Y-83002380D01*
X80938571Y-83002380D01*
X81081428Y-82954761D01*
X81176666Y-82859523D01*
X81224285Y-82764285D01*
X81271904Y-82573809D01*
X81271904Y-82430952D01*
X81224285Y-82240476D01*
X81176666Y-82145238D01*
X81081428Y-82050000D01*
X80938571Y-82002380D01*
X80843333Y-82002380D01*
X80700476Y-82050000D01*
X80652857Y-82097619D01*
X80271904Y-82097619D02*
X80224285Y-82050000D01*
X80129047Y-82002380D01*
X79890952Y-82002380D01*
X79795714Y-82050000D01*
X79748095Y-82097619D01*
X79700476Y-82192857D01*
X79700476Y-82288095D01*
X79748095Y-82430952D01*
X80319523Y-83002380D01*
X79700476Y-83002380D01*
X79129047Y-82430952D02*
X79224285Y-82383333D01*
X79271904Y-82335714D01*
X79319523Y-82240476D01*
X79319523Y-82192857D01*
X79271904Y-82097619D01*
X79224285Y-82050000D01*
X79129047Y-82002380D01*
X78938571Y-82002380D01*
X78843333Y-82050000D01*
X78795714Y-82097619D01*
X78748095Y-82192857D01*
X78748095Y-82240476D01*
X78795714Y-82335714D01*
X78843333Y-82383333D01*
X78938571Y-82430952D01*
X79129047Y-82430952D01*
X79224285Y-82478571D01*
X79271904Y-82526190D01*
X79319523Y-82621428D01*
X79319523Y-82811904D01*
X79271904Y-82907142D01*
X79224285Y-82954761D01*
X79129047Y-83002380D01*
X78938571Y-83002380D01*
X78843333Y-82954761D01*
X78795714Y-82907142D01*
X78748095Y-82811904D01*
X78748095Y-82621428D01*
X78795714Y-82526190D01*
X78843333Y-82478571D01*
X78938571Y-82430952D01*
X90638380Y-88042904D02*
X91447904Y-88042904D01*
X91543142Y-88090523D01*
X91590761Y-88138142D01*
X91638380Y-88233380D01*
X91638380Y-88423857D01*
X91590761Y-88519095D01*
X91543142Y-88566714D01*
X91447904Y-88614333D01*
X90638380Y-88614333D01*
X91638380Y-89614333D02*
X91638380Y-89042904D01*
X91638380Y-89328619D02*
X90638380Y-89328619D01*
X90781238Y-89233380D01*
X90876476Y-89138142D01*
X90924095Y-89042904D01*
X90971714Y-90471476D02*
X91638380Y-90471476D01*
X90590761Y-90233380D02*
X91305047Y-89995285D01*
X91305047Y-90614333D01*
X199397857Y-82907142D02*
X199445476Y-82954761D01*
X199588333Y-83002380D01*
X199683571Y-83002380D01*
X199826428Y-82954761D01*
X199921666Y-82859523D01*
X199969285Y-82764285D01*
X200016904Y-82573809D01*
X200016904Y-82430952D01*
X199969285Y-82240476D01*
X199921666Y-82145238D01*
X199826428Y-82050000D01*
X199683571Y-82002380D01*
X199588333Y-82002380D01*
X199445476Y-82050000D01*
X199397857Y-82097619D01*
X199016904Y-82097619D02*
X198969285Y-82050000D01*
X198874047Y-82002380D01*
X198635952Y-82002380D01*
X198540714Y-82050000D01*
X198493095Y-82097619D01*
X198445476Y-82192857D01*
X198445476Y-82288095D01*
X198493095Y-82430952D01*
X199064523Y-83002380D01*
X198445476Y-83002380D01*
X197969285Y-83002380D02*
X197778809Y-83002380D01*
X197683571Y-82954761D01*
X197635952Y-82907142D01*
X197540714Y-82764285D01*
X197493095Y-82573809D01*
X197493095Y-82192857D01*
X197540714Y-82097619D01*
X197588333Y-82050000D01*
X197683571Y-82002380D01*
X197874047Y-82002380D01*
X197969285Y-82050000D01*
X198016904Y-82097619D01*
X198064523Y-82192857D01*
X198064523Y-82430952D01*
X198016904Y-82526190D01*
X197969285Y-82573809D01*
X197874047Y-82621428D01*
X197683571Y-82621428D01*
X197588333Y-82573809D01*
X197540714Y-82526190D01*
X197493095Y-82430952D01*
X178585880Y-86677595D02*
X179395404Y-86677595D01*
X179490642Y-86725214D01*
X179538261Y-86772833D01*
X179585880Y-86868071D01*
X179585880Y-87058547D01*
X179538261Y-87153785D01*
X179490642Y-87201404D01*
X179395404Y-87249023D01*
X178585880Y-87249023D01*
X179014452Y-87868071D02*
X178966833Y-87772833D01*
X178919214Y-87725214D01*
X178823976Y-87677595D01*
X178776357Y-87677595D01*
X178681119Y-87725214D01*
X178633500Y-87772833D01*
X178585880Y-87868071D01*
X178585880Y-88058547D01*
X178633500Y-88153785D01*
X178681119Y-88201404D01*
X178776357Y-88249023D01*
X178823976Y-88249023D01*
X178919214Y-88201404D01*
X178966833Y-88153785D01*
X179014452Y-88058547D01*
X179014452Y-87868071D01*
X179062071Y-87772833D01*
X179109690Y-87725214D01*
X179204928Y-87677595D01*
X179395404Y-87677595D01*
X179490642Y-87725214D01*
X179538261Y-87772833D01*
X179585880Y-87868071D01*
X179585880Y-88058547D01*
X179538261Y-88153785D01*
X179490642Y-88201404D01*
X179395404Y-88249023D01*
X179204928Y-88249023D01*
X179109690Y-88201404D01*
X179062071Y-88153785D01*
X179014452Y-88058547D01*
X158741904Y-120737380D02*
X158170476Y-120737380D01*
X158456190Y-121737380D02*
X158456190Y-120737380D01*
X157837142Y-121737380D02*
X157837142Y-120737380D01*
X157456190Y-120737380D01*
X157360952Y-120785000D01*
X157313333Y-120832619D01*
X157265714Y-120927857D01*
X157265714Y-121070714D01*
X157313333Y-121165952D01*
X157360952Y-121213571D01*
X157456190Y-121261190D01*
X157837142Y-121261190D01*
X156789523Y-121737380D02*
X156599047Y-121737380D01*
X156503809Y-121689761D01*
X156456190Y-121642142D01*
X156360952Y-121499285D01*
X156313333Y-121308809D01*
X156313333Y-120927857D01*
X156360952Y-120832619D01*
X156408571Y-120785000D01*
X156503809Y-120737380D01*
X156694285Y-120737380D01*
X156789523Y-120785000D01*
X156837142Y-120832619D01*
X156884761Y-120927857D01*
X156884761Y-121165952D01*
X156837142Y-121261190D01*
X156789523Y-121308809D01*
X156694285Y-121356428D01*
X156503809Y-121356428D01*
X156408571Y-121308809D01*
X156360952Y-121261190D01*
X156313333Y-121165952D01*
X155495476Y-124229761D02*
X155352619Y-124277380D01*
X155114523Y-124277380D01*
X155019285Y-124229761D01*
X154971666Y-124182142D01*
X154924047Y-124086904D01*
X154924047Y-123991666D01*
X154971666Y-123896428D01*
X155019285Y-123848809D01*
X155114523Y-123801190D01*
X155305000Y-123753571D01*
X155400238Y-123705952D01*
X155447857Y-123658333D01*
X155495476Y-123563095D01*
X155495476Y-123467857D01*
X155447857Y-123372619D01*
X155400238Y-123325000D01*
X155305000Y-123277380D01*
X155066904Y-123277380D01*
X154924047Y-123325000D01*
X153924047Y-124182142D02*
X153971666Y-124229761D01*
X154114523Y-124277380D01*
X154209761Y-124277380D01*
X154352619Y-124229761D01*
X154447857Y-124134523D01*
X154495476Y-124039285D01*
X154543095Y-123848809D01*
X154543095Y-123705952D01*
X154495476Y-123515476D01*
X154447857Y-123420238D01*
X154352619Y-123325000D01*
X154209761Y-123277380D01*
X154114523Y-123277380D01*
X153971666Y-123325000D01*
X153924047Y-123372619D01*
X153019285Y-124277380D02*
X153495476Y-124277380D01*
X153495476Y-123277380D01*
X148581904Y-120737380D02*
X148010476Y-120737380D01*
X148296190Y-121737380D02*
X148296190Y-120737380D01*
X147677142Y-121737380D02*
X147677142Y-120737380D01*
X147296190Y-120737380D01*
X147200952Y-120785000D01*
X147153333Y-120832619D01*
X147105714Y-120927857D01*
X147105714Y-121070714D01*
X147153333Y-121165952D01*
X147200952Y-121213571D01*
X147296190Y-121261190D01*
X147677142Y-121261190D01*
X146534285Y-121165952D02*
X146629523Y-121118333D01*
X146677142Y-121070714D01*
X146724761Y-120975476D01*
X146724761Y-120927857D01*
X146677142Y-120832619D01*
X146629523Y-120785000D01*
X146534285Y-120737380D01*
X146343809Y-120737380D01*
X146248571Y-120785000D01*
X146200952Y-120832619D01*
X146153333Y-120927857D01*
X146153333Y-120975476D01*
X146200952Y-121070714D01*
X146248571Y-121118333D01*
X146343809Y-121165952D01*
X146534285Y-121165952D01*
X146629523Y-121213571D01*
X146677142Y-121261190D01*
X146724761Y-121356428D01*
X146724761Y-121546904D01*
X146677142Y-121642142D01*
X146629523Y-121689761D01*
X146534285Y-121737380D01*
X146343809Y-121737380D01*
X146248571Y-121689761D01*
X146200952Y-121642142D01*
X146153333Y-121546904D01*
X146153333Y-121356428D01*
X146200952Y-121261190D01*
X146248571Y-121213571D01*
X146343809Y-121165952D01*
X151709285Y-124229761D02*
X151566428Y-124277380D01*
X151328333Y-124277380D01*
X151233095Y-124229761D01*
X151185476Y-124182142D01*
X151137857Y-124086904D01*
X151137857Y-123991666D01*
X151185476Y-123896428D01*
X151233095Y-123848809D01*
X151328333Y-123801190D01*
X151518809Y-123753571D01*
X151614047Y-123705952D01*
X151661666Y-123658333D01*
X151709285Y-123563095D01*
X151709285Y-123467857D01*
X151661666Y-123372619D01*
X151614047Y-123325000D01*
X151518809Y-123277380D01*
X151280714Y-123277380D01*
X151137857Y-123325000D01*
X150709285Y-124277380D02*
X150709285Y-123277380D01*
X150471190Y-123277380D01*
X150328333Y-123325000D01*
X150233095Y-123420238D01*
X150185476Y-123515476D01*
X150137857Y-123705952D01*
X150137857Y-123848809D01*
X150185476Y-124039285D01*
X150233095Y-124134523D01*
X150328333Y-124229761D01*
X150471190Y-124277380D01*
X150709285Y-124277380D01*
X149756904Y-123991666D02*
X149280714Y-123991666D01*
X149852142Y-124277380D02*
X149518809Y-123277380D01*
X149185476Y-124277380D01*
X194476666Y-115037142D02*
X194524285Y-115084761D01*
X194667142Y-115132380D01*
X194762380Y-115132380D01*
X194905238Y-115084761D01*
X195000476Y-114989523D01*
X195048095Y-114894285D01*
X195095714Y-114703809D01*
X195095714Y-114560952D01*
X195048095Y-114370476D01*
X195000476Y-114275238D01*
X194905238Y-114180000D01*
X194762380Y-114132380D01*
X194667142Y-114132380D01*
X194524285Y-114180000D01*
X194476666Y-114227619D01*
X194143333Y-114132380D02*
X193476666Y-114132380D01*
X193905238Y-115132380D01*
X194476666Y-118847142D02*
X194524285Y-118894761D01*
X194667142Y-118942380D01*
X194762380Y-118942380D01*
X194905238Y-118894761D01*
X195000476Y-118799523D01*
X195048095Y-118704285D01*
X195095714Y-118513809D01*
X195095714Y-118370952D01*
X195048095Y-118180476D01*
X195000476Y-118085238D01*
X194905238Y-117990000D01*
X194762380Y-117942380D01*
X194667142Y-117942380D01*
X194524285Y-117990000D01*
X194476666Y-118037619D01*
X193905238Y-118370952D02*
X194000476Y-118323333D01*
X194048095Y-118275714D01*
X194095714Y-118180476D01*
X194095714Y-118132857D01*
X194048095Y-118037619D01*
X194000476Y-117990000D01*
X193905238Y-117942380D01*
X193714761Y-117942380D01*
X193619523Y-117990000D01*
X193571904Y-118037619D01*
X193524285Y-118132857D01*
X193524285Y-118180476D01*
X193571904Y-118275714D01*
X193619523Y-118323333D01*
X193714761Y-118370952D01*
X193905238Y-118370952D01*
X194000476Y-118418571D01*
X194048095Y-118466190D01*
X194095714Y-118561428D01*
X194095714Y-118751904D01*
X194048095Y-118847142D01*
X194000476Y-118894761D01*
X193905238Y-118942380D01*
X193714761Y-118942380D01*
X193619523Y-118894761D01*
X193571904Y-118847142D01*
X193524285Y-118751904D01*
X193524285Y-118561428D01*
X193571904Y-118466190D01*
X193619523Y-118418571D01*
X193714761Y-118370952D01*
X194476666Y-122657142D02*
X194524285Y-122704761D01*
X194667142Y-122752380D01*
X194762380Y-122752380D01*
X194905238Y-122704761D01*
X195000476Y-122609523D01*
X195048095Y-122514285D01*
X195095714Y-122323809D01*
X195095714Y-122180952D01*
X195048095Y-121990476D01*
X195000476Y-121895238D01*
X194905238Y-121800000D01*
X194762380Y-121752380D01*
X194667142Y-121752380D01*
X194524285Y-121800000D01*
X194476666Y-121847619D01*
X194000476Y-122752380D02*
X193810000Y-122752380D01*
X193714761Y-122704761D01*
X193667142Y-122657142D01*
X193571904Y-122514285D01*
X193524285Y-122323809D01*
X193524285Y-121942857D01*
X193571904Y-121847619D01*
X193619523Y-121800000D01*
X193714761Y-121752380D01*
X193905238Y-121752380D01*
X194000476Y-121800000D01*
X194048095Y-121847619D01*
X194095714Y-121942857D01*
X194095714Y-122180952D01*
X194048095Y-122276190D01*
X194000476Y-122323809D01*
X193905238Y-122371428D01*
X193714761Y-122371428D01*
X193619523Y-122323809D01*
X193571904Y-122276190D01*
X193524285Y-122180952D01*
X194952857Y-126467142D02*
X195000476Y-126514761D01*
X195143333Y-126562380D01*
X195238571Y-126562380D01*
X195381428Y-126514761D01*
X195476666Y-126419523D01*
X195524285Y-126324285D01*
X195571904Y-126133809D01*
X195571904Y-125990952D01*
X195524285Y-125800476D01*
X195476666Y-125705238D01*
X195381428Y-125610000D01*
X195238571Y-125562380D01*
X195143333Y-125562380D01*
X195000476Y-125610000D01*
X194952857Y-125657619D01*
X194000476Y-126562380D02*
X194571904Y-126562380D01*
X194286190Y-126562380D02*
X194286190Y-125562380D01*
X194381428Y-125705238D01*
X194476666Y-125800476D01*
X194571904Y-125848095D01*
X193381428Y-125562380D02*
X193286190Y-125562380D01*
X193190952Y-125610000D01*
X193143333Y-125657619D01*
X193095714Y-125752857D01*
X193048095Y-125943333D01*
X193048095Y-126181428D01*
X193095714Y-126371904D01*
X193143333Y-126467142D01*
X193190952Y-126514761D01*
X193286190Y-126562380D01*
X193381428Y-126562380D01*
X193476666Y-126514761D01*
X193524285Y-126467142D01*
X193571904Y-126371904D01*
X193619523Y-126181428D01*
X193619523Y-125943333D01*
X193571904Y-125752857D01*
X193524285Y-125657619D01*
X193476666Y-125610000D01*
X193381428Y-125562380D01*
X194952857Y-130277142D02*
X195000476Y-130324761D01*
X195143333Y-130372380D01*
X195238571Y-130372380D01*
X195381428Y-130324761D01*
X195476666Y-130229523D01*
X195524285Y-130134285D01*
X195571904Y-129943809D01*
X195571904Y-129800952D01*
X195524285Y-129610476D01*
X195476666Y-129515238D01*
X195381428Y-129420000D01*
X195238571Y-129372380D01*
X195143333Y-129372380D01*
X195000476Y-129420000D01*
X194952857Y-129467619D01*
X194000476Y-130372380D02*
X194571904Y-130372380D01*
X194286190Y-130372380D02*
X194286190Y-129372380D01*
X194381428Y-129515238D01*
X194476666Y-129610476D01*
X194571904Y-129658095D01*
X193048095Y-130372380D02*
X193619523Y-130372380D01*
X193333809Y-130372380D02*
X193333809Y-129372380D01*
X193429047Y-129515238D01*
X193524285Y-129610476D01*
X193619523Y-129658095D01*
X81922857Y-107672142D02*
X81970476Y-107719761D01*
X82113333Y-107767380D01*
X82208571Y-107767380D01*
X82351428Y-107719761D01*
X82446666Y-107624523D01*
X82494285Y-107529285D01*
X82541904Y-107338809D01*
X82541904Y-107195952D01*
X82494285Y-107005476D01*
X82446666Y-106910238D01*
X82351428Y-106815000D01*
X82208571Y-106767380D01*
X82113333Y-106767380D01*
X81970476Y-106815000D01*
X81922857Y-106862619D01*
X80970476Y-107767380D02*
X81541904Y-107767380D01*
X81256190Y-107767380D02*
X81256190Y-106767380D01*
X81351428Y-106910238D01*
X81446666Y-107005476D01*
X81541904Y-107053095D01*
X80399047Y-107195952D02*
X80494285Y-107148333D01*
X80541904Y-107100714D01*
X80589523Y-107005476D01*
X80589523Y-106957857D01*
X80541904Y-106862619D01*
X80494285Y-106815000D01*
X80399047Y-106767380D01*
X80208571Y-106767380D01*
X80113333Y-106815000D01*
X80065714Y-106862619D01*
X80018095Y-106957857D01*
X80018095Y-107005476D01*
X80065714Y-107100714D01*
X80113333Y-107148333D01*
X80208571Y-107195952D01*
X80399047Y-107195952D01*
X80494285Y-107243571D01*
X80541904Y-107291190D01*
X80589523Y-107386428D01*
X80589523Y-107576904D01*
X80541904Y-107672142D01*
X80494285Y-107719761D01*
X80399047Y-107767380D01*
X80208571Y-107767380D01*
X80113333Y-107719761D01*
X80065714Y-107672142D01*
X80018095Y-107576904D01*
X80018095Y-107386428D01*
X80065714Y-107291190D01*
X80113333Y-107243571D01*
X80208571Y-107195952D01*
X87002857Y-107672142D02*
X87050476Y-107719761D01*
X87193333Y-107767380D01*
X87288571Y-107767380D01*
X87431428Y-107719761D01*
X87526666Y-107624523D01*
X87574285Y-107529285D01*
X87621904Y-107338809D01*
X87621904Y-107195952D01*
X87574285Y-107005476D01*
X87526666Y-106910238D01*
X87431428Y-106815000D01*
X87288571Y-106767380D01*
X87193333Y-106767380D01*
X87050476Y-106815000D01*
X87002857Y-106862619D01*
X86050476Y-107767380D02*
X86621904Y-107767380D01*
X86336190Y-107767380D02*
X86336190Y-106767380D01*
X86431428Y-106910238D01*
X86526666Y-107005476D01*
X86621904Y-107053095D01*
X85574285Y-107767380D02*
X85383809Y-107767380D01*
X85288571Y-107719761D01*
X85240952Y-107672142D01*
X85145714Y-107529285D01*
X85098095Y-107338809D01*
X85098095Y-106957857D01*
X85145714Y-106862619D01*
X85193333Y-106815000D01*
X85288571Y-106767380D01*
X85479047Y-106767380D01*
X85574285Y-106815000D01*
X85621904Y-106862619D01*
X85669523Y-106957857D01*
X85669523Y-107195952D01*
X85621904Y-107291190D01*
X85574285Y-107338809D01*
X85479047Y-107386428D01*
X85288571Y-107386428D01*
X85193333Y-107338809D01*
X85145714Y-107291190D01*
X85098095Y-107195952D01*
X175363095Y-140787380D02*
X175363095Y-139787380D01*
X175125000Y-139787380D01*
X174982142Y-139835000D01*
X174886904Y-139930238D01*
X174839285Y-140025476D01*
X174791666Y-140215952D01*
X174791666Y-140358809D01*
X174839285Y-140549285D01*
X174886904Y-140644523D01*
X174982142Y-140739761D01*
X175125000Y-140787380D01*
X175363095Y-140787380D01*
X173839285Y-140787380D02*
X174410714Y-140787380D01*
X174125000Y-140787380D02*
X174125000Y-139787380D01*
X174220238Y-139930238D01*
X174315476Y-140025476D01*
X174410714Y-140073095D01*
X108093095Y-104552380D02*
X108093095Y-103552380D01*
X107855000Y-103552380D01*
X107712142Y-103600000D01*
X107616904Y-103695238D01*
X107569285Y-103790476D01*
X107521666Y-103980952D01*
X107521666Y-104123809D01*
X107569285Y-104314285D01*
X107616904Y-104409523D01*
X107712142Y-104504761D01*
X107855000Y-104552380D01*
X108093095Y-104552380D01*
X106664523Y-103885714D02*
X106664523Y-104552380D01*
X106902619Y-103504761D02*
X107140714Y-104219047D01*
X106521666Y-104219047D01*
X149232857Y-110942380D02*
X149566190Y-110466190D01*
X149804285Y-110942380D02*
X149804285Y-109942380D01*
X149423333Y-109942380D01*
X149328095Y-109990000D01*
X149280476Y-110037619D01*
X149232857Y-110132857D01*
X149232857Y-110275714D01*
X149280476Y-110370952D01*
X149328095Y-110418571D01*
X149423333Y-110466190D01*
X149804285Y-110466190D01*
X148851904Y-110037619D02*
X148804285Y-109990000D01*
X148709047Y-109942380D01*
X148470952Y-109942380D01*
X148375714Y-109990000D01*
X148328095Y-110037619D01*
X148280476Y-110132857D01*
X148280476Y-110228095D01*
X148328095Y-110370952D01*
X148899523Y-110942380D01*
X148280476Y-110942380D01*
X147947142Y-109942380D02*
X147328095Y-109942380D01*
X147661428Y-110323333D01*
X147518571Y-110323333D01*
X147423333Y-110370952D01*
X147375714Y-110418571D01*
X147328095Y-110513809D01*
X147328095Y-110751904D01*
X147375714Y-110847142D01*
X147423333Y-110894761D01*
X147518571Y-110942380D01*
X147804285Y-110942380D01*
X147899523Y-110894761D01*
X147947142Y-110847142D01*
X156852857Y-110942380D02*
X157186190Y-110466190D01*
X157424285Y-110942380D02*
X157424285Y-109942380D01*
X157043333Y-109942380D01*
X156948095Y-109990000D01*
X156900476Y-110037619D01*
X156852857Y-110132857D01*
X156852857Y-110275714D01*
X156900476Y-110370952D01*
X156948095Y-110418571D01*
X157043333Y-110466190D01*
X157424285Y-110466190D01*
X156471904Y-110037619D02*
X156424285Y-109990000D01*
X156329047Y-109942380D01*
X156090952Y-109942380D01*
X155995714Y-109990000D01*
X155948095Y-110037619D01*
X155900476Y-110132857D01*
X155900476Y-110228095D01*
X155948095Y-110370952D01*
X156519523Y-110942380D01*
X155900476Y-110942380D01*
X155567142Y-109942380D02*
X154900476Y-109942380D01*
X155329047Y-110942380D01*
X183610238Y-145962619D02*
X183705476Y-145915000D01*
X183800714Y-145819761D01*
X183943571Y-145676904D01*
X184038809Y-145629285D01*
X184134047Y-145629285D01*
X184086428Y-145867380D02*
X184181666Y-145819761D01*
X184276904Y-145724523D01*
X184324523Y-145534047D01*
X184324523Y-145200714D01*
X184276904Y-145010238D01*
X184181666Y-144915000D01*
X184086428Y-144867380D01*
X183895952Y-144867380D01*
X183800714Y-144915000D01*
X183705476Y-145010238D01*
X183657857Y-145200714D01*
X183657857Y-145534047D01*
X183705476Y-145724523D01*
X183800714Y-145819761D01*
X183895952Y-145867380D01*
X184086428Y-145867380D01*
X182705476Y-145867380D02*
X183276904Y-145867380D01*
X182991190Y-145867380D02*
X182991190Y-144867380D01*
X183086428Y-145010238D01*
X183181666Y-145105476D01*
X183276904Y-145153095D01*
M02*
